<svg class="icon" viewBox="0 0 1024 1024" xmlns="http://www.w3.org/2000/svg" width="81" height="81"><path d="M533.333 934.343C300.073 934.343 110.99 745.26 110.99 512S300.074 89.657 533.333 89.657 955.676 278.74 955.676 512c0 140.781-140.78 187.749-281.562 187.749s-140.78 46.967-93.813 93.813c46.846 46.846 214.57 140.781-46.968 140.781zM791.351 512c25.122 0 48.424-13.471 60.924-35.195 12.622-21.724 12.622-48.667 0-70.39s-35.802-35.196-60.924-35.196c-38.836 0-70.39 31.554-70.39 70.39S752.514 512 791.35 512zm-140.66-187.749c25.122 0 48.424-13.47 60.925-35.195 12.621-21.724 12.621-48.666 0-70.39s-35.803-35.196-60.925-35.196c-38.836 0-70.39 31.555-70.39 70.391 0 38.957 31.433 70.39 70.39 70.39zm-234.716 0c25.122 0 48.424-13.47 60.925-35.195 12.621-21.724 12.621-48.666 0-70.39s-35.803-35.196-60.925-35.196c-38.836 0-70.39 31.555-70.39 70.391 0 38.957 31.554 70.39 70.39 70.39zM275.315 512c25.123 0 48.424-13.471 60.925-35.195 12.622-21.724 12.622-48.667 0-70.39s-35.802-35.196-60.924-35.196c-38.836 0-70.39 31.554-70.39 70.39S236.357 512 275.315 512zm0 0" fill="#FFC152"/><path d="M719.504 442.823a72.09 72.09 0 10144.18 0 72.09 72.09 0 10-144.18 0z" fill="#FF6994"/><path d="M579.694 256.41a72.09 72.09 0 10144.18 0 72.09 72.09 0 10-144.18 0zm-237.386-4.37a72.09 72.09 0 10144.18 0 72.09 72.09 0 10-144.18 0zM202.497 442.823a72.09 72.09 0 10144.18 0 72.09 72.09 0 10-144.18 0z" fill="#FAFAF2"/></svg>