<svg class="icon" viewBox="0 0 1024 1024" xmlns="http://www.w3.org/2000/svg" width="81" height="81"><path d="M763.844 829.578H278.338a55.545 55.545 0 000 111.089h474.075a48.758 48.758 0 0048.758-48.794v-62.295z" fill="#93A8FF"/><path d="M733.232 275.561l-116.126-80.263H475.333l145.488 175.278v458.966h180.35V405.189a157.632 157.632 0 00-67.868-129.664z" fill="#237BFF"/><path d="M458.688 174.867a79.513 79.513 0 00-84.62-25.469l-10.038 3.072-77.977 23.647-58.366 17.681a3.858 3.858 0 00-2.179 5.751l170.349 273.972a6.001 6.001 0 007.75 2.25l18.29-8.822 36.577-17.86 107.981-52.294 54.33-26.29-162.097-195.781z" fill="#C9E5EE"/><path d="M458.688 174.867a79.513 79.513 0 00-84.62-25.469l-10.038 3.072-77.977 23.647-58.366 17.681a3.858 3.858 0 00-2.179 5.751l170.349 273.972a6.001 6.001 0 007.75 2.25l18.29-8.822 36.577-17.86 107.981-52.294 54.33-26.29-162.097-195.781z" fill="#237BFF"/><path d="M421.86 466.949v85.477a1.286 1.286 0 001.25 1.25h142.095a1.25 1.25 0 001.25-1.25V396.938l-144.594 70.01z" fill="#93A8FF"/><path d="M363.959 152.47l-77.977 23.647-56.402-91.622a5.322 5.322 0 011.75-7.144l57.902-35.72a5.287 5.287 0 017.144 1.715zm399.849 380.24a53.366 53.366 0 11-53.33-53.367 53.366 53.366 0 0153.366 53.402zm-242.896 66.83h-53.365a.25.25 0 01-.25-.25v-45.65h53.83v45.65z" fill="#FFE37B"/></svg>