<svg class="icon" viewBox="0 0 1024 1024" xmlns="http://www.w3.org/2000/svg" width="81" height="81"><path d="M91.87 90.125h840.114V933.73H91.871z" fill="#D9251C"/><path d="M483.274 90.125a141.376 141.376 0 00-13.236 61.38c0 47.125 18.472 85.524 41.162 85.524s41.162-38.254 41.162-85.379a141.376 141.376 0 00-11.781-61.525z" fill="#FFF"/><path d="M205.208 301.485a46.253 175.702 72.83 10335.744-103.737 46.253 175.702 72.83 10-335.744 103.737z" fill="#FFF"/><path d="M634.205 292.55a175.702 45.671 17.17 1026.965-87.271 175.702 45.671 17.17 10-26.965 87.271z" fill="#FFF"/><path d="M310.044 307.571s88.288 116.36 141.813 136.286c0 0-184.575 134.54-205.52 490.018h88.143s16.435-318.097 189.084-443.62c0 0 123.195-2.763 143.703 443.62h101.815s-6.4-358.096-166.394-498.163a354.605 354.605 0 0087.27-133.959L610.25 271.21s-25.453 79.27-63.707 109.814c-27.199 21.817-44.507 8.145-44.507 8.145s-103.123-68.506-102.687-111.85-89.306 30.253-89.306 30.253z" fill="#FFF"/></svg>