<svg class="icon" viewBox="0 0 1024 1024" xmlns="http://www.w3.org/2000/svg" width="81" height="81"><path d="M750.12 173.206c-112.2 0-205.05 83.419-219.937 191.644 42.188.506 82.913 8.438 120.15 23.344 2.475-5.456 7.444-9.432 15.375-9.432h7.95c-7.95-10.93-10.912-24.824-10.912-39.224 0-45.675 40.2-77.438 92.344-77.438 64.537 0 95.325 34.744 95.325 63.037 0 16.388-11.438 25.82-27.807 25.82-32.268 0-12.412-44.682-62.062-44.682-21.844 0-42.188 12.9-42.188 36.75 0 12.394 6.432 24.806 11.907 36.225h40.218c14.888 0 22.838 5.475 22.838 17.888 0 11.906-7.95 17.362-22.838 17.362h-28.8c.994 3 1.988 5.475 1.988 8.944 0 5.962-1.5 11.925-3.975 17.381a347.423 347.423 0 0133.75 32.269c10.444 1.987 19.369 4.462 29.812 4.462 5.944 0 21.338-3.975 27.3-3.975 13.407 0 21.338 10.444 21.338 23.344 0 20.85-18.375 29.794-37.725 30.787a300.656 300.656 0 0130.787 68.007c74.963-35.738 127.088-112.2 127.088-200.569 0-122.625-99.788-221.944-221.925-221.944zM310.734 283.438V344c18.375-.994 37.725-9.938 37.725-29.775 0-20.869-20.85-26.813-37.725-30.787zm-52.65-72.488c0 15.375 11.42 24.319 34.257 28.8v-54.619c-20.85.488-34.257 12.9-34.257 25.819z" fill="#4898FF"/><path d="M416.97 747.163c0-9.938 7.445-17.382 17.382-17.382h56.1v-12.918l-7.444-12.9H434.84a16.969 16.969 0 01-17.363-17.382c0-9.937 7.444-17.381 17.363-17.381h27.318l-59.587-97.8c-2.981-5.456-6.45-12.413-6.45-18.375 0-24.825 22.837-32.756 38.719-32.756 18.88 0 27.318 14.887 30.787 21.337l60.563 115.181 60.58-115.18c3-6.45 11.926-21.338 30.788-21.338 15.882 0 38.72 7.931 38.72 32.756 0 6.45-2.982 12.919-6.45 18.375l-59.57 97.8h27.3c9.938 0 17.382 7.463 17.382 17.381 0 9.938-7.444 17.382-17.382 17.382H569.39l-7.444 12.9v12.918h56.1c9.937 0 17.381 7.444 17.381 17.382s-7.444 17.362-17.381 17.362h-56.1v44.7c0 21.844-12.9 36.244-35.738 36.244-22.35 0-35.756-14.4-35.756-36.244v-44.7h-56.1a16.969 16.969 0 01-17.381-17.362zM525.72 404.58c-152.924 0-277.555 124.613-277.555 277.538s124.63 277.537 277.537 277.537c152.925 0 277.538-124.612 277.538-277.537 0-152.925-124.125-277.538-277.538-277.538z" fill="#F9BA32"/><path d="M473.577 369.312a270.75 270.75 0 0149.144-133.05C500.39 136.962 411.515 62 305.765 62 183.14 62 83.333 161.787 83.333 283.925c0 106.762 75.47 195.637 175.763 216.975 50.625-68.512 127.087-117.187 214.481-131.569zm-162.844 5.982v18.862c0 4.969-3.975 10.425-9.45 10.425-4.95 0-8.925-4.969-8.925-10.425v-18.862c-51.637-.994-77.437-32.288-77.437-56.119 0-12.413 7.425-19.35 18.844-19.35 34.256 0 7.443 42.188 58.593 44.175v-64.05c-45.187-8.437-72.993-28.294-72.993-62.063 0-41.7 34.762-63.037 72.993-64.03v-16.388c0-5.456 3.975-10.425 8.925-10.425 4.97 0 9.45 4.968 9.45 10.425v16.387c23.813.488 72.975 15.375 72.975 45.675 0 11.907-8.943 18.863-19.368 18.863-19.857 0-19.857-32.775-53.625-33.263v58.088c40.218 8.437 75.975 20.362 75.975 67.519.487 41.212-30.282 62.062-75.957 64.556z" fill="#4898FF"/></svg>