<svg class="icon" viewBox="0 0 1024 1024" xmlns="http://www.w3.org/2000/svg" width="81" height="81"><path d="M729.707 565.689l109.226 87.36c10.88 8.213 10.88 27.307 0 34.133L553.6 882.382c-8.213 5.44-17.707 5.44-23.253 0l-285.334-195.2c-10.88-8.213-10.88-27.306 0-34.133l139.307-91.52c8.213-5.44 17.707-5.44 23.253 0l121.494 64.213c8.213 5.44 17.706 5.44 23.253 0l151.467-60.053c8.106-5.44 17.706-5.44 25.92 0zm0 0" fill="#92D6FF"/><path d="M523.52 116.516L145.28 374.542c-17.707 10.88-17.707 38.187 0 50.56l177.493 121.494L523.52 683.129c9.6 8.213 24.533 8.213 34.133 0L758.4 546.596l177.493-121.494c17.707-10.88 17.707-38.186 0-50.56l-378.24-258.026c-10.88-5.547-24.533-5.547-34.133 0zM116.693 451.022c-19.093 0-36.906 15.04-36.906 36.907s15.04 36.907 36.906 36.907 36.907-15.04 36.907-36.907c-.107-21.973-17.813-36.907-36.907-36.907zm1.28 98.24h-4.053L75.733 885.156c-1.386 10.88 9.6 23.253 21.867 23.253h38.187c13.653 0 23.253-10.88 21.866-23.253l-39.68-335.894zm0 0" fill="#30AAFF"/></svg>