<svg class="icon" viewBox="0 0 1024 1024" xmlns="http://www.w3.org/2000/svg" width="81" height="81"><path d="M536.619 890.426V638.769l202.445-150.972c7.863-5.76 11.657-14.765 9.92-23.634-1.737-8.868-8.685-16.251-18.285-19.383a31.771 31.771 0 00-28.229 4.275L536.619 571.34V267.866c0-13.897-12.8-25.166-28.572-25.166-15.817 0-28.617 11.269-28.617 25.143V702.7l-154.4-121.805c-11.68-9.44-29.851-8.778-40.594 1.508s-9.989 26.286 1.714 35.749l192.709 154.994v119.291c-185.852-10.582-331.68-107.702-331.68-274.788C147.75 437.466 513.19 69.58 513.19 69.58s365.417 367.886 365.417 545.555c0 177.645-151.543 267.725-341.988 275.291z" fill="#5DC7BB"/><path d="M570.114 64.899c-15.021-15-36.771-23.593-59.635-23.593-22.843 0-44.572 8.593-59.615 23.571C391.23 124.192 94.143 429.335 94.143 608.542c0 188.871 170.978 321.664 416.357 321.664 245.357 0 416.336-131.871 416.336-321.664 0-179.207-297.086-484.35-356.722-543.643zm-36.321 819.214V639.442l201.15-146.786c7.821-5.571 11.571-14.357 9.857-22.971-1.714-8.636-8.657-15.815-18.193-18.858a32.121 32.121 0 00-28.028 4.158L533.793 573.892V278.799c0-13.5-12.707-24.429-28.393-24.429-15.707 0-28.414 10.929-28.414 24.429v422.786L323.557 583.149c-11.593-9.172-29.657-8.529-40.328 1.478s-9.9 25.543 1.714 34.736L476.407 770.07v115.972C291.757 875.756 146.88 781.32 146.88 618.87c.556-175.157 363.64-532.843 363.64-532.843s363.065 357.686 363.065 530.4c0 172.715-150.579 260.315-339.793 267.643z" fill="#FFF"/></svg>