<svg class="icon" viewBox="0 0 1024 1024" xmlns="http://www.w3.org/2000/svg" width="81" height="81"><path d="M341.094 200.188c7.594 0 14.25-2.625 19.219-7.688 4.687-4.594 7.218-10.875 7.218-17.438 0-7.218-3-13.78-8.344-18.562-4.968-4.406-11.437-6.563-19.03-6.563H123.78c-16.125 0-26.531 9.844-26.531 25.125s10.406 25.125 26.531 25.125h217.313zM437.563 431H197.375c-3.844 0-6.188-.375-7.5-.656-.281-.938-.563-2.625-.563-5.25V390.5c0-8.063-3.28-15.281-9.093-20.25-4.969-4.688-11.25-7.125-18.281-7.125-7.125 0-13.594 2.531-18.563 7.406-5.531 5.063-8.438 12-8.438 20.063v36.937c0 15.469 4.97 28.406 14.72 38.625 9.937 10.313 23.25 15.563 39.468 15.563h248.344c15.562 0 25.594-10.031 25.594-25.594.093-15.281-10.032-25.125-25.5-25.125zM321.03 231.312c-.094 0-.094-.093-.187-.093-21.844-14.156-51.188-21.281-87.094-21.281-36.844 0-66.469 7.218-88.125 21.375l-.094.093c-21.844 14.813-32.906 33.938-32.906 56.906 0 22.125 11.438 41.25 33 55.125 21.656 14.532 51.281 21.844 88.125 21.844 35.906 0 65.25-7.312 87.094-21.75 21.656-13.969 33.094-33 33.094-55.219 0-23.062-11.063-42.187-32.907-57zm-34.312 73.032c-12.188 6.75-30 10.125-52.969 10.125-23.344 0-41.438-3.375-53.906-10.125-11.53-6.281-12.843-12.188-12.843-16.125 0-4.688 1.5-10.969 12.938-17.531 12.468-6.657 30.562-10.125 53.812-10.125 22.969 0 40.781 3.375 52.969 10.125 11.344 6.187 12.844 12.562 12.844 17.437.093 3.938-1.313 9.844-12.844 16.219zM172.906 143.75H293c10.031 0 15.938-3.938 19.125-7.313 3.094-3.28 6.75-9.093 6.469-18.562-.094-15.094-10.5-24.844-26.531-24.844H172.906c-16.125 0-26.531 9.844-26.531 25.125 0 15.563 10.406 25.594 26.531 25.594zm314.906 79.406a9.184 9.184 0 00-4.875-1.406h-40.312V110.844c0-15.75-10.781-25.969-27.375-25.969-16.406 0-27 10.219-27 26.063v251.53c0 8.063 2.906 15 8.438 20.063 4.968 4.781 11.343 7.406 18.562 7.406 7.031 0 13.313-2.437 18.281-7.125 5.906-4.968 9.094-12.187 9.094-20.25v-89.906h35.813c15.562 0 25.593-10.031 25.593-25.594 0-11.812-6.094-20.718-16.219-23.906zm419.532 218.531L758.28 122c-4.593-9.844-14.625-16.219-25.5-16.219h-33.656c-10.781 0-20.813 6.281-25.406 16.125L522.687 441.594c-4.125 8.719-3.468 18.844 1.688 27.094 5.156 8.156 14.063 13.03 23.719 13.03h7.125c10.781 0 20.812-6.28 25.406-16.124l46.5-98.25c.094-.188.281-.375.563-.375H803c.188 0 .469.187.563.375l46.968 98.344c4.688 9.75 14.625 16.03 25.407 16.03h6c9.656 0 18.562-4.874 23.718-13.03s5.813-18.282 1.688-27zm-132.75-139.406c-.188.281-.188.281-.469.281h-117c-.281 0-.375 0-.469-.28-.187-.188-.187-.282 0-.563L714.5 179.563c.188-.282.188-.282.563-.375.28 0 .375.093.468.375l59.063 122.156c.187.281.187.375 0 .562zm83.812 315.188c-33.843-32.625-80.343-49.782-134.625-49.782-61.875 0-114.75 19.782-152.906 57.188-37.031 36.281-57.375 87.844-57.375 145.219 0 77.718 39.469 132 96 132 23.344 0 44.625-8.25 60.094-23.157 16.031-15.093 30.187-35.437 47.062-85.218v-.094c14.25-43.5 24.094-100.313 28.782-164.906 28.218 3.468 52.218 14.906 69.656 33.281 19.875 21 30.375 49.594 30.375 82.969 0 37.968-15.469 71.343-42.375 91.406-18.563 13.781-49.125 24.656-81.657 29.063h-.468c-16.5 2.906-27.282 14.906-27.282 30.75 0 1.687 0 4.5.75 7.406 2.907 16.125 15.094 26.062 31.875 26.062 1.594 0 4.313 0 7.407-.656 38.718-5.906 71.437-17.156 97.125-33.563 51.656-32.812 78.937-84.562 78.937-149.718.094-51.375-17.718-95.813-51.375-128.25zM655.25 772.812c-11.531 34.97-20.906 49.032-26.813 54.657l-.187.187c-5.906 5.907-12.188 8.719-19.688 8.719-7.218 0-14.25-4.969-19.968-14.063-7.875-12.468-12-30.656-12-52.687 0-38.531 11.437-72.188 33.093-97.406 18.188-21.094 42.75-35.063 71.532-40.875-3.844 51.187-13.313 103.312-25.969 141.468zM389.281 606.22c-20.25 0-33.375 11.906-33.375 30.187v145.407c0 18.656-4.687 32.812-16.031 48.937-16.406 22.688-36.188 33.75-60.375 33.75-16.219 0-27.938-4.781-35.719-14.625-7.969-10.031-12-25.594-12-46.125V636.406c0-18.375-13.125-30.187-33.375-30.187s-33.375 11.906-33.375 30.187v177.282c0 70.03 39.281 111.843 105 111.843 36.094 0 65.344-12.187 86.344-35.718v2.343c0 17.438 13.125 28.688 33.375 28.688 19.594 0 32.344-11.907 32.344-30.282V636.407c0-18.375-12.844-30.187-32.813-30.187zm-103.594-56.063c0-22.406-18.28-40.687-40.687-40.687s-40.688 18.281-40.688 40.687 18.282 40.688 40.688 40.688 40.688-18.282 40.688-40.688zm99.282 0c0-22.406-18.281-40.687-40.688-40.687s-40.687 18.281-40.687 40.687 18.281 40.688 40.687 40.688 40.688-18.282 40.688-40.688z" fill="#8a8a8a"/></svg>