<svg class="icon" viewBox="0 0 1024 1024" xmlns="http://www.w3.org/2000/svg" width="81" height="81"><path d="M982.694 765.109c0 166.348-210.75 207.126-470.694 207.126S41.306 931.457 41.306 765.109 252.056 369.757 512 369.757 982.694 598.76 982.694 765.109z" fill="#C7F1FF"/><path d="M119.755 497.269a387.067 387.067 0 10774.134 0 387.067 387.067 0 10-774.134 0z" fill="#00B1FF"/><path d="M773.885 506.59c-2.33-30.81 43.885-64.08 32.105-89.065-11.91-24.984-19.03-9.45-32.105-48.674-6.732-20.066-3.366-31.587 1.295-38.19-10.616-17.087-22.914-33.14-36.506-47.897-18.253.518-26.409 8.285-43.238 2.977-22.525-7.12-22.525 78.32-55.795 52.17-33.27-26.15-19.03-28.48-27.573-60.066-8.674-31.587-53.076-1.683-67.316-15.923s-24.985-39.225-37.93-30.81-30.81 22.525-59.16 41.554c-28.35 19.03 24.855 60.585 50.875 59.29 26.15-1.165 17.864-37.93 21.36-46.344 3.624-8.285 19.03 14.24 33.27 0s24.984 16.57 36.764 41.554c11.91 24.985 51.005 10.745 35.6 35.6-15.405 24.985-27.315 4.79-68.87 8.285-41.554 3.625-14.24 37.93-45.05 54.63-30.81 16.57 9.45 26.15-4.79 34.435s-27.314-9.45-53.464-10.745c-26.15-1.165-8.285 32.104 26.15 47.51 34.435 15.404 28.48 14.24 46.345 9.45 2.33-.648 4.013-.13 5.178 1.165 15.405-2.719 31.328 2.589 42.46 13.722 2.978 2.977 6.214 6.084 9.321 8.803 10.745 9.45 22.525 20.194 28.48 32.104 5.955 11.91 17.865 26.15 56.96 26.15s87.899 9.45 56.96 29.645c-30.81 20.195-26.15 42.72-37.413 58.642-11.262 15.923-14.757 27.962-48.027 46.992-33.27 19.03-17.865 37.93-41.037 40.778-23.172 2.848-27.833 25.632-53.982 22.137-26.15-3.625-13.075-37.93-14.24-59.29-1.165-21.36 20.195-43.885 13.851-66.54s-60.066-40.26-37.541-66.41c14.24-16.57 11.392-31.586 8.026-46.214-1.165-.26-2.33-1.036-3.236-2.46-10.745-15.405-28.48-5.955-70.035-32.104s-55.794-26.15-78.06-38.707c-22.267-12.557-25.244-32.493-48.934-57.348-23.69-24.855-9.45-82.98-54.5-117.415-43.238 54.241-69.128 122.722-69.128 197.288 0 7.767.258 15.534.906 23.302 7.508 2.2 16.052 7.378 25.502 17.087 37.542 38.578-9.45 14.758 56.7 53.206s91.395-12.04 118.063 75.73c22.007 72.495-40.778 63.303-73.4 84.404 52.558 39.095 117.673 62.268 188.225 62.268 146.283 0 269.394-99.55 305.252-234.441-1.294.388-2.589.518-3.754.388-26.279-1.294-32.234-41.684-34.564-72.624z" fill="#BBEAFF"/><path d="M314.583 417.655c23.69 24.984 26.667 44.79 48.933 57.348 22.267 12.686 36.506 12.686 78.061 38.706s59.29 16.57 70.035 32.105c1.035 1.424 2.07 2.2 3.236 2.46-1.942-8.415-4.143-16.7-3.236-24.985.906-9.062 8.932-13.334 18.123-15.146.389-.13.777-.13 1.295-.259-1.036-1.295-2.719-1.812-5.178-1.165-17.865 4.79-11.91 5.955-46.345-9.45s-52.17-48.675-26.15-47.51c26.15 1.165 39.225 19.03 53.465 10.745s-26.15-17.865 4.79-34.435c30.81-16.57 3.624-51.005 45.05-54.63 41.554-3.624 53.464 16.57 68.869-8.284 15.405-24.985-23.69-10.745-35.6-35.6-11.91-24.985-22.525-55.795-36.765-41.555s-29.645-8.285-33.27 0c-3.624 8.285 4.79 45.05-21.36 46.345-26.149 1.165-79.225-40.39-50.875-59.29 28.35-19.03 46.215-33.27 59.16-41.555s23.69 16.57 37.93 30.81 58.643-15.664 67.317 15.923c8.673 31.587-5.567 33.917 27.573 60.067 33.27 26.15 33.27-59.29 55.795-52.17 16.7 5.307 24.985-2.46 43.238-2.978-57.737-62.397-140.199-101.492-231.982-101.492-99.938 0-189.002 46.345-246.868 118.839 45.18 34.046 30.94 92.171 54.759 117.156z" fill="#7BD721"/><path d="M514.848 548.274c3.366 14.628 6.214 29.645-8.026 46.215-22.525 26.15 31.198 43.884 37.541 66.41 6.344 22.654-15.016 45.179-13.851 66.539 1.165 21.36-11.91 55.794 14.24 59.29 26.15 3.624 30.68-19.29 53.982-22.137 23.172-2.848 7.767-21.878 41.037-40.778 33.27-19.03 36.765-31.069 48.027-46.992 11.263-15.923 6.602-38.448 37.412-58.642 30.81-20.195-17.864-29.645-56.96-29.645s-51.004-14.24-56.959-26.15c-5.955-11.91-17.865-22.525-28.48-32.104-3.107-2.719-6.343-5.826-9.32-8.803-11.263-11.133-27.056-16.441-42.461-13.722 6.213 7.767-6.732 42.46-16.182 40.519z" fill="#6EC11D"/><path d="M512 525.62c-.906 9.061 1.424 18.123 3.625 27.314 10.356 2.071 24.466-35.73 17.605-44.144-.517.13-.906.13-1.424.26-10.097 2.07-18.77 6.73-19.806 16.57z" fill="#6EC11D"/><path d="M775.18 330.662c-4.79 6.602-8.027 18.253-1.295 38.189 13.075 39.224 20.195 23.69 32.105 48.674 11.91 24.985-34.435 58.125-32.105 89.064 2.33 30.81 8.285 71.2 34.435 72.365 1.165 0 2.46-.13 3.754-.388 6.861-26.02 10.615-53.206 10.615-81.427 0-60.972-17.347-118.062-47.51-166.477zM391.867 666.465c-26.538-87.77-51.911-37.283-118.062-75.73s-19.16-14.5-56.7-53.206c-9.45-9.71-17.995-14.887-25.503-17.088 6.86 94.372 55.147 177.093 126.735 230.428 32.881-21.101 95.537-11.91 73.53-84.404z" fill="#FFD500"/><path d="M725.47 164.572c-18.254 47.51-113.014 110.036-137.61 100.586-23.172-8.932-52.817-119.356-34.435-166.866s71.718-71.2 119.227-52.817c47.51 18.253 71.2 71.588 52.817 119.097z" fill="#EF8686"/><path d="M590.19 138.94a46.474 46.474 0 1092.948 0 46.474 46.474 0 10-92.948 0z" fill="#FFF"/></svg>