<svg class="icon" viewBox="0 0 1024 1024" xmlns="http://www.w3.org/2000/svg" width="81" height="81"><path d="M218.522 681.557c-95.38 0-128.397 35.698-128.397 89.243s33.017 89.24 128.397 89.24c95.378 0 128.395-35.695 128.395-89.24s-33.017-89.243-128.395-89.243m697.009-464.052H842.16c-11.007 0-18.34 7.14-18.34 17.847v89.242h-36.688V199.655c0-10.71-7.333-17.846-18.338-17.846h-73.371c-11.007 0-18.344 7.136-18.344 17.846v89.243h-36.684v-89.243c0-10.71-7.337-17.846-18.344-17.846h-73.365c-11.007 0-18.346 7.136-18.346 17.846v89.243h-36.682v-53.545c0-10.708-7.338-17.847-18.343-17.847h-73.37c-11.007 0-18.34 7.14-18.34 17.847v89.24h-36.688V253.2c0-53.544-33.017-89.24-128.395-89.24-95.38 0-128.397 35.696-128.397 89.24v428.358c29.348-24.987 69.7-35.696 128.397-35.696 58.695 0 99.05 10.71 128.395 35.695V645.86h36.686v89.24c0 10.712 7.335 17.852 18.342 17.852h73.37c11.004 0 18.343-7.14 18.343-17.852V610.166h36.683v89.24c0 10.708 7.338 17.848 18.345 17.848h73.365c11.007 0 18.344-7.14 18.344-17.848v-89.24h36.684v89.24c0 10.708 7.337 17.848 18.344 17.848h73.371c11.005 0 18.338-7.14 18.338-17.848v-53.545h36.689V735.1c0 10.712 7.332 17.852 18.339 17.852h73.372c11.005 0 18.343-7.14 18.343-17.852V235.353c0-10.708-7.338-17.847-18.343-17.847M383.603 610.165H346.92V360.293h36.683v249.873zm146.737-35.698h-36.682V324.594h36.684v249.874zm146.74 0h-36.685V324.594h36.684v249.874zm146.74 35.698h-36.683V360.293h36.684v249.873z" fill="#FFAC27"/></svg>