<svg t="1597159435440" class="icon" viewBox="0 0 1024 1024" version="1.1" xmlns="http://www.w3.org/2000/svg" p-id="5701" width="81" height="81"><path d="M874.8228125 349.8125H740.75v113.4375h75.9375v58.125h-75.9375v68.4375h75.9375v60h-75.9375v63.75h75.9375v59.0625h-75.9375v91.875h190.3125V408.75125C931.0625 376.1928125 906.395 349.8125 874.8228125 349.8125zM285.125 772.625h-76.875v-59.0625h76.875v-63.75h-76.875v-60h76.875v-68.4375h-76.875v-58.125h76.875V349.8125H150.7175C119.1453125 349.8125 92.9375 376.1928125 92.9375 408.75125V864.5h192.1875v-91.875z" fill="#BDCCD4" p-id="5702"></path><path d="M740.75 772.293125V150.0153125C740.75 117.456875 714.20375 91.0625 681.6453125 91.0625h-337.340625C311.74625 91.0625 285.125 117.456875 285.125 150.0153125V864.5H92.9375v65.625h838.125v-65.625H740.75v-92.206875zM407.9375 212h72.1875v-72.1875h65.625v72.1875h72.1875v65.625h-72.1875v71.25h-65.625v-71.25h-72.1875v-65.625z m24.375 205.3125h64.6875v65.625h-64.6875v-65.625z m162.1875 65.625h-65.625v-65.625h65.625v65.625z m96.5625 0h-65.625v-65.625h65.625v65.625z m-355.3125-65.625h64.6875v65.625h-64.6875v-65.625z m96.5625 130.3125h64.6875v65.625h-64.6875v-65.625z m162.1875 65.625h-65.625v-65.625h65.625v65.625z m96.5625 0h-65.625v-65.625h65.625v65.625z m-355.3125-65.625h64.6875v65.625h-64.6875v-65.625z m96.5625 129.375h64.6875v65.625h-64.6875v-65.625z m162.1875 65.625h-65.625v-65.625h65.625v65.625z m96.5625 0h-65.625v-65.625h65.625v65.625z m-355.3125-65.625h64.6875v65.625h-64.6875v-65.625z m64.6875 186.5625h-64.6875v-64.6875h64.6875v64.6875z m96.5625 0h-64.6875v-64.6875h64.6875v64.6875z m97.5 0h-65.625v-64.6875h65.625v64.6875z m96.5625 0h-65.625v-64.6875h65.625v64.6875z" fill="#F45656" p-id="5703"></path><path d="M335.75 417.3125h64.6875v65.625h-64.6875zM432.3125 417.3125h64.6875v65.625h-64.6875zM528.875 417.3125h65.625v65.625h-65.625zM625.4375 417.3125h65.625v65.625h-65.625zM335.75 547.625h64.6875v65.625h-64.6875zM432.3125 547.625h64.6875v65.625h-64.6875zM528.875 547.625h65.625v65.625h-65.625zM625.4375 547.625h65.625v65.625h-65.625zM335.75 677h64.6875v65.625h-64.6875zM432.3125 677h64.6875v65.625h-64.6875zM528.875 677h65.625v65.625h-65.625zM625.4375 677h65.625v65.625h-65.625zM335.75 798.875h64.6875v64.6875h-64.6875zM432.3125 798.875h64.6875v64.6875h-64.6875zM528.875 798.875h65.625v64.6875h-65.625zM625.4375 798.875h65.625v64.6875h-65.625z" fill="#BDCCD4" p-id="5704"></path></svg>