<svg class="icon" viewBox="0 0 1024 1024" xmlns="http://www.w3.org/2000/svg" width="81" height="81"><path d="M255.40000000000003 257.1a192.7 192.7 0 10385.4 0 192.7 192.7 0 10-385.4 0z" fill="#0C2B4A"/><path d="M703.1 546.1c-64.6-57.6-148.9-93.6-241.5-96.7-4.3-.2-8.6-.2-12.9-.2-4.6 0-9.2.1-13.7.3h-.1c-94.9 3.4-181 41.3-246 101.6-65.1 60.3-109.2 143-120 235.8-2.8 23.9 15.8 44.8 39.9 44.8H546c-5.7-20.1-8.7-41.3-8.7-63.1-.1-105.2 69.9-194 165.8-222.5zM447.2 806.6l-47-47 30.5-225.5-26.4-26.4c-5.3-5.3-5.3-14 0-19.3l12.7-12.7c3.4-3.4 8.1-5.3 12.9-5.3h34.8c4.8 0 9.5 1.9 12.9 5.3l12.7 12.7c5.3 5.3 5.3 13.9 0 19.3l-26.4 26.4 30.5 225.5-47.2 47zm365.9-39.9c0 24.3-19.7 44-44 44s-44-19.7-44-44 19.7-44 44-44 44 19.7 44 44z" fill="#0C2B4A"/><path d="M769.2 577.6c-105.5 0-191 85.5-191 191s85.5 191 191 191 191-85.5 191-191-85.5-191-191-191zm114.5 236.3l-17.3 29.9c-2.3 4-7.5 5.4-11.5 3.1l-17.1-9.9c-3-1.7-6.7-1.5-9.4.7-8.3 6.5-17.7 11.7-27.8 15.2-3.4 1.2-5.6 4.4-5.6 8v20.7c0 4.7-3.8 8.4-8.4 8.4H752c-4.6 0-8.4-3.8-8.4-8.4v-20.5c0-3.6-2.3-6.8-5.7-8-10.3-3.5-19.8-8.7-28.2-15.2-2.7-2.1-6.4-2.4-9.4-.7l-16.8 9.7c-4 2.3-9.2 1-11.5-3.1L654.8 814c-2.3-4-.9-9.2 3.1-11.5l13.5-7.8c3.3-1.9 5-5.7 4-9.4-1.9-7.5-2.9-15.3-2.9-23.4 0-4.6.3-9.1.9-13.5.5-3.4-1.1-6.8-4.1-8.5l-11.6-6.7c-4-2.3-5.4-7.5-3.1-11.5l17.3-29.9c2.3-4 7.5-5.4 11.5-3.1l8.7 5c3.2 1.9 7.3 1.4 10-1.2 10-9.7 22.2-17.1 35.7-21.8 3.4-1.2 5.7-4.4 5.7-8V654c0-4.7 3.8-8.4 8.4-8.4h34.5c4.7 0 8.4 3.8 8.4 8.4v8.9c0 3.6 2.2 6.8 5.6 8 13.4 4.6 25.4 12.1 35.3 21.7 2.7 2.6 6.8 3.1 10 1.2l9.1-5.3c4-2.3 9.2-.9 11.5 3.1l17.3 29.9c2.3 4 .9 9.2-3.1 11.5l-12.2 7c-3 1.7-4.6 5.1-4.1 8.5.6 4.4.9 8.8.9 13.3 0 7.9-1 15.6-2.8 23-.9 3.6.8 7.4 4 9.2l14.2 8.2c4.2 2.5 5.5 7.7 3.2 11.7z" fill="#0C2B4A"/></svg>