<svg class="icon" viewBox="0 0 1024 1024" xmlns="http://www.w3.org/2000/svg" width="200" height="200"><path d="M350 62h322.875C773 62 809 72.125 846.125 92.375c37.125 19.125 65.25 48.375 85.5 85.5S962 249.875 962 350v322.875C962 773 951.875 809 931.625 846.125c-19.125 37.125-48.375 65.25-85.5 85.5C809 950.75 773 962 672.875 962H350c-100.125 0-136.125-10.125-173.25-30.375S111.5 883.25 92.375 847.25C72.125 810.125 62 774.125 62 674V350c0-100.125 10.125-136.125 30.375-173.25s48.375-65.25 84.375-84.375S249.875 62 350 62z" fill="#EC3E4B"/><path d="M752.75 436.625C707.75 287 590.75 251 530 242c-9-1.125-13.5 11.25-5.625 15.75C725.75 373.625 669.5 521 649.25 560.375c-2.25 4.5-9 5.625-13.5 2.25L489.5 410.75c-3.375-3.375-3.375-7.875 0-11.25l50.625-56.25c3.375-3.375 3.375-9 0-11.25l-30.375-28.125c-3.375-3.375-7.875-3.375-11.25 0l-24.75 22.5c-1.125 1.125-3.375 2.25-5.625 2.25l-56.25-1.125c-2.25 0-4.5 1.125-5.625 2.25L287 451.25c-3.375 3.375-3.375 9 0 12.375l65.25 59.625c3.375 3.375 7.875 3.375 11.25 0l36-34.875c3.375-3.375 7.875-3.375 11.25 0L562.625 635.75c3.375 3.375 3.375 10.125-1.125 13.5-119.25 69.75-227.25-32.625-252-59.625-3.375-3.375-7.875-3.375-11.25 0L260 623.375c-3.375 3.375-3.375 7.875-1.125 11.25l29.25 33.75c2.25 3.375 2.25 6.75 0 10.125-1.125 2.25-4.5 3.375-6.75 3.375-14.625 0-21.375 6.75-21.375 6.75-40.5 39.375 1.125 61.875 7.875 65.25 1.125 0 1.125 0 2.25 1.125 43.875 9 47.25-29.25 47.25-39.375 0-2.25 1.125-3.375 2.25-4.5l3.375-4.5c2.25-3.375 6.75-4.5 10.125-2.25 164.25 86.625 270 27 294.75 11.25 3.375-2.25 7.875-2.25 10.125 1.125l39.375 37.125c5.625 5.625 15.75 5.625 21.375 0l58.5-59.625c3.375-3.375 3.375-7.875 0-11.25l-39.375-47.25c-2.25-2.25-3.375-6.75-1.125-10.125 13.5-21.375 59.625-106.875 36-189" fill="#FFF"/></svg>