<svg class="icon" viewBox="0 0 1024 1024" xmlns="http://www.w3.org/2000/svg" width="81" height="81"><path d="M865.735 528.536c-17.862-20.008-45.554-41.192-56.25-66.323-15.37-35.896 2.077-71.93 1.488-108.83-.415-29.528-9.07-66.29-19.142-93.67-16.962-46.177-46.939-83.735-83.7-112.708-59.608-54.97-142.27-88.927-233.55-88.927-181.973 0-329.4 134.896-329.4 301.258 0 11.146.761 22.085 2.077 32.885 1.177 72.173 23.78 158.365 88.788 254.873 0 0 90.762 180.865-90.865 274.327l399.6.623s30.288-119.077 78.75-119.077c40.984 0 82.973 3.011 124.165.761 8.135 1.385 14.608.762 19.592-1.523l.762-.104v-.346c28.246-14.054 8.654-79.477 8.654-79.477 15.923-6.819 26.377-18.277 26.377-26.827v-1.834c0-10.731-16.096-19.731-38.493-22.846h10.385c16.858 0 30.704-9.174 30.704-20.562v-1.488a14.815 14.815 0 00-3.012-8.758c3.012-13.535 15.023-72.38 17.723-72.485 95.193-4.534 45.347-38.942 45.347-38.942zM530.346 288.928l-46.28 26.723c5.815 12.116 9.276 25.512 9.276 39.912a93.115 93.115 0 01-15.68 51.715l86.884 50.193a30.946 30.946 0 11-9.208 21.946c0-3.046.866-5.746 1.731-8.55l-89.342-51.577a92.423 92.423 0 01-67.292 29.077 92.977 92.977 0 01-92.908-92.908 92.977 92.977 0 0192.908-92.942c31.5 0 59.053 15.715 75.946 39.6l49.119-28.35a63.97 63.97 0 01-1.212-11.25 61.962 61.962 0 1161.962 61.996 61.892 61.892 0 01-55.904-35.585z" fill="#1890FF"/></svg>