<svg class="icon" viewBox="0 0 1489 1024" xmlns="http://www.w3.org/2000/svg" width="81" height="81"><path d="M783.322 540.823l-26.425-26.426 70.671 157.585L973.367 526.19 708.909 407.42l22.039 49.152 68.307 68.3a11.25 11.25 0 010 15.95 11.291 11.291 0 01-15.933 0zm23.917-326.909l12.1 12.125 183.31 87.592-147.584-147.559zm183.397-7.974l-87.694-87.695-31.9 31.902 151.495 151.487a11.265 11.265 0 010 15.95c-1.615 1.615-3.605 2.423-5.68 2.857l109.8 52.485 174.936-174.936a45.14 45.14 0 000-63.795l-175.42-175.41a45.122 45.122 0 00-63.795 0L982.634 38.53l151.487 151.496a11.238 11.238 0 010 15.941 11.257 11.257 0 01-15.94 0L966.683 54.479l-47.842 47.844 87.692 87.692a11.257 11.257 0 11-15.898 15.926zM504.238 516.897L472.345 548.8l87.695 87.693a11.257 11.257 0 010 15.942 11.25 11.25 0 01-15.951 0l-87.703-87.693-47.842 47.851L560.04 764.08c4.412 4.42 4.412 11.537 0 15.95s-11.538 4.413-15.951 0L392.593 628.542 360.7 660.443l87.694 87.694a11.257 11.257 0 010 15.942 11.25 11.25 0 01-15.951 0l-87.693-87.693-47.844 47.842 151.497 151.496a11.257 11.257 0 010 15.942 11.25 11.25 0 01-15.95 0l-151.46-151.505-95.671 95.669a45.122 45.122 0 000 63.795l175.415 175.419a45.122 45.122 0 0063.792 0L673.022 826.51 542.388 555.056l-38.15-38.159z" fill="#515151"/><path d="M1228.595 555.705l-6.057-18.15c-12.332-49.357-45.5-69.084-45.5-69.084l-120.776-57.734-185.014-88.431-48.775-23.322L752.8 265.68l-69.539-33.24c6.76-13.223-4.799-26.933-4.799-26.933L502.191 29.222l-56.41 56.41-97.829-97.828c-12.738-12.738-23.883-16.04-31.979-16.04-8.72 0-13.942 3.812-13.942 3.812L283.602-6.035l-14.1 14.115-14.117 14.103s-18.5 23.807 7.947 50.232l97.828 97.828-56.41 56.427 176.278 176.28s8.584 5.084 18.39 5.084c3.514 0 7.204-.661 10.696-2.446l33.4 69.402 49.474 102.843 27.731 57.622 68.487 142.314 58.005 120.505s20.263 32.61 69.635 44.957l21.323 7.03 43.982 46.718c13.656 14.483 23.069 21.983 26.8 21.983 2.908 0 2.351-4.567-2.392-13.925l-19.577-38.659 14.03 4.616-125.4-279.615-114.05-254.299-24.31-54.21-.503-1.131-2.35-5.246 15.861-15.862 6.058-6.058 5.245 2.343 17.32 7.788 54.274 24.367 237.887 106.836 279.503 125.534-6.87-20.58 46.462 22.414s25.125-11.9 14.547-29.532l-76.091-38.038z" fill="#515151"/></svg>