<svg class="icon" viewBox="0 0 1024 1024" xmlns="http://www.w3.org/2000/svg" width="81" height="81"><path d="M174.951 98.152H851.05c42.496 0 76.946 34.997 76.946 78.167v673.808c0 43.166-34.45 78.167-76.946 78.167H174.951c-42.496 0-76.946-35.001-76.946-78.167V176.319c0-43.171 34.45-78.167 76.946-78.167z" fill="#2D2D2D"/><path d="M604.185 476.689L98.005 183.666v664.79l506.18-296.049z"/><path d="M405.207 665.233c-4.212 0-8.422-1.049-12.634-3.135-8.421-4.953-12.634-12.25-12.634-21.909V389.773c0-9.649 4.213-16.956 12.634-21.909 8.683-4.695 17.105-4.573 25.266.391l214.79 125.206c8.419 4.695 12.632 11.874 12.632 21.518 0 9.649-4.213 16.824-12.632 21.518l-164.753 96.046c-28.953 16.879-53.671 32.69-62.669 32.69zm434.075-317.605c-11.891 0-21.621-9.729-21.621-21.621v-72.069c0-11.891 9.729-21.621 21.621-21.621 11.891 0 21.621 9.729 21.621 21.621v72.069c-.001 11.892-9.73 21.621-21.621 21.621zm0 216.929c-11.891 0-21.621-9.729-21.621-21.621v-72.069c0-11.891 9.729-21.621 21.621-21.621 11.891 0 21.621 9.729 21.621 21.621v72.069c-.001 11.892-9.73 21.621-21.621 21.621zm0 229.571c-11.891 0-21.621-9.729-21.621-21.621v-72.069c0-11.891 9.729-21.621 21.621-21.621 11.891 0 21.621 9.729 21.621 21.621v72.069c-.001 11.891-9.73 21.621-21.621 21.621zm-651.387-446.5c-11.891 0-21.621-9.729-21.621-21.621v-72.069c0-11.891 9.729-21.621 21.621-21.621 11.891 0 21.621 9.729 21.621 21.621v72.069c-.001 11.892-9.73 21.621-21.621 21.621zm0 216.929c-11.891 0-21.621-9.729-21.621-21.621v-72.069c0-11.891 9.729-21.621 21.621-21.621 11.891 0 21.621 9.729 21.621 21.621v72.069c-.001 11.892-9.73 21.621-21.621 21.621zm0 229.571c-11.891 0-21.621-9.729-21.621-21.621v-72.069c0-11.891 9.729-21.621 21.621-21.621 11.891 0 21.621 9.729 21.621 21.621v72.069c-.001 11.891-9.73 21.621-21.621 21.621z" fill="#FFF"/></svg>