<svg class="icon" viewBox="0 0 1024 1024" xmlns="http://www.w3.org/2000/svg" width="81" height="81"><path d="M121.547 523.125c8.395-18.816 225.503 28.658 325.372-71.211s40.816-314.082 58.764-317.556 94.948 181.791 149.08 220.87c110.29 83.08 146.186-10.71 275.292 106.817 55.58 50.948 86.554 185.555-107.685 375.162s-304.53 148.79-360.109 93.211c-100.159-100.159-33.29-140.396-122.159-262.265-37.053-50.948-222.318-125.633-218.555-145.028z" fill="#434A54"/><path d="M644.92 448.44l-62.237 62.237-306.555-306.555a40.938 40.938 0 00-2.027-55.87l-30.974-30.973a40.938 40.938 0 00-57.895 0l-69.185 69.185a40.938 40.938 0 000 57.895l32.132 32.132a40.938 40.938 0 0055.87 2.026l305.397 305.398-57.895 57.895a19.65 19.65 0 000 27.79l152.264 152.265a19.65 19.65 0 0027.79 0l193.66-193.66a19.65 19.65 0 00.868-28.658L673.87 447.282a19.65 19.65 0 00-28.948 1.158z" fill="#D46882"/><path d="M525.946 643.258l125.922-125.923 44.87 44.87-125.923 125.921-44.869-44.868zm67.738 67.737l125.922-125.922 44.869 44.869-125.923 125.922-44.868-44.869z" fill="#E6E9ED"/></svg>