<svg class="icon" viewBox="0 0 1024 1024" xmlns="http://www.w3.org/2000/svg" width="200" height="200"><path d="M528 736v64a32 32 0 11-64 0v-64h-32v112h128V736h-32zm406.928 112H944a32 32 0 110 64H80a32 32 0 110-64h288V736H176a80 80 0 01-80-80V208a80 80 0 0180-80h640a80 80 0 0180 80v448a80 80 0 01-80 80H624v112h105.072c14.416-45.92 46.848-80 102.928-80s88.512 34.08 102.928 80zm-69.872 0c-8.032-10.752-19.168-16-33.056-16-13.888 0-25.024 5.248-33.056 16h66.112zM816 672a16 16 0 0016-16V208a16 16 0 00-16-16H176a16 16 0 00-16 16v448a16 16 0 0016 16h640z" fill="#222"/><path d="M617.328 256L470.672 608h-64l146.656-352h64zm64 0H768v352H534.672l146.656-352zm-224 0L310.672 608H224V256h233.328z" fill="#FFDF32"/></svg>