<svg class="icon" viewBox="0 0 1024 1024" xmlns="http://www.w3.org/2000/svg" width="81" height="81"><path d="M198.693 198.693c-172.757 172.757-172.757 453.846 0 626.609 172.757 172.757 453.857 172.757 626.614 0s172.757-453.847 0-626.61c-172.757-172.756-453.857-172.756-626.614 0z" fill="#696065"/><path d="M675.562 408.155c62.207 62.2 152.99 78.671 230.437 49.58-10.459-76.583-43.117-150.682-98.06-211.737L660.672 393.265l14.89 14.89zm-46.82-46.82L775.857 214.22c-60.643-53.802-133.89-85.879-209.592-96.213-29.091 77.44-12.62 168.235 49.58 230.436l12.897 12.892z" fill="#FBB01F"/><path d="M596.812 393.265l-12.897-12.897c-71.819-71.825-93.206-175.24-64.25-265.929-97.4-1.862-195.329 31.66-272.594 100.696L511 479.07l85.811-85.806zm-216.444 190.65l12.892 12.897 85.81-85.811-263.93-263.936c-69.036 77.266-102.558 175.2-100.695 272.6 90.682-28.956 194.098-7.569 265.923 64.25z" fill="#FBB01F"/><path d="M348.438 615.84C286.237 553.637 195.442 537.167 118 566.264c10.335 75.702 42.412 148.949 96.214 209.592l147.114-147.115-12.891-12.903zm44.822 44.827L245.993 807.939c61.055 54.943 135.154 87.601 211.742 98.06 29.091-77.446 12.615-168.241-49.586-230.437l-14.89-14.895z" fill="#FBB01F"/><path d="M425.195 628.742l14.89 14.896c71.83 71.824 93.217 175.24 64.25 265.923 97.4 1.862 195.334-31.66 272.6-100.696l-265.934-265.94-85.806 85.817zM643.632 440.08l-14.895-14.89L542.925 511 808.86 776.925c69.03-77.26 102.558-175.196 100.695-272.595-90.682 28.962-194.098 7.58-265.923-64.25z" fill="#FBB01F"/></svg>