<svg class="icon" viewBox="0 0 1024 1024" xmlns="http://www.w3.org/2000/svg" width="81" height="81"><path d="M511.55 961.55H848.6s-16.65-192.6-246.15-222.75c-62.55-3.6-90-2.25-90-2.25v.45h-1.35l.45 224.55z" fill="#4C86E8"/><path d="M511.55 961.55H174.5s16.65-192.6 246.15-222.75c62.55-3.6 90-2.25 90-2.25v.45H512l-.45 224.55z" fill="#205DC2"/><path d="M435.95 596.15L584 613.25V764.9l-76.5 24.3-72-17.1V596.15z" fill="#FFDDB8"/><path d="M435.95 608.75H584v45.9l-148.05 89.1v-135z" fill="#E5C6A5"/><path d="M683.9 539c-34.65 66.6-111.6 113.85-172.8 111.15v-450.9c108 0 186.75 100.8 186.75 225.9 0 41.85 4.05 80.1-13.95 113.85z" fill="#FFDDB8"/><path d="M338.75 538.55c34.65 66.6 111.6 113.85 172.35 111.15V199.25c-108 0-186.3 100.8-186.3 225.45 0 41.85-3.15 80.55 13.95 113.85z" fill="#F5D4B1"/><path d="M288.35 365.3l40.95 40.95V326.6l-40.95 38.7zm453.15 0l-40.95 40.95V326.6c-.45 0 40.95 38.7 40.95 38.7z" fill="#205DC2"/><path d="M337.85 399.5c3.6-51.3 27.45-110.7 97.2-145.8 13.95 3.15 81.45 28.8 153.9-4.5 49.05-22.5 98.1 90.45 107.1 131.85 6.75 33.3-6.75 30.15 15.75 22.95 4.95-4.05 34.2-169.2-20.7-268.65-115.65-72.9-170.55-52.2-170.55-52.2s-124.65 69.3-204.75 98.1c-27 96.3-28.35 130.05-6.75 211.95 11.25-28.8 18.9-18.45 28.8 6.3z" fill="#484848"/><path d="M468.35 92.15L422.9 124.1l-98.1 27V62.45M443.15 262.7l300.6 102.6V165.05" fill="#4C86E8"/><path d="M288.35 367.55l86.4-68.4 369-134.1-111.6-102.6h-86.4l-257.4 95.85v209.25z" fill="#205DC2"/><path d="M377.9 124.1l136.8-49.95 53.55 155.25-136.8 49.95L377.9 124.1z" fill="#E96F6A"/><path d="M514.25 74.15l32.4-10.8L600.2 218.6l-32.4 10.8-53.55-155.25zm-168.3 61.2l32.4-10.8L431.9 279.8l-32.4 11.25-53.55-155.7z" fill="#9CEB6E"/><path d="M511.1 789.2s37.8-44.55 95.85-45.9c.45 135.9-95.4 217.35-95.4 217.35l-.45-171.45z" fill="#EFEFEF"/><path d="M309.5 375.2c-12.15 4.05-15.75 26.55-7.65 49.95 7.65 23.4 23.85 39.15 36 35.1 12.15-4.05 15.75-26.55 7.65-49.95-7.65-23.4-23.85-39.6-36-35.1z" fill="#F5D4B1"/><path d="M719.9 371.6c12.15 4.05 15.75 26.1 7.65 49.5-7.65 22.95-23.85 38.7-36 34.65-12.15-4.05-15.75-26.1-7.65-49.5 7.65-23.4 23.85-38.7 36-34.65z" fill="#FFDDB8"/><path d="M511.1 960.65s-95.85-81.45-95.4-217.35c58.05 1.35 95.85 45.9 95.85 45.9l-.45 171.45z" fill="#C3CDDC"/><path d="M436.85 716.75s13.05 19.8 28.8 25.2c20.25 6.75 44.1 17.1 44.55 47.25v47.25s-18.9-25.65-44.55-40.95c-19.35-11.7-44.1-17.55-55.35-34.65-25.2-40.5 26.55-72.45 26.55-72.45v28.35z" fill="#E0ECFF"/><path d="M583.55 716.75s-13.05 19.8-28.8 25.2c-20.25 6.75-44.1 17.1-44.55 47.25v47.25s18.9-25.65 44.55-40.95c19.35-11.7 44.55-17.55 55.8-34.65 25.2-40.5-26.55-72.45-26.55-72.45l-.45 28.35z" fill="#FFF"/></svg>