<svg class="icon" viewBox="0 0 1024 1024" xmlns="http://www.w3.org/2000/svg" width="81" height="81"><path d="M196.86 323.232h193.215V431.4H196.938z" fill="#93A8FF"/><path d="M634.325 431.4v224.388c0 89.762-53.183 133.32-122.7 133.32a119.67 119.67 0 01-123.007-133.32V431.4H196.9v224.388a314.84 314.84 0 00629.72 0V431.4H634.363z" fill="#237BFF"/><path d="M634.325 323.232h192.256V431.4H634.325z" fill="#93A8FF"/><path d="M795.062 166.166a12.27 12.27 0 00-10.314-5.637h-84.625l43.482-88.804a12.27 12.27 0 10-22.01-10.813l-52.147 106.443a12.27 12.27 0 0011.005 17.676h85.238l-44.249 97.163a12.27 12.27 0 0022.354 10.123l52.148-114.494a12.27 12.27 0 00-.844-11.695zm-439.458-5.637H270.98l43.482-88.804a12.27 12.27 0 10-22.01-10.813l-52.147 106.443a12.27 12.27 0 0011.005 17.676h85.238L292.3 282.194a12.27 12.27 0 0022.316 10.123l52.147-114.494a12.27 12.27 0 00-11.158-17.332z" fill="#FFE37B"/></svg>