<svg class="icon" viewBox="0 0 1025 1024" xmlns="http://www.w3.org/2000/svg" width="81" height="81"><path d="M303.35 850.667h420a90 90 0 0190 90h-600a90 90 0 0190-90z" fill="#4A5D82"/><path d="M573.35 100.667v750h-120v-750a60 60 0 0160-60 60 60 0 0160 60z" fill="#61729B"/><path d="M917 310.667H512v-90h405a45 45 0 0145 45 45 45 0 01-45 45zm-810-90h405v90H107a45 45 0 01-45-45 45 45 0 0145-45z" fill="#61729B"/><path d="M693.35 220.667h-360v-30a60 60 0 0160-60h240a60 60 0 0160 60v30z" fill="#4A5D82"/><path d="M408.35 265.667a105 105 0 10210 0 105 105 0 10-210 0z" fill="#445572"/><path d="M468.35 265.667a45 45 0 1090 0 45 45 0 10-90 0zm-361.35 330H62l90-285h45l-90 285zm225 0h-45l-90-285h45l90 285z" fill="#CFDFFF"/><path d="M332 595.667a135 135 0 01-270 0 247.35 247.35 0 01135-45 247.35 247.35 0 01135 45z" fill="#4A5D82"/><path d="M738.35 595.667h-45l90-285h45l-90 285zm225 0h-45l-90-285h45l90 285z" fill="#CFDFFF"/><path d="M963.35 595.667a135 135 0 01-270 0 247.35 247.35 0 01135-45 247.35 247.35 0 01135 45z" fill="#4A5D82"/><path d="M873.35 310.667H917a45 45 0 000-90H693.35v-30a60 60 0 00-60-60h-60v-30a60 60 0 00-60-60v900h300a90 90 0 00-90-90h-150v-498.9a103.8 103.8 0 0034.8-41.1h175.2l-90 285a135 135 0 00270 0zm-45 240a222 222 0 00-80.85 16.2l80.85-256.2 81 256.2a222.15 222.15 0 00-81-16.2z"/></svg>