<svg class="icon" viewBox="0 0 1024 1024" xmlns="http://www.w3.org/2000/svg" width="200" height="200"><path d="M512 62q450 0 450 450T512 962Q62 962 62 512T512 62z" fill="#E3E5FC"/><path d="M724.079 556.229c-9.81 0-17.782-6.84-17.782-15.249v-76.204c0-8.422 7.972-15.236 17.782-15.236 9.822 0 17.781 6.814 17.781 15.236v76.204c0 8.409-7.959 15.236-17.781 15.236z" fill="#7118AE"/><path d="M518.39 544.361a80.743 80.743 0 01-27.669-4.5L291.68 461.394c-20.88-8.82-23.966-22.423-23.966-29.725 0-7.329 3.086-20.919 23.619-29.572L488.42 323.72c15.184-6.081 41.194-6.12 56.481 0l196.728 78.223c20.854 8.756 23.927 22.371 23.927 29.713s-3.086 20.905-23.657 29.597L544.85 539.617c-6.467 3.06-15.403 4.732-26.486 4.732z" fill="#7118AE"/><path d="M487.443 734.326L374.814 687.5l9.656-151.136 112.166 46.685c4.461 1.555 9.051 2.314 14.953 2.314 6.994 0 10.748-1.067 12.651-1.967l132.004-47.032 9.772 151.11-131.246 46.672c-5.683 2.725-13.5 4.165-23.143 4.165a70.496 70.496 0 01-24.197-3.985z" fill="#7118AE"/><path d="M521.926 745.871c-70.882 0-148.95-23.168-152.833-74.082l-.052-120.729c0-8.126 6.159-14.721 13.758-14.721 7.598 0 13.757 6.595 13.757 14.721v117.99c1.903 25.83 59.335 47.379 125.37 47.379 51.943 0 99.925-13.038 116.691-31.706 4.012-4.449 5.863-8.897 5.657-13.526v-119.07c0-8.138 6.172-14.734 13.77-14.734 7.612 0 13.757 6.596 13.757 14.734V669.05c.515 13.629-4.114 25.766-13.307 36.039-27 30.072-88.225 40.782-136.568 40.782zm184.371-160.02a17.781 17.781 0 1035.563 0 17.781 17.781 0 00-35.563 0z" fill="#7118AE"/></svg>