<svg class="icon" viewBox="0 0 1024 1024" xmlns="http://www.w3.org/2000/svg" width="200" height="200"><path d="M117.28 905.12c-31.52-31.52-31.52-82.72 0-114.4l400.8-400.8 116.96 116.96-398.08 398.24c-33.12 33.12-86.72 33.12-119.68 0zm0 0" fill="#429BCF"/><path d="M120.32 908.32L578.24 450.4l56.8 56.8-401.28 401.12c-31.36 31.2-82.08 31.2-113.44 0zm0 0" fill="#1A7FC0"/><path d="M139.04 851.36c0 16.32 13.28 29.6 29.6 29.6s29.6-13.28 29.6-29.6-13.28-29.6-29.6-29.6-29.6 13.28-29.6 29.6zm0 0" fill="#3A3737"/><path d="M899.04 261.28l-163.2 121.76-93.6-93.6L764 126.24c-87.2-53.28-203.52-42.4-278.72 32.8l-13.44 13.44c-88.16 88.16-88.16 232.64 0 320.96L532 553.6c88.16 88.16 232.64 88.16 320.96 0l13.28-13.44c75.2-75.52 86.08-191.68 32.8-278.88zm0 0" fill="#83C6EF"/><path d="M379.52 559.04l86.88 86.88-10.88 10.88-86.88-86.88 10.88-10.88zm-24.48 24.48l86.88 86.88-10.88 10.88-86.88-86.88 10.88-10.88zm-22.08 21.92l86.88 86.88-10.88 10.88-86.88-86.88 10.88-10.88zm0 0" fill="#FFB103"/><path d="M741.92 613.92c24.8-5.6 48.96-15.2 71.04-29.12l-372.8-372.64c-13.92 22.24-23.52 46.24-29.12 71.04l330.88 330.72zm0 0" fill="#429BCF"/><path d="M379.52 559.04l45.12 45.12-10.88 10.88-45.12-45.12 10.88-10.88zm-24.48 24.48l45.12 45.12-10.88 10.88-45.12-45.12 10.88-10.88zm-22.08 22.08l45.12 45.12-10.88 10.88-45.12-45.12 10.88-10.88zm0 0" fill="#FFD96B"/></svg>