<svg xmlns="http://www.w3.org/2000/svg" width="84" height="84" viewBox="0 0 1024 1024"><path fill="#d81e06" d="M749.28 254.654C690.73 177.024 606.124 128 512 128s-178.73 49.024-237.28 126.654c12.708 31.28 31.666 60 56.26 84.594 48.352 48.352 112.638 74.98 181.02 74.98s132.668-26.628 181.02-74.98c24.594-24.594 43.552-53.316 56.26-84.594z"/><path fill="#d81e06" d="M253.672 285.648a393.762 393.762 0 00-9.984 17.288c-5.852-3.68-10.638-7.48-15.49-11.546-2.342-1.962-5.908-7.898-9.092-14.7 10.82-22.628 2.362-50.074-19.828-62.522-23.122-12.968-52.376-4.744-65.348 18.378-12.97 23.12-4.742 52.376 18.374 65.346a48.134 48.134 0 007.694 3.458c5.632 12.538 14.64 28.662 27.096 39.094 8.368 7.014 17.584 14.234 30.408 21.348-14.39 40.518-23.152 84.606-25.09 130.854-22.052.414-37.238 4.2-50.948 8.244-8.32 2.454-16.384 6.79-23.646 11.704a48.535 48.535 0 00-5.816-.364c-26.51 0-48 21.49-48 48s21.49 48 48 48c25.86 0 46.934-20.454 47.952-46.064 10.092-2.964 19.776-5.318 34.19-5.548 6.334 66.03 26.608 126.966 57.226 178.448-28.332 22.012-45.764 46.032-53.21 72.634 0 0-1.5.876-3.746 2.732-1.964 1.588-3.864 3.3-5.608 5.238-17.73 19.71-16.124 50.062 3.586 67.79 19.708 17.73 50.056 16.124 67.786-3.586 16.174-17.976 16.19-44.762 1.116-62.79 6.148-11.124 12.472-18.028 27.34-29.922C342.736 850.47 415.446 891.238 496 896V445.744c-106.472-5.836-197.542-69.468-242.328-160.096zM912 512.228c-1.97 0-3.908.132-5.816.364-7.262-4.914-15.326-9.25-23.646-11.704-13.708-4.042-28.894-7.83-50.948-8.244-1.938-46.25-10.7-90.336-25.09-130.854 12.824-7.114 22.042-14.334 30.408-21.348 12.456-10.432 21.462-26.556 27.096-39.094a48.492 48.492 0 007.694-3.458c23.116-12.97 31.344-42.228 18.374-65.346-12.97-23.122-42.226-31.346-65.348-18.378-22.19 12.45-30.648 39.894-19.828 62.522-3.184 6.802-6.75 12.738-9.092 14.7-4.852 4.066-9.638 7.866-15.49 11.546a395.793 395.793 0 00-9.984-17.288c-44.786 90.628-135.856 154.26-242.328 160.096V896c80.554-4.762 153.264-45.53 207.372-108.84 14.868 11.894 21.192 18.798 27.34 29.922-15.074 18.028-15.058 44.812 1.116 62.79 17.728 19.71 48.076 21.316 67.786 3.586 19.708-17.726 21.316-48.078 3.586-67.79-1.744-1.938-3.642-3.65-5.608-5.238-2.246-1.858-3.746-2.732-3.746-2.732-7.448-26.604-24.878-50.624-53.21-72.634 30.62-51.48 50.892-112.418 57.226-178.448 14.414.23 24.098 2.584 34.19 5.548 1.018 25.612 22.092 46.064 47.952 46.064 26.51 0 48-21.49 48-48s-21.496-48-48.006-48z"/></svg>