<svg xmlns="http://www.w3.org/2000/svg" width="84" height="84" viewBox="0 0 1024 1024"><path fill="#CFD8DC" d="M106.667 810.667v-512h810.666v512C917.333 857.6 878.933 896 832 896H192c-46.933 0-85.333-38.4-85.333-85.333z"/><path fill="#F44336" d="M917.333 213.333v128H106.667v-128C106.667 166.4 145.067 128 192 128h640c46.933 0 85.333 38.4 85.333 85.333z"/><path fill="#B71C1C" d="M640 213.333a64 64 0 10128 0 64 64 0 10-128 0zm-384 0a64 64 0 10128 0 64 64 0 10-128 0z"/><path fill="#B0BEC5" d="M704 64c-23.467 0-42.667 19.2-42.667 42.667v106.666C661.333 236.8 680.533 256 704 256s42.667-19.2 42.667-42.667V106.667C746.667 83.2 727.467 64 704 64zm-384 0c-23.467 0-42.667 19.2-42.667 42.667v106.666C277.333 236.8 296.533 256 320 256s42.667-19.2 42.667-42.667V106.667C362.667 83.2 343.467 64 320 64z"/><path fill="#90A4AE" d="M277.333 426.667h85.334V512h-85.334zm128 0h85.334V512h-85.334zm128 0h85.334V512h-85.334zm128 0h85.334V512h-85.334zm-384 128h85.334V640h-85.334zm128 0h85.334V640h-85.334zm128 0h85.334V640h-85.334zm128 0h85.334V640h-85.334zm-384 128h85.334V768h-85.334zm128 0h85.334V768h-85.334zm128 0h85.334V768h-85.334zm128 0h85.334V768h-85.334z"/></svg>