<svg xmlns="http://www.w3.org/2000/svg" width="200" height="200" viewBox="0 0 1024 1024"><path fill="#00AEE1" d="M563.384 723.131A232.81 232.81 0 01665.99 530.213c3.391-12.952 6.942-27.396 10.941-44.112 14.382 16.578 35.171 17.386 54.173-38.4 6.296-18.493 14.84-56.172 14.84-56.172 5.267-28.08-13.573-50.844-42.1-50.844h-12.89c7.81-166.676-50.001-245.799-198.36-245.799s-206.157 79.11-198.358 245.799h-12.878c-28.564 0-47.368 22.764-42.1 50.844 0 0 8.543 37.667 14.84 56.171 19.001 55.787 39.741 54.98 54.172 38.4 25 104.545 33.383 127.67 84.971 165.895v78.389C221.858 752.443 95.183 830.248 95.183 922.882h581.935c-67.97-40.76-113.734-114.927-113.734-199.748z"/><path fill="#00AEE1" d="M796.242 541.974A181.108 181.108 0 10977.35 723.132a181.108 181.108 0 00-181.11-181.158zm126.9 136.884L767.07 834.942l-39.94-39.99.099-.125-60.01-60.02 39.99-39.99 60.01 60.008 115.932-115.982z"/></svg>