<svg class="icon" viewBox="0 0 1024 1024" xmlns="http://www.w3.org/2000/svg" width="200" height="200"><path d="M168.79 77.243h557.716q64.352 0 64.352 64.351v622.068q0 64.352-64.352 64.352H168.79q-64.352 0-64.352-64.352V141.594q0-64.351 64.352-64.351z" fill="#FCCF0A"/><path d="M318.944 205.946H876.66q64.352 0 64.352 64.352v622.068q0 64.352-64.352 64.352H318.944q-64.351 0-64.351-64.352V270.298q0-64.352 64.351-64.352z" fill="#046EA7"/><path d="M415.472 420.452h107.253q32.176 0 32.176 32.176t-32.176 32.176H415.472q-32.176 0-32.176-32.176t32.176-32.176zm0 150.155h214.506q32.176 0 32.176 32.176t-32.176 32.176H415.472q-32.176 0-32.176-32.176t32.176-32.176zm0 150.154h321.76q32.175 0 32.175 32.176t-32.176 32.176H415.472q-32.176 0-32.176-32.176t32.176-32.176z" fill="#82D2F7"/></svg>