<svg xmlns="http://www.w3.org/2000/svg" width="84" height="84" viewBox="0 0 1024 1024"><path fill="#E69329" d="M249.6 460.8L358.4 672l202.667-83.2 93.866-270.933L339.2 334.933z"/><path fill="#546E7A" d="M153.6 768a166.4 166.4 0 10332.8 0 166.4 166.4 0 10-332.8 0z"/><path fill="#90A4AE" d="M320 576c-106.667 0-192 85.333-192 192s85.333 192 192 192 192-85.333 192-192-85.333-192-192-192zm0 341.333c-83.2 0-149.333-66.133-149.333-149.333S236.8 618.667 320 618.667 469.333 684.8 469.333 768 403.2 917.333 320 917.333z"/><path fill="#90A4AE" d="M298.667 704h42.666v170.667h-42.666z"/><path fill="#FFB74D" d="M275.2 768c21.333 40.533 68.267 57.6 108.8 36.267l352-181.334c21.333-10.666 36.267-25.6 46.933-40.533C819.2 514.133 902.4 354.133 957.867 215.467L569.6 401.067l-102.4 153.6-145.067 76.8C266.667 659.2 249.6 721.067 275.2 768z"/><path fill="#FFB74D" d="M644.267 64l-352 134.4c-14.934 4.267-32 21.333-46.934 36.267l-119.466 160c-21.334 32-25.6 72.533-10.667 108.8C123.733 524.8 151.467 576 181.333 633.6 215.467 597.333 264.533 576 320 576c8.533 0 19.2 0 27.733 2.133l-44.8-89.6 98.134-87.466h170.666S902.4 354.133 960 215.467L644.267 64z"/><path fill="#FFCDD2" d="M388.267 768c-27.734 12.8-59.734 0-70.4-27.733-12.8-27.734 0-59.734 27.733-70.4 25.6-12.8 68.267 85.333 42.667 98.133z"/></svg>