<svg xmlns="http://www.w3.org/2000/svg" width="200" height="200" viewBox="0 0 1024 1024"><path fill="#e0620d" d="M918.414 889.856H105.586c-11.833 0-21.39-9.557-21.39-21.39s9.557-21.39 21.39-21.39h14.222V205.369c0-39.367 31.972-71.339 71.339-71.339h356.465c39.368 0 71.34 31.972 71.34 71.339v142.563h213.901c39.367 0 71.339 31.972 71.339 71.34v427.804h14.222c11.833 0 21.39 9.557 21.39 21.39s-9.557 21.39-21.39 21.39zM319.488 269.54h-99.783v99.783h99.783V269.54zm0 203.207h-99.783v99.783h99.783v-99.783zm0 203.207h-99.783v99.783h99.783v-99.783zm199.68-406.414h-99.783v99.783h99.783V269.54zm0 203.207h-99.783v99.783h99.783v-99.783zm0 203.207h-99.783v99.783h99.783v-99.783zm299.463-199.566h-99.783v99.783h99.783v-99.783zm0 199.566h-99.783v99.783h99.783v-99.783z"/></svg>