<svg class="icon" viewBox="0 0 1024 1024" xmlns="http://www.w3.org/2000/svg" width="200" height="200"><path d="M320 853.333h490.667l128 128v-448c0-46.933-38.4-85.333-85.334-85.333H320c-46.933 0-85.333 38.4-85.333 85.333V768c0 46.933 38.4 85.333 85.333 85.333z" fill="#007bf9"/><path d="M614.4 699.733h-76.8l-14.933 44.8h-46.934L554.667 531.2H595.2l78.933 213.333H627.2l-12.8-44.8zM548.267 665.6H601.6L576 584.533 548.267 665.6z" fill="#fff"/><path d="M704 533.333H213.333l-128 128V170.667c0-46.934 38.4-85.334 85.334-85.334H704c46.933 0 85.333 38.4 85.333 85.334V448c0 46.933-38.4 85.333-85.333 85.333z" fill="#1296db"/><path d="M541.867 302.933c0 21.334-4.267 38.4-10.667 53.334S516.267 384 503.467 392.533l36.266 27.734-27.733 25.6-46.933-36.267c-4.267 0-10.667 2.133-17.067 2.133-12.8 0-25.6-2.133-38.4-6.4-10.667-4.266-21.333-12.8-29.867-21.333-8.533-8.533-14.933-21.333-19.2-34.133-4.266-12.8-6.4-27.734-6.4-44.8v-8.534c0-17.066 2.134-32 6.4-44.8 4.267-12.8 10.667-25.6 19.2-34.133 8.534-8.533 17.067-17.067 29.867-21.333 10.667-4.267 23.467-6.4 38.4-6.4 12.8 0 25.6 2.133 38.4 6.4 10.667 4.266 21.333 12.8 29.867 21.333 8.533 8.533 14.933 21.333 19.2 34.133 4.266 12.8 6.4 27.734 6.4 44.8v6.4zm-46.934-10.666c0-23.467-4.266-40.534-12.8-51.2C473.6 228.267 462.933 224 448 224c-14.933 0-27.733 6.4-34.133 17.067-8.534 12.8-12.8 29.866-12.8 51.2v10.666c0 10.667 2.133 21.334 4.266 29.867 2.134 8.533 4.267 17.067 8.534 21.333 4.266 6.4 8.533 10.667 14.933 12.8 6.4 2.134 12.8 4.267 19.2 4.267 14.933 0 27.733-6.4 34.133-17.067 8.534-12.8 12.8-29.866 12.8-53.333v-8.533z" fill="#FFF"/></svg>