<svg class="icon" viewBox="0 0 1024 1024" xmlns="http://www.w3.org/2000/svg" width="200" height="200"><path d="M922.625 190.292v173.25c-93 55.125-156.75 9-237.75-55.125-130.875-103.5-261-63.375-379.125 27.375-93 71.625-210 27.375-210 27.375V190.292c0-31.875 25.875-57.75 57.75-57.75h711.375c31.875 0 57.75 25.875 57.75 57.75z" fill="#29ABE2"/><path d="M922.625 807.917v93.75c0 31.875-25.875 57.75-57.75 57.75H153.5c-31.875 0-57.75-25.875-57.75-57.75v-93.75h826.875z" fill="#39B54A"/><path d="M95.75 363.542s117 43.875 210-27.375c117.75-90.75 247.875-130.875 379.125-27.375 81 64.125 144.75 110.25 237.75 55.125v444.375H95.75v-444.75z" fill="#E6E6E6"/><path d="M784.625 387.542H833v268.875h-48.375z" fill="#FFF"/><path d="M99.125 480.542h819.75v96.375H99.125z" fill="#FCEE21"/><path d="M95.75 401.417H647v48.375H95.75zm406.5-144.75h41.25v144.75h-41.25zm20.625 399.75h399.75v55.125h-399.75zm96.375 55.125h48.375v96.375H619.25zM522.875 656.417v55.125h-192.75c-2.25 0-4.5-.375-6.75-.375v-54.75h199.5z" fill="#FFF"/><path d="M330.125 711.542h-6.75v-.375c1.875 0 4.125.375 6.75.375zm-34.5-89.625a34.41 34.41 0 0034.5 34.5h-6.75v54.75c-46.125-3.375-82.5-42-82.5-89.25h54.75zm-55.125-172.5h55.125v172.125H240.5zM392 711.542h48.375v96.375H392z" fill="#FFF"/><path d="M649.25 14.417c-123.75 0-223.875 100.125-223.875 223.875s223.875 447.75 223.875 447.75 223.875-324.375 223.875-447.75c0-123.75-100.125-223.875-223.875-223.875z" fill="#C69C6D"/><path d="M649.25 100.667c73.875 0 133.875 60 133.875 133.875s-60 133.875-133.875 133.875-133.875-60-133.875-133.875 60-133.875 133.875-133.875z" fill="#FFF"/><path d="M599 249.917l-30.75.375c-5.25 0-9.375-.375-12-1.125s-5.25-2.25-7.125-4.875c-2.25-2.625-3-5.625-3-9 0-3 .375-5.625 1.5-7.875s2.625-4.125 4.5-5.25 3.75-1.875 6-2.25 5.25-.375 10.125-.375l30.75-.375v-20.625l-26.625.375c-11.25 0-18.75.75-23.25 2.25-4.125 1.5-8.25 3.75-11.625 7.125s-6 7.125-7.875 12S527 230.417 527 236.417c0 7.5 2.25 14.25 6 19.875 4.125 5.625 9 9.375 14.625 11.625 6 2.25 14.25 3.375 25.125 3l26.625-.375v-.375l-.375-20.25zm59.25-45.375c0 3.375-.375 6-1.125 7.5-.75 1.875-1.875 3.375-3.75 4.5s-3.75 1.875-6 1.875c-1.875 0-3.375-.375-4.875-.75-1.5-.75-2.625-1.5-3.75-2.625s-1.5-2.25-2.25-3.375c-.375-1.125-.75-3.75-.75-7.125v-6.375h-25.5v72c9.375-9 22.5-14.25 36.375-14.25 14.25 0 27 5.625 36.375 14.25v-72h-24.75v6.375zm89.625 24.375c0 5.25-.375 9.375-1.125 12s-2.25 5.25-4.875 7.125c-2.625 2.25-5.625 3-9 3-3 0-5.625-.375-7.875-1.5s-4.125-2.625-5.25-4.5-1.875-3.75-2.25-6-.375-5.25-.375-10.125l-.375-30.75h-20.625l.375 26.625c0 11.25.75 18.75 2.25 23.25 1.5 4.125 3.75 8.25 7.125 11.625s7.125 6 12 7.875S728 270.167 734 270.167c7.5 0 14.25-2.25 19.875-6 5.625-4.125 9.375-9 11.625-14.625 2.25-6 3.375-14.25 3-25.125l-.375-26.625h-20.25v31.125z" fill="#C69C6D"/></svg>