<svg class="icon" viewBox="0 0 1024 1024" xmlns="http://www.w3.org/2000/svg" width="200" height="200"><path d="M463.733 91.022a386.844 386.844 0 000 773.69 394.581 394.581 0 00116.509-17.75 103.31 103.31 0 0117.294-39.14 171.577 171.577 0 01116.508-68.266h11.378V557.51a118.784 118.784 0 01118.33-118.329h6.826a387.755 387.755 0 00-386.845-348.16zM247.556 261.69a34.133 34.133 0 1134.133 34.133 33.678 33.678 0 01-34.133-34.133zM463.733 659.91a182.044 182.044 0 11182.045-182.044A182.044 182.044 0 01463.733 659.91z" fill="#383838"/><path d="M987.111 506.084v35.953a23.21 23.21 0 01-12.743 20.48L861.5 618.951a35.954 35.954 0 00-20.024 32.313v196.153c0 36.864-40.96 73.273-96.029 82.83a161.564 161.564 0 01-29.127 2.73c-45.511 0-86.471-22.3-91.022-55.978a66.446 66.446 0 0126.396-60.53 126.976 126.976 0 0130.493-18.66 162.02 162.02 0 0137.319-11.377 251.676 251.676 0 0130.947-2.73 124.245 124.245 0 0118.66 0v-226.19a72.818 72.818 0 0172.818-72.819h122.88a22.756 22.756 0 0122.3 21.39zm-523.378-164.75a136.533 136.533 0 10136.534 136.533 136.533 136.533 0 00-136.534-136.534zm0 204.8A68.267 68.267 0 11532 477.866a68.267 68.267 0 01-68.267 68.266z" fill="#939598"/></svg>