<svg xmlns="http://www.w3.org/2000/svg" width="200" height="200" viewBox="0 0 1024 1024"><path fill="#e6e6e6" d="M679.253 249.191c9.814-1.707 19.52 5.013 21.334 14.72l.213 1.387.32 1.386 133.653 515.2c1.067 9.387-5.546 18.454-15.04 20.16l-512.32 91.307c-9.493 1.707-18.88-4.587-21.12-13.76l-55.466-529.28-.107-1.28-.213-1.28c-1.707-9.707 5.12-19.413 14.933-21.12"/><path d="M857.6 754.791l-.107-.64-121.92-461.973c-8.746-30.827-13.76-38.187-27.733-49.067-2.88-2.24-5.973-4.267-9.173-5.867-7.68-4.16-16.214-6.293-24.96-6.293h-66.88c-7.254-74.667-66.454-133.013-138.24-133.013S337.6 156.39 330.347 230.95h-76.054c-29.226 0-53.013 23.893-53.013 53.013l-36.48 510.72c0 29.12 23.893 53.014 53.013 53.014h51.627l1.493 13.226.214 1.28c3.2 17.6 13.12 32.96 27.946 43.2 14.614 10.134 32.747 14.08 50.24 10.88l454.294-83.2c36.373-6.72 60.586-41.813 53.973-78.293zM468.48 133.458c52.267 0 95.573 42.453 102.507 97.493H366.08c6.827-55.04 50.133-97.493 102.4-97.493zM200.32 795.644l36.373-509.12.107-1.28v-1.28c0-9.493 8-17.493 17.493-17.493H329.6v93.227c0 9.813 8 17.813 17.813 17.813s17.814-8 17.814-17.813V266.47H572.16v93.227c0 9.813 8 17.813 17.813 17.813s17.814-8 17.814-17.813V266.47h66.133c9.493 0 17.493 8 17.493 17.493v1.387l.107 1.387 39.147 509.013c-.534 9.067-8.32 16.533-17.494 16.533H217.707c-9.067 0-16.96-7.573-17.387-16.64zm142.613 85.654a31.671 31.671 0 01-23.68-5.12c-6.826-4.587-11.52-11.734-13.12-19.734l-.96-8.64h220.8l-183.04 33.494zm454.187-83.2l-32 5.866c.533-2.986.853-6.08.853-9.173l-26.88-349.867 83.627 316.907c2.773 16.96-8.64 33.173-25.6 36.267zm0 0"/></svg>