<svg xmlns="http://www.w3.org/2000/svg" width="200" height="200" viewBox="0 0 1024 1024"><path fill="#37BBEF" d="M68.267 512a443.733 443.733 0 10887.466 0 443.733 443.733 0 10-887.466 0z"/><path fill="#3ED6FF" d="M663.666 186.14c60.53 0 118.898 8.648 174.194 24.804C756.85 123.221 640.796 68.267 512 68.267 266.923 68.267 68.267 266.923 68.267 512c0 30.72 3.072 60.644 9.102 89.657C162.247 359.652 392.647 186.14 663.666 186.14z"/><path fill="#3495C6" d="M648.988 89.884c118.784 81.58 193.65 201.046 193.65 334.052 0 245.988-256.114 445.44-572.074 445.44a715.85 715.85 0 01-22.187-.341c73.728 54.5 164.864 86.698 263.623 86.698 245.077 0 443.733-198.656 443.733-443.733 0-197.29-128.682-364.43-306.745-422.116z"/><path fill="#E8EEEF" d="M655.929 525.198s-16.384-9.785-27.193-13.084c-10.923-3.3-5.461-19.57-5.461-19.57s6.485 9.785 25.03 13.084 49.039 7.624 57.686 18.546c8.761 10.923 9.785 17.408 14.109 21.732 4.323 4.323 7.623 15.246 7.623 15.246s-17.977-2.844-21.732-10.923c-3.755-8.078-7.623-20.707-10.923-17.408-3.3 3.3-1.137 15.247-13.084 15.247s-15.246-10.923-23.893-13.085-2.162-9.785-2.162-9.785zM607.004 298.78l30.493-5.46 15.246-16.385-4.323-15.246 6.485-23.893-8.761-13.085s0-25.031-9.785-29.355-6.485-31.516-6.485-31.516l1.138-5.461-10.923 9.785 6.485 28.33 9.785 28.33 1.138 49.04-22.87 13.994-17.407 22.87 9.784-11.948zm22.87-55.523l-6.486-8.761-7.623 1.138-2.161 14.108 7.623 1.138 8.647-7.623zm85.902 375.467s-1.138-19.57-9.785-19.57-11.947-21.732-11.947-21.732l-17.408-18.546s0 27.193 1.138 31.517c1.138 4.323-11.946 10.923-15.246 8.76-3.3-2.161-15.246-20.707-15.246-20.707s4.892-10.354-2.162-9.785c-.683 0-1.138.114-1.365.228-1.707-.228-4.665-.683-9.444-1.252l-22.528-2.73-2.503 9.216s-13.084 10.922-20.708 14.108c-7.623 3.3-16.384 34.816-26.168 34.816s-23.894 1.138-23.894 1.138-17.408 29.355-11.946 40.277c5.46 10.923 7.623 21.732 6.485 34.816s1.138 10.923 19.57 7.623c18.545-3.3 33.792-28.33 54.385-23.893 20.708 4.324 27.193 25.031 27.193 25.031l17.408-15.246s-2.161 10.923-5.461 11.947 3.3 2.161 7.623 9.784c4.324 7.624 28.217 18.432 58.823-10.922 30.606-29.241 19.57-54.386 19.57-54.386l-16.384-30.492zm-477.867-26.056c2.162-20.707-9.785-15.246-8.76-44.6 1.137-29.355 41.415-97.963 38.115-97.963-3.3 0-21.732 14.108-28.33 13.084-6.486-1.137-34.817-65.308-34.817-75.093 0-9.785-7.623-46.763-7.623-46.763s8.761 25.031 15.246 26.17 8.761 28.33 14.109 41.414 22.87 34.816 33.792 33.792c10.923-1.137 44.6-62.009 44.6-62.009l-18.545-10.922-19.456 11.719s-5.461-13.085-11.947-20.708c-6.485-7.623-5.461-26.169-1.137-26.169s9.216 12.63 31.516 27.193c22.3 14.564 42.44 0 46.763 3.3s21.731 17.408 22.869 26.169c1.138 8.76 22.87 68.608 26.169 72.931 3.3 4.324 16.384-15.246 21.731-40.277 5.462-25.031 31.517-36.978 40.278-43.577 8.76-6.485 7.623 7.623 13.084 20.708s19.57 20.707 26.17 26.169c6.484 5.46 1.137 22.869 11.946 22.869 10.922 0 19.57-18.546 19.57-18.546l-7.624-20.707c-7.623-20.708 3.3-22.87 13.085-27.193 9.785-4.324 27.193-20.708 39.14-39.14 11.946-18.546-9.785-35.954-16.385-52.224-6.485-16.384 7.624-15.246 15.247-16.384s15.246 42.44 15.246 42.44l14.108-7.624s-3.3-14.108-9.785-27.193 8.761-13.084 27.193-32.654c18.546-19.57 7.965-28.9 8.761-53.362s-22.87-21.731-22.87-21.731-5.46 8.76 1.139-21.732c6.485-30.492 51.2-13.084 62.009-14.108 8.533-.91 19.228-21.96 23.324-30.948-50.859-20.821-106.61-32.313-164.978-32.313-232.562 0-422.57 182.272-434.745 411.876 5.348 2.844 12.288 5.916 20.139 7.395 17.408 3.3 9.785 30.493 10.923 44.601 1.137 14.109 4.323 29.355 10.922 43.577 6.486 14.109-2.161 22.87-5.461 32.654-3.3 9.785 4.324 25.031 10.923 25.031s-11.947 33.792 8.76 68.608 51.2-3.3 65.309-53.361c14.222-50.29 38.116-43.691 40.277-64.399zm280.918-94.776l8.76 17.408 18.546 8.76s6.486-26.168 17.408-39.14c10.923-13.084-6.485-25.03-14.108-27.192l-30.606 40.164zM699.96 199.566c.683 2.162 1.707 3.3 1.707 3.3s-.683-1.252-1.707-3.3zm-130.73 352.37c-5.69-1.707-14.906-4.324-28.673-8.192-34.816-9.785-26.169-6.485-38.115-14.108s-1.138-10.923 1.137-20.708c2.162-9.785-10.922-41.415-10.922-41.415l-13.085-10.923-3.3 19.57-14.108 4.324 17.408 41.415s29.355 25.03 47.9 33.792c11.037 5.12 29.014.682 41.757-3.755zM254.292 668.9S271.7 637.383 275 622.137c3.3-15.246-2.162-39.14-2.162-39.14s-22.87 17.408-18.546 19.57c4.324 2.162-6.485 11.947-8.76 29.355-2.162 17.294 8.76 36.978 8.76 36.978zm438.159-552.847c-9.558 11.72-22.415 28.559-22.415 34.703 0 9.784 15.247 9.784 16.384 17.408.797 5.916 9.785 24.007 13.54 31.516-.91-2.844-1.365-7.396 1.707-12.97 5.46-9.786 6.485-32.655 1.137-42.44-2.617-4.665.683-13.084 4.779-20.821-5.006-2.617-10.012-5.12-15.132-7.396zm-113.21 432.015c3.073-1.252 4.893-2.162 4.893-2.162s-2.503.91-4.892 2.162zm-3.868 5.347c-3.186-1.251.342-3.64 3.869-5.461a136.079 136.079 0 01-10.013 3.868c8.761 2.73 9.444 2.958 6.144 1.593z"/></svg>