<svg xmlns="http://www.w3.org/2000/svg" width="244.336" height="200" viewBox="0 0 1251 1024"><path fill="#619E73" d="M543.457 760.95a187.275 187.275 0 10374.55 0 187.275 187.275 0 10-374.55 0z"/><path fill="#8CD79F" d="M396.132 49.457c163.502-55.91 346.825 6.24 434.037 157.295l171.16 296.457 96.418-55.668 45.043 78.016-835.628 482.45-42.117-78.016 93.492-55.666L187.38 577.869c-87.213-151.056-49.374-340.893 80.798-454.535a72.633 72.633 0 01-3.848-5.97c-19.875-34.424-7.21-79.054 28.245-99.524s80.438-9.123 100.313 25.301a71.284 71.284 0 013.246 6.318z"/></svg>