<svg xmlns="http://www.w3.org/2000/svg" width="244.922" height="200" viewBox="0 0 1254 1024"><path fill="#71BEFF" d="M630.356.052a509.622 509.622 0 00-312.58 106.53H176.152a42.505 42.505 0 00-42.349 42.384 42.505 42.505 0 0042.383 42.383H308.56a42.522 42.522 0 0142.4 42.383 42.505 42.505 0 01-42.348 42.383H40.082a42.383 42.383 0 000 84.767h101.01A512 512 0 00118.41 512c0 282.745 229.203 512 512 512a509.5 509.5 0 00282.19-84.785h-76.645a42.505 42.505 0 01-42.383-42.382 42.505 42.505 0 0142.383-42.384h171.425c1.145 0 2.273 0 3.47.157a510.039 510.039 0 00131.524-342.572C1142.303 229.254 913.083.052 630.356.052zm-742.712 318.447a42.348 42.348 0 1084.697 0 42.348 42.348 0 10-84.697 0z"/><path fill="#1B8CFF" d="M1091.12 939.18H835.747a42.383 42.383 0 01-42.418-42.382 42.383 42.383 0 0142.383-42.383h175.19A509.97 509.97 0 001142.305 512c0-282.746-229.203-512-512-512v1024h460.817a42.383 42.383 0 0042.383-42.419 42.383 42.383 0 00-42.383-42.4z"/><path fill="#FFF" d="M923.56 667.207a70.841 70.841 0 10-70.843 70.842 70.819 70.819 0 0070.841-70.842zm-27.638 24.04h-82.277a8.987 8.987 0 01-8.986-8.986v-43.274a8.987 8.987 0 018.986-8.986h82.277a8.987 8.987 0 018.988 8.986v43.274a8.987 8.987 0 01-8.988 8.987z"/><path fill="#FFF" d="M946.004 302.149H891.61v-26.4a26.176 26.176 0 10-52.351 0v26.4h-435.2v-26.4a26.176 26.176 0 00-52.351 0v26.4h-40.802a26.961 26.961 0 00-26.961 26.962v411.702a26.961 26.961 0 0026.961 26.961h635.1a26.961 26.961 0 0026.962-26.962V329.11a26.961 26.961 0 00-26.962-26.961zm-41.094 116.25v43.182a8.987 8.987 0 01-8.988 8.987h-82.277a8.987 8.987 0 01-8.986-8.987v-43.183a8.987 8.987 0 018.986-8.987h82.277a8.987 8.987 0 018.988 8.987zm0 110.294v43.183a8.987 8.987 0 01-8.988 8.988h-82.277a8.987 8.987 0 01-8.986-8.988v-43.183a8.987 8.987 0 018.986-8.987h82.277a8.987 8.987 0 018.988 8.987zm-50.125-254.27a10.672 10.672 0 0121.344 0v34.871a10.672 10.672 0 11-21.344 0zm-488.475 0a10.672 10.672 0 0121.345 0v34.871a10.672 10.672 0 01-21.345 0zm92.5 407.838a8.987 8.987 0 01-8.987 8.987h-82.3a8.987 8.987 0 01-8.988-8.987v-43.274a8.987 8.987 0 018.988-8.986h82.3a8.987 8.987 0 018.987 8.986zm0-110.294a8.987 8.987 0 01-8.987 8.986h-82.3a8.987 8.987 0 01-8.988-8.986v-43.274a8.987 8.987 0 018.988-8.987h82.3a8.987 8.987 0 018.987 8.987zm0-110.295a8.987 8.987 0 01-8.987 8.987h-82.3a8.987 8.987 0 01-8.988-8.988v-43.273a8.987 8.987 0 018.988-8.987h82.3a8.987 8.987 0 018.987 8.987zm-83.536-95.084a7.864 7.864 0 010-15.729h508.898a7.864 7.864 0 010 15.73zm306.575 315.673a8.987 8.987 0 01-8.987 8.987h-82.278a8.987 8.987 0 01-8.987-8.987v-43.274a8.987 8.987 0 018.987-8.986h82.278a8.987 8.987 0 018.987 8.986zm0-110.294a8.987 8.987 0 01-8.987 8.986h-82.278a8.987 8.987 0 01-8.987-8.986v-43.274a8.987 8.987 0 018.987-8.987h82.278a8.987 8.987 0 018.987 8.987zm0-110.295a8.987 8.987 0 01-8.987 8.987h-82.278a8.987 8.987 0 01-8.987-8.988v-43.273a8.987 8.987 0 018.987-8.987h82.278a8.987 8.987 0 018.987 8.987zm252.988 290.24a4.493 4.493 0 01-6.313 0l-24.355-24.377a79.29 79.29 0 116.448-6.157l24.22 24.22a4.493 4.493 0 010 6.313z"/></svg>