<svg class="icon" viewBox="0 0 1024 1024" xmlns="http://www.w3.org/2000/svg" width="84" height="84"><path d="M20.437 351.222h985.097V879.54H20.437z" fill="#CBCAC8"/><path d="M20.437 324.23h985.097v26.992H20.437z" fill="#EA714B"/><path d="M67.57 394.53h72.71v72.701H67.57zm118.712 0h72.71v72.701h-72.71zM67.57 512.226h72.71v72.726H67.57zm118.712 0h72.71v72.726h-72.71zM67.57 629.95h72.71v72.701H67.57zm118.712 0h72.71v72.701h-72.71zM67.57 747.67h72.71v72.711H67.57zm118.712 0h72.71v72.711h-72.71zM770.484 402.463h72.702v72.702h-72.702zm118.727 0h72.71v72.702h-72.71zM770.484 520.17h72.702v72.726h-72.702zm118.727 0h72.71v72.726h-72.71zM770.484 637.891h72.702v72.718h-72.702zm118.727 0h72.71v72.718h-72.71zM770.484 755.605h72.702v72.718h-72.702zm118.727 0h72.71v72.718h-72.71z" fill="#47A6C2"/><path d="M253.587 165.99H765.08v713.55H253.587z" fill="#EEE"/><path d="M325.85 220.97h86.582v86.591H325.85zm141.39 0h86.59v86.591h-86.59zm141.398 0h86.583v86.591h-86.583zM324.655 351.223h86.583v86.59h-86.583zm141.375 0h86.606v86.59H466.03zm141.39 0h86.59v86.59h-86.59zM323.453 481.473h86.583v86.59h-86.583zm141.375 0h86.599v86.59h-86.599zm141.382 0h86.599v86.59H606.21zM322.244 611.701h86.583v86.622h-86.583zm141.382 0h86.59v86.622h-86.59zm141.383 0h86.582v86.622H605.01zM321.026 741.968h86.59v86.59h-86.59zm120.503-5.79h124.91V879.54h-124.91zm162.278 5.79h86.582v86.59h-86.582z" fill="#47A6C2"/><path d="M253.587 152.495H765.08v27H253.587z" fill="#FC8253"/></svg>