<svg xmlns="http://www.w3.org/2000/svg" width="200" height="200" viewBox="0 0 1024 1024"><path fill="#28CE24" d="M526.063 68.338h43.14c85.884 0 171.758-.136 257.571 0 71.342.065 115.443 44.165 115.574 115.507.136 94.618 0 189.236 0 283.853v16.93h-18.504c-126.424 0-252.651-.202-379.082.41-14.881.07-19.185-3.89-19.044-19.044.613-126.364.345-252.724.345-379.087V68.338zM644.3 249.856v50.927h174.762c0-14.063.618-27.17-.474-40.212-.273-3.757-5.331-10.169-8.264-10.169-55.023-.754-110.046-.546-166.024-.546z"/><path fill="#B2B2B2" d="M684.512 950.343l-166.231-.071V839.68c0-98.167.065-196.537-.41-294.71 0-7.1.683-15.22 6.144-20.824 5.325-5.39 13.173-6.073 20-6.073 68.878.208 136.942.273 204.935.273h201.317V826.91c-.203 76.055-47.449 123.361-123.493 123.361-47.442 0-94.819.071-142.26.071zm-150.667-15.7h150.667c47.378 0 94.82 0 142.269-.072 67.31 0 107.588-40.278 107.79-107.725.071-55.433.071-110.87.071-166.298l-.071-126.638-185.686.072c-68.064 0-136.123-.072-204.117-.41-7.438 0-9.22 1.158-9.76 1.568-.48.683-1.572 2.73-1.5 9.628.48 98.304.409 196.537.343 294.912v94.962zm287.54-146.846H640.816v-54.41h180.63v54.41h-.061zm-164.998-15.564h149.368v-23.211H656.387v23.21zm164.861-56.597H640.544v-54.203h180.704v54.203zm-165.134-15.558h149.433v-23.075H656.114v23.074z"/><path fill="#D8613D" d="M484.622 942.49h-48.06c-84.24 0-168.41.071-252.657-.072-71.342 0-115.507-44.17-115.573-115.507-.07-94.611 0-189.164 0-283.853v-16.864H86.9c126.294 0 252.653.207 378.946-.344 15.02-.203 19.185 3.964 19.115 19.05-.612 126.221-.41 252.586-.41 378.944.07 5.402.07 10.727.07 18.646zM278.599 758.372c8.739 15.019 15.63 27.858 23.484 40.146 2.594 4.025 7.438 8.94 11.534 9.278 15.019 1.093 30.109.345 48.404.345-12.56-18.836-23.282-35.019-34.068-51.265-22.938-34.342-23.003-34.27.273-68.82 10.104-15.018 20.272-30.107 32.085-47.715-15.09 0-26.012.754-36.798-.202-11.333-.89-18.224 2.595-23.075 13.173-5.324 11.808-12.768 22.528-20.07 35.296-8.465-14.406-15.565-27.24-23.484-39.665-2.32-3.621-6.826-7.854-10.513-8.12-14.947-.963-29.9-.41-47.988-.41 17.067 25.668 31.54 48.6 47.24 70.724 6.489 9.076 6.281 15.362-.136 24.297-16.456 22.937-31.676 46.629-49.36 72.707 15.428 0 27.307-.748 39.12.278 10.851.814 16.995-3.009 21.709-12.768 5.941-11.95 13.38-23.145 21.642-37.28z"/><path fill="#DDAE2A" d="M68.267 484.693v-16.995c0-94.552-.072-189.17 0-283.853.071-71.342 44.236-115.37 115.643-115.442 94.072-.136 188.143 0 282.286 0h18.366v18.705c0 126.294-.207 252.652.41 378.945.071 15.364-4.37 19.115-19.251 18.978-126.3-.546-252.658-.338-378.95-.338H68.266zm116.6-231.697v46.012h71.204v70.79h46.558v-71.473h70.658v-46.148h-71.815V182h-46.148v70.997h-70.457z"/></svg>