<svg xmlns="http://www.w3.org/2000/svg" width="84" height="84" viewBox="0 0 1024 1024"><path d="M691.2 904.533H356.267c-119.467 0-215.467-96-215.467-213.333v-352c0-100.267 81.067-181.333 181.333-181.333h168.534c17.066 0 32 14.933 32 32s-14.934 32-32 32H322.133C256 221.867 204.8 275.2 204.8 339.2v352c0 83.2 68.267 149.333 151.467 149.333h337.066c72.534 0 130.134-57.6 130.134-130.133V512c0-17.067 14.933-32 32-32s32 14.933 32 32v198.4c0 108.8-87.467 194.133-196.267 194.133z"/><path fill="#FBAA00" d="M482.133 603.733c-8.533 0-17.066-2.133-21.333-8.533-12.8-12.8-12.8-32 0-44.8l345.6-360.533c12.8-12.8 32-12.8 44.8 0 12.8 12.8 12.8 32 0 44.8l-347.733 358.4c-4.267 6.4-12.8 10.666-21.334 10.666z"/><path fill="#FBAA00" d="M840.533 403.2c-17.066 0-32-14.933-32-32V236.8h-128c-17.066 0-32-14.933-32-32s14.934-32 32-32h140.8c27.734 0 51.2 23.467 51.2 51.2v147.2c0 17.067-12.8 32-32 32zm-19.2-166.4z"/></svg>