<svg xmlns="http://www.w3.org/2000/svg" width="200" height="200" viewBox="0 0 1024 1024"><path fill="#EFEFEF" d="M651.219 62c-18.985 0-37.266 7.734-50.625 21.094L111.219 570.359C97.859 583.72 90.125 602 90.125 621.687s7.734 37.266 21.094 51.329l269.297 267.89C393.875 954.266 412.156 962 431.14 962s37.265-7.734 50.625-21.094L912.78 512c13.36-13.36 21.094-32.344 21.094-51.328V354.5c0-18.984-7.031-36.563-19.688-49.922L703.25 83.797C689.89 70.437 670.906 62 651.219 62z"/><path fill="#EFC75E" d="M710 554L460.25 807.5c-15.75 15.75-40.5 15.75-56.25 0l-150-153c-15.75-15.75-15.75-41.25 0-57L503.75 344c15.75-15.75 40.5-15.75 56.25 0l150 153c15.75 15.75 15.75 41.25 0 57z"/><path fill="#cdcdcd" d="M670.906 227.938c4.219-4.922 11.25-2.813 16.172 2.109 6.328 6.328 7.031 13.36 11.25 17.578 4.219 4.219 11.25 3.516 15.469-.703 8.437-8.438-4.219-26.016-10.547-32.344-14.766-14.766-36.563-17.578-51.328-2.11-25.313 25.313 18.984 54.141 5.625 66.798-5.625 5.625-13.36 5.625-20.39-1.407s-9.141-17.578-14.063-22.5c-4.219-4.218-10.547-3.515-14.766.703-9.844 10.547 5.625 30.235 14.063 38.672 14.765 14.766 37.265 18.282 52.734 2.813 28.125-28.828-14.766-58.36-4.219-69.61zm80.157 36.562c-4.922-4.922-11.25-4.922-16.875 0l-61.875 61.875c-5.625 5.625-4.922 11.953 0 16.875s11.25 4.922 16.875 0l61.875-61.875c5.625-5.625 4.921-11.953 0-16.875zm96.328 96.328c-5.625-5.625-13.36-5.625-18.985-2.812L772.86 388.25 803.094 332c2.812-4.922 2.11-13.36-2.813-18.984-5.625-5.625-14.765-5.625-18.984-2.11l-70.313 50.625c-.703.703-1.406 1.406-2.109 1.406-4.922 4.922-4.219 11.25 0 15.47 5.625 5.624 9.844 4.921 16.172.702l50.625-37.968-32.344 59.062c-2.11 3.516-3.515 9.14 2.11 14.766s11.25 4.219 14.765 2.11l58.36-32.345-37.97 50.625c-4.218 5.625-4.921 10.547.704 16.172 4.219 4.219 10.547 4.922 15.469 0 .703-.703 1.406-1.406 1.406-2.11l50.625-71.015c4.219-2.812 4.219-11.953-1.406-17.578z"/><path fill="#D7B354" d="M710 497l-40.5-41.25-9.75-9.75-100.5-102c-7.5-8.25-18-12-28.5-12s-20.25 3.75-28.5 12l-28.5 28.5-20.25 20.25-60.75 61.5L389 458l-76.5 79.5-20.25 20.25-39 39c-15.75 15.75-15.75 41.25 0 57l39.75 40.5 10.5 10.5 51 51.75 20.25 20.25 29.25 30c7.5 8.25 18 12 28.5 12s20.25-3.75 28.5-12l38.25-39 20.25-20.25L710 554c15.75-15.75 15.75-41.25 0-57zm-239.25-87.75l42 42.75L452 514.25l-42-42.75 60.75-62.25zM389 491.75l42 42.75-60.75 62.25-42-42.75L389 491.75zm-119.25 121.5l38.25-39L350 617l-51 51.75-30-30c-6-7.5-6-18.75.75-25.5zm50.25 76.5L553.25 452l-10.5-10.5L491 388.25 519.5 359c3-3 7.5-5.25 12-5.25s9 1.5 12 5.25L644 461.75l-273.75 279-50.25-51zM603.5 545l42 42.75-60.75 61.5-42-42.75L603.5 545zm-159 246.75c-3 3-7.5 5.25-12 5.25s-9-1.5-12-5.25l-30-30 51-51.75 42 42.75-39 39zM461.75 689l60.75-62.25 42 42.75-60.75 61.5-42-42zm232.5-150.75l-28.5 28.5-42-42.75 40.5-41.25 29.25 30c7.5 6.75 7.5 18.75.75 25.5z"/></svg>