<svg xmlns="http://www.w3.org/2000/svg" width="200" height="200" viewBox="0 0 1024 1024"><path fill="#FFD4C7" d="M272.91 503.22a103.74 103.74 0 01-.32-108.47h-.4a63.27 63.27 0 00-38.27 113.69l41.59 5.62q-1.42-5.39-2.6-10.84zm478.18 0q-1.18 5.45-2.61 10.83l41.59-5.62a63.27 63.27 0 00-38.27-113.69h-.4a103.74 103.74 0 01-.32 108.47zM361.37 344.79a103.9 103.9 0 0159.74 188.93L512 546l90.89-12.28a103.9 103.9 0 11146.53-142.1 244.79 244.79 0 00-474.84 0 103.92 103.92 0 0186.79-46.83z"/><path fill="#FFD4C7" d="M275.51 514.05l5.71.77a104.48 104.48 0 01-8.32-11.61q1.19 5.46 2.61 10.84zm467.27.77l5.71-.77q1.42-5.38 2.61-10.83a104.48 104.48 0 01-8.32 11.6z"/><path fill="#AEF0FF" d="M272.91 503.22a104.48 104.48 0 008.32 11.61l139.89 18.9a103.9 103.9 0 10-146.54-142.11c-.68 1-1.35 2.07-2 3.13a103.74 103.74 0 00.32 108.47zm389.72-158.43a103.9 103.9 0 00-59.74 188.93l139.89-18.9a104.48 104.48 0 008.32-11.61 103.74 103.74 0 00.32-108.47c-.65-1.06-1.31-2.1-2-3.13a103.92 103.92 0 00-86.79-46.82z"/><path fill="#EF6A6A" d="M790.08 508.43l-41.59 5.62-5.71.77-139.89 18.91L512 546.01l-90.89-12.28-139.89-18.91-5.71-.77-41.59-5.62-75.58-10.21V898.1l352.67 47.79 354.65-47.8V498.22l-75.58 10.21z"/><path fill="#512C56" d="M868.77 485.76a10 10 0 00-1.35.09l-46.88 6.34a76.3 76.3 0 00-60.2-109 256.11 256.11 0 00-24.79-59.37h1.64a12.07 12.07 0 0010.45-18.1A272.19 272.19 0 00586 179.79l20.76-22.14a12.07 12.07 0 00-1.47-17.83l-59.4-45.49a12.07 12.07 0 00-18 4l-21.92 42.23-35.51-70a12.07 12.07 0 00-16.11-5.35l-90 44.55a12.07 12.07 0 00-2.4 20.06l64 53.61a273.61 273.61 0 00-149.51 122 12.07 12.07 0 0010.44 18.11h1.77a256.11 256.11 0 00-24.93 59.62 76.26 76.26 0 00-60.18 108.94l-46.89-6.34a10 10 0 00-1.35-.09 9.91 9.91 0 00-9.89 9.91v406.21a9.91 9.91 0 008.58 9.82L511 960l359.06-48.39a9.91 9.91 0 008.59-9.82V495.68a9.91 9.91 0 00-9.88-9.92zM802.12 459a50.15 50.15 0 01-17.4 38l-16.13 2.18a117.21 117.21 0 005.41-85.29A50.35 50.35 0 01802.12 459zm-48.56-9.32a90.43 90.43 0 01-17.77 53.92L606.4 521.13a90.91 90.91 0 11147.16-71.41zm-179.93 75.88L512 533.89l-61.65-8.33a116.41 116.41 0 0027.23-62.83h68.83a116.44 116.44 0 0027.22 62.83zm-254.5-201.9l255.05.12 13.46-56.69 15.62 56.71h101.71a230.84 230.84 0 0113.56 23.2 117 117 0 00-172.11 89.73h-68.84A117 117 0 00305.47 347a230.75 230.75 0 0113.67-23.35zm42.24 35.13a90.89 90.89 0 0156.22 162.34L288.2 503.64a90.88 90.88 0 0173.17-144.86zM221.88 459A50.33 50.33 0 01250 413.91a117.21 117.21 0 005.38 85.3L239.3 497a50.13 50.13 0 01-17.42-38zm630.78 428.72L511 933.76l-339.68-46V514.09l337.18 45.56 3.48.47 3.48-.47 337.18-45.56z"/><path fill="#512C56" d="M500.58 619.42v254.17a13 13 0 0026 0V619.42a13 13 0 00-26 0z"/></svg>