<svg xmlns="http://www.w3.org/2000/svg" width="200" height="200" viewBox="0 0 1024 1024"><path fill="#1296DB" d="M321.643 258.42c51.001 0 92.463-41.198 92.463-92.331 0-51-41.198-92.463-92.33-92.463h-.133c-51 0-92.33 41.33-92.33 92.33 0 51.132 41.33 92.463 92.33 92.463zm373.428 76.566c1.987-17.619-10.73-33.382-28.348-35.37-.53 0-.928-.131-1.457-.131L419.935 283.72l-40.536-.795c-1.19 0-2.252.53-2.913 1.324l-47.954 59.743c-3.046 4.107-8.742 4.901-12.85 1.987a7.095 7.095 0 01-1.987-1.987l-48.351-59.743c-.662-.926-1.722-1.457-2.913-1.457h-28.349c-43.184 0-78.156 34.972-78.156 78.156 0 2.914.133 5.962.53 8.876L179.24 540.84c2.782 25.036 19.473 46.364 43.186 55.107l38.282 282.288c1.855 15.234 14.836 26.626 30.07 26.626h60.539c15.366 0 28.348-11.524 30.07-26.89l17.883-95.377 42.92-401.245c.265-1.987 1.855-3.577 3.84-3.71l217.38-13.909c16.03-.927 29.409-12.85 31.661-28.745z"/><path fill="#1296DB" d="M746.601 547.73c1.06-3.048 1.854-6.228 1.854-9.54v-7.417c0-14.175-10.729-25.699-24.505-27.289 27.022-14.968 45.038-37.355 45.038-57.226 0-8.875-3.709-16.028-10.861-20.531l-2.65-1.722h-192.08l-2.649 1.722c-7.021 4.503-10.862 11.656-10.862 20.531 0 19.871 18.016 42.258 45.04 57.226-13.778 1.59-24.507 13.114-24.507 27.29v7.417c0 3.443.661 6.624 1.853 9.538C499.15 586.278 450.8 669.334 450.8 745.768c0 99.351 76.038 156.312 208.637 156.312s208.638-56.96 208.638-156.311c0-76.435-48.35-159.491-121.473-198.04zm-143.463-38.682H711.1c13.114 0 23.844 8.744 23.844 19.606s-10.73 19.605-23.845 19.605h-107.96c-13.115 0-23.846-8.742-23.846-19.605s10.731-19.606 23.845-19.606zm150.484 204.399v28.216h-60.14l-7.684 9.802v8.743h67.956v27.156h-67.956v38.018h-60.273v-38.018H556.11v-27.156h69.414v-8.743l-7.684-9.802H557.7l-1.59-28.216h49.412L556.11 633.17h63.32l40.139 83.587 41.726-83.588h61.73l-49.41 80.409h40.006z"/></svg>