<svg xmlns="http://www.w3.org/2000/svg" width="200" height="200" viewBox="0 0 1024 1024"><path fill="#06c662" d="M962 523.25C962 759.5 759.5 962 500.75 962 264.5 962 62 759.5 62 523.25 62 264.5 264.5 62 500.75 62 759.5 62 962 264.5 962 523.25"/><path fill="#fff" d="M331.947 401.92c-15.36 0-30.72-12.8-30.72-28.16s12.8-28.16 30.72-28.16c15.36 0 30.72 12.8 30.72 28.16s-12.8 28.16-30.72 28.16m151.04-58.88c15.36 0 30.72 12.8 30.72 28.16s-12.8 28.16-30.72 28.16-30.72-12.8-30.72-28.16 12.8-28.16 30.72-28.16m128 64h10.24C605.867 320 516.267 256 408.747 256c-117.76 0-215.04 79.36-215.04 179.2 0 58.88 33.28 110.08 84.48 143.36h2.56l-20.48 64 76.8-38.4h2.56c20.48 5.12 43.52 10.24 66.56 10.24h15.36c-5.12-12.8-7.68-28.16-7.68-43.52 2.56-92.16 89.6-163.84 197.12-163.84"/><path fill="#fff" d="M545.28 541.013c0-12.8 10.24-25.6 25.6-25.6 12.8 0 25.6 10.24 25.6 25.6 0 12.8-10.24 25.6-25.6 25.6-15.36-2.56-25.6-12.8-25.6-25.6m125.44 0c0-12.8 10.24-25.6 25.6-25.6 12.8 0 25.6 10.24 25.6 25.6 0 12.8-10.24 25.6-25.6 25.6-12.8-2.56-25.6-12.8-25.6-25.6m-227.84 43.52c0 84.48 81.92 151.04 181.76 151.04 20.48 0 38.4-2.56 56.32-7.68h2.56l66.56 33.28-17.92-53.76h2.56c43.52-28.16 71.68-71.68 71.68-120.32 0-84.48-81.92-151.04-181.76-151.04-99.84-2.56-181.76 64-181.76 148.48"/></svg>