<svg xmlns="http://www.w3.org/2000/svg" width="1024" height="1024"><path fill="#0071C5" d="M529.821 0h68.275v214.337h81.039c3.25-42.506-15.293-110.059 36.124-127.398 71.526-8.67 144.496-.843 216.745-3.974 28.417 2.65 64.782-7.104 86.096 18.062a181.825 181.825 0 015.418 53.705V642.77a216.745 216.745 0 01-7.104 64.782c-34.92 12.042-72.248 5.9-108.373 6.984-1.806 54.307 4.456 109.456-3.732 163.281-9.754 27.816-41.784 26.492-65.144 27.214H597.373v118.487h-70.562C351.368 991.007 175.563 960.662 0 928.753V95.368C176.527 63.578 353.294 32.27 529.821 0z"/><path fill="#FFF" d="M734.525 122.581c84.29-7.706 169.663-1.565 254.555-3.492v547.643h-80.437V237.577C854.94 193.264 781.727 174.84 734.525 122.58z"/><path fill="#FFF" d="M597.976 250.1h264.91v619.048h-264.91v-71.406h195.672v-48.165H597.976v-59.605h195.672v-48.166H597.976v-59.605h195.672v-48.165H597.976v-60.207h195.672V309.584H597.976c-.12-19.868-.12-39.616 0-59.484zM407.48 341.373H172.553a36.124 36.124 0 00-36.124 36.125v269.245a36.124 36.124 0 0036.124 36.124h234.928a36.124 36.124 0 0036.124-36.124V377.257a36.124 36.124 0 00-36.124-35.884zm-201.212 71.045h90.792a15.172 15.172 0 010 30.344H206.27a15.172 15.172 0 010-30.344zm165.57 200.128h-165.57a15.172 15.172 0 010-30.345h165.57a15.172 15.172 0 010 30.345zm0-84.29h-165.57a15.172 15.172 0 010-30.344h165.57a15.172 15.172 0 010 30.344z"/></svg>