<svg viewBox="0 0 1024 1024" xmlns="http://www.w3.org/2000/svg" width="200" height="200"><path d="M512 0C229.222 0 0 229.222 0 512s229.222 512 512 512 512-229.222 512-512S794.778 0 512 0zm182.972 618.172L538.675 774.468a33.929 33.929 0 01-5.222 4.267c-.836.563-1.758.956-2.646 1.434-1.075.58-2.099 1.228-3.242 1.706-1.127.461-2.304.734-3.465 1.075-.973.29-1.911.666-2.918.87a33.826 33.826 0 01-13.38 0c-1.024-.204-1.963-.58-2.953-.87-1.143-.34-2.304-.597-3.413-1.058-1.178-.478-2.236-1.143-3.345-1.758-.837-.46-1.724-.836-2.526-1.382a35.004 35.004 0 01-5.24-4.284L334.012 618.155c-12.032-12.032-14.985-31.386-5.052-45.21a34.133 34.133 0 0151.985-4.386l70.264 70.263c10.752 10.752 29.132 3.14 29.132-12.066V274.33c0-16.999 11.623-32.768 28.4-35.5a34.15 34.15 0 0139.867 33.673v354.253c0 15.207 18.38 22.818 29.133 12.066l70.263-70.246a34.133 34.133 0 0151.985 4.386c9.967 13.824 7.015 33.178-5.017 45.21z" fill="#20A0FF"/></svg>