<svg xmlns="http://www.w3.org/2000/svg" width="1024" height="1024"><path fill="#FFF" d="M604.719 142.931h383.88v726.337h-383.88z"/><path fill="#73DDAD" d="M800.391 612.305a82.845 82.845 0 10-82.844 82.845 82.845 82.845 0 0082.844-82.845z"/><path fill="#17A561" d="M1022.796 153.889a40.7 40.7 0 00-45.035-45.516c-124.147-1.927-248.655 0-373.283 0V0h-65.746C359.074 31.308 179.537 63.699 0 95.488v833.265c177.49 31.91 355.1 62.133 532.35 94.765h72.248V904.911h349.2c19.99-.964 42.025.722 59.004-12.042 13.486-21.313 9.994-48.165 11.198-72.248-1.686-221.803.843-444.327-1.204-666.732zm-34.198 715.259h-383.88V142.93h383.88z"/><path fill="#FFF" d="M290.559 555.59v-60.207h150.276v193.385h-50.092l-7.465-45.035a176.527 176.527 0 01-38.533 35.522 136.188 136.188 0 01-73.693 19.146 154.491 154.491 0 01-115.236-46.48c-33.355-34.077-50.093-81.159-50.093-141.607a200.97 200.97 0 0142.145-131.492q47.564-58.521 133.66-58.521 75.138 0 120.414 41.784a105.723 105.723 0 0137.569 78.87h-75.259a52.5 52.5 0 00-19.025-34.317 81.881 81.881 0 00-60.207-24.083 92.719 92.719 0 00-71.647 29.983c-21.072 23-31.548 56.113-31.548 98.98q0 67.553 32.993 98.499a100.064 100.064 0 0071.647 25.046 82.845 82.845 0 0043.59-12.041 96.331 96.331 0 0043.59-67.07z"/><path fill="#98EAC1" d="M878.3 641.565a82.845 82.845 0 10-82.846 82.845 82.845 82.845 0 0082.845-82.845z"/><path fill="#D2F9E5" d="M956.207 675.643a82.845 82.845 0 10-82.845 82.965 82.724 82.724 0 0082.845-82.965z"/><path fill="#17A561" d="M764.508 271.413a51.658 51.658 0 0118.182 34.077h-22.396a31.067 31.067 0 00-12.042-19.627 42.867 42.867 0 00-24.805-6.382 37.328 37.328 0 00-30.224 12.884 55.27 55.27 0 00-12.041 38.532 55.752 55.752 0 0010.837 36.847 45.757 45.757 0 0036.124 13.607 68.395 68.395 0 0018.423-2.288 58.521 58.521 0 0014.45-5.78v-28.418h-36.124V325.96h58.16v57.318a78.992 78.992 0 01-24.083 12.884 111.744 111.744 0 01-32.873 4.576 63.458 63.458 0 01-50.333-20.47 72.248 72.248 0 01-16.617-49.37 74.055 74.055 0 0116.617-50.093 59.123 59.123 0 0148.166-20.952 66.107 66.107 0 0140.579 11.56zm65.626-8.91v135.585h-22.157V262.502zm118.969 0v19.025h-70.081v37.569h66.227v19.025h-66.227v60.207h-22.277V262.502z"/></svg>