<svg xmlns="http://www.w3.org/2000/svg" width="200" height="200" viewBox="0 0 1024 1024"><path fill="#A33639" d="M535.198 0h69.539v95.277c124.176.677 248.352-1.355 373.205.677a40.64 40.64 0 0145.155 45.155c1.919 234.58 0 469.272 1.129 703.852-1.13 24.045 2.258 50.686-11.289 72.022-17.046 12.418-38.946 11.289-58.814 11.289h-349.16v95.276h-72.926C354.917 990.924 177.46 960.558 0 928.723V95.503C178.362 63.556 356.837 32.512 535.198 0z"/><path fill="#FFF" d="M604.737 130.95h383.816v762.1H604.737v-95.276h302.425v-47.638H604.737v-59.492h302.425v-47.187H604.737v-60.056h302.425v-47.638H604.737V476.27h302.425v-47.3H604.737v-59.83h302.425v-47.638H604.737v-59.605h302.425v597.174H604.737z"/><path fill="#A33639" d="M645.49 529.667h302.424v47.638H645.489zm0 81.843h302.424v47.638H645.489zm0 81.843h302.424v47.639H645.489zm-49.107 81.844h351.531v47.638h-351.53z"/><path fill="#FFF" d="M180.62 317.326c59.265 2.822 130.949-24.045 180.62 21.336 46.96 58.475 34.543 165.831-35.109 200.713-24.722 12.982-53.17 11.289-80.037 10.273v130.95l-65.474-5.532c-.904-119.21-1.13-238.531 0-357.74z"/><path fill="#A33639" d="M245.643 377.72c21.448-1.015 48.09-5.08 62.54 15.58a82.408 82.408 0 011.467 73.263c-12.418 22.577-40.527 20.771-62.314 23.368-2.258-37.366-2.032-74.732-1.693-112.21zm640.07 2.146a83.988 83.988 0 01-48.316-19.643 460.58 460.58 0 00-77.666 24.835c-20.32 36.011-39.172 54.412-55.54 54.412a17.385 17.385 0 01-9.822-2.596 19.417 19.417 0 01-11.288-17.724c0-5.87 1.354-22.577 63.33-49.106a467.918 467.918 0 0034.656-81.278c-7.902-15.692-24.835-54.3-13.095-73.942a20.658 20.658 0 0120.207-10.498 21.9 21.9 0 0117.046 8.466c8.466 11.29 7.789 36.689-3.274 73.377a196.988 196.988 0 0040.752 52.493 221.146 221.146 0 0141.091-4.516c30.705.678 35.334 15.014 34.656 23.594 0 22.577-21.561 22.577-32.624 22.577zm-185.022 42.106l2.258-.564a45.155 45.155 0 0023.932-16.82 56.444 56.444 0 00-26.19 17.384zm93.358-200.261h-2.145a4.403 4.403 0 00-2.822.677 52.493 52.493 0 004.177 33.866 53.283 53.283 0 00.79-34.543zm-3.838 95.84v1.243l-.678-.678c-5.418 14.337-11.288 28.448-18.062 42.333l1.13-.677v1.467a346.338 346.338 0 0140.187-12.643l-.677-.565h1.806a196.31 196.31 0 01-23.706-30.48zm94.6 34.77a66.152 66.152 0 00-18.176 1.693 50.686 50.686 0 0020.997 6.66 26.077 26.077 0 0013.885-1.58c-.451-2.596-3.273-6.773-17.158-6.773z"/></svg>