<svg xmlns="http://www.w3.org/2000/svg" width="1024" height="1024"><path fill="#FFF" d="M605.2 141.848h383.88v726.336H605.2z"/><path fill="#0071C5" d="M1022.796 153.889a40.7 40.7 0 00-45.035-45.516c-124.147-1.927-248.655 0-373.283 0V0h-65.746C359.074 31.308 179.537 63.699 0 95.488v833.265c177.49 31.91 355.1 62.133 532.35 94.765h72.248V904.911h349.2c19.99-.964 42.025.722 59.004-12.042 13.486-21.313 9.994-48.165 11.198-72.248-1.686-221.803.843-444.327-1.204-666.732zm-34.198 715.259h-383.88V142.93h383.88z"/><path fill="#0071C5" d="M695.752 244.079c24.925 0 37.69 10.596 37.69 31.91s-12.765 32.15-38.052 32.15h-25.768v39.857h-16.979V244.08zm-26.13 49.49h24.805a27.454 27.454 0 0016.015-4.576 16.135 16.135 0 005.298-13.486 15.413 15.413 0 00-5.418-13.245 26.491 26.491 0 00-16.377-4.095h-24.323zm95.368-49.49l51.416 74.897V244.08h17.22v103.917H817.49l-51.898-75.98v75.98h-17.58V244.08zm166.17 6.864a38.653 38.653 0 0113.969 26.009H928.03a23.36 23.36 0 00-9.392-14.931 32.391 32.391 0 00-19.026-4.937 28.418 28.418 0 00-23.12 9.874 42.506 42.506 0 00-9.512 29.501 42.988 42.988 0 008.43 28.659 34.92 34.92 0 0028.056 10.476 52.862 52.862 0 0013.968-1.686 51.537 51.537 0 0011.198-4.817v-21.915h-27.575v-14.45h44.554v44.433a62.736 62.736 0 01-18.905 9.874 86.457 86.457 0 01-25.167 3.492 48.166 48.166 0 01-38.532-15.774 54.788 54.788 0 01-12.885-37.81 56.595 56.595 0 0112.885-38.412 44.794 44.794 0 0136.124-16.015 49.851 49.851 0 0132.03 8.429zM675.04 656.256H921.77v147.748H675.04z"/><path fill="#FFF" d="M183.03 340.892c63.216 3.13 139.8-25.528 192.661 22.878 49.611 62.375 36.365 176.889-38.532 214.217-26.37 13.847-56.595 12.041-85.373 10.957v139.68l-68.877-6.14c-.964-127.037-1.204-254.315.12-381.592z"/><path fill="#0071C5" d="M252.147 405.313c22.878-.963 51.296-5.298 66.83 16.738a88.263 88.263 0 011.444 78.148c-13.245 24.083-43.228 22.036-66.348 24.926-2.528-39.857-2.287-79.593-1.926-119.812zm670.224-3.853H674.318v204.704h248.053zm-227.583 19.989h207.233v124.749l-31.188-31.91a18.785 18.785 0 00-7.465-4.937c-5.298-1.565-16.738 9.392-34.318 32.993-22.277-22.758-70.442-71.164-80.437-69.72-2.77 0-6.984 2.168-12.884 7.225l-40.94 36.125z"/><path fill="#0071C5" d="M846.27 472.745a18.785 18.785 0 0031.668-13.366 18.303 18.303 0 00-18.303-18.303 18.785 18.785 0 00-13.366 31.67z"/></svg>