<svg xmlns="http://www.w3.org/2000/svg" width="200" height="200" viewBox="0 0 1024 1024"><path fill="#D24625" d="M538.732 0h65.987v107.168c124.387.723 248.895-1.324 373.283 0a40.7 40.7 0 0145.035 46.119c2.047 222.404 0 444.93 1.204 667.454-1.204 24.083 2.288 50.695-11.199 72.249-16.978 12.041-39.014 10.957-59.002 12.041-116.32-.602-232.64 0-349.2 0v118.487h-72.25C355.1 990.886 177.49 960.662 0 928.753V95.488C179.537 63.7 359.074 31.308 538.732 0z"/><path fill="#FFF" d="M604.719 142.931h383.88v726.217h-383.88V773.9h279.24v-47.563h-279.24V666.13h279.24v-46.962h-279.12v-69.96c46.119 14.57 98.62 14.209 139.8-14.089 44.554-27.093 67.794-78.63 71.647-130.047H663.119c0-51.778.603-103.556-.963-155.213-19.146 3.733-38.171 7.827-57.196 12.041z"/><path fill="#D24625" d="M686.36 224.692A165.69 165.69 0 01839.525 381.23c-51.056.603-102.111 0-153.287 0 .12-52.38.12-104.278.12-156.538z"/><path fill="#FFF" d="M186.642 314.521c63.217 3.13 139.68-25.528 192.662 22.879 50.092 62.374 36.847 176.888-37.449 214.096-26.37 13.847-56.715 12.041-85.373 10.957v139.68l-69.238-5.9c-1.807-127.157-2.047-254.434-.602-381.712z"/><path fill="#D24625" d="M255.76 378.943c22.878-.964 51.296-5.299 66.708 16.737a87.902 87.902 0 011.566 78.149c-13.246 24.083-43.229 22.036-66.469 24.925-2.408-39.857-2.167-79.714-1.806-119.811z"/></svg>