<svg xmlns="http://www.w3.org/2000/svg" width="200" height="200" viewBox="0 0 1024 1024"><path fill="#207245" d="M535.601 0h68.997v95.247h349.2c19.749.843 41.303 0 58.401 12.042 12.042 17.58 10.597 39.977 12.042 60.207q-.963 310.186 0 619.89c0 34.68 3.13 70.082-3.974 104.159-4.576 24.805-33.716 25.407-53.102 26.25H605.32v105.723h-72.249C355.101 991.007 177.49 960.542 0 928.753V95.368C178.574 63.578 357.148 32.27 535.601 0z"/><path fill="#FFF" d="M604.598 131.01h383.88V881.07h-383.88v-71.406h93.08v-83.326h-93.08V678.17h93.08v-82.845h-93.08v-47.563h93.08v-83.447h-93.08v-48.165h93.08v-82.725h-93.08v-48.165h93.08v-82.845h-93.08z"/><path fill="#207245" d="M744.278 202.416h162.8v83.326h-162.8z"/><path fill="#FFF" d="M344.504 314.04q39.616-2.89 79.112-4.937-46.6 97.655-93.802 195.19c31.91 66.59 64.662 132.456 96.33 199.526l-84.289-5.418c-19.748-49.731-43.83-97.656-58.04-149.675-15.774 48.166-38.411 94.044-56.594 141.366-25.407 0-50.935-1.445-76.342-2.529 29.862-60.206 58.762-120.413 89.588-179.777-26.25-61.291-54.91-121.378-81.882-182.428l76.704-4.455c17.34 46.6 36.124 92.478 50.574 140.282 16.135-50.694 39.255-98.257 58.641-147.145z"/><path fill="#207245" d="M744.278 333.426h162.8v83.327h-162.8zm0 130.89h162.8v83.447h-162.8zm0 131.01h162.8v83.327h-162.8zm0 131.01h162.8v83.327h-162.8z"/></svg>