<svg viewBox="0 0 1024 1024" xmlns="http://www.w3.org/2000/svg" width="200" height="200"><path d="M204.207 418.15a64 64 0 00-22.874 49.035v375.482h181.334v-230.4c0-35.348 28.652-64 64-64h170.666c35.348 0 64 28.652 64 64v230.4h181.334V467.185a64 64 0 00-22.874-49.035L553.126 194.494c-23.786-19.951-58.466-19.951-82.252 0L204.207 418.15zm361.126 226.117H458.667v198.4c0 53.02-42.98 96-96 96H181.333c-53.02 0-96-42.98-96-96V467.185a160 160 0 0157.182-122.59L409.182 120.94c59.47-49.878 146.165-49.878 205.636 0l266.667 223.656a160 160 0 0157.182 122.59v375.482c0 53.02-42.98 96-96 96H661.333c-53.02 0-96-42.98-96-96v-198.4z" fill="#fff"/></svg>