<svg viewBox="0 0 1024 1024" xmlns="http://www.w3.org/2000/svg"><path d="M511.154 929.428c-75.15 0-144.128-23.455-188.54-58.486-22.554 6.283-51.405 16.395-69.612 28.935-15.578 10.724-13.637 21.661-10.828 26.077 12.328 19.396 211.484 12.385 268.98 6.344v-2.87z" fill="#FAAD08"/><path d="M497.61 929.428c75.147 0 144.128-23.455 188.54-58.486 22.554 6.283 51.404 16.395 69.613 28.935 15.577 10.724 13.634 21.661 10.828 26.077-12.328 19.396-211.485 12.385-268.982 6.344v-2.87z" fill="#FAAD08"/><path d="M498.058 476.866c123.688-.821 222.815-24.171 256.404-33.131 8.007-2.138 12.29-5.966 12.29-5.966.028-1.099.508-19.643.508-29.208 0-161.093-77.955-322.961-269.66-322.972-191.703.01-269.662 161.879-269.662 322.972 0 9.565.484 28.109.513 29.208 0 0 3.485 3.582 9.87 5.315 31.011 8.42 132.004 32.943 258.826 33.782h.911zM838.515 613.046c-7.613-24.456-18.004-52.975-28.525-80.363 0 0-6.053-.745-9.111.139-94.416 27.38-208.85 44.83-296.055 43.776h-.902c-86.717 1.043-200.375-16.207-294.472-43.319-3.596-1.034-10.694-.595-10.694-.595-10.522 27.387-20.912 55.906-28.524 80.362-36.298 116.611-24.539 164.87-15.584 165.952 19.215 2.32 74.794-87.785 74.794-87.785 0 91.557 82.804 232.141 272.415 233.434a673.134 673.134 0 0 1 5.031 0c189.614-1.293 272.414-141.876 272.414-233.433 0 0 55.58 90.104 74.797 87.785 8.953-1.082 20.712-49.34-15.584-165.953"/><path d="M439.234 329.11c-26.157 1.162-48.511-28.225-49.913-65.584-1.423-37.385 18.617-68.632 44.779-69.8 26.133-1.148 48.472 28.227 49.892 65.6 1.431 37.385-18.612 68.625-44.758 69.784m193.753-65.584c-1.4 37.36-23.756 66.744-49.913 65.584-26.145-1.16-46.19-32.4-44.758-69.783 1.419-37.376 23.757-66.751 49.89-65.6 26.165 1.168 46.205 32.414 44.782 69.799" fill="#FFF"/><path d="M673.196 377.588c-6.865-16.509-75.995-34.9-161.58-34.9h-.92c-85.584 0-154.716 18.391-161.58 34.9a5.854 5.854 0 0 0-.501 2.348c0 1.19.368 2.263.943 3.175 5.783 9.154 82.55 54.391 161.14 54.391h.918c78.588 0 155.353-45.234 161.139-54.39a5.955 5.955 0 0 0 .939-3.182c0-.841-.187-1.628-.498-2.342" fill="#FAAD08"/><path d="M470.405 272.353c1.18 14.894-6.916 28.125-18.062 29.571-11.163 1.448-21.159-9.453-22.346-24.354-1.166-14.902 6.92-28.133 18.046-29.567 11.182-1.452 21.194 9.457 22.362 24.35m68.528 7.44c2.375-3.861 18.588-24.16 52.144-16.769 8.813 1.941 12.89 4.797 13.751 5.922 1.27 1.659 1.618 4.021.33 7.203-2.552 6.305-7.817 6.133-10.738 4.9-1.884-.797-25.256-14.896-46.786 6.143-1.48 1.449-4.13 1.945-6.642.227-2.51-1.72-3.55-5.206-2.059-7.626"/><path d="M504.812 579.964h-.907c-59.595.705-131.855-7.035-201.83-20.55-5.992 33.996-9.61 76.723-6.503 127.684 7.847 128.797 85.894 209.752 206.36 210.934h4.897c120.467-1.182 198.514-82.137 206.363-210.934 3.107-50.965-.513-93.692-6.506-127.69-69.989 13.521-142.261 21.266-201.874 20.556" fill="#FFF"/><path d="M335.07 572.952V701.83s60.897 11.91 121.904 3.665V586.616c-38.648-2.121-80.332-6.848-121.904-13.663" fill="#EB1C26"/><path d="M770.842 437.502s-114.357 37.863-266.01 38.943h-.901c-151.404-1.075-265.62-38.813-266.01-38.942L199.62 537.77c95.8 30.29 214.535 49.814 304.31 48.68l.9-.001c89.783 1.14 208.5-18.385 304.313-48.679l-38.301-100.268z" fill="#EB1C26"/></svg>