<svg viewBox="0 0 1024 1024" xmlns="http://www.w3.org/2000/svg"><path d="M672.56 378.687c9.6 0 18.96.42 28.5 1.32-21.54-136.8-155.7-242.22-318.06-242.22-177.36 0-321.12 125.82-321.12 280.98 0 86.76 45 164.34 115.56 215.94-9 45.12-20.22 104.46-18.6 102.48 2.46-.9 64.5-35.34 103.5-57.9 37.26 13.14 77.94 20.52 120.66 20.52 4.5 0 8.88-.12 13.38-.24a239.34 239.34 0 0 1-7.56-60c-.06-144.06 126.96-260.88 283.74-260.88zm-163.44-91.74c22.2 0 40.14 17.94 40.14 40.08 0 22.2-18 40.2-40.14 40.2a40.14 40.14 0 1 1 0-80.28zm-246.54 80.28a40.14 40.14 0 1 1 .12-80.28 40.14 40.14 0 0 1-.12 80.28zm699.54 263.7c0-129.84-123.18-235.08-275.16-235.08-152.04 0-275.28 105.3-275.28 235.08 0 129.84 123.24 235.2 275.28 235.2a314.1 314.1 0 0 0 115.8-21.84c36.3 19.38 75.84 39.78 77.82 40.38 1.38 1.5-6.42-36.48-14.88-74.82 58.92-43.32 96.42-107.28 96.42-178.92zm-378.42-51.6a40.14 40.14 0 1 1-.12-80.28 40.14 40.14 0 0 1 .12 80.28zm200.64 0a40.2 40.2 0 0 1-40.2-40.08c0-22.14 18.06-40.2 40.2-40.2 22.14 0 40.2 18.06 40.2 40.2a40.2 40.2 0 0 1-40.2 40.08z" fill="#50B674"/></svg>