<svg class="icon" viewBox="0 0 1024 1024" xmlns="http://www.w3.org/2000/svg" width="200" height="200"><path d="M-19.313999999999965 512a531.314 531.314 0 101062.628 0 531.314 531.314 0 10-1062.628 0z" fill="#22C30C"/><path d="M473.831 550.169c-49.206-49.155-96.236-106.126-73.681-128.647 32.239-32.238 60.295-52.103 3.222-123.145-57.125-71.11-95.242-16.539-126.487 14.689-35.992 36.06-1.885 170.363 130.857 303.157C540.485 748.966 674.84 783.124 710.9 747.081c31.228-31.228 85.816-69.294 14.757-126.419-71.06-57.142-90.923-29.068-123.145 3.222-22.572 22.453-79.474-24.577-128.68-73.715" fill="#FFF"/></svg>