<svg viewBox="0 0 1024 1024" xmlns="http://www.w3.org/2000/svg" width="200" height="200"><path d="M0 512a512 512 0 101024 0A512 512 0 100 512z" fill="#22C30C"/><path d="M471.152 508.4c0 55.248-44.576 100.032-99.568 100.032S272 563.632 272 508.4c0-55.248 44.592-100.048 99.584-100.048 54.992 0 99.568 44.8 99.568 100.048zm-99.568 0l272.128-145.376L371.584 508.4zm0 0l273.728 136.576L371.584 508.4zM720 644.928C720 686.4 686.56 720 645.312 720c-41.28 0-74.672-33.6-74.672-75.072 0-41.44 33.392-75.04 74.672-75.04 41.232 0 74.688 33.6 74.688 75.04zm-1.6-281.904c0 41.44-33.456 75.04-74.688 75.04s-74.688-33.6-74.688-75.04c0-41.424 33.456-75.024 74.688-75.024s74.688 33.6 74.688 75.04zm-133.584 10.48l16.64 30.784-142.208 77.616-16.64-30.768 142.208-77.632zm12.432 225.056l-15.264 31.488-136.8-66.928 15.248-31.488 136.816 66.928z" fill="#FFF"/></svg>