<svg viewBox="0 0 1024 1024" xmlns="http://www.w3.org/2000/svg" width="200" height="200"><path d="M636.123 387.883c105.024 105.133 103.582 273.688.632 377.209-.193.21-.421.44-.632.65L517.998 883.867c-104.186 104.186-273.69 104.171-377.86 0-104.185-104.168-104.185-273.691 0-377.86l65.226-65.225c17.297-17.297 47.084-5.8 47.977 18.644 1.14 31.152 6.726 62.45 17.034 92.673 3.49 10.234.996 21.555-6.65 29.201l-23.005 23.004c-49.264 49.265-50.81 129.481-2.03 179.227 49.261 50.237 130.23 50.535 179.868.897L536.683 666.32c49.555-49.554 49.347-129.65 0-178.998-6.505-6.493-13.059-11.538-18.177-15.063a28.19 28.19 0 0 1-12.212-22.159c-.696-18.574 5.885-37.715 20.563-52.393l37.009-37.01c9.705-9.706 24.93-10.897 36.183-3.043a268.035 268.035 0 0 1 36.074 30.229zm247.737-247.75c-104.17-104.171-273.674-104.186-377.86 0L387.877 258.258c-.211.21-.44.44-.633.65-102.948 103.521-104.391 272.076.633 377.21a267.986 267.986 0 0 0 36.072 30.227c11.253 7.854 26.48 6.66 36.182-3.043l37.01-37.01c14.677-14.679 21.258-33.82 20.562-52.394a28.19 28.19 0 0 0-12.211-22.16c-5.119-3.524-11.672-8.568-18.178-15.062-49.347-49.347-49.554-129.443 0-178.998l118.125-118.107c49.64-49.64 130.606-49.34 179.868.896 48.78 49.746 47.236 129.962-2.03 179.227l-23.004 23.004c-7.647 7.647-10.141 18.967-6.65 29.201 10.308 30.224 15.894 61.522 17.033 92.674.895 24.444 30.68 35.94 47.978 18.643l65.225-65.225c104.188-104.167 104.188-273.69.002-377.858z" fill="#3478f7"/></svg>