<svg class="icon" viewBox="0 0 1024 1024" xmlns="http://www.w3.org/2000/svg" width="200" height="200"><path d="M941.98 731.984H581.989l119.996-119.998L502.01 332.004h439.97L821.985 531.98z" fill="#DA4453"/><path d="M142.02 212.007h559.964v399.98H142.02z" fill="#ED5564"/><path d="M142.02 991.989c-11.046 0-20.01-8.965-20.01-20.01v-832.48c0-11.045 8.964-20.01 20.01-20.01s19.977 8.965 19.977 20.01v832.48c0 11.045-8.934 20.01-19.978 20.01z" fill="#F6BB42"/><path d="M142.02 32.011c-33.106 0-60 26.893-60 59.998 0 33.077 26.894 60 60 60 33.074 0 59.997-26.923 59.997-60 0-33.105-26.925-59.998-59.998-59.998zm407.624 281.507a19.997 19.997 0 00-21.795 4.335L482 363.703l-45.847-45.85a19.999 19.999 0 00-28.302 0l-45.847 45.85-45.85-45.85c-5.74-5.713-14.326-7.442-21.795-4.335a19.988 19.988 0 00-12.363 18.486V491.99c0 11.046 8.964 20.01 20.008 20.01H542c11.044 0 20.008-8.964 20.008-20.01V332.004c0-8.115-4.892-15.41-12.364-18.486z" fill="#FFCE54"/><path d="M581.988 611.986v119.998l119.996-119.998z" fill="#BA3246"/></svg>