<svg class="icon" viewBox="0 0 1024 1024" xmlns="http://www.w3.org/2000/svg" width="200" height="200"><path d="M62 512a450 450 0 10900 0 450 450 0 10-900 0z" fill="#3498db"/><path d="M302 452h120v240c0 16.5-13.5 30-30 30h-60c-16.5 0-30-13.5-30-30V452zm279 13.5L696.5 434 758 666.5c4.5 16.5-4.5 33-21 36l-58.5 15c-16.5 4.5-33-4.5-36-21l-61.5-231zM332 362h60c16.5 0 30 13.5 30 30v45H302v-45c0-16.5 13.5-30 30-30zm253.5 9l58.5-15c16.5-4.5 33 4.5 36 21l12 43.5L576.5 452l-12-45c-4.5-16.5 6-33 21-36z" fill="#FFF"/><path d="M482 287h60c16.5 0 30 13.5 30 30v315H452V317c0-16.5 13.5-30 30-30zm-30 360h120v45c0 16.5-13.5 30-30 30h-60c-16.5 0-30-13.5-30-30v-45zM512 377v178.5" fill="#FFF"/></svg>