<svg viewBox="0 0 1024 1024" xmlns="http://www.w3.org/2000/svg"><path d="M515.587 739.235c3.844 0 7.755-.236 11.69-.7 37.756-4.535 69.817-30.925 81.65-67.29.892-2.72-.398-5.634-3.001-6.83-2.577-1.2-5.693-.162-7.147 2.277-.14.232-15.14 24.462-73.54 32.349-8.74 1.173-17.247 1.789-25.309 1.789-40.915-.026-59.15-15.447-59.314-15.59-2.058-1.83-5.2-1.878-7.313-.094-2.13 1.782-2.62 4.883-1.169 7.254 17.813 28.876 49.772 46.835 83.453 46.835zm0 0" fill="#707070"/><path d="M829.594 377.313c-.518 0-.987.093-1.475.093-34.217-148.14-164.965-258.645-321.72-258.645-161.07 0-294.817 116.61-324.458 270.879-28.824 5.187-50.764 30.519-50.764 61.16v122.62c0 34.367 27.56 62.234 61.59 62.234 19.195 0 36.137-9.064 47.407-22.984 27.233 72.03 82.674 130.106 152.837 160.746.168-.364 1.495-2.948 3.093-5.007 1.107-1.426 2.344-2.595 3.405-2.595 1.103 0 2.11.398 2.974 1.008-16.238-12.09-74.892-74.235-87.598-160.959-5.577-38.174 23.015-75.646 56.313-81.84 53.456-9.958 106.633-21.295 160.09-31.06 33.98-6.2 57.202-24.838 71.404-55.875 3.327-7.256 8.13-21.928 10.335-43.083.585-3.146 3.165-5.561 6.47-5.561 2.205 0 4.08 1.125 5.322 2.749l1.474-.92c21.068 30.59 62.854 98.32 68.854 169.74 6.889 81.653 3.045 137.576-59.452 194.79-.075.071-.17.161-.26.237a5.1 5.1 0 0 0-1.382 3.495c0 1.76.937 3.263 2.295 4.177.513.214 1.03.496 1.549.709.419.094.82.23 1.24.23.424 0 .8-.137 1.174-.23.89-.469 1.733-1.012 2.599-1.481 63.206-34.82 111.692-92.968 134.096-162.91 9.071 13.475 23.271 23.173 39.768 26.556-26.458 120.34-133.788 195.655-266.76 207.09-7.969-19.768-27.583-33.808-50.62-33.808-30.089 0-54.488 23.834-54.488 53.2 0 29.368 24.395 53.171 54.487 53.171 24.257 0 44.576-15.585 51.626-36.995 153.924-12.516 277.31-104.006 303.066-246.158 22.757-9.51 38.737-31.836 38.737-57.896V440.118c0-34.679-28.31-62.805-63.228-62.805zM772.81 412.95c-40.147-108.745-144.174-186.43-266.55-186.43-121.868 0-225.521 77.026-266.039 185.07-2.018-2.469-4.38-4.58-6.701-6.714C256.46 273.215 369.77 173.11 506.398 173.11c135.971 0 248.928 99.122 272.622 229.866-2.343 3.146-4.5 6.432-6.21 9.976zm0 0" fill="#707070"/><path d="M393.022 773.415h-.01c-.024.056-.024.064.01 0zm0 0" fill="#707070"/></svg>