<svg viewBox="0 0 1024 1024" xmlns="http://www.w3.org/2000/svg"><path d="M883.68 391.733h-55.573V628.32a63.413 63.413 0 0 1-63.467 63.467H383.467v68.533a43.893 43.893 0 0 0 44.266 43.893h284.534L799.04 919.04a15.733 15.733 0 0 0 28.427-8.533v-104.96h56.96a43.893 43.893 0 0 0 44.213-43.84V435.893a44.107 44.107 0 0 0-44.907-44.213z" fill="#C1D9FF"/><path d="M763.68 171.253H162.987a68.587 68.587 0 0 0-66.88 66.614v387.04a68.587 68.587 0 0 0 66.88 66.88h61.706V820a14.72 14.72 0 0 0 24.694 10.987l106.933-139.2h407.36a68.587 68.587 0 0 0 66.827-66.88v-387.04a68.533 68.533 0 0 0-66.774-66.667zM294.933 481.92a51.413 51.413 0 1 1 0-102.88 51.413 51.413 0 0 1 0 102.88zm169.014 0a51.413 51.413 0 1 1 0-102.88 51.413 51.413 0 0 1 0 102.88zm168 0a51.413 51.413 0 1 1 0-102.88 51.413 51.413 0 0 1 0 102.88z" fill="#4D91FF"/></svg>