<svg viewBox="0 0 1025 1024" xmlns="http://www.w3.org/2000/svg" width="200" height="200"><path d="m884.468 146.066-3.388-3.388c-79.107-79.108-208.552-79.108-287.66 0L410.144 325.954c-79.108 79.108-79.108 208.525 0 287.633l3.388 3.388c6.588 6.588 13.579 12.53 20.785 18.043l67.089-67.089c-7.825-4.624-15.22-10.137-21.942-16.859l-3.388-3.388c-42.942-42.942-42.942-112.827 0-155.769L659.353 208.61c42.942-42.942 112.826-42.942 155.768 0l3.388 3.388c42.942 42.942 42.942 112.854 0 155.769l-82.926 82.926c14.386 35.547 21.216 73.434 20.624 111.24L884.442 433.7c79.107-79.108 79.107-208.552.026-287.633zm-270.88 264.078c-6.589-6.588-13.58-12.53-20.786-18.016l-67.088 67.089c7.824 4.625 15.219 10.137 21.941 16.86l3.388 3.387c42.942 42.942 42.942 112.827 0 155.769L367.767 818.536c-42.942 42.942-112.827 42.942-155.77 0l-3.387-3.388c-42.942-42.942-42.942-112.827 0-155.769l82.926-82.926c-14.386-35.547-21.216-73.434-20.624-111.24L142.678 593.447c-79.108 79.108-79.108 208.552 0 287.66l3.388 3.388c79.108 79.108 208.552 79.108 287.66 0L617.002 701.22c79.108-79.108 79.108-208.552 0-287.66l-3.415-3.415z" fill="#8a8a8a"/></svg>