<svg viewBox="0 0 1024 1024" xmlns="http://www.w3.org/2000/svg" width="81" height="81"><path d="M680.926 925.438c90.967-37.178 166.992-103.448 216.386-187.383L461.2 701.229l219.727 224.209zM459.002 701.053l2.11.176-1.143-1.143z" fill="#57E2F3"/><path d="M346.941 926.756c51.153 20.39 106.963 31.64 165.323 31.64 43.506 0 85.517-6.24 125.244-17.841L348.61 601.648l-1.67 325.108zm.264-326.777l1.406 1.67v-1.67z" fill="#5AEC43"/><path d="M342.459 440.281l-.176 2.11 1.143-1.143zM100.232 684.09c40.518 96.943 114.346 176.484 207.07 224.472l34.981-466.26-242.05 241.788z" fill="#B9ED3E"/><path d="M445.818 328.045l-1.67 1.406 1.67-.088zm-342.685 4.922c-23.994 54.756-37.266 115.312-37.266 178.945 0 46.23 7.031 90.791 20.04 132.715l358.33-315.176-341.104 3.516z" fill="#F1DC3E"/><path d="M600.77 324.793l-2.11-.176 1.143 1.143zM364.52 90.564C262.918 126.16 178.104 197.44 125.105 289.461l473.467 35.156L364.52 90.564z" fill="#F1B448"/><path d="M738.8 412.3l-1.6-1.9v1.9zm-27.904-300.29c-59.853-29.795-127.265-46.494-198.632-46.494-33.926 0-66.973 3.779-98.702 10.986L709.93 422.791l.966-310.781z" fill="#F37D50"/><path d="M934.754 367.42c-32.608-95.361-96.592-176.133-179.56-230.098l-38.848 442.793L934.754 367.42zM716.082 582.225l.176-2.11-1.143 1.143z" fill="#6D61F8"/><path d="M920.34 693.23c24.61-55.37 38.32-116.718 38.32-181.23 0-38.145-4.746-75.146-13.799-110.479l-332.49 297.51 307.969-5.8zm-309.55 7.207l1.581-1.406h-1.582z" fill="#589EF7"/></svg>