<svg xmlns="http://www.w3.org/2000/svg" viewBox="0 0 1024 1024"><path fill="#8a8a8a" d="M142.86 459.266h316.406V142.859H142.859v316.407zm105.468-210.938h105.469v105.469H248.328V248.328zM564.734 142.86v316.407h316.407V142.859H564.734zm210.938 210.938H670.203V248.328h105.469v105.469zM142.859 881.14h316.407V564.734H142.859v316.407zm105.47-210.938h105.468v105.469H248.328V670.203zm580.077-105.469h52.735v210.938H722.938v-52.735h-52.735v158.204H564.734V564.734h158.203v52.735h105.47v-52.735zm0 263.672h52.735v52.735h-52.735v-52.735zm-105.468 0h52.734v52.735h-52.735v-52.735z"/></svg>