<svg viewBox="0 0 1024 1024" xmlns="http://www.w3.org/2000/svg"><path d="M512 90.667c5.2.04 10.4 2.44 13 7.28l125.2 229.6a15.32 15.32 0 0 0 10.68 7.76l259.56 47.8a14.12 14.12 0 0 1 7.56 23.76l-193.76 202.56 6.8.04c23.76.08 43.56-.76 56.44-2 10.28-1 12.28 5.6 12.28 5.6a684 684 0 0 1-70.84 24.28l39.28 237.04a14.12 14.12 0 0 1-20 14.92l-239.6-114a15.28 15.28 0 0 0-13.2 0l-239.6 114a14.12 14.12 0 0 1-20-14.92l43.16-260.08a15.36 15.36 0 0 0-4.16-13L96 406.867a14.12 14.12 0 0 1 7.6-23.76l259.52-47.8a15.32 15.32 0 0 0 10.64-7.76l125.2-229.6a14.68 14.68 0 0 1 13.04-7.28zm26.84 285.16c-100.36-.8-198.92 27.44-242.16 50.36-10.28 5.44-4.12 19.76 6.4 18.16 153.44-23.52 253.72 11.88 257.96 15.52 3.04 2.6 2.88 6.4-.48 9.04-2.8 2.24-186.2 133.52-241.32 179.84-8.68 7.28-6.4 22.56 7.8 25.16 13.2 2.4 36.8 5.04 60.56 5.84 144.48 4.96 269.2-18.68 351.32-42.4l-4.68-27.92h-3.64c-67.48-.88-161.44-8.68-224.52-32.84-4.8-1.84-6.4-7.04-2-10.4 37.4-28.76 144.52-103.12 182.24-135.08 7.36-6.24 9.32-14.4.4-21-17.2-12.68-77.76-33.72-147.88-34.28z" fill="#FFCD00"/></svg>