<svg viewBox="0 0 1024 1024" xmlns="http://www.w3.org/2000/svg"><path d="M645.464 90.125c-62.142 28.68-219.067 8.535-256.905 46.373-53.793 53.793-48.642 148.938-56.29 221.602-86.1-12.732 10.192 132.916 35.75 156.938 30.999 31.075 58.543 50.004 54.231 98.533-8.96 100.828-187.662 97.596-246.763 158.916C66.277 885.929 403.722 930.652 491.202 933.79c62.213 2.227 439.526-40.935 370.41-144.054-64.834-96.727-265.25-89.88-267.165-170.522-1.19-49.03 32.746-76.595 62.535-110.489 26.755-27.869 117.521-166.168 36.779-155.473 20.119-113.902-38.91-158.174-48.297-263.128z" fill="#7dc5eb"/></svg>