<svg viewBox="0 0 1024 1024" xmlns="http://www.w3.org/2000/svg"><path d="M219.429 73.143H804.57a109.714 109.714 0 0 1 109.715 109.714v697.088a73.143 73.143 0 0 1-99.767 68.133C632.942 877.056 532.078 841.582 512 841.582c-20.114 0-120.942 35.474-302.519 106.496a73.143 73.143 0 0 1-99.767-68.17v-697.05A109.714 109.714 0 0 1 219.43 73.142z" fill="#FFB156"/><path d="M914.286 182.857v438.857H512V73.143h292.571a109.714 109.714 0 0 1 109.715 109.714zM109.714 292.571H512v402.286H109.714z" fill="#FEC965"/><path d="M512 292.571h402.286v402.286H512z" fill="#FFB156"/><path d="m494.994 630.674-79.177 41.619a18.286 18.286 0 0 1-26.514-19.274l15.104-88.137a36.571 36.571 0 0 0-10.533-32.402l-64-62.427a18.286 18.286 0 0 1 10.057-31.196l88.503-12.836a36.571 36.571 0 0 0 27.539-20.005l39.606-80.238a18.286 18.286 0 0 1 32.768 0l39.607 80.238a36.571 36.571 0 0 0 27.539 20.005l88.502 12.836a18.286 18.286 0 0 1 10.13 31.196l-64 62.427a36.571 36.571 0 0 0-10.532 32.366l15.104 88.137a18.286 18.286 0 0 1-26.514 19.31l-79.177-41.619a36.571 36.571 0 0 0-34.012 0z" fill="#FFF"/></svg>