<svg xmlns="http://www.w3.org/2000/svg" viewBox="0 0 48 48"><path fill="#ffd54f" d="M31.2 33.53a17.6 17.6 0 01-13.42-26.7.8.8 0 00-1-1.15A20 20 0 1043.12 32 .8.8 0 0042 31a17.5 17.5 0 01-10.8 2.53zM37.68 25.1l-1.1-2.84a.79.79 0 00-.44-.44l-2.84-1.1a.77.77 0 010-1.44l2.84-1.1a.79.79 0 00.44-.44l1.1-2.84a.77.77 0 011.44 0l1.1 2.84a.79.79 0 00.44.44l2.84 1.1a.77.77 0 010 1.44l-2.84 1.1a.79.79 0 00-.44.44l-1.1 2.84a.77.77 0 01-1.44 0zM26.89 9.39l-.47-1.22a.3.3 0 00-.19-.17L25 7.51a.33.33 0 010-.62l1.22-.47a.3.3 0 00.19-.19L26.89 5a.33.33 0 01.62 0L28 6.23a.3.3 0 00.19.19l1.22.47a.33.33 0 010 .62L28.17 8a.3.3 0 00-.19.19l-.47 1.22a.33.33 0 01-.62-.02z"/></svg>