<svg xmlns="http://www.w3.org/2000/svg" viewBox="0 0 48 48"><path fill="#ffd54f" d="M41.93 19.91A8.79 8.79 0 0135.46 7a.8.8 0 00-.87-1.17A10.39 10.39 0 1045.93 21a.8.8 0 00-.87-1.16 8.83 8.83 0 01-3.13.07zM43.69 15.79l-.47-1.22a.3.3 0 00-.19-.19l-1.22-.47a.33.33 0 010-.62l1.19-.47a.3.3 0 00.19-.19l.47-1.22a.33.33 0 01.62 0l.47 1.22a.3.3 0 00.19.19l1.22.47a.33.33 0 010 .62l-1.16.47a.3.3 0 00-.19.19l-.47 1.22a.33.33 0 01-.65 0zM23.69 7l-.47-1.22a.3.3 0 00-.22-.2l-1.22-.47a.33.33 0 010-.62L23 4a.3.3 0 00.19-.19l.47-1.22a.33.33 0 01.62 0l.47 1.22A.3.3 0 0025 4l1.22.47a.33.33 0 010 .62L25 5.58a.3.3 0 00-.19.19L24.31 7a.33.33 0 01-.62 0z"/><path fill="#c9eaf2" d="M36.8 21.6a10.35 10.35 0 00-2.8.4 16.8 16.8 0 10-16.4 20.4h18a2.58 2.58 0 00.4 0h.8a10.4 10.4 0 100-20.8z"/></svg>