<svg xmlns="http://www.w3.org/2000/svg" viewBox="0 0 48 48"><path fill="#ffd54f" d="M42.27 14.26a7.2 7.2 0 01-5.22-9.9c.28-.66-.08-1.18-.79-1.11a9.6 9.6 0 1010.32 11.86.8.8 0 00-1-1 7.14 7.14 0 01-3.31.15z"/><path fill="#81d4fa" d="M17.57 45.39A1.61 1.61 0 0117 43.2l3.25-5.6a1.6 1.6 0 012.16-.6 1.59 1.59 0 01.59 2.2l-3.24 5.6a1.61 1.61 0 01-2.19.59zM24.52 45.39a1.61 1.61 0 01-.59-2.19l3.25-5.6a1.6 1.6 0 012.18-.6 1.59 1.59 0 01.64 2.2l-3.24 5.6a1.61 1.61 0 01-2.24.59z"/><path fill="#c9eaf2" d="M36.27 16a10 10 0 00-1.9.19 16 16 0 10-15.7 19h17.6a9.6 9.6 0 000-19.2z"/></svg>