<svg xmlns="http://www.w3.org/2000/svg" viewBox="0 0 48 48"><path fill="#ffd54f" d="M42 14.26a7.2 7.2 0 01-5.22-9.9c.29-.66-.07-1.18-.78-1.11a9.61 9.61 0 00-8.6 9.82 9.71 9.71 0 009.67 9.33 9.61 9.61 0 009.25-7.29.8.8 0 00-1-1 7.19 7.19 0 01-3.32.15z"/><path fill="#c9eaf2" d="M36 16a9.77 9.77 0 00-1.89.19 16 16 0 10-15.71 19H36A9.6 9.6 0 0036 16z"/><circle fill="#81d4fa" cx="24" cy="41.2" r=".98"/><rect fill="#81d4fa" x="23.02" y="36.8" width="1.96" height="2.93" rx=".98" ry=".98"/><rect fill="#81d4fa" x="23.02" y="42.67" width="1.96" height="2.93" rx=".98" ry=".98"/><rect fill="#81d4fa" x="20.48" y="38.27" width="1.96" height="2.93" rx=".98" ry=".98" transform="rotate(-60 21.459 39.732)"/><rect fill="#81d4fa" x="25.56" y="41.2" width="1.96" height="2.93" rx=".98" ry=".98" transform="rotate(-60 26.542 42.667)"/><rect fill="#81d4fa" x="20.48" y="41.2" width="1.96" height="2.93" rx=".98" ry=".98" transform="rotate(-120 21.459 42.664)"/><rect fill="#81d4fa" x="25.56" y="38.27" width="1.96" height="2.93" rx=".98" ry=".98" transform="rotate(-120 26.539 39.731)"/></svg>