<svg viewBox="0 0 1024 1024" xmlns="http://www.w3.org/2000/svg" width="200" height="200"><path d="M512 775.467c16.64 0 31.893 8.426 40.747 22.613a79.427 79.427 0 0010.666 13.653c-1.813 5.547-3.093 11.307-3.733 17.174-1.28 11.626-6.827 22.293-15.573 30.293-6.187 5.653-16.854 12.267-32.107 12.267-26.453 0-48-21.547-48-48s21.547-48 48-48M512 67.2c-176 0-320 144-320 320v160c0 33.387 5.227 65.707 14.827 96h91.2l-2.24-5.12c-12.267-28.8-18.454-59.413-18.454-90.88v-160c0-31.467 6.187-62.08 18.454-90.88 11.84-27.947 28.906-53.12 50.56-74.773 21.653-21.654 46.826-38.72 74.773-50.56 28.8-12.267 59.413-18.454 90.88-18.454s62.08 6.187 90.88 18.454c27.947 11.84 53.12 28.906 74.773 50.56 21.654 21.653 38.72 46.826 50.56 74.773 12.267 28.8 18.454 59.413 18.454 90.88v160c0 31.467-6.187 62.08-18.454 90.88-11.84 27.947-28.906 53.12-50.56 74.773-15.786 15.787-33.493 29.12-52.693 39.787-23.573-37.547-65.387-62.507-112.96-62.507-73.6 0-133.333 59.734-133.333 133.334S438.4 956.8 512 956.8c68.587 0 125.12-51.84 132.48-118.507C754.88 787.627 832 676.053 832 547.2v-160c0-176-144-320-320-320z" fill="#4A5FE2"/><path d="M831.893 380.587c13.867 4.266 26.667 12.053 37.334 22.72 17.173 17.173 26.666 39.893 26.666 64 0 24-9.493 46.72-26.666 64-10.667 10.666-23.467 18.346-37.334 22.72 0-2.24.107-4.48.107-6.614V387.2c0-2.24 0-4.48-.107-6.613m-26.56-89.387h-79.36c13.227 29.333 20.694 61.867 20.694 96v160c0 34.133-7.36 66.667-20.694 96h79.36c96.854 0 176-79.253 176-176s-79.146-176-176-176zm-613.226 89.387c0 2.24-.107 4.48-.107 6.613v160c0 2.24 0 4.48.107 6.613-13.867-4.266-26.667-12.053-37.334-22.72-17.173-17.173-26.666-39.893-26.666-64 0-24 9.493-46.72 26.666-64 10.56-10.56 23.36-18.24 37.334-22.506m105.92-89.387zm0 0h-79.36c-96.854 0-176 79.253-176 176s79.146 176 176 176h79.36c-13.227-29.333-20.694-61.867-20.694-96v-160c0-34.133 7.36-66.667 20.694-96z" fill="#7c44e2"/><path d="M512 775.467c26.453 0 48 21.546 48 48s-21.547 48-48 48-48-21.547-48-48 21.547-48 48-48m0-85.334c-73.6 0-133.333 59.734-133.333 133.334S438.4 956.8 512 956.8s133.333-59.733 133.333-133.333S585.6 690.133 512 690.133z" fill="#4A5FE2"/></svg>