<svg class="icon" viewBox="0 0 1024 1024" xmlns="http://www.w3.org/2000/svg" width="200" height="200"><path d="M935.07 190.116c-13.434-47.53-50.882-84.977-98.41-98.412a142.766 142.766 0 00-38.903-5.37H227.072a142.755 142.755 0 00-38.897 5.37c-47.523 13.44-84.971 50.883-98.411 98.412a142.725 142.725 0 00-5.371 38.896v570.686c0 13.48 1.874 26.527 5.366 38.891 13.44 47.524 50.882 84.977 98.411 98.412a142.53 142.53 0 0038.897 5.37h570.69c13.492 0 26.537-1.868 38.907-5.37 47.509-13.44 84.956-50.883 98.396-98.391a142.838 142.838 0 005.371-38.912l.01-570.686c0-13.48-1.873-26.531-5.37-38.896zM459.265 695.66l-.072.061c-7.378 6.292-12.236 12.657-15.37 18.662a187.197 187.197 0 01-15.616-.732c-45.655 25.508-124.226 17.02-143.626-.333-15.012-13.394-14.229-30.889 3.471-45.957 4.69-3.957 12.949-7.388 22.487-10.296-15.55-16.957-27.361-36.966-34.427-58.834-4.116 6.538-7.828 12.544-10.29 16.876-9.55 16.844-21.162 18.473-27.787.245-7.363-20.208-4.849-51.128 8.714-86.077 8.387-21.591 22.416-39.91 32.65-51.748-3.783-6.625-5.944-13.553-5.944-20.73 0-14.982 8.812-28.954 23.926-40.96 7.685-77.615 70.41-138.138 146.703-138.138 40.56 0 77.302 17.126 103.967 44.835a166.006 166.006 0 00-32.64 24.157c-28.396 26.936-46.848 63.017-52.47 102.287-20.45 18.734-24.955 37.596-24.955 50.59 0 5.914.958 11.818 2.847 17.639-12.636 16.051-22.129 32.133-28.268 47.949-15.001 38.656-18.145 73.984-8.857 99.471 7.46 20.542 20.439 24.622 27.505 25.232 10.429.89 18.647-4.194 24.657-10.368a172.62 172.62 0 007.983 12.8 45.038 45.038 0 00-4.588 3.369zm347.305-51.518c-5.816 15.96-15.974 14.53-24.34-.22-2.15-3.789-5.407-9.052-9.012-14.782a139.674 139.674 0 01-29.921 51.282c8.73 2.617 16.282 5.684 20.531 9.278 15.488 13.2 16.185 28.518 3.052 40.253-16.999 15.202-85.945 22.646-125.911.256-4.895.43-9.851.681-14.864.681a162.048 162.048 0 01-13.906-.645c-39.992 22.344-108.82 14.91-125.808-.292-13.143-11.735-12.462-27.054 3.041-40.253 4.106-3.472 11.34-6.482 19.697-9.022a139.884 139.884 0 01-30.157-51.538 415.488 415.488 0 00-9.016 14.782c-8.367 14.766-18.54 16.19-24.34.22-6.452-17.7-4.25-44.785 7.628-75.402 7.352-18.913 19.635-34.96 28.6-45.333-3.312-5.8-5.207-11.868-5.207-18.155 0-13.123 7.721-25.365 20.951-35.881 6.733-67.989 61.68-121.001 128.512-121.001 66.811 0 121.764 53.023 128.502 121 13.225 10.517 20.951 22.76 20.951 35.882 0 6.287-1.874 12.354-5.202 18.155 8.965 10.384 21.263 26.414 28.595 45.333h-.01c11.884 30.617 14.085 57.702 7.634 75.402z" fill="#17abe3"/></svg>