<svg viewBox="0 0 1024 1024" xmlns="http://www.w3.org/2000/svg" width="81" height="81"><path d="M90.125 512a421.875 421.875 0 10843.75 0 421.875 421.875 0 10-843.75 0z" fill="#0BF"/><path d="M699.392 288.71L231.743 399.464c-22.715 5.379-30.73 33.605-14.212 50.11l126.246 126.247v145.744c0 12.868 15.201 19.697 24.825 11.14l69.926-62.147 135.896 135.897c16.506 16.505 44.732 8.503 50.111-14.212l110.756-467.649c5.115-21.581-14.305-41-35.9-35.886z" fill="#004387"/><path d="M735.422 312.466c-.131-.751-.184-1.529-.369-2.267a29.742 29.742 0 00-2.307-5.84l-.145-.317a31.417 31.417 0 00-3.757-5.498L397.883 626.117l-47.79 107.512c5.286 3.731 12.84 4.127 18.51-.91l69.925-62.147L574.424 806.47c8.754 8.754 20.725 10.454 30.916 6.882a31.485 31.485 0 006.433-3.112l.159-.118a28.608 28.608 0 005.313-4.39c.527-.554.91-1.253 1.397-1.846 1.068-1.305 2.149-2.597 2.993-4.127 1.239-2.28 2.254-4.772 2.9-7.501l110.756-467.649c.606-2.557.817-5.075.764-7.527-.026-1.596-.343-3.099-.633-4.615z" fill="#007FC3"/></svg>