<svg xmlns="http://www.w3.org/2000/svg" width="84" height="84" viewBox="0 0 1024 1024"><path fill="#607D8B" d="M844.8 580.267c2.133-14.934 4.267-29.867 4.267-46.934s-2.134-32-4.267-46.933l96-68.267c8.533-6.4 12.8-19.2 6.4-29.866L853.333 230.4c-6.4-10.667-17.066-14.933-27.733-8.533l-106.667 49.066c-25.6-19.2-51.2-34.133-81.066-46.933L627.2 106.667c-2.133-10.667-10.667-19.2-21.333-19.2H422.4c-10.667 0-21.333 8.533-21.333 19.2L390.4 224c-29.867 12.8-57.6 27.733-81.067 46.933l-106.666-49.066c-10.667-4.267-23.467 0-27.734 8.533L83.2 388.267c-6.4 10.666-2.133 23.466 6.4 29.866l96 68.267c-2.133 14.933-4.267 29.867-4.267 46.933s2.134 32 4.267 46.934L85.333 648.533c-8.533 6.4-12.8 19.2-6.4 29.867l91.734 157.867c6.4 10.666 17.066 14.933 27.733 8.533l106.667-49.067c25.6 19.2 51.2 34.134 81.066 46.934L396.8 960c2.133 10.667 10.667 19.2 21.333 19.2H601.6c10.667 0 21.333-8.533 21.333-19.2L633.6 842.667c29.867-12.8 57.6-27.734 81.067-46.934L821.333 844.8c10.667 4.267 23.467 0 27.734-8.533L940.8 678.4c6.4-10.667 2.133-23.467-6.4-29.867l-89.6-68.266zM512 746.667c-117.333 0-213.333-96-213.333-213.334S394.667 320 512 320s213.333 96 213.333 213.333-96 213.334-213.333 213.334z"/><path fill="#455A64" d="M512 277.333c-140.8 0-256 115.2-256 256s115.2 256 256 256 256-115.2 256-256-115.2-256-256-256zM512 640c-59.733 0-106.667-46.933-106.667-106.667S452.267 426.667 512 426.667 618.667 473.6 618.667 533.333 571.733 640 512 640z"/></svg>