<svg xmlns="http://www.w3.org/2000/svg" width="200" height="200" viewBox="0 0 1024 1024"><path fill="#E2574C" d="M89.7 186.4C241.7 32 391.3 100 512.1 209.6c120-109.6 269.6-178.4 422.4-23.2 119.2 120.8 120 315.2 0 436-200.8 184-305.6 279.2-360.8 329.6a89.652 89.652 0 01-120.8 0c-55.2-49.6-160.8-145.6-363.2-329.6-120-120-119.2-314.4 0-436z"/><path fill="#D65348" d="M512.1 209.6V976c21.6 0 44-8 61.6-23.2 55.2-50.4 160-145.6 360.8-329.6 120-120.8 119.2-315.2 0-436-152.8-156-302.4-87.2-422.4 22.4z"/><path fill="#EFC75E" d="M784.1 168c72-8 112-48 120-120 8 72 48 112 120 120-72 8-112 48-120 120-8-72-48-112-120-120z"/><path fill="#E67067" d="M112.1 395.2c0-103.2 84-187.2 187.2-187.2 12 0 20.8 9.6 20.8 20.8 0 12-9.6 20.8-20.8 20.8-80 0-144.8 64.8-144.8 144.8 0 12-9.6 20.8-20.8 20.8-12 .8-21.6-8.8-21.6-20z"/></svg>