<svg xmlns="http://www.w3.org/2000/svg" viewBox="0 0 48 48"><path d="M14.68 45.39a1.61 1.61 0 01-.59-2.19l3.25-5.6a1.6 1.6 0 012.18-.6 1.59 1.59 0 01.59 2.18l-3.24 5.6a1.61 1.61 0 01-2.19.61zm13.8 0a1.6 1.6 0 01-.59-2.19l3.24-5.6a1.61 1.61 0 012.19-.6 1.6 1.6 0 01.59 2.18l-3.25 5.6a1.6 1.6 0 01-2.18.61zm-5.13-3.09a1.61 1.61 0 01-.58-2.19l.54-.91a1.61 1.61 0 012.19-.58 1.6 1.6 0 01.58 2.18l-.54.91a1.6 1.6 0 01-2.19.59zM20.66 47a1.6 1.6 0 01-.59-2.19l.54-.91a1.61 1.61 0 012.19-.59 1.61 1.61 0 01.59 2.19l-.55.91a1.6 1.6 0 01-2.18.59z" fill="#81d4fa"/><path d="M36 16a9.77 9.77 0 00-1.89.19 16 16 0 10-15.71 19H36A9.6 9.6 0 0036 16z" fill="#c5cfd1"/></svg>