<svg xmlns="http://www.w3.org/2000/svg" viewBox="0 0 48 48"><circle cx="36" cy="12.8" r="9.6" fill="#ffd54f"/><path d="M36 16a9.77 9.77 0 00-1.89.19 16 16 0 10-15.71 19H36A9.6 9.6 0 0036 16z" fill="#c9eaf2"/><circle cx="24" cy="41.2" r=".98" fill="#81d4fa"/><rect width="1.96" height="2.93" x="23.02" y="36.8" fill="#81d4fa" rx=".98" ry=".98"/><rect width="1.96" height="2.93" x="23.02" y="42.67" fill="#81d4fa" rx=".98" ry=".98"/><rect width="1.96" height="2.93" x="20.48" y="38.27" fill="#81d4fa" rx=".98" ry=".98" transform="rotate(-60 21.459 39.732)"/><rect width="1.96" height="2.93" x="25.56" y="41.2" fill="#81d4fa" rx=".98" ry=".98" transform="rotate(-60 26.542 42.667)"/><rect width="1.96" height="2.93" x="20.48" y="41.2" fill="#81d4fa" rx=".98" ry=".98" transform="rotate(-120 21.459 42.664)"/><rect width="1.96" height="2.93" x="25.56" y="38.27" fill="#81d4fa" rx=".98" ry=".98" transform="rotate(-120 26.539 39.731)"/></svg>