<svg xmlns="http://www.w3.org/2000/svg" viewBox="0 0 48 48"><path d="M36 16a9.77 9.77 0 00-1.89.19 16 16 0 10-15.71 19H36A9.6 9.6 0 0036 16z" fill="#c5cfd1"/><circle cx="17.6" cy="41.2" r=".98" fill="#81d4fa"/><rect width="1.96" height="2.93" x="16.62" y="36.8" fill="#81d4fa" rx=".98" ry=".98"/><rect width="1.96" height="2.93" x="16.62" y="42.67" fill="#81d4fa" rx=".98" ry=".98"/><rect width="1.96" height="2.93" x="14.08" y="38.27" fill="#81d4fa" rx=".98" ry=".98" transform="rotate(-60 15.06 39.734)"/><rect width="1.96" height="2.93" x="19.16" y="41.2" fill="#81d4fa" rx=".98" ry=".98" transform="rotate(-60 20.144 42.669)"/><rect width="1.96" height="2.93" x="14.08" y="41.2" fill="#81d4fa" rx=".98" ry=".98" transform="rotate(-120 15.06 42.665)"/><rect width="1.96" height="2.93" x="19.16" y="38.27" fill="#81d4fa" rx=".98" ry=".98" transform="matrix(-.5 -.87 .87 -.5 -4.2 77.04)"/><circle cx="30.4" cy="41.2" r=".98" fill="#81d4fa"/><rect width="1.96" height="2.93" x="29.42" y="36.8" fill="#81d4fa" rx=".98" ry=".98"/><rect width="1.96" height="2.93" x="29.42" y="42.67" fill="#81d4fa" rx=".98" ry=".98"/><rect width="1.96" height="2.93" x="26.88" y="38.27" fill="#81d4fa" rx=".98" ry=".98" transform="rotate(-60 27.856 39.731)"/><rect width="1.96" height="2.93" x="31.96" y="41.2" fill="#81d4fa" rx=".98" ry=".98" transform="rotate(-60 32.94 42.666)"/><rect width="1.96" height="2.93" x="26.88" y="41.2" fill="#81d4fa" rx=".98" ry=".98" transform="rotate(-120 27.86 42.668)"/><rect width="1.96" height="2.93" x="31.96" y="38.27" fill="#81d4fa" rx=".98" ry=".98" transform="rotate(-120 32.94 39.735)"/></svg>