<svg xmlns="http://www.w3.org/2000/svg" viewBox="0 0 48 48"><path d="M19.6 41.49a1.61 1.61 0 01-.6-2.19l1-1.7a1.6 1.6 0 012.17-.6 1.6 1.6 0 01.59 2.18l-1 1.7a1.6 1.6 0 01-2.16.61zm6.95 0A1.61 1.61 0 0126 39.3l1-1.7a1.6 1.6 0 012.12-.6 1.6 1.6 0 01.59 2.18l-1 1.7a1.6 1.6 0 01-2.16.61z" fill="#81d4fa"/><path d="M36 16a9.77 9.77 0 00-1.89.19 16 16 0 10-15.71 19H36A9.6 9.6 0 0036 16z" fill="#c5cfd1"/><circle cx="18.13" cy="44" r="1.6" fill="#81d4fa"/><circle cx="25.08" cy="44" r="1.6" fill="#81d4fa"/></svg>