<svg xmlns="http://www.w3.org/2000/svg" viewBox="0 0 48 48"><path d="M5.18 23.17a1.22 1.22 0 010-2.43 199.78 199.78 0 0022.08-3.85c5.62-1.43 5.58-7.86-2-7.62a1.22 1.22 0 01-1-2.12c2.79-2.26 9.16-5.74 15.52-1.68 8.05 5.12 8.42 23.53-34.6 17.7zM5.15 28a1.2 1.2 0 000 2.39c5.42.6 12.54 1.07 17.11 3.49 3.86 2.06 3.21 7.08-2.4 7.06-1.33 0-1.91 1.45-.87 2.18 2.42 1.67 9.44 1.85 12.82-.31 6.4-4.05 7.8-19.72-26.66-14.81z" fill="#d3b771"/><ellipse cx="38.21" cy="16.84" fill="#c6a26a" rx="1.59" ry="1.62"/><ellipse cx="37.42" cy="7.91" fill="#c6a26a" rx=".8" ry=".81"/><ellipse cx="27.07" cy="20.9" fill="#c6a26a" rx="1.59" ry="1.62"/><ellipse cx="19.91" cy="29.01" fill="#c6a26a" rx=".8" ry=".81"/><ellipse cx="19.12" cy="20.9" fill="#c6a26a" rx=".8" ry=".81"/><ellipse cx="27.87" cy="37.13" fill="#c6a26a" rx=".8" ry=".81"/><ellipse cx="26.28" cy="31.45" fill="#c6a26a" rx=".8" ry=".81"/><ellipse cx="27.07" cy="41.19" fill="#c6a26a" rx=".8" ry=".81"/><ellipse cx="33.84" cy="8.31" fill="#c6a26a" rx="1.19" ry="1.22"/><ellipse cx="31.85" cy="37.94" fill="#c6a26a" rx="1.59" ry="1.62"/><ellipse cx="32.64" cy="17.65" fill="#c6a26a" rx=".8" ry=".81"/><ellipse cx="40.6" cy="11.15" fill="#c6a26a" rx=".8" ry=".81"/></svg>