<svg xmlns="http://www.w3.org/2000/svg" viewBox="0 0 48 48"><path d="M36 16a9.77 9.77 0 00-1.89.19 16 16 0 10-15.71 19H36A9.6 9.6 0 0036 16z" fill="#c5cfd1"/><circle cx="12.8" cy="41.2" r=".98" fill="#81d4fa"/><rect width="1.96" height="2.93" x="11.82" y="36.8" fill="#81d4fa" rx=".98" ry=".98"/><rect width="1.96" height="2.93" x="11.82" y="42.67" fill="#81d4fa" rx=".98" ry=".98"/><rect width="1.96" height="2.93" x="9.28" y="38.27" fill="#81d4fa" rx=".98" ry=".98" transform="rotate(-60 10.258 39.732)"/><rect width="1.96" height="2.93" x="14.36" y="41.2" fill="#81d4fa" rx=".98" ry=".98" transform="rotate(-60 15.342 42.667)"/><rect width="1.96" height="2.93" x="9.28" y="41.2" fill="#81d4fa" rx=".98" ry=".98" transform="rotate(-120 10.262 42.669)"/><rect width="1.96" height="2.93" x="14.36" y="38.27" fill="#81d4fa" rx=".98" ry=".98" transform="rotate(-120 15.342 39.736)"/><circle cx="24" cy="41.2" r=".98" fill="#81d4fa"/><rect width="1.96" height="2.93" x="23.02" y="36.8" fill="#81d4fa" rx=".98" ry=".98"/><rect width="1.96" height="2.93" x="23.02" y="42.67" fill="#81d4fa" rx=".98" ry=".98"/><rect width="1.96" height="2.93" x="20.48" y="38.27" fill="#81d4fa" rx=".98" ry=".98" transform="rotate(-60 21.459 39.732)"/><rect width="1.96" height="2.93" x="25.56" y="41.2" fill="#81d4fa" rx=".98" ry=".98" transform="rotate(-60 26.542 42.667)"/><rect width="1.96" height="2.93" x="20.48" y="41.2" fill="#81d4fa" rx=".98" ry=".98" transform="rotate(-120 21.459 42.664)"/><rect width="1.96" height="2.93" x="25.56" y="38.27" fill="#81d4fa" rx=".98" ry=".98" transform="rotate(-120 26.539 39.731)"/><circle cx="35.2" cy="41.2" r=".98" fill="#81d4fa"/><rect width="1.96" height="2.93" x="34.22" y="36.8" fill="#81d4fa" rx=".98" ry=".98"/><rect width="1.96" height="2.93" x="34.22" y="42.67" fill="#81d4fa" rx=".98" ry=".98"/><rect width="1.96" height="2.93" x="31.68" y="38.27" fill="#81d4fa" rx=".98" ry=".98" transform="rotate(-60 32.66 39.733)"/><rect width="1.96" height="2.93" x="36.76" y="41.2" fill="#81d4fa" rx=".98" ry=".98" transform="rotate(-60 37.743 42.668)"/><rect width="1.96" height="2.93" x="31.68" y="41.2" fill="#81d4fa" rx=".98" ry=".98" transform="rotate(-120 32.659 42.664)"/><rect width="1.96" height="2.93" x="36.76" y="38.27" fill="#81d4fa" rx=".98" ry=".98" transform="rotate(-120 37.739 39.731)"/></svg>