<svg class="icon" viewBox="0 0 1024 1024" xmlns="http://www.w3.org/2000/svg" width="81" height="81"><path d="M338.7 460.9H225.4c-11 0-20-9-20-20s9-20 20-20h113.3c11 0 20 9 20 20s-9 20-20 20zm457.7 82.8H128.7c-11 0-20-9-20-20s9-20 20-20h667.7c11 0 20 9 20 20s-8.9 20-20 20z" fill="#1296db"/><path d="M837.5 655.8H194.3c-59.8 0-108.4-48.6-108.4-108.4V190.3c0-19 15.5-34.5 34.5-34.5h791c19 0 34.5 15.5 34.5 34.5v357.1c0 59.8-48.6 108.4-108.4 108.4zm-711.6-460v351.6c0 37.7 30.7 68.4 68.4 68.4h643.2c37.7 0 68.4-30.7 68.4-68.4V195.8h-780zm150 605.4c-11 0-20-9-20-20v-61.8c0-11 9-20 20-20s20 9 20 20v61.8c0 11.1-8.9 20-20 20zm258.2-4c-11 0-20-9-20-20v-61c0-11 9-20 20-20s20 9 20 20v61c0 11-9 20-20 20zm266.7 0c-11 0-20-9-20-20v-61c0-11 9-20 20-20s20 9 20 20v61c0 11-9 20-20 20z" fill="#1296db"/></svg>