<svg width="24" height="24" xmlns="http://www.w3.org/2000/svg"><path d="M17.733 3.568H8.767A.77.77 0 018 2.8v-.034C8 2.344 8.345 2 8.767 2h8.966c.422 0 .767.344.767.766V2.8a.77.77 0 01-.767.768M9.882 6.314h-.015a.745.745 0 01-.742-.743v-.866c0-.41.334-.743.742-.743h.015c.41 0 .743.335.743.743v.868c0 .41-.334.744-.743.744m2.25-.003h-.015a.745.745 0 01-.742-.743v-.866c0-.41.334-.743.742-.743h.015c.41 0 .743.335.743.743v.868c0 .41-.334.744-.743.744m2.25-.003h-.015a.745.745 0 01-.742-.743v-.866c0-.41.334-.743.742-.743h.015c.41 0 .743.335.743.743v.868c0 .41-.334.744-.743.744m2.25-.003h-.015a.745.745 0 01-.742-.743v-.866c0-.41.334-.743.742-.743h.015c.41 0 .743.335.743.743v.868c0 .41-.334.744-.743.744m4.868 11.37c0 .432-.336.784-.75.784h-.86c-.323-1.133-1.326-1.96-2.515-1.96-1.19 0-2.192.826-2.515 1.96h-1.235v-3.92l7.125-.002c.414 0 .75.352.75.784v2.354zm-4.125 2.745c-.62 0-1.125-.527-1.125-1.177s.504-1.177 1.125-1.177c.62 0 1.125.527 1.125 1.177s-.504 1.177-1.125 1.177zM14.16 9.059l2.975-.002a.76.76 0 01.736.63l.48 3.292h-4.618l.43-3.921zm-1.928 3.92H8.225l.74-3.362a.758.758 0 01.718-.56h2.978l-.428 3.923zm-.107 5.49H10.14c-.323-1.133-1.326-1.96-2.515-1.96-1.19 0-2.192.826-2.515 1.96h-.86c-.414 0-.75-.35-.75-.783v-.784h.75c.413 0 .75-.354.75-.785 0-.43-.337-.785-.75-.785H3.5c0-.432.336-.784.75-.784h7.875v3.92zm-4.5 1.962c-.62 0-1.125-.527-1.125-1.177s.504-1.177 1.125-1.177c.62 0 1.125.527 1.125 1.177s-.504 1.177-1.125 1.177zm13.875-7.45l-1.66-.002-.71-4.25c-.15-.724-.76-1.24-1.467-1.24H9.13c-.668 0-1.257.464-1.44 1.137l-.976 4.353H3.5c-.83 0-1.5.702-1.5 1.57v3.92c0 .867.67 1.57 1.5 1.57h1.61C5.433 21.172 6.436 22 7.625 22c1.19 0 2.192-.828 2.515-1.96h4.72c.323 1.133 1.326 1.96 2.515 1.96 1.19 0 2.192-.828 2.515-1.96h1.61c.83 0 1.5-.703 1.5-1.57v-3.92c0-.868-.67-1.57-1.5-1.57z" fill="#B5E6A8" fill-rule="evenodd"/></svg>