<svg t="1598106658089" class="icon" viewBox="0 0 1024 1024" version="1.1"
  xmlns="http://www.w3.org/2000/svg" p-id="6297" width="81" height="81">
  <path d="M528.00333333 520h-33.26c-0.99 0-1.79-0.8-1.79-1.79V125.79c0-0.99 0.8-1.79 1.79-1.79h33.26c0.99 0 1.79 0.8 1.79 1.79v392.42c0 0.99-0.8 1.79-1.79 1.79z" fill="#8DD2FC" p-id="6298"></path>
  <path d="M524.57333333 293.27l-23.52 23.52c-0.7 0.7-1.83 0.7-2.53 0L396.86333333 215.12c-0.7-0.7-0.7-1.83 0-2.53l23.52-23.52c0.7-0.7 1.83-0.7 2.53 0l101.66 101.66c0.7 0.71 0.7 1.84 0 2.54z" fill="#8DD2FC" p-id="6299"></path>
  <path d="M498.17333333 293.27l23.52 23.52c0.7 0.7 1.83 0.7 2.53 0l101.66-101.66c0.7-0.7 0.7-1.83 0-2.53l-23.52-23.52c-0.7-0.7-1.83-0.7-2.53 0L498.17333333 290.74c-0.7 0.7-0.7 1.83 0 2.53zM519.68333333 505.6l-16.63 28.8c-0.49 0.86-1.59 1.15-2.45 0.66L160.76333333 338.85a1.796 1.796 0 0 1-0.66-2.45l16.63-28.8c0.49-0.86 1.59-1.15 2.45-0.66L519.03333333 503.15c0.85 0.5 1.15 1.59 0.65 2.45z" fill="#8DD2FC" p-id="6300"></path>
  <path d="M321.61333333 395.2l8.61 32.12c0.26 0.96-0.31 1.94-1.27 2.19l-138.87 37.21c-0.96 0.26-1.94-0.31-2.19-1.27l-8.61-32.12c-0.26-0.96 0.31-1.94 1.27-2.19l138.87-37.21c0.96-0.25 1.94 0.32 2.19 1.27z" fill="#8DD2FC" p-id="6301"></path>
  <path d="M308.41333333 418.07l32.12-8.61c0.96-0.26 1.52-1.24 1.27-2.19L304.59333333 268.4a1.795 1.795 0 0 0-2.19-1.27l-32.12 8.61c-0.96 0.26-1.52 1.24-1.27 2.19l37.21 138.87a1.79 1.79 0 0 0 2.19 1.27z" fill="#8DD2FC" p-id="6302"></path>
  <path d="M503.05333333 505.6l16.63 28.8c0.49 0.86 0.2 1.95-0.66 2.45L179.18333333 733.06c-0.86 0.49-1.95 0.2-2.45-0.66l-16.63-28.8c-0.49-0.86-0.2-1.95 0.66-2.45l339.84-196.21c0.87-0.49 1.96-0.2 2.45 0.66z" fill="#8DD2FC" p-id="6303"></path>
  <path d="M308.41333333 621.93l32.12 8.61c0.96 0.26 1.52 1.24 1.27 2.19L304.59333333 771.6c-0.26 0.96-1.24 1.52-2.19 1.27l-32.12-8.61a1.795 1.795 0 0 1-1.27-2.19l37.21-138.87a1.79 1.79 0 0 1 2.19-1.27z" fill="#8DD2FC" p-id="6304"></path>
  <path d="M321.61333333 644.8l8.61-32.12c0.26-0.96-0.31-1.94-1.27-2.19l-138.87-37.21c-0.96-0.26-1.94 0.31-2.19 1.27l-8.61 32.12c-0.26 0.96 0.31 1.94 1.27 2.19l138.87 37.21c0.96 0.25 1.94-0.32 2.19-1.27z" fill="#8DD2FC" p-id="6305"></path>
  <path d="M494.74333333 520h33.26c0.99 0 1.79 0.8 1.79 1.79v392.42c0 0.99-0.8 1.79-1.79 1.79h-33.26c-0.99 0-1.79-0.8-1.79-1.79V521.79c0-0.99 0.8-1.79 1.79-1.79z" fill="#8DD2FC" p-id="6306"></path>
  <path d="M498.17333333 746.73l23.52-23.52c0.7-0.7 1.83-0.7 2.53 0l101.66 101.66c0.7 0.7 0.7 1.83 0 2.53l-23.52 23.52c-0.7 0.7-1.83 0.7-2.53 0L498.17333333 749.26c-0.7-0.7-0.7-1.83 0-2.53z" fill="#8DD2FC" p-id="6307"></path>
  <path d="M524.57333333 746.73l-23.52-23.52c-0.7-0.7-1.83-0.7-2.53 0L396.86333333 824.88c-0.7 0.7-0.7 1.83 0 2.53l23.52 23.52c0.7 0.7 1.83 0.7 2.53 0l101.66-101.66c0.7-0.71 0.7-1.84 0-2.54z" fill="#8DD2FC" p-id="6308"></path>
  <path d="M503.05333333 534.4l16.63-28.8c0.49-0.86 1.59-1.15 2.45-0.66l339.84 196.21c0.86 0.49 1.15 1.59 0.66 2.45l-16.63 28.8c-0.49 0.86-1.59 1.15-2.45 0.66L503.71333333 536.85c-0.86-0.5-1.15-1.59-0.66-2.45z" fill="#8DD2FC" p-id="6309"></path>
  <path d="M701.12333333 644.8l-8.61-32.12c-0.26-0.96 0.31-1.94 1.27-2.19l138.87-37.21c0.96-0.26 1.94 0.31 2.19 1.27l8.61 32.12c0.26 0.96-0.31 1.94-1.27 2.19l-138.87 37.21c-0.95 0.25-1.93-0.32-2.19-1.27z" fill="#8DD2FC" p-id="6310"></path>
  <path d="M714.33333333 621.93l-32.12 8.61c-0.96 0.26-1.52 1.24-1.27 2.19l37.21 138.87c0.26 0.96 1.24 1.52 2.19 1.27l32.12-8.61c0.96-0.26 1.52-1.24 1.27-2.19L716.52333333 623.2a1.795 1.795 0 0 0-2.19-1.27z" fill="#8DD2FC" p-id="6311"></path>
  <path d="M519.68333333 534.4l-16.63-28.8c-0.49-0.86-0.2-1.95 0.66-2.45l339.84-196.21c0.86-0.49 1.95-0.2 2.45 0.66l16.63 28.8c0.49 0.86 0.2 1.95-0.66 2.45L522.13333333 535.06c-0.86 0.49-1.95 0.2-2.45-0.66z" fill="#8DD2FC" p-id="6312"></path>
  <path d="M714.33333333 418.07l-32.12-8.61a1.795 1.795 0 0 1-1.27-2.19l37.21-138.87c0.26-0.96 1.24-1.52 2.19-1.27l32.12 8.61c0.96 0.26 1.52 1.24 1.27 2.19L716.52333333 416.8c-0.26 0.96-1.24 1.52-2.19 1.27z" fill="#8DD2FC" p-id="6313"></path>
  <path d="M701.12333333 395.2l-8.61 32.12c-0.26 0.96 0.31 1.94 1.27 2.19l138.87 37.21c0.96 0.26 1.94-0.31 2.19-1.27l8.61-32.12c0.26-0.96-0.31-1.94-1.27-2.19l-138.87-37.21c-0.95-0.25-1.93 0.32-2.19 1.27z" fill="#8DD2FC" p-id="6314"></path>
</svg>