<svg width="24" height="24" xmlns="http://www.w3.org/2000/svg" xmlns:xlink="http://www.w3.org/1999/xlink"><defs><path id="a" d="M20 0v19H0V0z"/></defs><g transform="translate(2 3)" fill="none" fill-rule="evenodd"><mask id="b" fill="#fff"><use xlink:href="#a"/></mask><path d="M17.918 5.61l-.544.56a.751.751 0 01-.835.17l-.002-3.27 1.38 1.42c.3.308.3.81 0 1.12zM15 16.624a.782.782 0 01-.77.792H5.77a.782.782 0 01-.77-.792V2.375c0-.438.345-.792.77-.792h.465c.146 0 .277.09.345.225.638 1.277 1.93 2.15 3.42 2.15s2.78-.873 3.42-2.15a.39.39 0 01.345-.225h.465c.425 0 .77.354.77.792v14.25zM3.46 6.34a.749.749 0 01-.833-.17l-.544-.56a.806.806 0 010-1.12L3.46 3.07l.002 3.27zm16.09-2.41L16.285.57a1.542 1.542 0 00-.51-.347A1.488 1.488 0 0015.001 0h-2.023a.771.771 0 00-.742.594c-.256 1.024-1.16 1.78-2.234 1.78-1.075 0-1.98-.756-2.234-1.78A.773.773 0 007.024 0H5c-.285 0-.548.085-.776.223a1.53 1.53 0 00-.51.348L.45 3.93c-.6.618-.6 1.62 0 2.24l1.633 1.678c.374.386.894.53 1.378.436l.002 9.133C3.462 18.29 4.15 19 5 19h10c.85 0 1.538-.71 1.538-1.583V8.284a1.511 1.511 0 001.38-.436l1.63-1.68c.603-.618.603-1.62.002-2.24z" fill="#E1A4C4" mask="url(#b)"/></g></svg>