<svg width="24" height="24" xmlns="http://www.w3.org/2000/svg"><path d="M12 18.83l-2.795-2.794 6.83-6.83L18.83 12A4.83 4.83 0 0112 18.83zM7.343 6.1a.88.88 0 010 1.243 1.757 1.757 0 000 2.483.878.878 0 11-1.242 1.242 3.515 3.515 0 010-4.967c.344-.34.9-.34 1.243 0zM12 5.17l2.794 2.794-6.83 6.83L5.17 12A4.83 4.83 0 0112 5.17zm5.277 2.794l-1.24-1.242L13.24 3.93a6.58 6.58 0 00-9.31 0 6.58 6.58 0 000 9.31l6.828 6.832a6.588 6.588 0 009.313 0 6.584 6.584 0 000-9.314l-2.793-2.794z" fill="#DFC79C" fill-rule="evenodd"/></svg>