<svg width="28" height="28" xmlns="http://www.w3.org/2000/svg"><g fill="#9EC48C" fill-rule="evenodd"><path d="M14 22.26a8.261 8.261 0 110-16.52 8.261 8.261 0 010 16.522M14 4C8.477 4 4 8.477 4 14s4.477 10 10 10 10-4.477 10-10S19.523 4 14 4"/><path d="M11 13c-.55 0-1-.45-1-1v-1c0-.55.45-1 1-1s1 .45 1 1v1c0 .55-.45 1-1 1m6 0c-.55 0-1-.45-1-1v-1c0-.55.45-1 1-1s1 .45 1 1v1c0 .55-.45 1-1 1m1.057 2a.954.954 0 00-.814.454c-.65 1.057-1.858 1.768-3.243 1.768-1.385 0-2.592-.71-3.243-1.768A.954.954 0 009.943 15c-.715 0-1.176.734-.82 1.321C10.093 17.921 11.912 19 14 19c2.089 0 3.907-1.079 4.877-2.679.356-.587-.106-1.321-.82-1.321"/></g></svg>