<svg class="icon" viewBox="0 0 1152 1024" xmlns="http://www.w3.org/2000/svg" width="81" height="81"><path d="M550.677 406.531h28.114c9.575 0 17.057-10.168 16.035-21.852l-6.18-71.817c-.577-6.707-5.19-11.8-10.695-11.8H551.5c-5.504 0-10.118 5.093-10.695 11.8l-6.18 71.817c-1.005 11.684 6.477 21.852 16.051 21.852zm-9.92 184.57h47.955c12.772 0 22.725-13.562 21.39-29.135l-6.806-79.102c-1.153-13.414-10.382-23.598-21.39-23.598h-34.327c-11.008 0-20.237 10.184-21.39 23.598l-6.806 79.102c-1.352 15.573 8.602 29.136 21.374 29.136zm17.567-342.773h12.837c6.394 0 11.371-6.79 10.696-14.568l-2.275-26.367c-.576-6.707-5.19-11.8-10.695-11.8h-8.289c-5.504 0-10.118 5.093-10.695 11.8l-2.274 26.367c-.676 7.779 4.3 14.568 10.695 14.568zm39.468 395.508h-66.115c-11.009 0-20.237 10.184-21.39 23.599L498.931 799.27c-1.335 15.573 8.619 29.135 21.39 29.135h88.808c12.772 0 22.725-13.562 21.39-29.135l-11.354-131.836c-1.137-13.415-10.365-23.6-21.374-23.6zM349.43 195.594a13.167 13.167 0 00-12.162 8.108L92.185 791.904c-7.235 17.353 5.52 36.502 24.34 36.502h46.143c11.717 0 22.033-7.729 25.312-18.984l174.106-596.953c2.456-8.438-3.873-16.875-12.656-16.875zm687.854 596.31L792.217 203.702a13.184 13.184 0 00-12.162-8.108c-8.783 0-15.111 8.437-12.656 16.875l174.106 596.953a26.36 26.36 0 0025.313 18.984h46.142c18.803 0 31.575-19.149 24.324-36.502z" fill="#8a8a8a"/></svg>