<svg t="1598106794329" class="icon" viewBox="0 0 1152 1024" version="1.1" xmlns="http://www.w3.org/2000/svg" p-id="6297" width="81" height="81"><path d="M550.67736817 406.53125h28.11401367c9.57458497 0 17.05627442-10.16784668 16.03454589-21.85180664l-6.17980956-71.81762695c-0.57678223-6.70715333-5.19104004-11.79931641-10.69519044-11.79931641h-26.44958495c-5.50415039 0-10.1184082 5.09216309-10.69519044 11.79931641l-6.17980956 71.81762695c-1.00524903 11.68395997 6.47644043 21.85180664 16.05102539 21.85180664z m-9.9206543 184.5703125h47.95532227c12.77160645 0 22.72521973-13.56262208 21.39038086-29.13574219l-6.80603028-79.1015625c-1.15356445-13.41430664-10.38208008-23.59863281-21.39038086-23.59863281h-34.32678223c-11.00830078 0-20.23681641 10.18432617-21.39038086 23.59863281l-6.80603027 79.1015625c-1.35131836 15.57312012 8.60229492 29.13574219 21.37390136 29.13574219z m17.56713867-342.7734375h12.83752441c6.39404297 0 11.37084961-6.78955078 10.69519044-14.56787109l-2.27416992-26.3671875c-0.57678223-6.70715333-5.19104004-11.79931641-10.69519044-11.79931641h-8.28918456c-5.50415039 0-10.1184082 5.09216309-10.69519044 11.79931641l-2.27416992 26.3671875c-0.67565918 7.77832031 4.30114747 14.56787109 10.69519043 14.56787109z m39.46838379 395.5078125h-66.11572266c-11.00830078 0-20.23681641 10.18432617-21.39038086 23.59863281l-11.35437012 131.8359375c-1.33483887 15.57312012 8.61877442 29.13574219 21.39038087 29.13574219h88.80798339c12.77160645 0 22.72521973-13.56262208 21.39038086-29.13574219l-11.35437012-131.8359375c-1.13708497-13.41430664-10.36560059-23.59863281-21.37390136-23.59863281zM349.42980957 195.59375a13.16711426 13.16711426 0 0 0-12.16186523 8.10791016L92.18493652 791.90417481C84.95043945 809.25708008 97.70556641 828.40625 116.52514648 828.40625h46.14257813c11.71691895 0 22.03308106-7.72888184 25.3125-18.984375L362.08605957 212.46875c2.45544434-8.4375-3.87268067-16.875-12.65625-16.875z m687.8540039 596.31042481L792.21728516 203.70166016a13.18359375 13.18359375 0 0 0-12.16186524-8.10791016c-8.78356934 0-15.11169434 8.4375-12.65625 16.875l174.10583497 596.953125A26.3605957 26.3605957 0 0 0 966.81750489 828.40625h46.14257812c18.80310059 0 31.57470703-19.14916992 24.32373047-36.5020752z" fill="#8a8a8a" p-id="6298"></path></svg>