<svg width="28" height="28" xmlns="http://www.w3.org/2000/svg"><g fill="#A6BACC" fill-rule="evenodd"><path d="M24.65 21.949H2.888a.779.779 0 01-.787-.77c0-.31.214-.56.457-.696l11.21-6.74.002.001h.001l11.211 6.74c.244.134.457.386.457.696a.778.778 0 01-.787.769m1.407-3.227L14.87 11.997c-.024-.015-.05-.026-.076-.04v-.263c0-.431.204-.838.75-1.19.549-.352 2.077-1.066 2.077-2.944s-1.605-3.17-2.954-3.442c-1.348-.275-2.813-.095-3.848 1.02-.795.851-1.048 1.569-1.106 2.84h2.07c.03-.836.238-1.652 1.453-1.893.74-.146 1.431.081 1.84.475.471.45.474 1.463-.274 1.969l-1.173.783c-.685.43-.92.91-.92 1.614v1.051c-.013.008-.027.011-.042.02L1.48 18.722C.566 19.247 0 20.185 0 21.18 0 22.735 1.295 24 2.887 24h21.764c1.592 0 2.887-1.265 2.887-2.82 0-.995-.565-1.933-1.48-2.458"/><path d="M12 8h-2a1 1 0 102 0"/></g></svg>