<svg width="28" height="28" xmlns="http://www.w3.org/2000/svg" xmlns:xlink="http://www.w3.org/1999/xlink"><defs><path id="a" d="M0 1.774V.17h2.404v1.603H0z"/><path id="c" d="M0 2.178V.575h2.404v1.603z"/><path id="e" d="M.202.966H10.62V21H.202z"/></defs><g fill="none" fill-rule="evenodd"><path d="M17.215 18.826a2.805 2.805 0 11-5.609 0 2.805 2.805 0 015.61 0" fill="#FF8A65"/><path d="M14.41 17.624a.804.804 0 01-.8-.802V8.007a.803.803 0 011.603-.001v8.816a.804.804 0 01-.802.802" fill="#FF8A65"/><g transform="translate(8 7.035)"><mask id="b" fill="#fff"><use xlink:href="#a"/></mask><path d="M1.603 1.774H.801A.804.804 0 010 .972C0 .532.361.17.801.17h.802c.44 0 .801.36.801.8a.804.804 0 01-.8.803" fill="#FF8A65" mask="url(#b)"/></g><g transform="translate(8 9.034)"><mask id="d" fill="#fff"><use xlink:href="#c"/></mask><path d="M1.603 2.178H.801A.804.804 0 010 1.376c0-.44.362-.8.802-.8h.802c.44 0 .801.36.801.8a.804.804 0 01-.8.802" fill="#FF8A65" mask="url(#d)"/></g><path d="M17.215 18.826a2.805 2.805 0 11-5.609 0 2.805 2.805 0 015.61 0" fill="#FF8A65"/><path d="M14.41 17.624a.804.804 0 01-.8-.802V8.007a.803.803 0 011.603-.001v8.816a.804.804 0 01-.802.802" fill="#FF8A65"/><g transform="translate(9 3.034)"><mask id="f" fill="#fff"><use xlink:href="#e"/></mask><path d="M5.41 19.397a3.605 3.605 0 01-1.602-6.833V4.17c0-.881.722-1.602 1.603-1.602.882 0 1.604.72 1.604 1.602v8.393a3.605 3.605 0 01-1.604 6.833m3.206-7.706V4.17A3.215 3.215 0 005.41.965 3.215 3.215 0 002.206 4.17v7.52a5.196 5.196 0 00-2.004 4.1 5.21 5.21 0 0010.418 0 5.195 5.195 0 00-2.003-4.1" fill="#FF8A65" mask="url(#f)"/></g></g></svg>