<svg width="28" height="28" xmlns="http://www.w3.org/2000/svg"><g fill="#E09090" fill-rule="evenodd"><path d="M3.485 5.74a1.72 1.72 0 000 2.394l6.437 6.581 1.17-1.196-6.144-6.283a.43.43 0 010-.598 2.853 2.853 0 014.096 0l4.389 4.487 1.17-1.196-4.096-4.189a4.889 4.889 0 00-7.022 0"/><path d="M22.602 16.363a.844.844 0 010 1.191l-4.168 4.168a.845.845 0 01-1.191 0l-5.954-5.954a.845.845 0 010-1.191l4.168-4.169a.845.845 0 011.19 0l5.955 5.955zm-7.741-7.74L9.502 13.98a1.689 1.689 0 000 2.382l7.145 7.146a1.69 1.69 0 002.383 0l5.358-5.36a1.688 1.688 0 000-2.381l-7.145-7.146a1.69 1.69 0 00-2.382 0z"/><path d="M19 11.067L12.067 18 11 16.933 17.933 10z"/></g></svg>