<svg xmlns="http://www.w3.org/2000/svg" viewBox="0 0 48 48"><path fill="#ffd54f" d="M24.07 37.16a96 96 0 0119.76 2.35 20.11 20.11 0 00.41-4.06A20.62 20.62 0 0023.49 15 20.62 20.62 0 002.74 35.45a20.12 20.12 0 00.46 4.28 98.86 98.86 0 0120.87-2.57z"/><path fill="#be8b7c" d="M.42 40.57h47.16a.42.42 0 00.11-.82 104.21 104.21 0 00-23.62-3.21A106.17 106.17 0 00.31 39.75a.42.42 0 00.11.82z"/><path fill="#ffd54f" d="M20 6.93a.8.8 0 001.13 0l2-2V12a.8.8 0 101.6 0V4.9l2 2a.8.8 0 001.13 0 .81.81 0 000-1.14L24.57 2.4a.81.81 0 00-1.14 0L20 5.79a.81.81 0 000 1.14z"/></svg>