<svg xmlns="http://www.w3.org/2000/svg" viewBox="0 0 48 48"><path fill="#ffd54f" d="M24.07 37.16a96 96 0 0119.76 2.35 20.11 20.11 0 00.41-4.06A20.62 20.62 0 0023.49 15 20.62 20.62 0 002.74 35.45a20.12 20.12 0 00.46 4.28 98.86 98.86 0 0120.87-2.57z"/><path fill="#be8b7c" d="M.42 40.57h47.16a.42.42 0 00.11-.82 104.21 104.21 0 00-23.62-3.21A106.17 106.17 0 00.31 39.75a.42.42 0 00.11.82z"/><path fill="#ffd54f" d="M28 8a.8.8 0 00-1.13 0l-2 2V3a.8.8 0 10-1.6 0v7l-2-2A.8.8 0 0020 9.13l3.39 3.4a.81.81 0 001.14 0L28 9.13A.8.8 0 0028 8z"/></svg>