<svg width="24" height="24" xmlns="http://www.w3.org/2000/svg" xmlns:xlink="http://www.w3.org/1999/xlink"><defs><path id="a" d="M0 20V0h20v20z"/></defs><g transform="translate(2 2)" fill="none" fill-rule="evenodd"><mask id="b" fill="#fff"><use xlink:href="#a"/></mask><path d="M13.257 17.592a9.671 9.671 0 01-1.947-5.82c0-1.12.192-2.195.54-3.196a13.782 13.782 0 015.407 5.373 8.28 8.28 0 01-4 3.642m-5.153.44a20.35 20.35 0 01.245-10.78c.646.148 1.275.34 1.884.577a11.447 11.447 0 00-.694 3.942c0 2.35.71 4.53 1.92 6.352a8.25 8.25 0 01-1.46.137 8.228 8.228 0 01-1.896-.227M1.947 11.82a11.524 11.524 0 003.508-4.913c.382.005.76.025 1.135.06a22.162 22.162 0 00-.868 6.133c0 1.435.146 2.837.408 4.196a8.266 8.266 0 01-4.183-5.475m-.058-.272l.037.196-.038-.196M1.74 10c0-.964.173-1.886.476-2.746.418-.095.84-.175 1.272-.23-.438.94-1.048 1.793-1.75 2.542m2.59-5.562c-.044.4-.11.793-.2 1.176-.302.022-.6.055-.897.094a8.37 8.37 0 011.1-1.27m6.6-2.21a8.204 8.204 0 013.008.943 11.567 11.567 0 00-2.97 3.48 15.177 15.177 0 00-2.03-.646 20.236 20.236 0 011.992-3.775m-4.77.895a8.188 8.188 0 012.652-.856 22.05 22.05 0 00-1.652 3.416c-.4-.048-.804-.083-1.213-.1.142-.722.218-1.467.218-2.23 0-.077-.003-.153-.006-.23M18.26 10c0 .644-.08 1.268-.22 1.868a15.537 15.537 0 00-5.457-4.907 9.763 9.763 0 012.874-3.15A8.225 8.225 0 0118.26 10M10 0C4.477 0 0 4.478 0 10c0 5.523 4.477 10 10 10s10-4.477 10-10c0-5.522-4.477-10-10-10" fill="#E6D99D" mask="url(#b)"/></g></svg>