<svg class="icon" viewBox="0 0 1024 1024" xmlns="http://www.w3.org/2000/svg" width="81" height="81"><path d="M107.975 536.007c.569-13.995 11.264-25.6 25.145-27.193a919.464 919.464 0 01316.416 18.887l63.374 15.019c15.815 3.755 25.259 19.911 20.708 35.499l-35.726 124.017c-12.971 44.943-45.625 81.58-88.86 99.442-41.644 17.18-87.724 21.163-131.642 11.264l-32.654-7.282c-44.715-10.012-81.01-42.552-95.915-85.902l-15.929-46.535c-2.161-6.371-4.096-12.857-5.575-19.456l-19.683-84.195a28.003 28.003 0 01-.683-7.51l1.024-26.055zm74.752 104.903c1.138 4.665 2.39 9.33 3.982 13.881l15.93 46.535c8.419 24.69 29.126 43.122 54.499 48.81l32.654 7.283c32.54 7.281 66.674 4.437 97.508-8.306a96.795 96.795 0 0055.978-62.578l27.42-95.346-34.36-8.192a860.212 860.212 0 00-271.815-20.252l18.204 78.165z" fill="#594d9c"/><path d="M841.045 641.934a102.983 102.983 0 01-3.413 11.947l-16.27 47.445c-8.42 24.462-30.265 43.35-57.8 49.607l-28.899 6.486c-32.768 7.395-67.129 4.437-97.963-8.192-27.306-11.264-47.559-33.223-55.068-59.62l-28.217-98.304 34.816-8.306c88.633-21.049 180.452-27.875 271.36-20.138l-18.546 79.075zm49.835-133.12c-105.7-12.06-212.764-5.689-315.96 18.887l-63.83 15.133c-15.815 3.754-25.259 19.91-20.708 35.498l36.523 126.976c12.402 43.236 44.942 78.62 88.064 96.484 41.529 17.18 87.95 21.049 132.096 11.15l28.9-6.485c46.535-10.468 84.195-43.122 99.1-86.585l16.27-47.445c1.934-5.803 3.641-11.606 5.006-17.522l19.911-85.22c.57-2.503.797-5.006.683-7.509l-1.024-26.169c-.341-13.995-11.036-25.6-25.031-27.193zM162.816 544.54c-6.03 14.45-22.756 21.277-37.205 15.247-14.45-6.03-21.277-22.756-15.247-37.206l110.137-262.713c17.863-42.552 66.788-62.577 109.34-44.714 15.93 6.713 29.355 18.09 38.571 32.768 8.306 13.312 4.324 30.834-9.102 39.14-13.312 8.305-30.834 4.323-39.14-9.103-2.958-4.665-7.167-8.306-12.287-10.467-13.54-5.69-29.127.682-34.816 14.222L162.816 544.54z" fill="#594d9c"/><path d="M858.453 541.355c6.03 14.45 22.756 21.276 37.206 15.246 14.45-6.03 21.276-22.756 15.246-37.205L800.768 256.683c-17.863-42.553-66.788-62.578-109.34-44.715-15.93 6.713-29.355 18.09-38.571 32.768-8.306 13.312-4.324 30.834 9.102 39.14 13.312 8.305 30.834 4.323 39.14-9.103 2.958-4.665 7.168-8.305 12.288-10.467 13.54-5.69 29.127.682 34.816 14.222l110.25 262.827z" fill="#594d9c"/></svg>