<svg t="1598106890774" class="icon" viewBox="0 0 1024 1024" version="1.1" xmlns="http://www.w3.org/2000/svg" p-id="6266" width="81" height="81"><path d="M107.97511111 536.00711111c0.56888889-13.99466667 11.264-25.6 25.14488889-27.19288889 105.81333333-12.06044445 212.76444445-5.68888889 316.416 18.88711111l63.37422222 15.01866667c15.81511111 3.75466667 25.25866667 19.91111111 20.70755556 35.49866667l-35.72622223 124.01777778c-12.97066667 44.94222222-45.62488889 81.57866667-88.86044444 99.44177777-41.64266667 17.18044445-87.72266667 21.16266667-131.64088889 11.264l-32.65422222-7.28177777c-44.71466667-10.01244445-81.00977778-42.55288889-95.91466667-85.90222223l-15.92888888-46.53511111c-2.16177778-6.37155555-4.096-12.85688889-5.57511112-19.456l-19.68355555-84.19555556c-0.56888889-2.50311111-0.79644445-5.00622222-0.68266667-7.50933333l1.024-26.05511111z m74.752 104.90311111c1.13777778 4.66488889 2.38933333 9.32977778 3.98222222 13.88088889l15.92888889 46.53511111c8.41955555 24.68977778 29.12711111 43.12177778 54.49955556 48.81066667l32.65422222 7.28177778c32.54044445 7.28177778 66.67377778 4.43733333 97.50755555-8.30577778 27.19288889-11.264 47.78666667-34.24711111 55.97866667-62.57777778l27.42044445-95.34577778-34.36088889-8.192c-88.97422222-21.16266667-180.79288889-27.98933333-271.81511111-20.25244444l18.20444444 78.16533333z" fill="#594d9c" p-id="6267"></path><path d="M841.04533333 641.93422222c-0.91022222 4.096-2.048 8.07822222-3.41333333 11.94666667l-16.27022222 47.44533333c-8.41955555 24.46222222-30.26488889 43.34933333-57.79911111 49.60711111l-28.89955556 6.48533334c-32.768 7.39555555-67.12888889 4.43733333-97.96266666-8.192-27.30666667-11.264-47.55911111-33.22311111-55.06844445-59.61955556l-28.21688889-98.304 34.816-8.30577778c88.63288889-21.04888889 180.45155555-27.87555555 271.36-20.13866666l-18.54577778 79.07555555z m49.83466667-133.12c-105.69955555-12.06044445-212.76444445-5.68888889-315.96088889 18.88711111l-63.82933333 15.13244445c-15.81511111 3.75466667-25.25866667 19.91111111-20.70755556 35.49866667l36.52266667 126.976c12.40177778 43.23555555 44.94222222 78.62044445 88.064 96.48355555 41.52888889 17.18044445 87.95022222 21.04888889 132.096 11.15022222l28.89955556-6.48533333c46.53511111-10.46755555 84.19555555-43.12177778 99.10044444-86.58488889l16.27022222-47.44533333c1.93422222-5.80266667 3.64088889-11.60533333 5.00622222-17.52177778l19.91111112-85.21955556c0.56888889-2.50311111 0.79644445-5.00622222 0.68266666-7.50933333l-1.024-26.16888889c-0.34133333-13.99466667-11.03644445-25.6-25.03111111-27.19288889zM162.816 544.54044445c-6.03022222 14.44977778-22.75555555 21.27644445-37.20533333 15.24622222-14.44977778-6.03022222-21.27644445-22.75555555-15.24622222-37.20533334l110.13688888-262.71288888c17.86311111-42.55288889 66.78755555-62.57777778 109.34044445-44.71466667 15.92888889 6.71288889 29.35466667 18.09066667 38.57066667 32.768 8.30577778 13.312 4.32355555 30.83377778-9.10222223 39.13955555-13.312 8.30577778-30.83377778 4.32355555-39.13955555-9.10222222-2.95822222-4.66488889-7.168-8.30577778-12.288-10.46755556-13.53955555-5.68888889-29.12711111 0.68266667-34.816 14.22222223l-110.25066667 262.82666667z" fill="#594d9c" p-id="6268"></path><path d="M858.45333333 541.35466667c6.03022222 14.44977778 22.75555555 21.27644445 37.20533334 15.24622222 14.44977778-6.03022222 21.27644445-22.75555555 15.24622222-37.20533334l-110.13688889-262.71288888c-17.86311111-42.55288889-66.78755555-62.57777778-109.34044445-44.71466667-15.92888889 6.71288889-29.35466667 18.09066667-38.57066666 32.768-8.30577778 13.312-4.32355555 30.83377778 9.10222222 39.13955555 13.312 8.30577778 30.83377778 4.32355555 39.13955556-9.10222222 2.95822222-4.66488889 7.168-8.30577778 12.288-10.46755555 13.53955555-5.68888889 29.12711111 0.68266667 34.816 14.22222222l110.25066666 262.82666667z" fill="#594d9c" p-id="6269"></path></svg>