<svg width="24" height="24" xmlns="http://www.w3.org/2000/svg" xmlns:xlink="http://www.w3.org/1999/xlink"><defs><path id="a" d="M0 .002V20h20V.002H0z"/></defs><g fill="none" fill-rule="evenodd"><g transform="translate(2 2)"><mask id="b" fill="#fff"><use xlink:href="#a"/></mask><path d="M17.643 13.48l-4.162 4.162a.208.208 0 01-.338-.064 3.33 3.33 0 014.437-4.436c.13.064.167.235.063.338m-13.28-2.633c-.19-.19-.368-.386-.54-.585a10.777 10.777 0 003.93-2.51 10.791 10.791 0 002.51-3.928c.198.17.394.35.584.54 2.767 2.766 3.56 6.46 1.768 8.252-1.79 1.79-5.484.998-8.25-1.77m-1.77-8.25c1.384-1.384 3.904-1.22 6.255.2a9.13 9.13 0 01-2.275 3.778 9.072 9.072 0 01-3.778 2.274c-1.42-2.35-1.584-4.87-.2-6.253m17.208 10.137l-.118-.116a4.988 4.988 0 00-4.597-1.348c.192-.98.143-2.064-.147-3.17h1.576a.837.837 0 00.833-.834.836.836 0 00-.834-.833h-2.193a11.224 11.224 0 00-.977-1.667h1.086a.836.836 0 00.833-.833.836.836 0 00-.834-.834h-2.5l-.004.002c-3.41-3.34-8.095-4.1-10.515-1.68-2.44 2.44-1.65 7.19 1.768 10.607.528.527 1.09.983 1.666 1.384v2.207a.82.82 0 00.817.816H5.7a.82.82 0 00.818-.816v-1.25c1.647.76 3.334 1.01 4.792.715a5.223 5.223 0 001.423 4.723c.26.26.683.26.944 0l6.128-6.128a.669.669 0 000-.944" fill="#A3DFD4" mask="url(#b)"/></g><path d="M8.273 6.102a.836.836 0 000-1.18.836.836 0 00-1.18 0 .838.838 0 000 1.18.836.836 0 001.18 0" fill="#A3DFD4"/></g></svg>