<svg xmlns="http://www.w3.org/2000/svg" viewBox="0 0 24 24"><g fill="#a4ade0"><path d="M20.46 10h-1.05l-1-5.75A1.54 1.54 0 0016.87 3H7.13a1.54 1.54 0 00-1.51 1.29L4.59 10h-1A1.56 1.56 0 002 11.61v5.48a1.55 1.55 0 001.54 1.56h.77v1.59a.76.76 0 00.76.76.77.77 0 00.76-.76v-1.59h12.3v1.59a.77.77 0 00.76.76.76.76 0 00.76-.76v-1.59h.77A1.55 1.55 0 0022 17.09v-5.48A1.56 1.56 0 0020.46 10zM6.89 5.22a.77.77 0 01.76-.65h8.7a.77.77 0 01.76.65L17.9 10H6.1zM20.46 16.3a.78.78 0 01-.77.79H4.31a.78.78 0 01-.77-.79v-3.91a.77.77 0 01.77-.78h15.38a.77.77 0 01.77.78z"/><path d="M6.62 13.57a.78.78 0 10.76.78.77.77 0 00-.76-.78zm10.76 0a.78.78 0 10.77.78.77.77 0 00-.77-.78z"/><rect x="8.54" y="13.57" width="6.92" height="1.57" rx=".77" ry=".77"/></g></svg>