<svg width="28" height="28" xmlns="http://www.w3.org/2000/svg"><g fill="#EDAC96" fill-rule="evenodd"><path d="M21.286 19.417c0 .687-.58 1.25-1.286 1.25H8c-.707 0-1.286-.563-1.286-1.25v-7.5c0-.688.579-1.25 1.286-1.25h12c.707 0 1.286.563 1.286 1.25v7.5zM11.442 9h5.143V5.667h-5.143V9zm8.987 0h-2.13V5.667h.415a.848.848 0 00.858-.834.848.848 0 00-.858-.833H9.286a.848.848 0 00-.857.833c0 .459.385.834.857.834h.442V9H7.572C6.157 9 5 10.125 5 11.5v8.333c0 1.375 1.157 2.5 2.572 2.5h.442v.834c0 .458.386.833.857.833a.848.848 0 00.857-.833v-.834H18.3v.834c0 .458.385.833.857.833a.848.848 0 00.857-.833v-.834h.415c1.414 0 2.571-1.125 2.571-2.5V11.5c0-1.375-1.157-2.5-2.57-2.5z"/><path d="M10.5 12c-.275 0-.5.394-.5.875v5.25c0 .482.225.875.5.875s.5-.393.5-.875v-5.25c0-.481-.225-.875-.5-.875m7 0c-.275 0-.5.394-.5.875v5.25c0 .482.225.875.5.875s.5-.393.5-.875v-5.25c0-.481-.225-.875-.5-.875"/></g></svg>