<svg xmlns="http://www.w3.org/2000/svg" viewBox="0 0 24 24"><g fill="#a4ade0"><path d="M12 4.8a2 2 0 102 2 2 2 0 00-2-2zm0 2.8a.8.8 0 11.8-.8.8.8 0 01-.8.8zm0 2.4a2 2 0 102 2 2 2 0 00-2-2zm0 2.8a.8.8 0 11.8-.8.8.8 0 01-.8.8zm0 2.4a2 2 0 102 2 2 2 0 00-2-2zm0 2.8a.8.8 0 11.8-.8.8.8 0 01-.8.8z"/><path d="M19.2 11.6a.8.8 0 100-1.6h-2V6.4h2a.8.8 0 100-1.6h-2v-.4A2.41 2.41 0 0014.8 2H9.2a2.41 2.41 0 00-2.4 2.4v.4h-2a.8.8 0 000 1.6h2V10h-2a.8.8 0 100 1.6h2v3.6h-2a.8.8 0 100 1.6h2v2.8A2.41 2.41 0 009.2 22h5.6a2.41 2.41 0 002.4-2.4v-2.8h2a.8.8 0 100-1.6h-2v-3.6zm-3.6 7.6a1.2 1.2 0 01-1.2 1.2H9.6a1.2 1.2 0 01-1.2-1.2V4.8a1.2 1.2 0 011.2-1.2h4.8a1.2 1.2 0 011.2 1.2z"/></g></svg>