<svg t="1598106952535" class="icon" viewBox="0 0 1024 1024" version="1.1"
  xmlns="http://www.w3.org/2000/svg" p-id="6296" width="81" height="81">
  <path d="M485.33333375 618.66666688a186.66666656 186.66666656 0 0 1-373.33333406 0V258.66666688a40.00000031 40.00000031 0 0 1 80.00000062-1e-8V618.66666688a106.66666688 106.66666688 0 1 0 213.33333282 0V258.66666688a40.00000031 40.00000031 0 0 1 80.00000062-1e-8V618.66666688z m58.02666656-361.52000063a40.00000031 40.00000031 0 0 1 76.90666594-22.05333281l103.2 336.21333281a13.33333313 13.33333313 0 0 0 25.49333344 0l103.06666687-335.67999938a40.00000031 40.00000031 0 0 1 76.90666688 22.05333282l-154.34666719 511.62666656a40.00000031 40.00000031 0 0 1-77.8133325-3.78666656L543.36000031 257.14666625z" fill="#d4237a" p-id="6297"></path>
</svg>