<svg class="icon" viewBox="0 0 1024 1024" xmlns="http://www.w3.org/2000/svg" width="200" height="200"><path d="M512 935.532C278.5 935.532 88.468 745.5 88.468 512S278.5 88.468 512 88.468 935.532 278.5 935.532 512 745.5 935.532 512 935.532z" fill="#F2CB51"/><path d="M478.563 702.59a33.437 33.437 0 1066.874 0 33.437 33.437 0 10-66.874 0zM512 588.904c-12.26 0-22.291-10.03-22.291-22.29v-278.64c0-12.26 10.03-22.291 22.291-22.291s22.291 10.03 22.291 22.29v278.64c0 12.818-10.03 22.291-22.291 22.291z" fill="#E5404F"/></svg>