<svg class="icon" viewBox="0 0 1024 1024" xmlns="http://www.w3.org/2000/svg" width="200" height="200"><path d="M188.2 353.8c-30.6 0-55.2 24.8-55.2 55.2v231.5c0 30.6 24.8 55.2 55.2 55.2 30.6 0 55.2-24.8 55.2-55.2V409c-.1-30.4-24.9-55.2-55.2-55.2m445.6-207.9l38.7-70.5c1.9-3.6.7-8.3-2.9-10.5-3.6-1.9-8.5-.7-10.5 3.2l-38.9 71.2c-32.8-14.6-69.5-22.9-108.4-22.9-38.7 0-75.4 8-107.9 22.6L365 68c-1.9-3.6-6.8-5.1-10.5-3.2-3.6 1.9-5.1 6.8-3.2 10.5l38.7 70.5c-75.9 39.1-127.2 113.5-127.2 199.1h497.9c0-85.4-51-159.8-126.9-199m-235.3 109c-11.4 0-20.9-9.2-20.9-20.9 0-11.4 9.2-20.9 20.9-20.9 11.4 0 20.9 9.5 20.9 20.9 0 11.4-9.3 20.9-20.9 20.9m226.8 0c-11.4 0-20.9-9.2-20.9-20.9 0-11.4 9.2-20.9 20.9-20.9 11.4 0 20.9 9.5 20.9 20.9 0 11.4-9.5 20.9-20.9 20.9M264.7 364.3v358.9c0 32.6 26.3 59.1 59.1 59.1h40.1v122.5c0 30.4 24.8 55.2 55.2 55.2 30.6 0 55.2-24.8 55.2-55.4V782H549v122.5c0 30.4 24.8 55.2 55.2 55.2 30.6 0 55.2-24.8 55.2-55.2V782h40.4c32.6 0 59.1-26.3 59.1-59.1V364l-494.2.3zM891 409c0-30.6-24.8-55.2-55.2-55.2-30.6 0-55.2 24.8-55.2 55.2v231.5c0 30.6 24.8 55.2 55.2 55.2 30.6 0 55.2-24.8 55.2-55.2V409z" fill="#A4C439"/></svg>