<svg class="icon" viewBox="0 0 1024 1024" xmlns="http://www.w3.org/2000/svg" width="200" height="200"><path d="M900.848 202.667L595.394 89.212c-8.727-4.364-17.455-4.364-21.818-4.364s-17.455 0-21.818 4.364L246.303 202.667c-26.182 8.727-43.636 34.909-43.636 65.454v370.91c0 8.727 4.363 17.454 8.727 26.181S303.03 865.94 556.12 957.576c4.364 4.363 13.091 4.363 21.818 4.363s17.455 0 21.819-4.363c253.09-91.637 340.363-288 344.727-292.364 4.363-8.727 8.727-17.454 8.727-26.182V268.121c-8.727-26.182-26.182-52.363-52.364-65.454z" fill="#FFDBD7"/><path d="M834.424 158.545L502.788 36.364C494.06 32 485.333 32 476.606 32s-17.454 0-26.182 4.364L118.788 158.545c-30.546 13.091-48 39.273-48 69.819v401.454c0 13.091 4.364 17.455 8.727 30.546 4.364 8.727 100.364 218.181 375.273 318.545 4.364 4.364 13.09 4.364 21.818 4.364s17.455 0 26.182-4.364C777.697 878.545 873.697 669.091 878.06 660.364c4.363-13.091 8.727-17.455 8.727-30.546V228.364c-4.364-26.182-21.818-56.728-52.364-69.819zm-26.182 471.273s-82.909 192-331.636 279.273C232.242 821.818 144.97 629.818 144.97 629.818V228.364l331.636-122.182 331.636 122.182v401.454zM354.424 481.455c-13.09-13.091-34.909-13.091-52.363 0-13.091 13.09-13.091 34.909 0 52.363L415.515 642.91c13.091 13.091 39.273 13.091 56.727 0l218.182-213.818c13.091-13.091 13.091-39.273 0-56.727-13.09-13.091-39.272-13.091-56.727 0l-192 192-87.273-82.91z" fill="#F05B48"/></svg>