<svg xmlns="http://www.w3.org/2000/svg" width="200" height="200" viewBox="0 0 1024 1024"><path fill="#B4B4B4" d="M1024 1024V62.036C1024 27.774 996.226 0 961.966 0H62.034C27.774 0 0 27.774 0 62.036V1024h1024z"/><path fill="#ABCDE0" d="M129.354 129.354h765.284v538.98H129.354z"/><path fill="#E0E0E0" d="M512 0H62.034C27.774 0 0 27.774 0 62.036V1024h512V0z"/><path fill="#D6F1FF" d="M129.354 129.354h382.642v538.98H129.354z"/><path fill="#707070" d="M175.772 777.174h672.454v109.798H175.772z"/><path fill="#B4B4B4" d="M175.772 777.174H512v109.798H175.772z"/><path fill="#048F46" d="M129.354 129.354h765.284v107.794H129.354z"/><path fill="#3DDB86" d="M129.354 129.354h382.642v107.794H129.354z"/><path fill="#4386C9" d="M215.416 313.594h123.17v62.694h-123.17zm0 107.792h123.17v62.694h-123.17zm0 107.792h123.17v62.694h-123.17zm187.852-215.584h405.316v62.694H403.268zm0 107.792h405.316v62.694H403.268zm0 107.792h405.316v62.694H403.268z"/><path fill="#424242" d="M97.008 745.828H926.97v62.694H97.008z"/></svg>