<svg class="icon" viewBox="0 0 1024 1024" xmlns="http://www.w3.org/2000/svg" width="200" height="200"><path d="M864.085 942.179c-15.701 0-28.444-12.744-28.444-28.445V269.07c0-97.849-79.645-177.493-177.493-177.493S480.654 171.22 480.654 269.069c0 15.702-12.743 28.445-28.444 28.445s-28.445-12.743-28.445-28.445c0-129.251 105.131-234.382 234.383-234.382S892.53 139.817 892.53 269.07v644.665c0 15.701-12.732 28.445-28.445 28.445z" fill="#73D8FF"/><path d="M718.905 604.372H180.167a62.489 62.489 0 01-46.876-21.162c-11.833-13.312-17.295-31.062-15.133-48.697v-.342c20.822-166.57 163.271-292.18 331.321-292.18S759.98 367.6 780.8 534.057v.455c2.162 17.635-3.3 35.385-15.132 48.697-11.72 13.54-28.786 21.162-46.763 21.162z" fill="#057CE0"/><path d="M340.252 779.704h-8.533c-13.312 0-24.12-10.809-24.12-24.12V679.01c0-13.312 10.808-24.121 24.12-24.121h8.533c13.312 0 24.121 10.809 24.121 24.12v76.573c.125 13.312-10.683 24.12-24.12 24.12zm0 158.379h-8.533c-13.312 0-24.12-10.81-24.12-24.121v-76.573c0-13.312 10.808-24.12 24.12-24.12h8.533c13.312 0 24.121 10.808 24.121 24.12v76.573c.125 13.312-10.683 24.12-24.12 24.12zm113.562-158.38h-8.533c-13.312 0-24.121-10.808-24.121-24.12v-76.572c0-13.312 10.809-24.121 24.12-24.121h8.534c13.312 0 24.12 10.809 24.12 24.12v76.573c.103 13.312-10.82 24.12-24.12 24.12zm0 158.38h-8.533c-13.312 0-24.121-10.81-24.121-24.121v-76.573c0-13.312 10.809-24.12 24.12-24.12h8.534c13.312 0 24.12 10.808 24.12 24.12v76.573c.103 13.312-10.82 24.12-24.12 24.12zm113.539-158.38h-8.533c-13.312 0-24.121-10.808-24.121-24.12v-76.572c0-13.312 10.809-24.121 24.12-24.121h8.534c13.312 0 24.12 10.809 24.12 24.12v76.573c0 13.312-10.808 24.12-24.12 24.12zm0 158.38h-8.533c-13.312 0-24.121-10.81-24.121-24.121v-76.573c0-13.312 10.809-24.12 24.12-24.12h8.534c13.312 0 24.12 10.808 24.12 24.12v76.573c0 13.312-10.808 24.12-24.12 24.12z" fill="#73D8FF"/></svg>