<svg class="icon" viewBox="0 0 1024 1024" xmlns="http://www.w3.org/2000/svg" width="200" height="200"><path d="M137.862 91.022h182.045q45.511 0 45.511 45.511v750.934q0 45.51-45.511 45.51H137.862q-45.51 0-45.51-45.51V136.533q0-45.51 45.51-45.51z" fill="#2C83FF"/><path d="M544.05 128.91l175.786-47.104a45.443 45.443 0 0155.75 32.188l194.356 725.333a45.511 45.511 0 01-32.188 55.751l-175.843 47.116a45.511 45.511 0 01-55.751-32.188L511.816 184.661a45.511 45.511 0 0132.233-55.75z" fill="#72F0E8"/><path d="M410.929 91.022h182.045q45.51 0 45.51 45.511v750.934q0 45.51-45.51 45.51H410.929q-45.511 0-45.511-45.51V136.533q0-45.51 45.511-45.51z" fill="#16B6FF"/><path d="M638.485 136.533v520.864L511.815 184.66a45.511 45.511 0 0132.189-55.75l83.103-22.256a45.136 45.136 0 0111.378 29.878z" fill="#72F0E8"/></svg>