<svg class="icon" viewBox="0 0 1024 1024" xmlns="http://www.w3.org/2000/svg" width="200" height="200"><path d="M884.017 619.386l-46.023-53.693 9.588-115.057 65.2-65.198-1.918-3.836-30.682-46.022h-13.423l-30.682-38.353 9.588-113.139 65.199-65.199v-15.34L189.84 115.053l-53.693 36.435-26.847 57.528v74.787l46.023 65.199 28.764 23.011-44.105 46.023-28.764 57.528v76.705l46.022 63.281 24.93 21.094-46.023 49.858L109.3 744.03v74.787l46.023 65.199 34.517 28.764 239.702 9.588 481.32-5.753-30.681-28.764-44.105-55.61 9.588-113.14 65.199-65.199-3.836-5.752h5.753z" fill="#FFC56F"/><path d="M933.875 673.08v-55.611c-46.023-11.506-80.54-55.611-80.54-107.387 0-51.775 34.517-93.963 80.54-107.386v-55.61c-46.023-11.506-80.54-55.612-80.54-107.387 0-51.776 34.517-93.963 80.54-107.386V90.125H239.699c-82.458 0-149.574 69.034-149.574 153.41 0 57.528 30.682 107.385 74.787 134.232C120.807 404.614 90.125 454.472 90.125 512s30.682 107.386 74.787 134.233c-44.105 26.847-74.787 76.705-74.787 134.233 0 84.375 67.116 153.409 149.574 153.409h694.176v-47.94c-46.023-11.506-80.54-55.611-80.54-107.387 0-49.858 34.517-93.963 80.54-105.468zm-803.48-429.546c0-63.281 49.858-113.14 109.304-113.14h623.224c-30.682 28.765-49.858 69.035-49.858 113.14 0 44.105 19.176 86.293 49.858 113.14H239.7c-61.364 1.917-109.304-49.859-109.304-113.14zm0 268.466c0-63.281 49.858-113.14 109.304-113.14h623.224c-30.682 28.765-49.858 69.035-49.858 113.14 0 44.105 19.176 86.293 49.858 113.14H239.7c-61.364 0-109.304-49.859-109.304-113.14zm682.67 268.466c0 44.105 19.176 86.293 49.858 113.14H239.7c-61.364 0-109.304-51.776-109.304-113.14 0-63.281 49.858-113.14 109.304-113.14h623.224c-30.682 26.847-49.858 67.117-49.858 113.14z" fill="#FE6576"/><path d="M253.122 130.395v435.298c0 7.67 7.67 11.506 13.423 9.588l40.27-19.176 40.27 19.176c5.753 3.835 13.424-1.917 13.424-9.588V130.395H253.122z" fill="#FC4248"/><path d="M276.134 155.324c-7.67 0-11.506 5.753-11.506 11.506v74.786c0 7.67 5.753 11.506 11.506 11.506 7.67 0 11.505-5.753 11.505-11.506v-72.869c1.918-7.67-3.835-13.423-11.505-13.423zm-11.506 126.562a11.506 11.506 0 1023.011 0 11.506 11.506 0 10-23.011 0z" fill="#FFF"/></svg>