<svg xmlns="http://www.w3.org/2000/svg" width="200" height="200" viewBox="0 0 1024 1024"><path fill="#F8C213" d="M358.4 163.84h523.703c42.423 0 76.068 33.646 76.068 76.069v389.12c0 42.422-33.645 76.068-76.068 76.068H118.49c-42.422 0-76.068-33.646-76.068-76.068v-58.515c0-67.291-4.389-73.143 45.348-118.491l92.16-83.383 80.458-146.286c23.405-33.645 52.662-58.514 98.011-58.514z"/><path fill="#141515" d="M882.103 716.8H118.49c-48.274 0-86.308-39.497-86.308-86.309v-74.605c0-57.052 1.463-67.292 49.737-111.177l90.697-81.92 80.457-144.823c19.017-27.795 49.737-62.903 106.789-62.903h523.703c48.274 0 86.308 39.497 86.308 86.308v389.12c0 48.275-39.497 86.309-87.771 86.309zM358.4 174.08c-36.571 0-64.366 16.091-89.234 54.126L188.709 374.49c0 1.463-1.463 1.463-1.463 2.926L95.086 460.8c-42.423 38.034-42.423 42.423-42.423 95.086v76.068c0 36.572 29.257 65.829 65.828 65.829h765.075c36.571 0 65.828-29.257 65.828-65.829V239.91c0-36.572-29.257-65.829-65.828-65.829H358.4z"/><path fill="#90CED9" d="M159.451 387.657l20.48-19.017 78.995-144.823h64.365c8.778 0 16.092 7.314 16.092 16.092v86.308c0 33.646-27.794 61.44-61.44 61.44H159.45z"/><path fill="#141515" d="M279.406 397.897H159.45c-4.388 0-8.777-2.926-10.24-7.314-1.462-4.389 0-8.777 2.926-11.703l19.017-17.554 78.995-143.36c1.462-2.926 5.851-5.852 8.777-5.852h64.365a26.222 26.222 0 0126.332 26.332v86.308c0 40.96-32.183 73.143-70.217 73.143zm-93.623-20.48h92.16c27.794 0 49.737-21.943 49.737-49.737v-86.309c0-2.925-2.926-5.851-5.851-5.851h-58.515l-76.068 138.971c1.463 0 0 1.463-1.463 2.926z"/><path fill="#90CED9" d="M956.709 225.28c1.462 5.851 1.462 10.24 1.462 16.091V389.12H441.783c-33.646 0-61.44-27.794-61.44-61.44v-86.309c0-8.777 7.314-16.091 16.091-16.091H956.71z"/><path fill="#141515" d="M959.634 397.897H441.783c-39.497 0-71.68-32.183-71.68-71.68V239.91a26.222 26.222 0 0126.331-26.332H956.71c4.388 0 8.777 2.926 10.24 8.777 1.462 5.852 1.462 11.703 1.462 17.555v147.748c1.463 5.852-4.388 10.24-8.777 10.24zM397.897 235.52c-2.926 0-5.851 2.926-5.851 5.851v86.309c0 27.794 21.943 49.737 49.737 49.737H947.93V235.52H397.897z"/><path fill="#6E7377" d="M959.634 608.549v21.942c0 42.423-33.645 76.069-76.068 76.069H118.49c-42.422 0-76.068-33.646-76.068-76.069V608.55h917.211z"/><path fill="#141515" d="M882.103 716.8H118.49c-48.274 0-86.308-39.497-86.308-86.309V608.55c0-5.852 4.388-10.24 10.24-10.24h917.211c5.852 0 10.24 4.388 10.24 10.24v21.942c0 48.275-39.497 86.309-87.771 86.309zM51.2 618.789v11.702c0 36.572 29.257 65.829 65.829 65.829h765.074c36.571 0 65.828-29.257 65.828-65.829V618.79H51.2z"/><path fill="#A1A69C" d="M217.966 860.16c64.365 0 118.491-52.663 118.491-118.491 0-64.366-52.663-118.492-118.491-118.492-64.366 0-118.492 52.663-118.492 118.492S153.6 860.16 217.966 860.16z"/><path fill="#141515" d="M217.966 870.4c-70.217 0-128.732-57.051-128.732-128.731 0-70.218 57.052-128.732 128.732-128.732S346.697 669.99 346.697 741.67c0 70.217-58.514 128.731-128.731 128.731zm0-235.52c-58.515 0-106.789 48.274-106.789 106.789 0 59.977 48.274 106.788 106.789 106.788 59.977 0 106.788-48.274 106.788-106.788S277.943 634.88 217.966 634.88z"/><path fill="#DAD9B4" d="M162.377 741.669a55.589 55.589 0 10111.177 0 55.589 55.589 0 10-111.177 0z"/><path fill="#141515" d="M217.966 807.497c-36.572 0-65.829-29.257-65.829-65.828s29.257-65.829 65.829-65.829 65.828 29.257 65.828 65.829-29.257 65.828-65.828 65.828zm0-111.177c-24.869 0-45.349 20.48-45.349 45.349 0 24.868 20.48 45.348 45.349 45.348 24.868 0 45.348-20.48 45.348-45.348 0-24.869-20.48-45.349-45.348-45.349z"/><path fill="#A1A69C" d="M784.091 860.16c64.366 0 118.492-52.663 118.492-118.491 0-64.366-52.663-118.492-118.492-118.492-64.365 0-118.491 52.663-118.491 118.492S719.726 860.16 784.091 860.16z"/><path fill="#141515" d="M784.091 870.4c-70.217 0-128.731-57.051-128.731-128.731 0-70.218 57.051-128.732 128.731-128.732S912.823 669.99 912.823 741.67c0 70.217-58.514 128.731-128.732 128.731zm0-235.52c-59.977 0-106.788 48.274-106.788 106.789 0 59.977 48.274 106.788 106.788 106.788S890.88 800.183 890.88 741.67s-48.274-106.79-106.789-106.79z"/><path fill="#DAD9B4" d="M728.503 741.669a55.589 55.589 0 10111.177 0 55.589 55.589 0 10-111.177 0z"/><path fill="#141515" d="M784.091 807.497c-36.571 0-65.828-29.257-65.828-65.828s29.257-65.829 65.828-65.829 65.829 29.257 65.829 65.829-29.257 65.828-65.829 65.828zm0-111.177c-24.868 0-45.348 20.48-45.348 45.349 0 24.868 20.48 45.348 45.348 45.348s45.349-20.48 45.349-45.348c0-24.869-20.48-45.349-45.349-45.349z"/><path fill="#7E8495" d="M370.103 706.56h257.463v59.977H370.103z"/><path fill="#141515" d="M627.566 776.777H370.103c-5.852 0-10.24-4.388-10.24-10.24V706.56c0-5.851 4.388-10.24 10.24-10.24h257.463c5.851 0 10.24 4.389 10.24 10.24v59.977c0 5.852-4.389 10.24-10.24 10.24zm-247.223-20.48h236.983V716.8H380.343v39.497z"/><path fill="#141515" d="M498.834 763.611c-5.851 0-10.24-4.388-10.24-10.24V716.8c0-5.851 4.389-10.24 10.24-10.24 5.852 0 10.24 4.389 10.24 10.24v35.109c0 5.851-4.388 11.702-10.24 11.702zm-143.36-177.005c-5.851 0-10.24-4.389-10.24-10.24V399.36c0-5.851 4.389-10.24 10.24-10.24 5.852 0 10.24 4.389 10.24 10.24v177.006c0 5.851-4.388 10.24-10.24 10.24zm172.617 0c-5.851 0-10.24-4.389-10.24-10.24v-143.36c0-5.852 4.389-10.24 10.24-10.24 5.852 0 10.24 4.388 10.24 10.24v143.36c0 5.851-4.388 10.24-10.24 10.24zm207.726 0c-5.851 0-10.24-4.389-10.24-10.24v-143.36c0-5.852 4.389-10.24 10.24-10.24 5.852 0 10.24 4.388 10.24 10.24v143.36c0 5.851-4.388 10.24-10.24 10.24z"/><path fill="#FCDD10" d="M501.76 231.131h46.811v156.526H501.76z"/><path fill="#141515" d="M548.571 397.897H501.76c-5.851 0-10.24-4.388-10.24-10.24V231.131c0-5.851 4.389-10.24 10.24-10.24h46.811c5.852 0 10.24 4.389 10.24 10.24v156.526c0 5.852-4.388 10.24-10.24 10.24zM512 377.417h26.331V241.371H512v136.046z"/><path fill="#FCDD10" d="M709.486 231.131h46.811v156.526h-46.811z"/><path fill="#141515" d="M756.297 397.897h-46.811c-5.852 0-10.24-4.388-10.24-10.24V231.131c0-5.851 4.388-10.24 10.24-10.24h46.811c5.852 0 10.24 4.389 10.24 10.24v156.526c0 5.852-4.388 10.24-10.24 10.24zm-36.571-20.48h26.331V241.371h-26.331v136.046z"/><path fill="#EC748B" d="M914.286 564.663h64.365c10.24 0 19.018 8.777 19.018 19.017v10.24c0 10.24-8.778 19.017-19.018 19.017h-64.365c-10.24 0-19.017-8.777-19.017-19.017v-10.24c0-10.24 7.314-19.017 19.017-19.017z"/><path fill="#141515" d="M978.651 623.177h-64.365c-16.092 0-29.257-13.166-29.257-29.257v-10.24c0-16.091 13.165-29.257 29.257-29.257h64.365c16.092 0 29.258 13.166 29.258 29.257v10.24c0 16.091-13.166 29.257-29.258 29.257zm-64.365-48.274c-4.389 0-8.777 4.388-8.777 8.777v10.24c0 4.389 4.388 8.777 8.777 8.777h64.365c4.389 0 8.778-4.388 8.778-8.777v-10.24c0-4.389-4.389-8.777-8.778-8.777h-64.365z"/><path fill="#7E8495" d="M93.623 702.171c-30.72-10.24-51.2-39.497-51.2-71.68v-74.605c42.423 7.314 74.606 43.885 74.606 87.771-1.463 21.943-10.24 43.886-23.406 58.514z"/><path fill="#141515" d="M93.623 712.411h-2.926c-35.108-11.702-58.514-45.348-58.514-81.92v-74.605c0-2.926 1.463-5.852 4.388-7.315 2.926-1.462 5.852-2.925 8.778-2.925 48.274 8.777 83.382 49.737 83.382 98.011 0 24.869-8.777 48.274-24.868 65.829-4.389 2.925-7.314 2.925-10.24 2.925zM51.2 569.051v61.44c0 26.332 14.629 49.738 38.034 59.978 10.24-13.166 14.629-29.258 14.629-46.812 1.463-35.108-20.48-64.366-52.663-74.606z"/><path fill="#FFEC5E" d="M26.331 605.623V532.48h68.755c27.794 0 57.051 16.091 65.828 36.571l8.777 20.48c4.389 8.778-2.925 16.092-14.628 16.092H26.33z"/><path fill="#141515" d="M156.526 615.863H26.33c-5.851 0-10.24-4.389-10.24-10.24V532.48c0-5.851 4.389-10.24 10.24-10.24h68.755c32.183 0 64.365 19.017 76.068 42.423l8.777 20.48c2.926 7.314 2.926 14.628-1.462 20.48-2.926 5.851-11.703 10.24-21.943 10.24zM36.57 595.383h119.955c2.925 0 4.388-1.463 5.851-1.463l-10.24-20.48c-7.314-17.554-33.646-32.183-57.051-32.183H36.57v54.126zm212.116-270.629c-5.852 0-10.24-4.388-10.24-10.24v-30.72c0-35.108-29.257-64.365-64.366-64.365h-73.143c-5.851 0-10.24-4.389-10.24-10.24 0-5.852 4.389-10.24 10.24-10.24h74.606c46.811 0 84.846 38.034 84.846 84.845v30.72c0 4.389-5.852 10.24-11.703 10.24z"/><path fill="#6E7377" d="M124.343 182.857h49.737c13.166 0 23.406 10.24 23.406 23.406v7.314c0 13.166-10.24 23.406-23.406 23.406h-49.737c-13.166 0-23.406-10.24-23.406-23.406v-7.314c0-13.166 10.24-23.406 23.406-23.406z"/><path fill="#141515" d="M174.08 248.686h-49.737c-19.017 0-33.646-14.629-33.646-33.646v-7.314c0-19.017 14.629-33.646 33.646-33.646h49.737c19.017 0 33.646 14.629 33.646 33.646v7.314c0 17.554-14.629 33.646-33.646 33.646zm-49.737-55.589a13.111 13.111 0 00-13.166 13.166v7.314a13.111 13.111 0 0013.166 13.166h49.737a13.111 13.111 0 0013.166-13.166v-7.314a13.111 13.111 0 00-13.166-13.166h-49.737z"/></svg>