<svg xmlns="http://www.w3.org/2000/svg" width="200" height="200" class="icon" viewBox="0 0 1024 1024"><path fill="#31c37c" d="M331.219 640c-20.8 9.6-52.8 17.6-84.8 17.6h-1.6c-94.4 0-150.4-59.2-150.4-158.4 0-51.2 14.4-92.8 41.6-121.6 27.2-27.2 65.6-43.2 112-43.2 40 0 68.8 9.6 81.6 16l17.6 8 22.4-80-12.8-6.4c-12.8-6.4-48-20.8-112-20.8-145.6 3.2-246.4 105.6-244.8 251.2 0 73.6 24 134.4 68.8 176 41.6 40 99.2 60.8 164.8 60.8h1.6c57.6 0 100.8-12.8 123.2-24l12.8-6.4-20.8-78.4-19.2 9.6zm163.2 9.6V524.8l169.6-1.6v-80l-171.2 1.6V339.2h179.2V256l-270.4 3.2 3.2 472 280-1.6V648zm529.6-313.6v-81.6l-326.4 1.6v83.2l118.4-1.6 1.6 390.4h92.8l-3.2-390.4z"/></svg>