<svg class="icon" viewBox="0 0 1024 1024" xmlns="http://www.w3.org/2000/svg" width="81" height="81"><path d="M827.563 927.125H197.28c-55.687 0-101.25-45.563-101.25-101.25V194.75c0-55.688 45.563-101.25 101.25-101.25h631.125c55.688 0 101.25 45.563 101.25 101.25v631.125c-.843 55.688-46.406 101.25-102.093 101.25z" fill="#FFF"/><path d="M621.688 838.531c-146.813 38.813-259.032-10.968-337.5-85.218-53.157-49.782-86.063-108.844-106.313-179.72-17.719-60.75-16.031-126.562-16.031-191.53 0-33.75 20.25-109.688 26.156-140.063-42.188 64.969-91.969 183.938-91.969 265.781C96.031 737.281 282.5 923.75 512 923.75c102.094 0 214.313-77.625 268.313-156.938-103.782 47.25-86.063 53.157-158.625 71.72z" fill="#643B98"/><path d="M761.75 150.875c-47.25-27.844-100.406-46.406-157.781-54-189-24.469-403.313 97.875-423.563 286.031 89.438-175.5 226.125-243 389.813-221.906 51.468 6.75 100.406 21.938 144.281 45.563l47.25-55.688z" fill="#643B98"/><path d="M582.875 747.406c-.844.844-1.688.844-2.531 2.532-1.688 2.53-2.532 8.437-4.219 11.812-.844 1.688-6.75 9.281-6.75 10.969s1.688 3.375 4.219 5.062c-10.969 1.688-21.094 3.375-32.063 4.219 1.688-2.531 2.532-5.063-4.218-5.063 1.687-5.062 5.906-7.593 7.593-11.812.844-2.531 0-2.531.844-5.063 2.531-7.593 1.688-5.062 0-10.968 0-.844-.844-.844-.844-1.688h-155.25V475.72l-5.062-5.063c-7.594-9.281-15.188-19.406-21.938-29.531-2.531-4.219-1.687-5.906-5.906-10.125-4.219-3.375-8.438-5.063-11.813-8.438-13.5-11.812-16.03-28.687-14.343-44.718.844-5.906 2.531-10.125 1.687-15.188-.844-4.219-3.375-8.437-6.75-11.812-.844-1.688-4.219-5.906-4.219-5.906-2.53-5.063-5.062-10.125-10.125-13.5-2.53-2.532-10.125-8.438-16.875-12.657 30.375-37.969 70.032-67.5 115.594-86.062.844 2.531 1.688 5.062 2.531 6.75 4.22 5.906 7.594 5.062 14.344 6.75-.844 8.437-10.969 8.437-16.875 7.594-8.437-.844-16.031-4.22-23.625 3.375 4.219 2.53 14.344 10.968 12.656 1.687 7.594-.844 15.188-.844 22.782.844 2.531.844 12.656 4.219 16.031 2.531.844-.844 2.531-5.906 3.375-8.438-1.688 0-4.219-.843-6.75-.843 5.063-5.906 10.125-1.688 16.031 1.687-6.75 4.219-2.531 14.344 4.219 5.906 5.906-6.75-1.688-11.812-8.438-16.03 7.594-9.282 11.813-9.282 18.563.843.844-5.906 5.906-4.219 11.813-3.375v-1.688c-2.532 0-5.063-1.687-7.594-.843 5.062-8.438 1.687-10.969 9.281-13.5 5.906-2.531 23.625 0 25.313-5.906-11.813 2.53-27 2.53-37.97 8.437-5.062 2.531-10.968 10.125-15.187 5.063-5.062-5.063 3.375-12.657 7.594-15.188h-.844c19.406-4.219 39.656-5.906 59.906-5.906 13.5 0 26.157.844 38.813 2.531-4.219 2.531-.844 4.219-4.219 5.906-5.906 4.219-16.875 8.438-24.468 10.969 9.28 0 32.062 8.438 36.28-4.219-2.53-.844-5.905-.844-9.28-1.687 5.906-4.219 11.812-6.75 18.562-9.281 59.063 11.812 112.219 41.343 151.875 83.53h-1.688c-10.968.844-18.562.844-27.843 6.75-4.219 2.532-5.907 5.907-10.969 7.594-4.219.844-8.438 0-12.656 1.688-15.188 5.063-12.657 36.281-32.063 32.063-9.281-2.532-15.187-12.657-20.25-20.25-4.218-5.907-11.812-11.813-5.906-19.407-2.531.844-5.063 0-6.75.844 2.531-6.75 13.5-5.906 15.188-9.281 4.218-8.438-11.813-9.281-16.032-10.969 5.063-5.906 8.438 1.688 13.5.844 5.063-1.688-2.531-8.438-5.906-9.281-.844-.844-19.406 5.062-9.281-4.22-12.657-8.437-26.157-16.874-39.657-25.312-2.53 9.281 17.72 15.188 23.625 17.719-.843 4.219-7.593 9.281-11.812 7.594-4.219-1.688-2.531-8.438-9.281-8.438-5.063 10.969 10.125 7.594 10.968 14.344 1.688 7.594-5.062 4.219-8.437 4.219-.844 0-5.906-5.063-5.906-1.688-.844 5.063 8.437 2.531 8.437 7.594-9.281.844-15.187-3.375-22.781-8.438-9.281-5.906-13.5-5.906-25.313-5.906 3.375-1.687 8.438-2.531 10.97-5.062l8.437-8.438c1.687-5.906 0-5.062-5.907-9.281-5.062-3.375-10.968-9.281-16.875-10.969-21.937-4.219-6.75 19.406-22.78 22.781h.843-.844c-4.219 0-10.969-.843-13.5.844-1.687 1.688-1.687 7.594-4.219 9.281-3.375 4.22-8.437 4.22-12.656 7.594-4.219 2.531-12.656 9.281-15.187 13.5-8.438 16.875 19.406 21.938 30.375 27 5.062 2.531 19.406 5.063 21.937 8.438 3.375 5.062-2.531 9.281 4.219 12.656 2.531.844 7.594 1.688 9.281-.844 3.375-4.219-1.687-5.062-1.687-8.437-1.688-8.438.843-5.063 5.062-8.438 8.438-5.906 6.75-6.75 3.375-16.875-1.687-5.062-6.75-17.719-1.687-21.094 5.906-4.218 19.406 2.532 23.625 2.532 5.062.844 8.437 8.437 11.812 11.812 1.688 1.688 5.907 5.906 9.282 5.906 5.062-.843 3.375-5.906 5.906-7.593 8.437-5.906 10.968 1.687 14.343 10.125 3.375 7.594 5.907 10.969 11.813 15.187 2.531 2.531 14.344 10.969 12.656 15.188-.843 3.375-13.5 8.437-17.718 9.281-12.657 4.219-37.125-6.75-39.657 13.5 5.063-1.688 19.407-13.5 23.625-8.438 1.688 2.532-1.687 5.907-.843 8.438 2.53 7.594 8.437 5.063 14.343 4.219-.843.844-.843.844-1.687.844 8.437-4.22 7.593-3.375 10.968-10.125 1.688-2.532 2.532-7.594 5.063-9.282 5.906-5.906 6.75-1.687 10.969 2.531.843.844 10.125 14.344 6.75 13.5-10.969-1.687-21.094-1.687-29.532 4.22-5.062 3.374-10.125 8.437-16.03 10.124-1.688.844-12.657 1.688-10.97-.844 1.688-2.53 8.438-4.218 10.97-7.593-7.595-2.531-12.657 3.375-18.563 7.594-4.219 1.687-5.907 5.062-8.438 8.437h269.157c-41.344-126.563-161.157-217.688-302.907-217.688-178.875 0-324 145.125-324 324S339.031 819.97 517.062 819.97c77.625 0 148.5-27 204.188-72.563H582.875z" fill="#2F82B9"/><path d="M371.094 442.813c-.844-.844 2.531 8.437 2.531 8.437 3.375 5.906 8.438 11.813 12.656 17.719.844 1.687 1.688 2.531 2.531 4.219v-14.344c-5.906-7.594-7.593-14.344-17.718-16.031zM677.375 714.5h-75.094V569.375c0-42.188-15.187-63.281-45.562-63.281-14.344 0-26.157 5.906-36.282 16.875-9.28 10.968-14.343 25.312-14.343 43.031v148.5h-75.938V453.781h75.938v41.344h.844c19.406-32.063 47.25-47.25 83.53-47.25 57.376 0 86.063 35.438 86.063 107.156l.844 159.469zm59.063-136.688l92.812-124.03h-66.656l-73.407 108.843c-2.53 4.219-5.062 8.438-7.593 13.5h-.844v10.125h.844c2.531 5.906 5.062 10.969 6.75 13.5l78.468 113.906h70.032c.843 0-100.407-135.843-100.407-135.843zm112.218-76.78c0-12.657 4.219-22.782 10.969-30.376 7.594-7.594 16.875-11.812 28.688-11.812s21.937 4.219 29.53 11.812c7.595 8.438 10.97 18.563 10.97 30.375 0 12.656-4.22 22.781-11.813 30.375-7.594 8.438-16.875 12.657-28.688 12.657s-21.093-4.22-28.687-12.657c-7.594-7.593-10.969-17.718-10.969-30.375zm20.25 211.78V563.47h43.032v149.343h-43.032z" fill="#643B98"/></svg>