<svg class="icon" viewBox="0 0 1024 1024" xmlns="http://www.w3.org/2000/svg" width="200" height="200"><path d="M928.275 663.218H95.725V194.03c0-57.283 46.603-103.887 103.887-103.887H824.63c57.283 0 103.887 46.604 103.887 103.887v469.19z" fill="#2953FF"/><path d="M869.293 933.858H154.707c-68.934 0-118.693-65.78-100.003-132.043l40.778-145.636h832.793l40.778 145.636c18.69 66.507-31.069 132.043-99.76 132.043z" fill="#93A8FF"/><path d="M515.155 347.432H248.642c-26.7 0-48.545-21.846-48.545-48.545v-6.797c0-26.7 21.846-48.545 48.545-48.545h266.513c26.7 0 48.546 21.845 48.546 48.545v6.797c0 26.7-21.846 48.545-48.546 48.545zM766.62 526.078H603.993c-26.7 0-48.545-21.845-48.545-48.545v-6.796c0-26.7 21.845-48.546 48.545-48.546H766.62c26.7 0 48.546 21.846 48.546 48.546v6.796a48.545 48.545 0 01-48.546 48.545z" fill="#FCCA1E"/></svg>