<svg class="icon" viewBox="0 0 1024 1024" xmlns="http://www.w3.org/2000/svg" width="200" height="200"><path d="M767.605 987.545h-511.21c-52.31 0-95.11-42.8-95.11-95.11v-760.87c0-52.31 42.8-95.11 95.11-95.11h511.21c52.31 0 95.11 42.8 95.11 95.11v760.87c0 52.31-42.8 95.11-95.11 95.11z" fill="#F2CB51"/><path d="M720.05 618.998h-416.1c-13.078 0-23.778-10.7-23.778-23.778s10.7-23.777 23.777-23.777h416.102c13.077 0 23.777 10.7 23.777 23.777s-10.7 23.778-23.777 23.778zm0-178.33h-416.1c-13.078 0-23.778-10.7-23.778-23.777s10.7-23.777 23.777-23.777h416.102c13.077 0 23.777 10.7 23.777 23.777s-10.7 23.777-23.777 23.777zm7.134-178.329H311.082c-13.077 0-23.777-10.7-23.777-23.777s10.7-23.777 23.777-23.777h416.102c13.077 0 23.777 10.7 23.777 23.777s-10.7 23.777-23.777 23.777zm-126.02 534.988H303.95c-13.077 0-23.777-10.7-23.777-23.777s10.7-23.778 23.777-23.778h297.216c13.077 0 23.777 10.7 23.777 23.778s-10.7 23.777-23.777 23.777z" fill="#AF8015"/></svg>