<svg class="icon" viewBox="0 0 1024 1024" xmlns="http://www.w3.org/2000/svg" width="81" height="81"><path d="M653.355 170.667a171.69 171.69 0 00168.832 203.05c10.453-.042 20.906-1.066 31.146-2.986v340.138c0 143.147-84.437 227.798-227.754 227.798h-312.15c-143.616 0-228.096-84.651-228.096-227.798V399.19c0-143.104 84.438-228.522 228.096-228.522zm5.162 255.744l-4.992.341a31.147 31.147 0 00-20.778 12.544L529.92 571.563l-117.035-92.16a31.573 31.573 0 00-44.672 5.973l-126.037 162.56a30.72 30.72 0 00-6.784 19.499l.128 4.693a31.488 31.488 0 0058.027 13.653L398.976 549.42l117.077 91.776a31.573 31.573 0 0045.014-5.59l121.941-157.354v-.811a32.17 32.17 0 00-5.973-44.587 31.147 31.147 0 00-23.51-6.144z" fill="#1296db"/><path d="M725.333 192a106.667 106.667 0 10213.334 0 106.667 106.667 0 10-213.334 0z" fill="#1296db"/></svg>