<svg xmlns="http://www.w3.org/2000/svg" width="500" height="500" viewBox="0 0 1024 1024"><path fill="#6A89D8" d="M529.067 880.64c-6.827-6.827-10.24-13.653-10.24-20.48v-204.8c0-6.827 3.413-13.653 10.24-20.48s13.653-6.827 20.48-6.827h160.426V481.28h-6.826c-47.787 0-88.747 37.547-88.747 85.333v64.854h-34.133v-64.854c0-68.266 58.026-122.88 126.293-122.88h6.827V184.32c0-27.307-23.894-47.787-51.2-47.787H187.733c-27.306 0-51.2 20.48-51.2 47.787v655.36c0 27.307 23.894 47.787 51.2 47.787h471.04-109.226c-6.827 0-13.654-3.414-20.48-6.827zM225.28 501.76c0 10.24-10.24 20.48-20.48 20.48s-20.48-6.827-20.48-20.48v-27.307c0-3.413 3.413-10.24 6.827-13.653 3.413-3.413 10.24-6.827 13.653-6.827 6.827 0 10.24 3.414 13.653 6.827 3.414 3.413 6.827 6.827 6.827 13.653v27.307z"/><path fill="#7685F8" d="M706.56 682.667zm-6.827 0zm3.414 0zm6.826 3.413zm-3.413-3.413zm-10.24 3.413zm-3.413 0zm0 0zm3.413 0c3.413 0 3.413 0 0 0 3.413 0 3.413 0 0 0zm-6.827 0zm-3.413 3.413z"/><path fill="#FFF" d="M706.56 443.733c-71.68 0-126.293 54.614-126.293 122.88v64.854h37.546v-64.854c0-47.786 40.96-85.333 88.747-85.333h6.827c47.786 3.413 81.92 37.547 81.92 85.333v64.854h37.546v-64.854c0-64.853-54.613-119.466-122.88-122.88h-3.413z"/><path fill="#9FB5ED" d="M877.227 634.88c-6.827-6.827-13.654-6.827-20.48-6.827h-307.2c-6.827 0-17.067 3.414-20.48 6.827-6.827 6.827-10.24 13.653-10.24 20.48v204.8c0 6.827 3.413 13.653 10.24 20.48s13.653 6.827 20.48 6.827h307.2c6.826 0 17.066-3.414 20.48-6.827 6.826-6.827 10.24-13.653 10.24-20.48v-204.8c0-6.827-3.414-13.653-10.24-20.48zM737.28 716.8c-3.413 0-3.413 0 0 0v3.413h-3.413l3.413 27.307c0 10.24-6.827 20.48-17.067 20.48s-20.48-6.827-20.48-17.067l-17.066-10.24v-3.413c-10.24-6.827-13.654-20.48-10.24-34.133 3.413-6.827 6.826-10.24 13.653-13.654h30.72c20.48 23.894 20.48 23.894 20.48 27.307 0-3.413 0-3.413 0 0 0-3.413 0-3.413 0 0z"/><path fill="#FFF" d="M204.8 457.387c-6.827 0-10.24 3.413-13.653 6.826-3.414 3.414-6.827 6.827-6.827 13.654v27.306c0 10.24 10.24 20.48 20.48 20.48s20.48-6.826 20.48-20.48v-27.306c0-3.414-3.413-10.24-6.827-13.654-3.413-6.826-6.826-6.826-13.653-6.826zm532.48 256c0-3.414 0-3.414 0 0v-3.414h-30.72c-6.827 3.414-10.24 6.827-13.653 13.654-3.414 10.24 0 23.893 10.24 34.133v3.413l3.413 27.307c0 10.24 10.24 17.067 20.48 17.067s20.48-10.24 17.067-20.48l-3.414-27.307h3.414c-6.827-40.96-6.827-40.96-6.827-44.373 0 3.413 0 3.413 0 0z"/></svg>