<svg xmlns="http://www.w3.org/2000/svg" width="500" height="500" viewBox="0 0 1024 1024"><path fill="#f4ea2a" d="M846.306 406.634c-2.607-5.287-10.845-17.748-31.137-19.3a27.115 27.115 0 00-1.89-.064l-208.992-1.337L658.06 118.66c.161-.733.274-1.5.356-2.236 1.89-16.738-1.484-30-10.034-39.439-7.149-7.923-17.323-12.27-28.658-12.27-12.978 0-24.262 5.733-27.407 7.49a26.55 26.55 0 00-7.377 6.075L182.845 554.06a25.252 25.252 0 00-1.737 2.319c-6.191 9.17-10.215 23.77-2.95 37.202 3.711 6.87 13.29 18.374 35.698 18.374 1.073 0 2.177-.034 3.368-.08l185.023-.13-103.31 299.136a25.58 25.58 0 00-1.235 5.288c-.537 4.234-1.45 18.945 9.248 30.928 7.022 7.845 17.115 12.187 28.467 12.187 6.953 0 14.311-1.578 22.49-4.804a27.05 27.05 0 009.624-6.518L839.27 448.774a26.3 26.3 0 002.72-3.404c3.158-4.696 12.845-21.371 4.316-38.736z"/></svg>