<svg class="icon" viewBox="0 0 1024 1024" xmlns="http://www.w3.org/2000/svg" width="200" height="200"><path d="M827.715 344.773h-641.03c-61.57 0-111.485 49.92-111.485 111.485v278.707c0 61.57 49.915 111.49 111.485 111.49H827.72c61.565 0 111.485-49.916 111.485-111.49V456.258c-.005-61.565-49.92-111.485-111.49-111.485z" fill="#96383D"/><path d="M631.832 80H186.68a41.798 41.798 0 00-41.803 41.803v571.359a41.794 41.794 0 0041.803 41.803h641.04a41.798 41.798 0 0041.803-41.803v-375.47L631.832 80z" fill="#EBE2CE"/><path d="M549.008 247.227H228.493v41.803h320.515v-41.803zM228.493 776.773h557.419v-41.808h-557.42v41.808zm0-83.611h557.419v-41.808h-557.42v41.808zm0-167.228h557.419v-41.808h-557.42v41.808zm0 83.612h557.419v-41.804h-557.42v41.804zm0-209.03v41.802h557.419v-41.803h-557.42z" fill="#C9C1B1"/><path d="M914.974 400.731L102.882 927.34c12.086 10.252 27.465 16.66 44.476 16.66h722.386c38.362 0 69.46-31.368 69.46-70.075V453.507c-.004-21.173-9.513-39.926-24.23-52.776z" fill="#D54D54"/><path d="M99.493 403.784C84.738 416.547 75.2 435.204 75.2 456.258v418.06C75.2 912.81 106.39 944 144.877 944h724.641c17.07 0 32.487-6.37 44.597-16.56L99.493 403.784z" fill="#EA5455"/><path d="M646.554 94.726v222l222.964 70.21v-69.245z"/><path d="M632.62 80.792v194.304a41.798 41.798 0 0041.807 41.808h194.304L632.62 80.792z" fill="#FFFBF2"/></svg>