<svg class="icon" viewBox="0 0 1024 1024" xmlns="http://www.w3.org/2000/svg" width="200" height="200"><path d="M424.64 911.147H57.387A10.015 10.015 0 0147.36 901.12V533.76c0-5.547 4.48-10.027 10.027-10.027H424.64c5.547 0 10.027 4.48 10.027 10.027v367.253c.106 5.547-4.48 10.134-10.027 10.134z" fill="#E88C1B"/><path d="M348.587 829.44V605.333c0-45.12-36.587-81.6-81.6-81.6H128.96c-45.12 0-81.6 36.587-81.6 81.6V829.44c0 45.12 36.587 81.6 81.6 81.6h138.027c45.013.107 81.6-36.48 81.6-81.6z" fill="#FADE2F"/><path d="M348.587 691.947v-86.614c0-45.12-36.587-81.6-81.6-81.6H128.96c-45.12 0-81.6 36.587-81.6 81.6v86.614h301.227z" fill="#FBC831"/><path d="M267.84 767.573h-54.933l-6.72 26.56c-2.347 9.494-10.88 16.107-20.587 16.107-14.293 0-24.533-13.867-20.267-27.52l41.174-132.587c4.693-15.146 18.773-25.493 34.56-25.493 15.893 0 29.866 10.347 34.56 25.493L316.48 781.76c4.373 14.08-6.187 28.48-20.907 28.48-10.026 0-18.88-6.827-21.333-16.64l-6.4-26.027zm-8.427-34.453l-3.946-15.68c-3.307-12.373-9.28-34.88-12.8-48.427-.747-2.88-4.8-2.773-5.547.107-3.733 16.32-7.787 33.387-11.627 48.32l-3.946 15.68h37.866z" fill="#FFF3E1"/><path d="M964.373 911.147H597.12a10.015 10.015 0 01-10.027-10.027V533.76c0-5.547 4.48-10.027 10.027-10.027h367.253c5.547 0 10.027 4.48 10.027 10.027v367.253c0 5.547-4.48 10.134-10.027 10.134z" fill="#263FEC"/><path d="M888.213 829.44V605.333c0-45.12-36.586-81.6-81.6-81.6h-137.92c-45.12 0-81.6 36.587-81.6 81.6V829.44c0 45.12 36.587 81.6 81.6 81.6H806.72c45.013.107 81.493-36.48 81.493-81.6z" fill="#3FABFB"/><path d="M888.213 691.947v-86.614c0-45.12-36.586-81.6-81.6-81.6h-137.92c-45.12 0-81.6 36.587-81.6 81.6v86.614h301.12z" fill="#2784FA"/><path d="M714.453 658.453c0-15.04 12.16-27.306 27.307-27.306h32.96c35.627 0 64.213 9.493 64.213 42.666 0 15.254-8.533 32-22.506 37.334v.96c17.386 4.693 30.613 17.6 30.613 40.533 0 35.2-29.867 50.987-67.413 50.987H741.76c-15.04 0-27.307-12.16-27.307-27.307V658.453zm58.667 41.174c17.6 0 25.493-7.68 25.493-19.52 0-12.267-8.106-17.387-25.493-17.387h-17.173v36.8h17.173zm3.413 72.213c19.947 0 30.08-7.147 30.08-21.973 0-14.08-9.92-19.734-30.08-19.734h-20.586v41.707h20.586z" fill="#C0E3F4"/><path d="M694.507 468.48H327.253a10.015 10.015 0 01-10.026-10.027V91.093c0-5.546 4.48-10.026 10.026-10.026h367.254c5.546 0 10.026 4.48 10.026 10.026v367.254c.107 5.546-4.48 10.133-10.026 10.133z" fill="#E74B26"/><path d="M618.453 386.773V162.667c0-45.12-36.586-81.6-81.6-81.6H398.827c-45.12 0-81.6 36.586-81.6 81.6v224.106c0 45.12 36.586 81.6 81.6 81.6h138.026c45.014.107 81.6-36.48 81.6-81.6z" fill="#FB6F22"/><path d="M618.453 249.28v-86.613c0-45.12-36.586-81.6-81.6-81.6H398.827c-45.12 0-81.6 36.586-81.6 81.6v86.613h301.226z" fill="#FE5E21"/><path d="M447.787 275.627c0-55.36 37.12-87.04 79.253-87.04 14.08 0 26.347 4.266 36.373 10.346 8.214 5.014 10.027 16.214 3.84 23.68L566.08 224c-5.12 6.187-13.76 7.253-20.693 3.307-5.227-2.88-10.987-4.694-17.707-4.694-21.44 0-39.04 19.2-39.04 51.627 0 33.067 15.147 52.267 38.613 52.267 8.214 0 15.467-2.56 21.654-6.614 6.506-4.16 15.146-2.453 20.16 3.52l1.173 1.387c5.973 7.04 4.587 17.707-2.88 23.147-11.947 8.64-26.027 12.906-41.707 12.906-42.133.107-77.866-28.906-77.866-85.226z" fill="#FFF3E1"/></svg>