<svg xmlns="http://www.w3.org/2000/svg" width="200" height="200" viewBox="0 0 1024 1024"><path fill="#472F43" d="M512 68.267C266.24 68.267 68.267 266.24 68.267 512S266.24 955.733 512 955.733 955.733 757.76 955.733 512 764.587 68.267 512 68.267z"/><path fill="#F05555" d="M532.48 703.147c0 13.653-13.653 20.48-20.48 20.48s-20.48-13.654-20.48-20.48v-20.48c0-13.654 13.653-20.48 20.48-20.48s20.48 13.653 20.48 20.48v20.48zm6.827-102.4c0 13.653-13.654 20.48-27.307 20.48s-20.48-6.827-27.307-20.48l-20.48-259.414c0-20.48 13.654-40.96 40.96-40.96s54.614 20.48 54.614 40.96v6.827l-20.48 252.587z"/></svg>