<svg class="icon" viewBox="0 0 1024 1024" xmlns="http://www.w3.org/2000/svg" width="200" height="200"><path d="M711.051 924.497h-370.79c-117.046 0-210.865-80.647-210.865-186.268A199.118 199.118 0 01302.519 548.33a213.393 213.393 0 01420.414-10.753 135.783 135.783 0 00101.75-125.03c0-72.583-68.093-132.8-153.58-132.8H417.066v39.894a32.259 32.259 0 01-32.555 32.098H156.386a32.259 32.259 0 01-32.636-32.098V191.87a32.259 32.259 0 0132.636-31.99L384.51 32v53.066L250.931 159.88H384.51a32.259 32.259 0 0132.582 31.963v31.022h253.985c116.213 0 211.592 84.223 211.592 189.683A194.548 194.548 0 01725.11 595.994a213.258 213.258 0 01-421.813 10.269A140.918 140.918 0 00187.38 738.336c0 72.583 66.319 129.466 152.854 129.466h371.38a94.841 94.841 0 11-.537 56.91zm-330.305-348.1a19.167 19.167 0 0019.329 18.979h154.574v52.77a.806.806 0 00.43.699.806.806 0 00.833 0l94.842-74.33a.726.726 0 00.295-.592.753.753 0 00-.295-.591l-94.788-73.577a.806.806 0 00-.833 0 .753.753 0 00-.43.672v56.964H400.102a19.167 19.167 0 00-19.356 19.006z" fill="#707070"/></svg>