<svg class="icon" viewBox="0 0 1024 1024" xmlns="http://www.w3.org/2000/svg" width="200" height="200"><path d="M359.936 933.376H125.44c-19.456 0-35.328-15.872-35.328-35.328s15.36-35.328 35.328-35.328h178.688c11.264 0 20.48-8.704 20.48-20.48V662.528c0-19.456 15.36-35.328 35.328-35.328h178.688c11.264 0 20.48-8.704 20.48-20.48V403.456c0-19.456 15.36-35.328 35.328-35.328H898.56c19.456 0 35.328 15.872 35.328 35.328s-15.36 35.328-35.328 35.328H649.728c-11.264 0-20.48 8.704-20.48 20.48v203.264c0 19.456-15.36 35.328-35.328 35.328H415.232c-11.264 0-20.48 8.704-20.48 20.48v179.712c0 19.456-15.36 35.328-34.816 35.328z" fill="#5B8DF0"/><path d="M119.296 504.32c-15.872 0-28.672-13.312-28.672-28.672V118.784c0-15.872 13.312-28.672 28.672-28.672h196.608c15.872 0 28.672 13.312 28.672 28.672 0 15.872-13.312 29.184-28.672 29.184H159.232c-5.632 0-10.752 4.608-10.752 10.752v79.36c0 5.632 4.608 10.752 10.752 10.752h157.696c15.872 0 28.672 13.312 28.672 28.672 0 15.872-13.312 29.184-28.672 29.184H159.232c-5.632 0-10.752 4.608-10.752 10.752v158.72c.512 15.36-12.8 28.16-29.184 28.16z" fill="#F2A355"/></svg>