<svg class="icon" viewBox="0 0 1024 1024" xmlns="http://www.w3.org/2000/svg" width="200" height="200"><path d="M625.209 42.61c-15.815 0-28.558 12.515-28.558 27.875v685.853c0 15.36 12.743 27.875 28.558 27.875 15.701 0 28.444-12.515 28.444-27.875V70.372c.114-15.247-12.629-27.762-28.444-27.762zm77.596 15.815c-6.94 0-12.515 5.461-12.515 12.174v685.397c0 6.713 5.575 12.288 12.515 12.288 6.827 0 12.402-5.46 12.402-12.288V70.6c0-6.713-5.575-12.174-12.402-12.174zm66.447 0c-6.827 0-12.402 5.461-12.402 12.174v685.397c0 6.713 5.575 12.288 12.402 12.288 6.94 0 12.515-5.46 12.515-12.288V70.6c0-6.713-5.575-12.174-12.515-12.174zm75.662-15.815c-15.702 0-28.558 12.515-28.558 27.875v685.853c0 15.36 12.743 27.875 28.558 27.875s28.558-12.515 28.558-27.875V70.372c0-15.247-12.743-27.762-28.558-27.762zm-352.142.682l-106.383-.113c-28.103 0-50.858 22.186-50.972 49.834l-.341 639.09c0 27.42 22.755 49.835 50.858 49.835h106.269c28.217 0 50.972-22.3 50.972-49.721l.341-639.09c.228-27.42-22.641-49.835-50.744-49.835zm-258.162 0l-106.27-.112c-28.103 0-50.972 22.186-50.972 49.834l-.228 639.09c-.113 27.42 22.756 49.835 50.859 49.835h106.268c28.217 0 50.973-22.3 51.087-49.721l.227-639.09c-.114-27.42-22.87-49.835-50.972-49.835z" fill="#00BCD4"/><path d="M482.532 282.453l-86.358-.113c-9.785 0-17.863-7.851-17.863-17.408 0-9.672 8.078-17.408 17.863-17.408l86.358.113c9.784 0 17.863 7.851 17.863 17.408s-7.965 17.408-17.863 17.408zm.113-74.41h-86.357c-9.785 0-17.863-7.851-17.863-17.408 0-9.671 8.078-17.408 17.863-17.408h86.357c9.785 0 17.863 7.85 17.863 17.408-.113 9.557-8.078 17.408-17.863 17.408zm-258.161 74.41l-86.358-.113c-9.785 0-17.863-7.851-17.863-17.408 0-9.672 8.078-17.408 17.863-17.408l86.358.113c9.784 0 17.749 7.851 17.749 17.408.114 9.558-7.85 17.408-17.75 17.408zm0-74.41H138.24c-9.785 0-17.863-7.851-17.863-17.408 0-9.671 7.964-17.408 17.863-17.408h86.244c9.784 0 17.863 7.85 17.863 17.408s-7.965 17.408-17.863 17.408z" fill="#FFF"/><path d="M946.29 891.164L804.75 971.15c-24.007 13.54-51.314 13.54-75.32 0l-141.654-79.986c-24.007-13.54-37.66-36.75-37.66-63.829V667.25c0-27.193 13.653-50.29 37.66-63.83l141.54-80.1c24.007-13.539 51.313-13.539 75.32 0l141.654 79.987c24.007 13.54 37.66 36.75 37.66 63.829v160.085c0 27.307-13.653 50.404-37.66 63.943z" fill="#1976D2"/><path d="M882.802 809.927c-1.252-9.102-5.803-13.54-13.54-13.426-7.85.114-12.288 4.665-13.312 13.426.114 5.917-.455 10.809-1.82 14.905-1.366 4.096-4.665 6.258-9.785 6.372h-42.667c-4.892-.456-7.623-3.072-7.85-7.851v-36.637h50.517c9.443.342 13.995-4.323 13.88-13.88v-61.1c.115-9.215-4.437-13.88-13.88-13.88h-25.486c7.509-8.988 13.994-18.887 19.456-29.696 4.323-10.809.796-16.84-10.695-18.09h-76.914c.796-6.6-1.593-11.72-7.054-15.133-5.462-3.527-11.037-2.276-16.612 3.64-18.546 23.667-39.367 42.781-62.578 57.459-6.371 5.575-7.623 11.605-3.868 18.09s9.216 8.306 16.384 5.575c2.503-.91 3.982-1.82 4.665-2.73v55.865c-.455 9.557 4.21 14.222 13.88 13.88h45.853c-11.947 24.121-36.409 40.392-73.614 48.925-7.737 3.072-10.81 8.42-9.102 15.815 1.592 7.51 6.826 11.036 15.587 10.581 18.432-3.754 35.954-10.695 52.68-20.935s29.923-25.941 39.48-46.876v40.96c.114 15.246 8.989 23.21 26.397 23.666h53.703c10.809.34 19.456-2.845 25.941-9.558s9.899-19.228 10.24-37.433l.114-1.934z" fill="#FFF"/><path d="M776.76 735.289v-11.15h47.219c4.665-.114 6.94 2.048 6.94 6.485v23.666c0 4.778-2.275 6.94-6.94 6.485h-48.697c1.024-6.144 1.479-14.677 1.479-25.486zm7.852-37.547c5.46-6.826 9.898-13.084 13.425-19 2.048-2.618.797-3.755-3.754-3.186h-61.554c-7.737 8.192-16.043 15.587-25.031 22.186h76.914zm-69.519 26.51c-4.892-.113-7.281 2.048-6.94 6.486v23.666c-.341 4.778 2.048 6.94 6.94 6.485h33.337c1.366-6.827 2.162-16.27 2.276-28.217v-8.306l-35.613-.114z" fill="#1976D2"/></svg>