<svg class="icon" viewBox="0 0 1024 1024" xmlns="http://www.w3.org/2000/svg" width="200" height="200"><path d="M926.612 278.506A99.6 99.6 0 00952 212c0-55.137-44.863-100-100-100s-100 44.862-100 100a99.6 99.6 0 0025.387 66.506A50 50 0 00752 322v75.956a262.994 262.994 0 00-40-47.937V292a20 20 0 00-40 0v26.581a285.725 285.725 0 00-51.525-26.35A291.125 291.125 0 00592 282.762V212a20 20 0 00-40 0v62.625a306.075 306.075 0 00-80 0V212a20 20 0 00-40 0v70.763q-13.794 3.818-27.187 8.968a286 286 0 00-52.782 26.875V292a20 20 0 00-40 0v58.019a262.45 262.45 0 00-40 47.931V322a50 50 0 00-25.387-43.494A99.6 99.6 0 00272 212c0-55.137-44.862-100-100-100S72 156.863 72 212a99.6 99.6 0 0025.388 66.506A50 50 0 0072 322v530a20 20 0 0020 20h160a20 20 0 0020-20v-20h480v20a20 20 0 0020 20h160a20 20 0 0020-20V322a50 50 0 00-25.388-43.494zM312 752h-40V532c0-44.081 13.962-86.019 40-121.75zm120-280h-20a20 20 0 00-20 20v80a20 20 0 0020 20h20v160h-80V368.056a242.881 242.881 0 0167.169-38.993q6.344-2.438 12.812-4.526zm120 280h-80V592h80zm0-280h-80V315.044a263.819 263.819 0 0180 0zm120 320h-40v-40h-40V592h20a20 20 0 0020-20v-80a20 20 0 00-20-20h-20V324.569a245.681 245.681 0 0180 43.593zm80-40h-40V410.513c25.262 34.837 40 76.612 40 121.487z" fill="#5C5C66"/></svg>