<svg xmlns="http://www.w3.org/2000/svg" width="500" height="500" viewBox="0 0 1024 1024"><path fill="#5CBAEA" d="M746.667 158L798 172c14 4 22.667 18.667 18.667 32.667l-65.334 244.666L648 422l65.333-244.667C718 162.667 732.667 154 746.667 158z"/><path fill="#FFC10D" d="M497.333 156.667l-322 86c-7.333 2-11.333 9.333-9.333 16l79.333 296.666 348-93.333-80-296c-2-7.333-9.333-11.333-16-9.333z"/><path fill="#FFF" d="M715.373 481.013l-51.52-13.8 34.507-128.786 51.52 13.8z"/><path fill="#194F82" d="M298 340.667l142-38c14-4 22.667-18.667 18.667-32.667S440 247.333 426 251.333l-142 38c-14 4-22.667 18.667-18.667 32.667S284 344.667 298 340.667zM321.333 428l142-38c14-4 22.667-18.667 18.667-32.667s-18.667-22.666-32.667-18.666l-142 38c-14 4-22.666 18.666-18.666 32.666 4 14 18.666 22.667 32.666 18.667z"/><path fill="#194F82" d="M490 130.667l-322 86.666c-21.333 6-34 28-28 48.667l86 322 399.333-106.667-86-322c-6-21.333-28-34-49.333-28.666zm70 312.666l-296 79.334-68.667-257.334 296-79.333L560 443.333z"/><path fill="#194F82" d="M894 225.333l-51.333-14c7.333-28.666-9.334-58-38-65.333l-51.334-14c-28.666-7.333-58 9.333-65.333 38l-27.333 103.333L616 440.667l-10.667 38L760 520l10.667-38.667L815.333 314l14-51.333 26 6.666-20.666 77.334c-4 14 4.666 28.666 18.666 32.666 14 4 28.667-4.666 32.667-18.666l27.333-103.334c3.334-14-4.666-28.666-19.333-32zM681.333 402.667L698.667 338 750 352l-17.333 64.667-51.334-14zm30.667-116l27.333-103.334 51.334 14-27.334 103.334-51.333-14z"/><path fill="#FFF" d="M892 505.333H145.333c-7.333 0-13.333-6-13.333-13.333v-26.667C132 458 138 452 145.333 452H892c7.333 0 13.333 6 13.333 13.333V492c0 7.333-6 13.333-13.333 13.333zm-60 33.334H192c-7.333 0-13.333 6-13.333 13.333v240c0 29.333 24 53.333 53.333 53.333h560c29.333 0 53.333-24 53.333-53.333V552c0-7.333-6-13.333-13.333-13.333z"/><path fill="#5CBAEA" d="M845.333 752h-200C638 752 632 746 632 738.667v-80c0-7.334 6-13.334 13.333-13.334h200V752z"/><path fill="#194F82" d="M892 398.667H132c-22 0-40 18-40 40v80c0 22 18 40 40 40h20V812c0 44 36 80 80 80h560c44 0 80-36 80-80V558.667h20c22 0 40-18 40-40v-80c0-22-18-40-40-40zm-73.333 326.666h-160V672h160v53.333zm0-106.666H645.333c-22 0-40 18-40 40v80c0 22 18 40 40 40h173.334V812c0 14.667-12 26.667-26.667 26.667H232c-14.667 0-26.667-12-26.667-26.667V558.667h613.334v60zm60-113.334H145.333V452h733.334v53.333z"/></svg>