<svg xmlns="http://www.w3.org/2000/svg" width="200" height="200" viewBox="0 0 1024 1024"><path fill="#6EBB53" d="M884.364 1024H139.636C65.164 1024 0 958.836 0 884.364V139.636C0 65.164 65.164 0 139.636 0h744.728C958.836 0 1024 65.164 1024 139.636v744.728C1024 958.836 958.836 1024 884.364 1024z"/><path fill="#FFF" d="M791.273 637.673v-51.2L563.2 432.873V260.655s0-51.2-51.2-51.2-51.2 51.2-51.2 51.2v176.872L232.727 586.473v51.2L460.8 563.2v139.636l-74.473 60.51v51.2L512 763.345l125.673 51.2v-51.2l-74.473-60.51V563.2l228.073 74.473zm0 0"/></svg>