<svg xmlns="http://www.w3.org/2000/svg" width="500" height="500" viewBox="0 0 1024 1024"><path fill="#cdcdcd" d="M593.614 524.918l112.128-112.226c5.65 23.03 17.062 44.994 35.132 63.024 52.446 52.443 137.394 52.475 189.876.029 52.537-52.475 52.537-137.492 0-189.996-52.478-52.414-137.43-52.446-189.876 0L491.629 534.961l-5.27-5.303L735.566 280.47c52.381-52.475 52.381-137.488-.058-189.934-52.453-52.447-137.528-52.476-189.91 0-52.41 52.446-52.41 137.459 0 189.934 17.998 18.034 39.999 29.391 63.057 35.005L496.4 427.665s-1.376 1.5-56 56.066l-35.19-35.16 122.605-122.58c4.118-4.18 4.024-11.01-.279-15.35-4.338-4.305-11.267-4.403-15.288-.22L389.67 432.966l-12.946-12.883L499.363 297.5c4.151-4.143 3.996-10.978-.249-15.284-4.367-4.303-11.202-4.429-15.378-.31L361.218 404.484l-12.854-12.854 122.58-122.55c4.15-4.18 3.96-11.044-.307-15.35-4.31-4.273-11.112-4.367-15.32-.22L332.765 376.058l-12.854-12.82 122.58-122.642c4.09-4.15 3.992-10.982-.307-15.288-4.249-4.302-11.076-4.4-15.26-.25L304.31 347.679l-12.853-12.886 122.518-122.64c4.216-4.151 4.057-10.983-.246-15.318-4.277-4.277-11.14-4.4-15.284-.22L275.829 319.226l-12.886-12.915L385.555 183.7c4.18-4.089 4.057-10.985-.282-15.284-4.277-4.277-11.17-4.4-15.223-.282L247.41 290.741l-12.861-12.914 122.55-122.544c4.151-4.15 4.09-10.985-.245-15.291-4.339-4.303-11.203-4.462-15.353-.307L218.92 262.318l-12.853-12.914 122.64-122.612c4.09-4.119 3.993-10.982-.306-15.285-4.31-4.302-11.203-4.432-15.292-.314L190.47 233.769l-12.883-12.854L300.195 98.311c4.18-4.151 4.057-10.982-.22-15.292-4.27-4.303-11.166-4.462-15.313-.275L162.046 205.32l-12.853-12.853L271.74 69.917c4.15-4.18 4.057-11.012-.25-15.321-4.302-4.303-11.137-4.43-15.284-.282L58.812 251.651c-4.083 4.082-4.993 9.948-1.904 13.037l301.814 301.785C174.679 760.62 53.848 972.803 53.848 972.803S223.881 894.34 455.313 663.1L763.18 970.968c3.02 3.086 8.854 2.211 13.037-1.936l67.233-67.261c4.085-4.09 5.017-9.989 1.99-13.041L537.674 580.988a264910.509 264910.509 0 0156.001-56.037l-.061-.033zm190.624-195.71c28.514-28.453 74.627-28.453 103.076 0 28.455 28.451 28.52 74.598 0 103.046-28.449 28.427-74.62 28.427-103.076 0-28.387-28.448-28.387-74.595 0-103.047zm-30.262 123.2a7.138 7.138 0 0110.173 0c19.121 19.096 44.607 29.67 71.694 29.67 27.018 0 52.471-10.549 71.592-29.637 19.157-19.157 29.767-44.65 29.767-71.665 0-27.047-10.613-52.537-29.767-71.665a7.326 7.326 0 010-10.23 7.276 7.276 0 0110.238 0c21.874 21.898 33.943 50.947 33.943 81.862 0 30.89-12.073 59.935-33.943 81.838-21.873 21.838-50.914 33.878-81.805 33.878s-59.993-12.04-81.866-33.878a7.388 7.388 0 010-10.234l-.026.061zM589.03 133.97c28.427-28.489 74.566-28.489 103.047 0 28.456 28.42 28.456 74.562 0 103.043-28.513 28.42-74.62 28.42-103.047 0-28.52-28.481-28.52-74.595 0-103.043zm-30.327 133.37a7.214 7.214 0 010-10.231c2.782-2.807 7.33-2.807 10.238 0 39.5 39.528 103.824 39.467 143.294 0 39.492-39.47 39.492-103.798 0-143.268a7.167 7.167 0 010-10.202c2.836-2.803 7.358-2.803 10.104 0 45.178 45.146 45.178 118.591.065 163.7-22.614 22.554-52.16 33.817-81.867 33.817-29.543 0-59.248-11.263-81.834-33.816zM368.956 555.892L76.188 263.16c-2.804-2.868-2.804-7.453 0-10.234a7.174 7.174 0 0110.201 0L379.002 545.57a973.533 973.533 0 00-10.017 10.357l-.03-.036zm40.745 85.457a17.304 17.304 0 01-24.489 0c-6.68-6.708-6.68-17.629 0-24.399a17.354 17.354 0 0124.49 0 17.365 17.365 0 010 24.4zm352.826 287.743a7.138 7.138 0 010 10.166c-1.376 1.438-3.251 2.124-5.025 2.124a6.972 6.972 0 01-5.122-2.124l-286.898-286.84c3.464-3.334 6.896-6.672 10.324-10.043l286.746 286.717h-.025zm0 0"/></svg>