<svg class="icon" viewBox="0 0 1024 1024" xmlns="http://www.w3.org/2000/svg" width="81" height="81"><path d="M298.667 234.667h320c23.466 0 42.666 19.2 42.666 42.666V896c0 23.467-19.2 42.667-42.666 42.667h-320C275.2 938.667 256 919.467 256 896V277.333c0-23.466 19.2-42.666 42.667-42.666zM725.333 672h-64v-64h53.334V373.333h-53.334v-64h64c29.867 0 53.334 23.467 53.334 53.334v256c0 29.866-23.467 53.333-53.334 53.333zM320 192h277.333c12.8 0 21.334 8.533 21.334 21.333v21.334h-320v-21.334c0-12.8 8.533-21.333 21.333-21.333z" fill="#3E86FD"/><path d="M362.667 85.333h192c12.8 0 21.333 8.534 21.333 21.334V192H341.333v-85.333c0-12.8 8.534-21.334 21.334-21.334z" fill="#3E86FD" opacity=".5"/></svg>