<svg class="icon" viewBox="0 0 1025 1024" xmlns="http://www.w3.org/2000/svg" width="200" height="200"><path d="M934.081 478.824a435.814 435.814 0 00-871.627 38.86 423.102 423.102 0 0052.298 214.639 70.457 70.457 0 014.358 56.292L74.076 924.444a17.796 17.796 0 0023.607 22.517l121.301-47.213a72.636 72.636 0 0163.556 3.631 435.814 435.814 0 00651.541-424.555z" fill="#E8591C"/><path d="M495.315 785.87a50.15 50.15 0 01-50.15-50.149V484.976a50.15 50.15 0 11100.299 0V735.72a50.15 50.15 0 01-50.15 50.15zm0-501.49a50.15 50.15 0 1050.149 50.148 50.15 50.15 0 00-50.15-50.149z" fill="#C44114"/><path d="M520.39 760.796a50.15 50.15 0 01-50.15-50.15V459.902a50.15 50.15 0 11100.298 0v250.746a50.15 50.15 0 01-50.149 50.149zm0-501.491a50.15 50.15 0 1050.148 50.149 50.15 50.15 0 00-50.149-50.15z" fill="#FFB600"/></svg>