<svg class="icon" viewBox="0 0 1024 1024" xmlns="http://www.w3.org/2000/svg" width="200" height="200"><path d="M76 274c-24.56 0-44 19.2-44 43.2a43.2 43.2 0 0044 43.2c24.8 0 44.4-19.2 44.4-43.2 0-24-19.6-43.2-44.4-43.2m304.4.8C246 274.8 162 366.4 162 512c0 146.8 84 238 218.4 238 133.6 0 218-91.2 218-238 0-145.6-84.4-237.2-218-237.2m433.6 0c-100 0-171.2 55.2-171.2 137.2 0 65.2 40.4 106 125.2 125.6l59.6 14.4c58 13.2 81.6 32.4 81.6 65.6 0 38.4-38.8 65.6-94 65.6-56.4 0-98.8-27.6-103.2-70h-80C635.2 698 704.8 750 810.4 750 922 750 992 695.2 992 608c0-68.4-40-107.2-132.8-128.4l-53.2-12c-56.4-13.6-79.6-31.6-79.6-62 0-38.4 35.2-64 87.2-64 52.4 0 88.4 26 92.4 68.8h78.4c-2-80.8-68.8-135.6-170.4-135.6m-433.6 70c81.6 0 134 65.2 134 167.2 0 102.8-52.4 168-134 168C298 680 246 614.8 246 512c0-102 52-167.2 134.4-167.2M36.44 404.4v338H116v-338H36.4z"/></svg>