<svg class="icon" viewBox="0 0 1024 1024" xmlns="http://www.w3.org/2000/svg" width="81" height="81"><path d="M454.981 705.47l56.525 145.184 55.947-143.537-29.91-101.596c2.72-2.472 4.45-5.932 4.45-9.888v-23.318c0-7.416-6.098-13.513-13.514-13.513h-35.266c-7.415 0-13.513 6.097-13.513 13.513v23.318c0 4.532 2.39 8.323 5.85 10.794l-30.569 99.042z" fill="#F79633"/><path d="M657.514 556.989l-146.09 374.579L365.58 556.907C217.84 614.832 145.167 758.12 115.503 933.875h791.922C877.68 758.204 805.17 614.997 657.514 556.989zM513.07 90.125c-119.064.082-215.552 96.57-215.552 215.552 0 119.064 96.57 215.552 215.635 215.552s215.551-96.488 215.551-215.552c-.082-118.982-96.57-215.47-215.634-215.552zm0 394.272c-95.334-.165-172.87-74.735-178.143-168.668 40.869-35.843 69.626-82.892 79.513-135.956 49.85 55.784 125.986 91.462 211.35 91.462 21.011 0 41.363-2.308 61.056-6.427 3.05 13.183 4.862 26.779 4.944 40.869-.247 98.63-80.09 178.555-178.72 178.72z" fill="#626262"/></svg>