<svg class="icon" viewBox="0 0 1024 1024" xmlns="http://www.w3.org/2000/svg" width="81" height="81"><path d="M454.093 387.874a61.065 61.065 0 00115.814 0l.017-.017a60.928 60.928 0 003.243-19.473C573.15 334.626 545.724 307.2 512 307.2s-61.15 27.426-61.15 61.167c0 6.554 1.092 13.09 3.243 19.473v.034zm157.747 62.293c-24.081 29.406-60.245 47.616-99.84 47.616s-75.776-18.21-99.84-47.616c-8.294 7.988-10.36 14.405-10.36 29.372 0 81.698 65.878 237.261 110.2 237.261s110.2-155.563 110.2-237.26c0-14.968-2.049-21.385-10.36-29.373z" fill="#231815"/><path d="M887.467 68.267H136.533c-37.546 0-68.266 30.72-68.266 68.266v750.934c0 37.546 30.72 68.266 68.266 68.266h750.934c37.546 0 68.266-30.72 68.266-68.266V136.533c0-37.546-30.72-68.266-68.266-68.266zM512 785.067c-115.183 0-178.466-229.479-178.466-305.528 0-53.248 24.985-74.974 50.398-94.583a128.649 128.649 0 01-1.366-16.59c.017-71.372 58.061-129.433 129.434-129.433s129.417 58.061 129.417 129.434c0 5.564-.649 11.076-1.366 16.589 25.412 19.61 50.398 41.335 50.398 94.583.017 76.05-63.266 305.528-178.449 305.528zm307.2 68.266a34.133 34.133 0 11-.017-68.25 34.133 34.133 0 01.017 68.25zm0-102.4a34.133 34.133 0 11-.017-68.25 34.133 34.133 0 01.017 68.25zm0-102.4a34.133 34.133 0 11-.017-68.25 34.133 34.133 0 01.017 68.25z" fill="#231815"/></svg>