<svg class="icon" viewBox="0 0 1024 1024" xmlns="http://www.w3.org/2000/svg" width="81" height="81"><path d="M961.922 512C966.42 791.31 791.312 966.24 512 961.922 232.688 966.24 57.759 791.312 62.078 512 57.758 232.688 232.688 57.759 512 62.078 791.31 57.758 966.24 232.688 961.922 512z" fill="#8C50FF"/><path d="M960.662 560.052c-13.678-198.866-149.554-321.245-358.678-318.005-223.34-3.6-363.537 136.596-359.937 359.937-3.42 209.124 119.14 345 317.825 358.678 235.579-14.398 386.392-165.211 400.79-400.61z" fill="#8C43FF"/><path d="M954.543 615.662c-26.095-121.659-122.199-195.806-262.574-193.646-167.551-2.7-272.653 102.402-269.953 269.953-2.16 140.375 71.987 236.479 193.466 262.574C801.03 924.308 924.308 801.03 954.543 615.662z" fill="#8639FF"/><path d="M938.886 682.25c-28.975-51.83-84.046-81.346-156.933-80.266-111.76-1.8-181.768 68.208-179.969 179.969-1.26 72.887 28.435 127.958 80.086 156.933A379.014 379.014 0 00938.886 682.25z" fill="#8233FF"/><path d="M226.03 455.49a19.437 19.437 0 00-1.8 35.993l207.504 101.143L532.696 799.95a19.437 19.437 0 0035.994-1.8l183.208-501.213a19.437 19.437 0 00-25.015-25.015z" fill="#CEC0F2"/><path d="M727.063 272.102L226.03 455.49a19.257 19.257 0 00-9.179 7.019 19.617 19.617 0 00-1.8 17.996 17.997 17.997 0 003.42 5.4v1.08a19.977 19.977 0 005.04 3.419l207.503 101.142 316.385-314.945a19.257 19.257 0 00-20.336-4.5z" fill="#FFF"/></svg>