<svg class="icon" viewBox="0 0 1024 1024" xmlns="http://www.w3.org/2000/svg" width="200" height="200"><path d="M230.75 90.125h562.5A140.625 140.625 0 01933.875 230.75v562.5A140.625 140.625 0 01793.25 933.875h-562.5A140.625 140.625 0 0190.125 793.25v-562.5A140.625 140.625 0 01230.75 90.125zM558.898 793.25v-93.727h-93.796v93.727h93.796zm106.805-305.79c24.68-36.14 33.89-67.78 33.75-112.218 0-69.89-66.094-144.14-165.586-144.14-105.96 0-209.11 52.523-209.11 187.171l93.516.352c0-45.914 29.672-94.71 93.094-94.71 37.899 0 92.742 15.327 92.742 71.437 0 51.609-16.875 62.156-67.43 99.14-48.867 33.188-73.827 76.64-72 130.29v27.702h95.134c0-84.867 59.976-94.992 105.89-165.023h-.07z" fill="#FF8C9D"/></svg>