<svg class="icon" viewBox="0 0 1024 1024" xmlns="http://www.w3.org/2000/svg" width="200" height="200"><path d="M914.76 389.96C863.4 330 787.14 292 702 292c-154.64 0-280 125.36-280 280 0 110.6 64.14 206.24 157.25 251.73-35.6 33.82-61.14 57.83-64.68 60.5C502.8 896.08 488.1 902 473.37 902c-14.7 0-29.42-5.92-38.24-14.8L108.5 573.26l-2.95-2.96c-2.94 0-2.94-2.96-2.94-2.96C55.54 517 32 454.8 32 389.65 32 247.5 146.76 132 288 132c70.62 0 138.3 29.62 185.38 77 47.08-47.38 114.76-77 185.38-77 141.24 0 256 115.5 256 257.65v.31zM290.94 262.31c8.83 0 17.66-8.89 17.66-20.73 0-11.85-8.83-20.73-20.6-20.73-94.16 0-170.67 77-170.67 174.73 0 11.84 8.83 20.73 20.6 20.73s20.6-8.89 20.6-20.73c0-74.04 58.85-133.27 132.41-133.27z" fill="#8A96FF"/><path d="M875.13 712.27l95.26 94.96a43.93 43.93 0 010 62.23 44.2 44.2 0 01-62.42 0L805.94 767.75A220.3 220.3 0 01705.1 792c-121.88 0-220.69-98.5-220.69-220s98.81-220 220.7-220c121.88 0 220.68 98.5 220.68 220 0 53.31-19.02 102.2-50.66 140.27z" fill="#8A96FF" fill-opacity=".5"/></svg>