<svg xmlns="http://www.w3.org/2000/svg" width="200" height="200" viewBox="0 0 1024 1024"><path fill="#FFEB3B" d="M512 72C269.4 72 72 269.4 72 512s197.4 440 440 440 440-197.4 440-440S754.6 72 512 72zm141.8 495.7c19.9 0 36 16.1 36 36s-16.1 36-36 36H548V722c0 19.9-16.1 36-36 36s-36-16.1-36-36v-82.3H370.2c-19.9 0-36-16.1-36-36s16.1-36 36-36H476V506H370.2c-19.9 0-36-16.1-36-36s16.1-36 36-36h58.1l-20.9-60.1c-6.5-18.8 3.4-39.3 22.2-45.8s39.3 3.4 45.8 22.2l29.1 83.7h14.9l29.1-83.7c6.5-18.8 27-28.7 45.8-22.2 18.8 6.5 28.7 27 22.2 45.8L595.6 434h58.1c19.9 0 36 16.1 36 36s-16.1 36-36 36H548v61.7h105.8z"/><path fill="#FF9800" d="M983.8 312.7C958 251.7 921 197 874 150c-47-47-101.7-84-162.7-109.7C648.2 13.5 581.1 0 512 0S375.8 13.5 312.7 40.3C251.7 66 197 103 150 150c-47 47-84 101.7-109.7 162.7C13.5 375.8 0 442.9 0 512s13.5 136.2 40.3 199.3C66 772.3 103 827 150 874c47 47 101.8 83.9 162.7 109.7 63.1 26.7 130.2 40.3 199.3 40.3s136.2-13.5 199.3-40.3C772.3 958 827 921 874 874c47-47 83.9-101.8 109.7-162.7 26.7-63.1 40.3-130.2 40.3-199.3s-13.5-136.2-40.2-199.3zM512 952C269.4 952 72 754.6 72 512S269.4 72 512 72s440 197.4 440 440-197.4 440-440 440z"/><path fill="#FF5722" d="M475.5 350.2c-6.5-18.8-27-28.7-45.8-22.2-18.8 6.5-28.7 27-22.2 45.8l20.9 60.1h76.2l-29.1-83.7zm141 23.6c6.5-18.8-3.4-39.3-22.2-45.8s-39.3 3.4-45.8 22.2l-29.1 83.7h76.2l20.9-60.1z"/><path fill="#FF9800" d="M653.8 505.9c19.9 0 36-16.1 36-36s-16.1-36-36-36H370.3c-19.9 0-36 16.1-36 36s16.1 36 36 36H476v61.7H370.2c-19.9 0-36 16.1-36 36s16.1 36 36 36H476V722c0 19.9 16.1 36 36 36s36-16.1 36-36v-82.3h105.8c19.9 0 36-16.1 36-36s-16.1-36-36-36H548V506h105.8z"/></svg>