<svg class="icon" viewBox="0 0 1024 1024" xmlns="http://www.w3.org/2000/svg" width="200" height="200"><path d="M524.01 475.968l26.56-79.68a19.541 19.541 0 00-1.493-15.467 198.57 198.57 0 01-23.146-109.12C532.949 176 609.472 97.493 704.98 88.384A199.253 199.253 0 01922.688 307.2c-9.387 93.355-85.013 168.533-178.39 177.621a198.763 198.763 0 01-106.026-18.73 19.2 19.2 0 00-13.312-1.408l-89.408 23.466a9.6 9.6 0 01-11.541-12.181zM518.4 492.8" fill="#FCC419"/><path d="M662.08 680.405c-24.405-24.192-54.976-24.192-79.381 0-18.582 18.39-37.184 36.8-55.467 55.595-4.992 5.205-9.195 6.208-15.403 2.795-11.989-6.592-24.789-11.798-36.394-19.008-53.782-33.792-98.987-77.398-138.966-126.592-19.797-24.384-37.589-50.39-49.792-79.787-2.41-5.995-2.133-9.813 2.795-14.592 18.603-17.984 36.8-36.395 54.976-54.805 25.387-25.6 25.387-55.595-.192-81.387a4666.207 4666.207 0 00-43.584-43.605c-14.933-14.934-29.867-29.995-44.992-44.992-24.597-23.979-54.976-24.192-79.573 0-18.582 18.389-36.779 37.397-55.574 55.466-17.6 16.811-26.602 37.206-28.394 61.184-2.795 38.784 6.592 75.584 19.989 111.382 27.584 73.984 69.376 139.584 119.979 199.957A741.035 741.035 0 00478.25 894.592c42.986 20.992 87.765 36.992 136.362 39.595 33.387 1.792 62.592-6.592 85.782-32.598 16-17.792 33.792-34.005 50.794-50.986 25.003-25.195 25.195-55.787.406-80.79-29.995-29.994-59.734-59.584-89.6-89.386zm0 0" fill="#5C7CFA"/><path d="M761.344 258.816H641.707a14.933 14.933 0 010-29.717h119.637a14.933 14.933 0 010 29.717zm58.283 92.352h-177.92a14.933 14.933 0 010-29.717h177.92a14.933 14.933 0 010 29.717z" fill="#495057"/></svg>