<svg class="icon" viewBox="0 0 1024 1024" xmlns="http://www.w3.org/2000/svg" width="200" height="200"><path d="M156.075 900.518c-24.563 0-44.56-19.996-44.56-44.56V143.007c0-24.563 19.997-44.56 44.56-44.56h712.952c24.563 0 44.56 19.997 44.56 44.56V855.96c0 24.563-19.997 44.56-44.56 44.56H156.075z" fill="#75ACCA"/><path d="M869.027 143.006v712.953H156.075V143.006h712.952m0-89.12H156.075c-49.283 0-89.12 39.837-89.12 89.12v712.953c0 49.283 39.837 89.119 89.12 89.119h712.952c49.284 0 89.12-39.836 89.12-89.12V143.007c0-49.283-39.836-89.12-89.12-89.12z" fill="#FFF"/><path d="M156.075 766.84h712.952v89.119H156.075z" fill="#FFF"/><path d="M111.358 766.84h777.509v-65.03s-37.947-66.288-73.217-107.856c-26.137-30.861-65.343-39.679-99.51-1.732l-61.25 58.888-133.68-169.892c-49.755-63.297-131.16-63.297-181.072 0L111.358 766.84z" fill="#4D5B71"/><path d="M623.871 321.244a66.918 66.918 0 10133.836 0 66.918 66.918 0 10-133.836 0z" fill="#EECA86"/><path d="M869.027 143.006v712.953H156.075V143.006h712.952m0-89.12H156.075c-49.283 0-89.12 39.837-89.12 89.12v712.953c0 49.283 39.837 89.119 89.12 89.119h712.952c49.284 0 89.12-39.836 89.12-89.12V143.007c0-49.283-39.836-89.12-89.12-89.12z" fill="#FFF"/></svg>