<svg class="icon" viewBox="0 0 1026 1024" xmlns="http://www.w3.org/2000/svg" width="200" height="200"><path d="M920.255 577.021c0 23.01-18.668 41.643-41.642 41.643h-1.195l-15.715 267.24c0 23.01-6.82 41.643-29.778 41.643h-58.974c-23.01 0-32.643-18.65-32.643-41.643l-15.732-267.24h-8.578c-23.01 0-41.625-18.65-41.625-41.643l-17.35-253.95c0-23.01 18.65-41.643 41.643-41.643h193.623c23.01 0 41.642 18.65 41.642 41.642l-13.676 253.951zM800.953 261.775c-45.65 0-82.653-37.002-82.653-82.652 0-45.668 37.002-82.67 82.653-82.67s82.67 37.002 82.67 82.67c0 45.65-37.037 82.652-82.67 82.652zm-143.965 522.37c0 39.62-32.133 35.876-71.79 35.876v41.502c0 23.555-23.554 42.61-47.109 42.61-23.537 0-42.609-19.055-42.609-42.61v-41.502H246.486v43.735c0 22.324-25.928 39.27-48.217 39.27-22.306 0-43.734-16.964-43.734-39.27V820.02c-39.656 0-64.389 3.745-64.389-35.876V629.369c0-39.076 24.082-95.853 62.754-97.435l49.799-108.264c19.828-39.393 56.742-70.225 96.398-70.225h148.324c39.622 0 85.079 31.008 104.15 71.79l43.05 107.665c35.191 7.559 62.367 55.512 62.367 91.97v159.275zM155.66 637.754c0 29.426 23.818 53.28 53.28 53.28 29.407 0 53.26-23.854 53.26-53.28s-23.853-53.244-53.26-53.244c-29.444 0-53.28 23.818-53.28 53.244zM419.12 398.69l-93.322.616c-92.144 15.486-102.023 99.879-101.601 127.265l306.914.106c.018-23.678-5.906-113.01-111.99-127.987zm118.426 185.82c-29.426 0-53.28 23.818-53.28 53.244s23.854 53.28 53.28 53.28 53.261-23.854 53.261-53.28-23.836-53.244-53.261-53.244z" fill="#ea9518"/></svg>