<svg xmlns="http://www.w3.org/2000/svg" width="200.195" height="200" viewBox="0 0 1025 1024"><path fill="#D8DBDB" d="M184.218 679.142l161.44 160.64c8.79 8.792 24.775 135.866 15.983 144.657l-31.968 31.969c-8.791 8.79-23.177 8.79-31.968 0l-16.784-16.784-127.873-127.873C101.1 819.803 48.352 767.854 23.577 742.28L7.593 726.296c-8.791-8.792-8.791-23.177 0-31.969L39.56 662.36c8.791-8.791 135.865 7.992 144.657 16.783z"/><path fill="#676767" d="M244.158 96.52c-23.976 0-43.956 19.981-43.956 43.957s19.98 43.957 43.956 43.957 43.956-19.98 43.956-43.957-19.98-43.956-43.956-43.956zm135.865 47.953c-23.976 0-43.956 19.98-43.956 43.957s19.98 43.956 43.956 43.956 43.956-19.98 43.956-43.956-19.98-43.957-43.956-43.957zm499.504 491.512c0-23.976-19.98-43.956-43.956-43.956s-43.957 19.98-43.957 43.956 19.98 43.957 43.957 43.957 43.956-19.181 43.956-43.957zm3.996 91.909c-23.976 0-43.956 19.98-43.956 43.956s19.98 43.957 43.956 43.957 43.957-19.98 43.957-43.957-19.98-43.956-43.957-43.956z"/><path fill="#D8DBDB" d="M599.006 267.551l158.243 158.243c17.582 17.582 191.81 504.3 174.227 521.882l-63.138 63.137c-17.582 17.583-45.554 17.583-63.137 0l-349.253-443.56L13.188 219.6c-17.583-17.583-17.583-45.555 0-63.138l63.137-63.137c17.582-17.583 505.098 156.644 522.68 174.227z"/><path fill="#E4E7E7" d="M1005.003 19.797c43.956 43.956 4.795 153.448-47.154 206.195L386.417 796.626C333.669 849.373 145.057 967.656 101.1 923.7c-43.956-43.957 74.326-232.57 127.074-285.317L798.807 66.95c52.748-52.747 162.24-91.11 206.196-47.153z"/><path fill="#DDE0E0" d="M267.335 676.745L837.968 106.11c44.756-44.755 130.271-79.121 181.42-62.338-3.196-9.59-7.992-17.582-14.385-24.775-43.957-43.957-153.448-4.795-206.196 47.952L228.174 637.584C175.426 690.33 57.943 878.944 101.1 922.9c6.394 6.394 16.783 9.59 29.57 9.59.8-68.73 91.91-210.99 136.665-255.745z"/><path fill="#C7CACA" d="M280.122 428.99l90.31 70.33 230.971-230.97-2.397-2.397c-4.796-4.796-49.551-23.177-110.29-46.354L280.121 428.99z"/><path fill="#3DB39E" d="M526.278 656.765l278.124 354.048c15.984 15.984 41.559 16.783 59.141 3.197L556.648 626.395l-30.37 30.37zM398.405 468.152L8.392 162.855c-11.988 17.583-10.39 41.559 4.795 56.744l354.848 278.123 30.37-29.57z"/><path fill="#38A592" d="M368.035 497.722l30.37-29.57-87.913-68.732-30.37 29.57z"/></svg>