<svg class="icon" viewBox="0 0 1024 1024" xmlns="http://www.w3.org/2000/svg" width="200" height="200"><path d="M827.949 130.463H196.05c-16.666 0-30.177 13.512-30.177 30.18v779.842c0 16.67 13.511 30.182 30.177 30.182h631.9c16.666 0 30.177-13.512 30.177-30.182V160.643c-.002-16.668-13.513-30.18-30.18-30.18z" fill="#DC8744"/><path d="M827.949 112.74H196.05c-16.666 0-30.177 13.514-30.177 30.18v779.842c0 16.67 13.511 30.18 30.177 30.18h631.9c16.666 0 30.177-13.512 30.177-30.18V142.92c-.002-16.666-13.513-30.18-30.18-30.18z" fill="#F6C358"/><path d="M222.1 166.366h579.82v736.299H222.1z" fill="#EBF0F3"/><path d="M222.1 148.907h579.82v736.299H222.1z" fill="#FFF"/><path d="M702.613 91.454a31.582 31.582 0 00-30.77-24.465H568.32c.002-31.106-25.215-56.322-56.322-56.322-31.103 0-56.32 25.216-56.32 56.322H352.153a31.582 31.582 0 00-30.768 24.465l-21.23 91.814H723.84l-21.228-91.814zm-190.615 2.605c-14.95 0-27.068-12.119-27.068-27.07s12.119-27.07 27.068-27.07c14.953 0 27.072 12.119 27.072 27.07s-12.119 27.07-27.072 27.07z" fill="#DC8744"/><path d="M262 232.666h151.2v151.2H262z" fill="#27A2DB"/><path d="M262 354.935h151.2v28.94H262z" fill="#2D93BA"/><path d="M443.3 242.766h108.632v24.94H443.3z" fill="#44C4A1"/><path d="M443.3 295.807h318.64v24.94H443.3zm0 52.978h318.64v24.94H443.3z" fill="#E1E6E9"/><path d="M262 459.855h151.2v151.2H262z" fill="#FCD462"/><path d="M262 582.166h151.2v28.939H262z" fill="#F6C358"/><path d="M443.3 470.006h108.632v24.939H443.3z" fill="#E56353"/><path d="M443.3 522.966h318.64v24.94H443.3zm0 53h318.64v24.94H443.3z" fill="#E1E6E9"/><path d="M262 687.066h151.2v151.199H262z" fill="#44C4A1"/><path d="M262 809.364h151.2v28.94H262z" fill="#3EA69B"/><path d="M443.3 697.165h108.632v24.94H443.3z" fill="#27A2DB"/><path d="M443.3 750.185h318.64v24.94H443.3zm0 52.98h318.64v24.94H443.3z" fill="#E1E6E9"/></svg>