<svg class="icon" viewBox="0 0 1024 1024" xmlns="http://www.w3.org/2000/svg" width="200" height="200"><path d="M62 512a450 450 0 10900 0 450 450 0 10-900 0z" fill="#338FE2"/><path d="M454.675 377.2h66l-22.05 131.85 132.05-164.75H564.65l11.025-132.075z" fill="#FFF"/><path d="M763.9 594.725l-118.175.025-22.675-62.425a22.6 22.6 0 00-39.5-5.625l-80.4 109.7-80.1-176.6a22.75 22.75 0 00-20.6-13.275 22.5 22.5 0 00-17.675 8.5l-75 93.95H184.95a22.625 22.625 0 000 45.25h135.725a22.5 22.5 0 0017.65-8.525l58.75-73.625 80.85 178.2a22.7 22.7 0 0020.6 13.275c7.175 0 14-3.45 18.25-9.25L595 587.55l13.65 37.55c3.25 8.9 11.775 14.875 21.25 14.875l134-.025a22.475 22.475 0 0016-6.625 22.65 22.65 0 00-16-38.6z" fill="#FFF"/></svg>