<svg class="icon" viewBox="0 0 1024 1024" xmlns="http://www.w3.org/2000/svg" width="200" height="200"><path d="M694.857 256H329.143c-11.494 0-20.898-9.404-20.898-20.898s9.404-20.898 20.898-20.898h365.714c11.494 0 20.898 9.404 20.898 20.898S706.351 256 694.857 256z" fill="#AF8015"/><path d="M820.245 615.967h-616.49V177.633c0-45.976 37.616-83.592 83.592-83.592h449.306c45.976 0 83.592 37.616 83.592 83.592v438.334z" fill="#F2CB51"/><path d="M224.653 824.947h-47.02c-45.976 0-83.592-37.616-83.592-83.592v-83.592c0-45.975 37.616-83.592 83.592-83.592h668.734c45.976 0 83.592 37.617 83.592 83.592v83.592c0 45.976-37.616 83.592-83.592 83.592h-47.02" fill="#568289"/><path d="M736.653 929.96H287.347c-45.976 0-83.592-37.617-83.592-83.593v-83.591c0-45.976 37.616-83.592 83.592-83.592h449.306c45.976 0 83.592 37.616 83.592 83.592v83.591c0 45.976-37.616 83.592-83.592 83.592z" fill="#90B0BA"/><path d="M694.857 375.64H329.143c-11.494 0-20.898-9.403-20.898-20.897s9.404-20.898 20.898-20.898h365.714c11.494 0 20.898 9.404 20.898 20.898s-9.404 20.898-20.898 20.898zm0 120.164H329.143c-11.494 0-20.898-9.404-20.898-20.898s9.404-20.898 20.898-20.898h365.714c11.494 0 20.898 9.404 20.898 20.898s-9.404 20.898-20.898 20.898z" fill="#AF8015"/></svg>