<svg class="icon" viewBox="0 0 1024 1024" xmlns="http://www.w3.org/2000/svg" width="200" height="200"><path d="M730.453 137.216a170.974 170.974 0 00-32.426 2.73 233.472 233.472 0 00-157.355 92.16 27.785 27.785 0 01-45.056 0 236.749 236.749 0 00-190.123-95.573 66.253 66.253 0 00-11.605.683A236.032 236.032 0 0068.949 362.155a62.43 62.43 0 00-.682 11.264 235.725 235.725 0 0066.218 164.522l6.144 5.803 361.472 361.813a22.665 22.665 0 0032.086 0l108.885-108.544a179.712 179.712 0 01251.563-251.562l8.192-8.192a238.285 238.285 0 0062.122-130.39 204.356 204.356 0 002.39-32.426 237.09 237.09 0 00-236.886-237.227zM456.33 593.34H344.235a34.475 34.475 0 110-68.984h112.094a34.475 34.475 0 010 68.984zm40.96-129.23H262.315a34.475 34.475 0 110-68.983h234.974a34.475 34.475 0 010 68.984z" fill="#E3713D"/><path d="M894.635 545.45L643.072 797.014a179.712 179.712 0 01251.563-251.562z" fill="#E29C56"/><path d="M967.339 855.381a882.108 882.108 0 01-113.323 1.024 179.405 179.405 0 01-210.944-59.392l251.563-251.562a178.995 178.995 0 0118.09 272.725 78.916 78.916 0 0054.614 37.205z" fill="#F5DAA5"/></svg>