<svg class="icon" viewBox="0 0 1024 1024" xmlns="http://www.w3.org/2000/svg" width="200" height="200"><path d="M355.592 365.355h316.903v610.193H355.592z" fill="#FF6660"/><path d="M672.495 994.19H355.592c-9.942 0-18.641-8.7-18.641-18.642V365.355c0-9.942 8.7-18.642 18.641-18.642h316.903c9.942 0 18.641 8.7 18.641 18.642v610.193c0 9.942-8.699 18.642-18.64 18.642zm-298.262-37.283h279.62v-572.91h-279.62v572.91z" fill="#251C4E"/><path d="M38.69 557.982h316.902v416.324H38.69z" fill="#FDD838"/><path d="M355.592 994.19H38.69c-9.942 0-18.641-8.7-18.641-18.642V557.982c0-9.942 8.7-18.641 18.641-18.641h316.903c9.942 0 18.641 8.699 18.641 18.641v416.324c0 11.184-8.699 19.884-18.64 19.884zM57.33 956.907h279.62V576.623H57.33v380.284z" fill="#251C4E"/><path d="M672.495 669.83h316.903v304.476H672.495z" fill="#FFF"/><path d="M989.398 994.19H672.495c-9.942 0-18.641-8.7-18.641-18.642V669.83c0-9.942 8.699-18.641 18.641-18.641h316.903c9.942 0 18.641 8.7 18.641 18.641v304.476c0 11.184-8.699 19.884-18.64 19.884zm-298.262-37.283h279.62V688.47h-279.62v268.436z" fill="#251C4E"/><path d="M508.451 267.177l85.75 44.74-17.398-94.45 69.594-68.352-95.692-13.67-42.254-86.993-43.496 86.993-95.693 13.67 69.595 68.352-16.156 94.45z" fill="#FF6660"/><path d="M422.701 330.558c-3.728 0-7.457-1.243-11.185-3.729-6.214-3.728-8.7-11.185-7.456-18.641l14.913-85.75-62.138-60.895c-4.971-4.971-7.457-12.428-4.971-18.642 2.485-6.214 7.456-11.185 14.913-12.427l85.75-12.428 38.526-78.294c3.728-6.213 9.942-9.942 16.155-9.942s13.67 3.729 16.156 9.942l38.526 78.294 85.75 12.428c7.456 1.242 12.428 6.213 14.913 12.427 2.486 6.214 0 13.67-4.971 18.642l-62.138 60.895 13.67 83.264c1.243 2.486 1.243 1.243 1.243 3.729 0 9.942-8.699 16.155-18.641 16.155-2.486 0-6.214 2.486-8.7 1.243l-77.05-38.525-77.051 41.01s-3.729 1.244-6.214 1.244zm85.75-82.022c2.486 0 6.214 1.242 8.7 2.485l52.195 27.34-9.942-58.409c-1.243-6.214 1.243-12.427 4.971-16.156l42.254-41.01-58.41-8.7c-6.213-1.243-11.184-4.971-13.67-9.942l-26.098-53.439-26.098 53.439c-2.485 4.971-7.456 8.7-13.67 9.942l-58.41 8.7 42.254 41.01c4.971 3.729 6.214 9.942 4.971 16.156l-9.942 58.41 52.196-27.34c2.485-1.244 4.97-2.486 8.7-2.486zm9.942 632.563h-21.127v-99.42h21.127v99.42zM167.936 863.7h64.623v17.4h-85.75V855c0-11.185 2.485-19.884 8.7-26.098 2.485-2.486 6.213-3.728 8.699-4.971 3.728-1.243 8.699-1.243 14.913-1.243h16.155c4.972 0 9.943-1.243 11.185-2.485 3.729-2.486 4.971-4.971 4.971-8.7 0-4.97-1.242-7.456-4.97-9.942-2.486-1.242-6.214-2.485-12.428-2.485h-47.225v-17.399h50.953c12.428 0 21.127 2.486 26.098 6.214 2.485 2.486 4.97 6.214 7.456 9.942s2.486 8.7 2.486 12.428c0 6.213-1.243 11.184-2.486 14.913-2.485 4.97-4.97 7.456-8.699 9.942-4.97 2.485-12.427 4.97-23.612 4.97h-13.67c-4.972 0-8.7 0-11.185 1.244-2.486 0-3.729 1.242-4.971 3.728-1.243 1.243-2.486 4.97-2.486 9.942v8.7zm616.407 17.399V863.7h42.254c6.214 0 9.942-1.243 12.427-2.485 2.486-2.486 3.729-4.971 3.729-8.7 0-4.97-1.243-8.699-4.971-9.942-2.486-1.242-6.214-1.242-11.185-1.242h-33.555v-17.4h33.555c6.214 0 9.942-1.242 12.427-2.485 2.486-2.485 3.729-4.97 3.729-8.699 0-4.97-1.243-7.456-4.971-9.942-1.243-1.243-2.486-1.243-3.729-1.243h-49.71v-17.398h58.41c1.243 0 3.728 1.242 6.214 1.242 4.97 2.486 8.699 4.972 12.427 9.943 2.486 4.97 4.971 9.942 4.971 14.913 0 8.699-4.97 16.155-13.67 21.126 8.7 6.214 13.67 13.67 13.67 23.613 0 9.942-3.728 16.156-11.185 21.127-3.728 2.485-6.213 3.728-9.942 3.728-3.728 1.243-9.942 1.243-17.398 1.243h-43.497z" fill="#251C4E"/></svg>