<svg class="icon" viewBox="0 0 1024 1024" xmlns="http://www.w3.org/2000/svg" width="81" height="81"><path d="M843.1 928.2L638.1 723l84.9-84.8 205 205.3c23.4 23.4 23.4 61.4-.1 84.9-23.4 23.3-61.3 23.3-84.8-.2z" fill="#3A3A3A"/><path d="M433.2 823.1c-50.1 0-98.7-10.1-144.5-30-44.1-19.2-83.7-46.7-117.7-81.7-33.9-34.9-60.5-75.5-79.1-120.7-19.2-46.8-29-96.4-29-147.5s9.7-100.8 29-147.5c18.6-45.2 45.2-85.8 79.1-120.7 34-35 73.6-62.5 117.7-81.7 45.8-19.9 94.4-30 144.5-30s98.7 10.1 144.5 30c44.1 19.2 83.7 46.7 117.7 81.7 33.9 34.9 60.5 75.5 79.1 120.7 19.2 46.8 29 96.4 29 147.5s-9.7 100.8-29 147.5c-18.6 45.2-45.2 85.8-79.1 120.7-34 35-73.6 62.5-117.7 81.7-45.7 19.9-94.4 30-144.5 30zm0-680c-160.1 0-290.3 134.6-290.3 300s130.2 300 290.3 300 290.3-134.6 290.3-300-130.2-300-290.3-300z" fill="#777"/></svg>