<svg class="icon" viewBox="0 0 1024 1024" xmlns="http://www.w3.org/2000/svg" width="81" height="81"><path d="M412.661 388.236h247.567v36.013H412.661v-36.013z" fill="#d81e06"/><path d="M527.466 47.308C280.147 47.31 79.564 247.835 79.564 495.211c0 247.31 200.583 447.893 447.902 447.893 247.376 0 447.92-200.585 447.92-447.893 0-247.376-200.544-447.903-447.92-447.903zm140.99 204.089l54.392 54.334h-54.392v-54.334zm-16.493 542.926l-33.042-18.74-32.987 18.74v-85.054c10.247 4.036 21.37 6.32 32.987 6.322 11.71 0 22.833-2.285 33.042-6.322v85.054zm-33.042-101.13c-37.711 0-68.372-30.66-68.372-68.371 0-37.737 30.66-68.42 68.372-68.42 37.765 0 68.427 30.683 68.427 68.42 0 37.71-30.661 68.372-68.427 68.37zm115.544 25.103h-66.01v-17.52c24.834-16.19 41.251-44.186 41.251-75.954 0-50.079-40.68-90.797-90.786-90.797-50.013 0-90.732 40.718-90.732 90.797 0 31.768 16.457 59.764 41.253 75.953v17.521H338.424V239.702h313.54v74.276c0 4.55 3.693 8.246 8.263 8.246h74.238v396.072z" fill="#d81e06"/><path d="M412.661 470.758h165.045v36.013H412.661v-36.013z" fill="#d81e06"/></svg>