<svg class="icon" viewBox="0 0 1024 1024" xmlns="http://www.w3.org/2000/svg" width="200" height="200"><path d="M129.65 487.575c0-93.175-.15-181.575-.15-293.15C235.425 160.875 352 120.825 512 84.5c160 36.325 276.575 76.375 382.5 109.925 0 111.6-.15 199.975-.15 293.15 0 262.5-214.25 406.9-382.35 451.925-168.075-45-382.35-189.425-382.35-451.925z" fill="#09BB07"/><path d="M342.4 517.2a5.375 5.375 0 01-.5-6.75l15.925-21.675a4.2 4.2 0 016.05-.85L460.95 562.3c1.9 1.475 5 1.35 6.9-.225L704.9 364.6a5.025 5.025 0 016.75.4l14.5 14.325a4.525 4.525 0 01-.05 6.55l-258.35 254.25a4.55 4.55 0 01-6.45.125L342.4 517.2z" fill="#FFF"/></svg>