<svg xmlns="http://www.w3.org/2000/svg" width="200" height="200" viewBox="0 0 1024 1024"><path fill="#E8E8E8" d="M251.2 447.2zm521.6 0zm-3.296 231.424l.096-1.024 179.2 36.8-176-240C742.4 551.2 678.4 612 600 639.2l153.408 210.928 15.888-171.552.208.048zM246.4 482.4l-171.2 232 179.2-36.8.24 2.592.208-.048 15.744 170L422.4 642.4c-78.4-25.6-144-84.8-176-160z"/><path fill="#FAD97F" d="M760 372c0-139.2-113.6-251.2-252.8-251.2S254.4 231.2 254.4 370.4 368 621.6 507.2 621.6C648 621.6 760 511.2 760 372z"/><path d="M785.6 437.6c3.2-20.8 6.4-43.2 6.4-67.2 0-156.8-128-283.2-284.8-283.2S224 215.2 224 370.4c0 25.6 3.2 49.6 9.6 73.6L0 760.8 225.6 716l20.8 220.8 211.2-288c17.6 3.2 33.6 4.8 51.2 4.8 20.8 0 40-1.6 59.2-6.4l211.2 289.6L800 716l224 44.8-238.4-323.2zm-531.2-67.2c0-139.2 113.6-249.6 252.8-249.6S760 232.8 760 372 648 621.6 507.2 621.6c-139.2 0-252.8-112-252.8-251.2zm16.192 479.744l-.192.256-15.76-170.208-.24-2.592-179.2 36.8 171.2-232c32 75.2 97.6 134.4 176 160L270.592 850.144zM769.6 677.6l-.096 1.024L753.6 850.4l-.192-.272L600 639.2c78.4-27.2 142.4-88 172.8-164.8l176 240-179.2-36.8z"/><path fill="#FAD97F" d="M507.2 223.2c-83.2 0-150.4 67.2-150.4 148.8S424 520.8 507.2 520.8 657.6 453.6 657.6 372s-67.2-148.8-150.4-148.8z"/><path d="M507.2 189.6c-100.8 0-182.4 81.6-182.4 180.8s81.6 180.8 182.4 180.8 182.4-81.6 182.4-180.8S608 189.6 507.2 189.6zm0 331.2c-83.2 0-150.4-67.2-150.4-148.8S424 223.2 507.2 223.2 657.6 290.4 657.6 372s-67.2 148.8-150.4 148.8z"/><path d="M465.936 310.432h-.544l-30.208 16.304-4.544-17.92 37.968-20.32h20.048v173.76h-22.72V310.432zm55.728 45.12c2.928 1.904 8.08 3.92 12.992 3.92 7.168 0 10.544-3.584 10.544-8.064 0-4.704-2.816-7.28-10.096-9.968-9.744-3.472-14.336-8.848-14.336-15.344 0-8.736 7.056-15.92 18.72-15.92 5.488 0 10.32 1.568 13.328 3.36l-2.464 7.168c-2.128-1.344-6.048-3.136-11.088-3.136-5.808 0-9.056 3.36-9.056 7.392 0 4.48 3.248 6.496 10.304 9.184 9.424 3.584 14.24 8.304 14.24 16.368 0 9.52-7.392 16.24-20.288 16.24-5.936 0-11.424-1.456-15.232-3.696l2.432-7.504zm57.584-59.728v15.584h14.112v7.504h-14.112v29.248c0 6.72 1.904 10.544 7.392 10.544 2.576 0 4.48-.336 5.712-.672l.448 7.392c-1.904.784-4.944 1.344-8.752 1.344-4.592 0-8.304-1.456-10.64-4.144-2.8-2.912-3.808-7.728-3.808-14.128v-29.584h-8.4v-7.504h8.4v-12.992l9.648-2.592z"/></svg>