<svg xmlns="http://www.w3.org/2000/svg" width="200" height="200" class="icon" viewBox="0 0 1024 1024"><path fill="#fff" d="M751 809.2H175.6c-5.5 0-10-4.5-10-10V126.6c0-5.5 4.5-10 10-10H751c5.5 0 10 4.5 10 10v672.6c0 5.5-4.5 10-10 10z"/><path fill="#03a9f4" d="M751 829.2H175.6c-16.5 0-30-13.5-30-30V126.6c0-16.5 13.5-30 30-30H751c16.5 0 30 13.5 30 30v672.6c0 16.5-13.5 30-30 30zm-565.5-40H741V136.6H185.6l-.1 652.6z"/><path fill="#546e7a" d="M370.2 378.5h-94.4v-25.1h31.5v-96.8l-32.4 7.3V238l64-13.5v128.8h31.3v25.2z"/><path fill="#546e7a" d="M372.7 381h-99.4v-30.1h31.5v-91.2l-32.4 7.3v-31.1l69-14.6v129.4h31.3V381zm-94.4-5h89.4v-20.2h-31.3V227.6l-59 12.4v20.7l32.4-7.3v102.4h-31.5V376zm126-70.6c0-26.2 4.8-46.2 14.5-60 9.6-13.8 23.6-20.7 41.8-20.7 34.8 0 52.1 25.7 52.1 77.1 0 25.3-4.7 44.9-14.2 58.6-9.4 13.8-23.1 20.7-40.9 20.7-35.6.1-53.3-25.2-53.3-75.7zm32-.8c0 34.9 7.5 52.3 22.4 52.3 14.6 0 22-18 22-53.9 0-36.1-7.1-54.1-21.4-54.1-15.5 0-23.1 18.6-23 55.7z"/><path fill="#546e7a" d="M457.5 383.6c-15.2 0-27.5-4.6-36.5-13.5-12.7-12.6-19.1-34.4-19.1-64.7 0-26.6 5-47.3 15-61.4 10-14.4 24.8-21.8 43.8-21.8 36.2 0 54.6 26.8 54.6 79.6 0 25.8-4.9 46-14.6 60-9.8 14.4-24.3 21.8-43 21.8h-.2zm3.2-156.4c-17.3 0-30.7 6.6-39.7 19.6-9.3 13.3-14.1 33-14.1 58.6 0 28.9 5.9 49.4 17.6 61.1 8 8 19.1 12.1 33 12.1h.2c16.9 0 30-6.6 38.8-19.6 9.1-13.2 13.8-32.4 13.8-57.2 0-50.2-16.3-74.6-49.6-74.6zm-2 132.2c-16.5 0-24.9-18.4-24.9-54.8 0-39.2 8.3-58.2 25.5-58.2 16.1 0 23.9 18.5 23.9 56.6 0 37.4-8.2 56.4-24.5 56.4zm.6-108c-13.6 0-20.5 17.9-20.5 53.2 0 33 6.7 49.8 19.9 49.8 12.9 0 19.5-17.3 19.5-51.4 0-34.2-6.4-51.6-18.9-51.6zm84 54c0-26.2 4.8-46.2 14.5-60 9.6-13.8 23.6-20.7 41.8-20.7 34.8 0 52.1 25.7 52.1 77.1 0 25.3-4.7 44.9-14.2 58.6-9.4 13.8-23.1 20.7-40.9 20.7-35.6.1-53.4-25.2-53.3-75.7zm31.9-.8c0 34.9 7.5 52.3 22.4 52.3 14.6 0 22-18 22-53.9 0-36.1-7.1-54.1-21.4-54.1-15.3 0-23 18.6-23 55.7z"/><path fill="#546e7a" d="M596.4 383.6c-15.2 0-27.4-4.6-36.4-13.6-12.7-12.7-19.1-34.4-19.1-64.6 0-26.6 5-47.3 15-61.4 10-14.4 24.8-21.8 43.8-21.8 36.2 0 54.6 26.8 54.6 79.6 0 25.8-4.9 46-14.6 60-9.8 14.4-24.3 21.8-43 21.8h-.3zm3.2-156.4c-17.3 0-30.7 6.6-39.7 19.6-9.3 13.3-14.1 33-14.1 58.6 0 28.8 5.9 49.4 17.7 61.1 8.1 8 19.1 12.1 32.9 12.1h.2c16.9 0 30-6.6 38.8-19.6 9.1-13.2 13.8-32.4 13.8-57.2 0-50.2-16.2-74.6-49.6-74.6zm-2 132.2c-16.5 0-24.9-18.4-24.9-54.8 0-38.6 8.6-58.2 25.5-58.2 16.1 0 23.9 18.5 23.9 56.6 0 37.4-8.2 56.4-24.5 56.4zm.6-108c-13.6 0-20.5 17.9-20.5 53.2 0 33 6.7 49.8 19.9 49.8 12.9 0 19.5-17.3 19.5-51.4 0-34.2-6.4-51.6-18.9-51.6zM463.5 640.2h-192v-64h191.9v64zm191.7-191.6H271.8v63.1h383.5l-.1-63.1z"/><path fill="#43a047" d="M495.2 735.7c0 105.9 85.7 191.7 191.6 191.7s191.7-85.7 191.7-191.6v-.1c0-105.9-85.7-191.7-191.6-191.7s-191.7 85.7-191.7 191.7c0-.1 0-.1 0 0z"/><path fill="#fff" d="M692.7 638.2c-3.5 0-8.2 0-11.6 1.2V686c3.5-1.2 8.2-1.2 11.6-1.2 38.4 0 69.9 31.4 69.9 69.9s-31.4 69.9-69.9 69.9-69.9-31.4-69.9-69.9c0-3.5 0-7 1.2-10.5l-39.6-31.4c-4.7 12.8-8.2 26.8-8.2 41.9 0 64 52.4 116.4 116.4 116.4S809 818.7 809 754.7s-52.2-116.5-116.3-116.5z"/><path fill="#fff" d="M611.2 661.5l81.5 65.2V596.3l-81.5 65.2z"/></svg>