<svg class="icon" viewBox="0 0 1024 1024" xmlns="http://www.w3.org/2000/svg" width="200" height="200"><path d="M881.598 121.798l-360-120C518.6.6 515.6 0 512 0s-6.6.6-9.598 1.798l-360 120C130.4 125.398 122 136.798 122 150v344.8c0 239.4 153 451.798 380.402 527.398C505.4 1023.4 509 1024 512 1024s6.6-.6 9.598-1.802C749 946.598 902 734.198 902 494.8V150c0-13.202-8.4-24.602-20.402-28.202z" fill="#76E2F8"/><path d="M902 150v344.8c0 239.4-153 451.798-380.402 527.398C518.6 1023.4 515 1024 512 1024V0c3.6 0 6.6.6 9.598 1.798l360 120C893.6 125.398 902 136.798 902 150z" fill="#25D9F8"/><path d="M761.598 208.198l-240-80.398c-2.998-.6-5.998-1.2-9.598-1.2s-6.6.6-9.598 1.202l-240 80.398c-12 4.2-20.402 15.6-20.402 28.202v258.4c0 171.6 101.4 327.602 258 397.8 3.6 1.798 7.8 3 12 3s8.4-1.202 12-3c156.6-70.198 258-226.202 258-397.8V236.4c0-12.602-8.4-24.002-20.402-28.202z" fill="#737EE6"/><path d="M782 236.4v258.4c0 171.6-101.4 327.602-258 397.8-3.6 1.798-7.8 3-12 3v-769c3.6 0 6.6.6 9.598 1.202l240 80.398C773.6 212.398 782 223.798 782 236.4z" fill="#615AD3"/><path d="M622.998 474.998L512 586l-9.002 8.998C497.6 601 489.8 604 482 604s-15.6-3-20.998-9.002l-60-60c-12-11.4-12-30.6 0-42 11.4-11.998 30.596-11.998 41.998 0l39.002 38.4 30-30 69.002-68.4c11.4-11.998 30.596-11.998 41.998 0 11.998 11.4 11.998 30.6-.004 42z" fill="#EDF5FF"/><path d="M622.998 474.998L512 586v-84.602l69.002-68.4c11.4-11.998 30.596-11.998 41.998 0 12 11.4 12 30.6-.002 42z" fill="#D7E9FF"/></svg>