<svg xmlns="http://www.w3.org/2000/svg" width="200" height="200" viewBox="0 0 1024 1024"><path fill="#FFB578" d="M978.745 344.719l-60.486 356.838H789.424V344.72z"/><path fill="#8B87C1" d="M789.424 772.305c45.588 0 82.576 36.956 82.576 82.544 0 45.62-36.988 82.576-82.576 82.576-45.62 0-82.576-36.957-82.576-82.576 0-45.588 36.956-82.544 82.576-82.544z"/><path fill="#5FCEFF" d="M698.6 344.719h90.824v356.838H698.6z"/><path fill="#FF4893" d="M607.776 344.719H698.6v356.838h-90.824z"/><path fill="#FFB578" d="M607.776 344.719v356.838H307.395L243.457 344.72z"/><path fill="#8B87C1" d="M453.493 772.305c45.588 0 82.545 36.956 82.545 82.544 0 45.62-36.957 82.576-82.545 82.576-45.62 0-82.576-36.957-82.576-82.576 0-45.588 36.957-82.544 82.576-82.544z"/><path fill="#4F46A3" d="M453.493 959.803c-57.873 0-104.954-47.084-104.954-104.954 0-57.855 47.084-104.92 104.954-104.92 57.855 0 104.92 47.069 104.92 104.92.003 57.87-47.065 104.954-104.92 104.954zm0-165.12c-33.193 0-60.197 26.988-60.197 60.162 0 33.194 27.004 60.198 60.197 60.198 33.175 0 60.163-27.004 60.163-60.198.003-33.174-26.988-60.162-60.163-60.162zm335.934 165.12c-57.873 0-104.954-47.084-104.954-104.954 0-57.855 47.084-104.92 104.954-104.92s104.955 47.069 104.955 104.92c0 57.87-47.084 104.954-104.955 104.954zm0-165.12c-33.193 0-60.197 26.988-60.197 60.162 0 33.194 27.004 60.198 60.197 60.198s60.198-27.004 60.198-60.198c0-33.174-27.008-60.162-60.198-60.162zm128.832-70.748H307.395a22.378 22.378 0 01-22.027-18.433L221.43 348.661a22.378 22.378 0 0122.027-26.327h735.288a22.372 22.372 0 0122.065 26.119l-60.486 356.841a22.378 22.378 0 01-22.065 18.641zM326.122 679.18H899.36l52.9-312.085H270.201l55.92 312.085z"/><path fill="#4F46A3" d="M259.416 457.733a22.382 22.382 0 01-21.94-18.11L170.34 94.515a22.378 22.378 0 0117.691-26.24 22.366 22.366 0 0126.24 17.692l67.135 345.106a22.378 22.378 0 01-21.991 26.659z"/><path fill="#4F46A3" d="M192.307 112.624H41.189a22.378 22.378 0 110-44.757h151.118a22.378 22.378 0 110 44.757zm415.469 611.311a22.378 22.378 0 01-22.378-22.378V344.72a22.378 22.378 0 1144.756 0v356.84a22.378 22.378 0 01-22.378 22.375zm90.824 0a22.378 22.378 0 01-22.378-22.378V344.72a22.378 22.378 0 1144.756 0v356.84a22.378 22.378 0 01-22.378 22.375zm90.827 0a22.378 22.378 0 01-22.378-22.378V344.72a22.378 22.378 0 1144.757 0v356.84a22.378 22.378 0 01-22.379 22.375z"/><path fill="#4F46A3" d="M370.195 356.263a22.378 22.378 0 01-19.396-33.51l103.42-180.465a22.369 22.369 0 0130.112-8.53l330.943 180.114a22.378 22.378 0 01-21.397 39.312l-311.71-169.647-92.535 161.473a22.378 22.378 0 01-19.437 11.253z"/><path fill="#FFF" d="M354.3 535.929a22.382 22.382 0 01-22.065-18.82L316.25 417.94a22.378 22.378 0 0118.533-25.652 22.372 22.372 0 0125.652 18.532l15.984 99.168a22.378 22.378 0 01-22.119 25.94z"/></svg>