<svg class="icon" viewBox="0 0 1024 1024" xmlns="http://www.w3.org/2000/svg" width="81" height="81"><path d="M939.821 270.532A235.482 235.482 0 00750.645 81.355a1325.986 1325.986 0 00-234.127-21.854h-10.9a1325.93 1325.93 0 00-234.183 21.91A235.482 235.482 0 0082.26 270.589a1325.704 1325.704 0 00-22.024 235.765v7.68c.226 78.607 7.567 157.214 22.024 235.821a235.482 235.482 0 00189.12 189.177c79.85 14.625 159.755 21.967 239.605 21.967a1327.059 1327.059 0 00239.66-22.024 235.482 235.482 0 00189.177-189.176c14.683-79.85 21.967-159.7 21.967-239.605 0-79.906-7.34-159.755-22.023-239.661z" fill="#FF5656"/><path d="M772.668 240.15c0-17.166-16.376-12.875-21.459-7.792-9.825 10.56-35.633 32.075-90.804 43.426a112.32 112.32 0 01-25.412 2.71c-26.598 0-48.904-8.583-74.372-18.748-29.365-11.35-62.57-24.282-107.972-24.282-3.896 0-7.793 0-11.689.395-49.299 2.372-91.934 23.887-122.88 39.925-9.035 4.517-18.184 8.978-27.388 13.27l-2.71-6.607-.396-.395a19.99 19.99 0 00-26.202-10.56 19.426 19.426 0 00-10.56 10.955 20.555 20.555 0 000 15.247l203.802 482.71c3.106 7.455 10.165 12.142 18.41 12.142a19.99 19.99 0 0018.409-27.784L421.704 599.7a112.376 112.376 0 0167.312-50.485c12.085-3.106 24.622-5.082 38.344-5.082 26.202 0 51.614 5.873 78.607 12.14 24.621 5.479 49.694 11.295 74.315 11.295 37.158 0 65.732-12.875 90.353-40.263a19.708 19.708 0 001.977-6.212V240.094z" fill="#FFF"/></svg>