<svg class="icon" viewBox="0 0 1024 1024" xmlns="http://www.w3.org/2000/svg" width="200" height="200"><path d="M85.333 448a426.667 426.667 0 10853.334 0 426.667 426.667 0 10-853.334 0z" fill="#FFF59D"/><path d="M789.333 448c0-164.266-140.8-294.4-309.333-275.2-128 14.934-230.4 117.334-243.2 245.334-10.667 98.133 29.867 185.6 98.133 241.066C364.8 684.8 384 721.067 384 761.6v6.4h256v-2.133c0-38.4 17.067-76.8 46.933-102.4 61.867-51.2 102.4-128 102.4-215.467z" fill="#FBC02D"/><path d="M652.8 409.6l-64-42.666c-6.4-4.267-17.067-4.267-23.467 0L512 401.067l-51.2-34.133c-6.4-4.267-17.067-4.267-23.467 0l-64 42.666c-4.266 4.267-8.533 8.534-8.533 14.934s0 12.8 4.267 17.066l81.066 100.267V768H492.8V533.334c0-4.267-2.133-8.534-4.267-12.8l-70.4-87.467 32-21.333 51.2 34.133c6.4 4.267 17.067 4.267 23.467 0l51.2-34.133 32 21.333-70.4 87.467c-2.133 4.266-4.267 8.533-4.267 12.8V768H576V541.867L657.067 441.6c4.266-4.266 6.4-10.666 4.266-17.066s-4.266-12.8-8.533-14.934z" fill="#FFF59D"/><path d="M448 917.334a64 64 0 10128 0 64 64 0 10-128 0z" fill="#5C6BC0"/><path d="M554.667 938.667h-85.334c-46.933 0-85.333-38.4-85.333-85.333V746.667h256v106.667c0 46.933-38.4 85.333-85.333 85.333z" fill="#9FA8DA"/><path d="M640 853.334l-247.467 34.133c6.4 14.933 19.2 29.867 34.134 38.4L627.2 898.134c8.533-12.8 12.8-27.734 12.8-44.8zm-256-49.067v42.667l256-36.267V768z" fill="#5C6BC0"/></svg>