<svg xmlns="http://www.w3.org/2000/svg" width="200" height="200" viewBox="0 0 1024 1024"><path fill="#FBE9E7" d="M729.8 831.1L164.1 833c-2.7 0-4.8-2.7-4.8-6.1L157.5 105c0-3.4 2.1-6.1 4.8-6.1l389.1-1.3c1.1 0 114.1-1.1 115-.2L733 180c1.2 1.2.2 93 .2 94.9l1.4 550.1c0 3.3-2.1 6-4.8 6.1z"/><path fill="#FFF" d="M714.9 191.5l-64.4 1.1-.9-74.2 65.3 73.1z"/><path fill="#FF5722" d="M629.6 405c-5.5-7.1-17.8-13.1-42.8 1.7 2.4-10.4-5.9-16.8-15.7-16.8-8.6 0-18.7 2.2-26.7 10.4-11.5-15.2-23.3-13.3-46.4.9-8.8 5.4-16.5 10.1-22.3 13.4-1.5.9-2.8 1.5-4 2.2 2.3.5 4.6.9 7.1.9 32.3 0 57.8 0 57.8 28.1 0 21.5-25 27.8-38.3 28h-59.8c-24.7 0-48.8-25.7-48.8-25.7s28.5 11.7 48.8 11.7h59.7c.1 0 24.4-.9 24.4-14 0-11.9-6.5-14-43.9-14-24.3 0-48.9-14.4-48.9-14.4s-24.6-18-32.2-22.7c-17.9-11.1-32.2-21.8-63.4-9.5-19.8 7.9-63 28-63 28l39.8 88.4 20.3-13.2c11.3-7.2 17.5-8.4 32-.9 14.1 7.2 57.3 29.7 68.1 35 33.2 16.1 47.5 1.7 63.5-7.6 13.7-7.9 110.7-72.1 120.8-79.3 16.1-11.4 21.1-21.2 13.9-30.6z"/><path fill="#FF5722" d="M542.6 343.6l-74.1 41.9c-12.6 7.1-26.9 7.1-39.4 0L355 343.6c-12.6-7.1-19.7-19.2-19.7-33.4v-83.8c0-14.2 7.1-26.3 19.7-33.4l74.1-41.9c12.6-7.1 26.9-7.1 39.4 0l74.1 41.9c12.6 7.1 19.7 19.2 19.7 33.4v83.8c.1 14.1-7.1 26.2-19.7 33.4z"/><path fill="#FFF" d="M498.1 292.5H461v-23.1h37.1c6.8 0 12.3-5.1 12.3-11.6 0-6.4-5.5-11.6-12.3-11.6h-25.3l24-41.5c3.1-5.3 1.2-12-4.1-15.1-5.3-3-12-1.2-15.1 4l-27.5 47.7c-.9 1.6-1.3 3.2-1.4 4.8h-.1c-.1-1.6-.6-3.3-1.4-4.8L420 193.7c-3-5.3-9.7-7-14.9-4-5.2 3-7 9.8-4 15.1l23.7 41.5h-25.3c-6.8 0-12.3 5.1-12.3 11.6 0 6.4 5.5 11.6 12.3 11.6h37.1v23.1h-37.1c-6.8 0-12.3 5.1-12.3 11.6 0 6.4 5.5 11.6 12.3 11.6h37.1v24.3c0 5.8 5.5 10.4 12.3 10.4 6.8 0 12.3-4.7 12.3-10.4v-24.3h37.1c6.8 0 12.3-5.1 12.3-11.6-.1-6.6-5.7-11.7-12.5-11.7z"/><path fill="#FF8A65" d="M213.2 576h477.7v64.4H213.2zm0 126.9H453v64.4H213.2z"/><path fill="#43A047" d="M483.2 735.3c0 105.9 85.7 191.7 191.6 191.7 105.9 0 191.7-85.7 191.7-191.6v-.1c0-105.9-85.7-191.7-191.6-191.7-105.9 0-191.7 85.7-191.7 191.6v.1z"/><path fill="#DCEDC8" d="M755.4 639.4L646.1 748.7 594.4 697l-40.2 42.2 92 92 149.5-149.5-40.3-42.3z"/></svg>