<svg class="icon" viewBox="0 0 1024 1024" xmlns="http://www.w3.org/2000/svg" width="84" height="84"><path d="M247.808 927.744c-8.192-24.576-12.288-51.2-12.288-77.824 0-129.024 98.304-233.472 225.28-243.712v-47.104h69.632v47.104C653.312 620.544 747.52 722.944 747.52 849.92c0 26.624-4.096 53.248-12.288 77.824-71.68 36.864-155.648 59.392-243.712 59.392s-169.984-22.528-243.712-59.392zm0 0" fill="#515151"/><path d="M733.184 407.552c-32.768 100.352-126.976 172.032-237.568 172.032h-10.24c-110.592 0-204.8-71.68-237.568-172.032h-2.048c-18.432 0-34.816-14.336-34.816-30.72 0-14.336 10.24-24.576 24.576-28.672v-20.48c0-139.264 112.64-251.904 251.904-251.904h10.24c139.264 0 251.904 112.64 251.904 251.904v20.48c14.336 4.096 24.576 14.336 24.576 28.672-6.144 16.384-20.48 30.72-40.96 30.72zm0 0" fill="#C2B1A1"/><path d="M733.184 407.552c-32.768 100.352-126.976 172.032-237.568 172.032h-10.24c-110.592 0-204.8-71.68-237.568-172.032h-2.048c-18.432 0-34.816-14.336-34.816-30.72 0-14.336 10.24-24.576 24.576-28.672v-20.48c0-139.264 112.64-251.904 251.904-251.904h10.24c139.264 0 251.904 112.64 251.904 251.904v20.48c14.336 4.096 24.576 14.336 24.576 28.672-6.144 16.384-20.48 30.72-40.96 30.72zm0 0" fill="#f0f0bc"/><path d="M452.608 507.904h81.92c-10.24 14.336-24.576 24.576-40.96 24.576s-30.72-8.192-40.96-24.576zM235.52 346.112c-24.576-116.736-10.24-188.416 43.008-212.992C327.68 75.776 348.16-24.576 622.592 49.152 763.904 106.496 804.864 204.8 747.52 348.16c-24.576-88.064-51.2-133.12-81.92-133.12-45.056 0 55.296 34.816 6.144 104.448-49.152 69.632-32.768-28.672-100.352 0S393.216 294.912 393.216 256c0-28.672-53.248 2.048-157.696 90.112zm0 0" fill="#515151"/><path d="M403.456 616.448c16.384-6.144 32.768-10.24 57.344-12.288 16.384 14.336 26.624 32.768 32.768 55.296l-51.2 49.152c-14.336-49.152-26.624-79.872-38.912-92.16zm180.224 4.096c-12.288-6.144-24.576-12.288-53.248-12.288-14.336 18.432-26.624 36.864-36.864 55.296l53.248 53.248c14.336-53.248 26.624-83.968 36.864-96.256zm0 0" fill="#f0f0bc"/><path d="M604.16 851.968c-4.096 0-8.192-2.048-12.288-4.096-8.192-6.144-8.192-18.432-2.048-26.624L913.408 460.8c8.192-10.24 20.48-10.24 28.672-4.096s8.192 18.432 2.048 26.624L618.496 845.824c-4.096 4.096-8.192 6.144-14.336 6.144zm0 0" fill="#515151"/></svg>