<svg class="icon" viewBox="0 0 1024 1024" xmlns="http://www.w3.org/2000/svg" width="81" height="81"><path d="M286.547 211.8a73.139 73.139 0 10-73.35-73.139 73.28 73.28 0 0073.35 73.14zm78.894 14.46H207.723c-70.753 0-93.775 18.179-93.775 95.038v224.61c0 43.59 59.1 43.59 59.1 0l5.054-205.448h15.161V902.9c0 58.398 80.299 56.643 80.299 0l5.124-326.458h15.722l5.054 326.457c0 56.644 80.298 58.4 80.298 0V340.46h15.162l5.124 205.449c0 43.588 59.03 43.588 59.03 0V321.298c0-76.86-22.952-94.898-93.635-94.898z" fill="#738EF0"/><path d="M725.1 210.467a73.069 73.069 0 0072.717-73.49 72.718 72.718 0 10-145.365 0 73.069 73.069 0 0072.647 73.49zm196.955 287.712l-62.33-207.555c-12.143-36.78-48.29-65.628-101.145-65.628h-66.962c-52.924 0-89.142 28.919-101.215 65.558l-62.33 207.625c-12.914 44.641 38.044 60.504 51.38 18.74l65.77-189.515h7.58s-86.405 339.794-90.055 352.359c-1.825 6.387.772 11.02 7.44 11.02h74.753v223.136c0 45.414 67.173 45.414 67.173 0V689.31h25.76v224.61c0 45.414 67.243 45.414 67.243 0V690.712h74.753c6.668 0 9.265-4.562 7.44-11.02-3.298-12.494-89.984-352.498-89.984-352.498h7.58l65.77 189.515c13.336 41.623 64.294 25.76 51.309-18.74z" fill="#FE7044"/></svg>