<svg xmlns="http://www.w3.org/2000/svg" width="200" height="200" viewBox="0 0 1024 1024"><path fill="#484848" d="M74.843 960.643l245.326-245.07a37.156 37.156 0 1152.595 52.563L243.999 896.773h536.136L651.338 768.136a37.156 37.156 0 1152.627-52.563l245.293 245.07a37.06 37.06 0 010 52.466 37.156 37.156 0 01-52.562 0l-54.677-52.595H182.05l-54.613 52.595a37.252 37.252 0 01-52.627 0 37.028 37.028 0 01.032-52.466z"/><path fill="#BF392C" d="M191.116 0h640.62A64.062 64.062 0 01895.8 64.062v704.683a64.062 64.062 0 01-64.062 64.062H191.116a64.062 64.062 0 01-64.062-64.062V64.062A64.062 64.062 0 01191.116 0z"/><path fill="#FFF" d="M191.116 192.186h640.62v352.342h-640.62V192.186z"/><path fill="#F0F0F0" d="M191.18 191.033h320.246v353.815H191.18V191.033z"/><path fill="#EBEBEB" d="M351.271 64.062h320.31v64.062h-320.31V64.062z"/><path fill="#FFF" d="M191.116 736.714h192.186V608.59H191.116v128.124zM639.55 608.59v128.124h192.187V608.59H639.55z"/><path fill="#F4B459" d="M223.147 704.683h128.124v-64.126H223.147v64.126zm448.434-64.126v64.126h128.125v-64.126H671.58z"/></svg>