<svg class="icon" viewBox="0 0 1024 1024" xmlns="http://www.w3.org/2000/svg" width="81" height="81"><path d="M845.653 597.333a74.496 74.496 0 00135.68-42.666A74.496 74.496 0 00845.653 512h-34.986c0-66.987-21.334-128-59.734-178.773l57.174-57.174c23.893 4.267 48.213-2.56 66.56-20.053 28.586-29.44 28.586-76.8 0-106.667-29.44-28.586-76.8-28.586-106.667 0-17.493 18.347-24.32 42.667-20.053 66.56l-57.174 57.174c-39.253-29.44-85.333-49.067-136.106-56.32v-59.734A74.496 74.496 0 00512 21.333a74.496 74.496 0 00-42.667 135.68v59.734c-38.4 5.546-74.24 17.92-106.666 36.693l-47.36-67.84a73.899 73.899 0 00-29.611-88.448 74.667 74.667 0 00-83.03 1.835c-33.706 23.466-42.24 69.973-18.346 103.68 14.507 20.906 37.547 32 61.013 32l50.347 71.68c-18.347 18.346-32.853 38.826-45.227 61.44A75.093 75.093 0 00170.667 384c-28.587 29.867-28.587 76.8 0 106.667 12.373 11.52 27.306 18.346 42.666 21.333 0 23.04 2.987 45.227 7.68 66.56l-55.893 14.933c-17.92-14.933-42.667-21.333-67.413-14.933a74.752 74.752 0 0039.253 144.213c24.32-6.826 42.667-24.746 50.347-46.933l64.426-17.493c19.2 33.706 44.8 63.573 74.667 88.32L279.467 832c-23.467 3.413-44.8 16.64-57.174 39.253a74.667 74.667 0 00131.414 70.827c11.946-22.187 11.52-47.787.853-68.693l45.653-84.054c34.56 13.654 72.107 21.334 111.787 21.334h7.68c-5.547 11.093-7.68 23.893-7.68 37.546 3.413 41.387 39.253 72.107 80.213 69.12 40.96-2.986 72.107-39.253 69.12-80.213-1.706-21.333-12.373-40.107-27.733-52.48 20.053-8.96 39.253-20.48 57.173-33.707l99.84 99.84c-4.266 23.894 2.56 48.214 20.054 66.56 29.866 28.587 76.8 28.587 106.666 0s28.587-76.8 0-106.666c-18.346-17.494-42.666-24.32-66.56-20.054l-99.84-99.84c20.907-27.733 37.12-59.306 47.36-93.44h47.36zM448 512c-35.413 0-64-28.587-64-64s28.587-64 64-64 64 28.587 64 64-28.587 64-64 64zm149.333 128c-23.466 0-42.666-19.2-42.666-42.667s19.2-42.666 42.666-42.666S640 573.867 640 597.333 620.8 640 597.333 640z" fill="#d81e06"/></svg>