<svg class="icon" viewBox="0 0 1024 1024" xmlns="http://www.w3.org/2000/svg" width="81" height="81"><path d="M938.667 170.667v-21.334C938.667 89.6 891.733 42.667 832 42.667S725.333 89.6 725.333 149.333v21.334c-25.6 0-42.666 17.066-42.666 42.666V384c0 25.6 17.066 42.667 42.666 42.667h213.334c25.6 0 42.666-17.067 42.666-42.667V213.333c0-25.6-17.066-42.666-42.666-42.666zm-34.134 0H759.467v-21.334c0-38.4 34.133-72.533 72.533-72.533s72.533 34.133 72.533 72.533v21.334zM806.4 512c0 12.8 4.267 29.867 4.267 42.667 0 89.6-34.134 170.666-89.6 230.4-12.8-34.134-42.667-59.734-81.067-59.734h-42.667v-128c0-25.6-17.066-42.666-42.666-42.666h-256v-85.334H384c25.6 0 42.667-17.066 42.667-42.666v-85.334H512c46.933 0 85.333-38.4 85.333-85.333V149.333c-38.4-12.8-85.333-21.333-128-21.333-234.666 0-426.666 192-426.666 426.667s192 426.666 426.666 426.666S896 789.333 896 554.667c0-12.8 0-29.867-4.267-42.667H806.4zM426.667 891.733C260.267 870.4 128 725.333 128 554.667c0-25.6 4.267-51.2 8.533-76.8l204.8 204.8v42.666c0 46.934 38.4 85.334 85.334 85.334v81.066z" fill="#1296db"/></svg>