<svg class="icon" viewBox="0 0 1024 1024" xmlns="http://www.w3.org/2000/svg" width="200" height="200"><path d="M162.475 72.317h699.05q77.673 0 77.673 77.672v746.508q0 77.673-77.673 77.673h-699.05q-77.673 0-77.673-77.673V149.99q0-77.672 77.673-77.672z" fill="#4C79FF"/><path d="M251.042 596.963a256.443 256.443 0 10512.886 0 256.443 256.443 0 10-512.886 0z" fill="#FFF"/><path d="M764.299 537.943l15.826 11.262C707.5 651.461 620.702 669.83 524.155 603.129l-5.087-3.592c-88.274-63.497-173.714-50.099-259.678 41.651l-4.68 5.069-14.369-13.05c92.197-101.44 188.297-119.595 284.96-53.01l5.088 3.572c88.06 63.342 163.364 50.157 230.24-40.778l3.65-5.048z" fill="#4C79FF"/><path d="M84.802 266.167h854.396v20.35H84.802zm61.031-91.537a30.506 30.506 0 1061.012 0 30.506 30.506 0 10-61.012 0zm101.712 0a30.506 30.506 0 1061.012 0 30.506 30.506 0 10-61.012 0z" fill="#FFF"/></svg>