<svg class="icon" viewBox="0 0 1024 1024" xmlns="http://www.w3.org/2000/svg" width="81" height="81"><path d="M901.719 261.031l-43.032 507.375H638.845l-42.938-507.375zM801.03 882.313c0-5.25-4.312-9.47-9.468-9.47h-85.407c-5.343 0-9.468 4.313-9.468 9.47v28.5H639.78V787.438h218.157v123.375H801.03v-28.5z" fill="#bfbfbf"/><path d="M594.219 242.094h309.093l1.22-14.531H593l1.219 14.53zm44.625 526.312h219.843l43.032-507.375H595.906l42.938 507.375zm143.25 142.407v-18.938h-66.469v18.938h66.469zm75.843-123.375h-218.25v123.375h57v-28.5a9.443 9.443 0 019.47-9.47h85.405c5.25 0 9.47 4.313 9.47 9.47v28.5h56.905V787.438zM582.782 208.53h332.157c2.625 0 5.156 1.125 6.937 3 1.781 1.969 2.719 4.688 2.438 7.313L876.968 778.25v141.938c0 5.25-4.313 9.468-9.469 9.468h-237.28c-5.344 0-9.469-4.312-9.469-9.468V778.343l-47.438-559.407c-.28-2.625.657-5.343 2.438-7.312 1.781-1.875 4.313-3.094 7.031-3.094z" fill="#515151"/><path d="M463.906 312.969c132.656 138.469 96.938 535.218 90.469 597.843H173.75c-6.563-62.625-42.188-459.375 90.469-597.843h199.687zM288.594 113.656h151.781V218H288.594z" fill="#1296db"/><path d="M440.469 218.094V113.656H288.594V218h151.875zm18.375 75.844V237.03h-189.75v56.906h189.75zm-194.719 19.03c-132.656 138.47-96.938 535.22-90.469 597.844h380.625c6.563-62.625 42.188-459.375-90.468-597.843H264.125zM562.719 929.75h-397.5c-4.875 0-8.906-3.563-9.469-8.344-2.25-18.937-54.938-464.718 94.313-621.187v-72.656c0-5.25 4.312-9.47 9.468-9.47h10.031V104.189a9.443 9.443 0 019.47-9.47h170.812c5.25 0 9.469 4.313 9.469 9.47v22.124h75.937c.375 0 37.969.657 37.969 53.813 0 5.25-4.313 9.469-9.469 9.469-5.344 0-9.469-4.313-9.469-9.469 0-33-17.25-34.688-19.125-34.781h-75.75v72.75h8.906c5.344 0 9.47 4.312 9.47 9.469v72.656c149.343 156.469 96.75 602.156 94.5 621.187-.563 4.782-4.688 8.344-9.563 8.344z" fill="#515151"/></svg>