<svg class="icon" viewBox="0 0 1024 1024" xmlns="http://www.w3.org/2000/svg" width="200" height="200"><path d="M186.212 62h651.724q124.138 0 124.138 124.138v651.724Q962.074 962 837.936 962H186.212Q62.074 962 62.074 837.862V186.138Q62.074 62 186.212 62z" fill="#3DC656"/><path d="M568.324 655.628a56.328 56.328 0 11-56.312-57.554 56.933 56.933 0 0156.312 57.554zm120.243-111.91a14.602 14.602 0 00-.496-20.84 259.805 259.805 0 00-352.102 0 14.586 14.586 0 00-.512 20.84l29.917 30.568a13.826 13.826 0 0019.164.714 190.536 190.536 0 01254.933 0 13.826 13.826 0 0019.164-.714zm98.628-102.26a14.617 14.617 0 00-.31-20.668 397.148 397.148 0 00-549.745 0 14.602 14.602 0 00-.31 20.669l29.886 30.553a13.966 13.966 0 0019.551.341 327.678 327.678 0 01451.552 0 13.966 13.966 0 0019.552-.34zm0 0" fill="#FFF"/></svg>