<svg xmlns="http://www.w3.org/2000/svg" width="500" height="500" viewBox="0 0 1024 1024"><path fill="#27C087" d="M646.4 771.2l-7.5-18.5c51.2-20.7 92.2-61.9 112.7-113.1l18.6 7.4c-22.5 56.3-67.7 101.5-123.8 124.2zM237 350.7l-18.6-7.4c22.5-56.2 67.6-101.5 123.8-124.2l7.5 18.5c-51.1 20.7-92.2 61.9-112.7 113.1zm122.8 160.1a149.4 149.4 0 10298.8 0 149.4 149.4 0 10-298.8 0z"/><path fill="#27C087" d="M510.1 83.8c57.8 0 113.8 11.3 166.5 33.6 51 21.6 96.7 52.4 136 91.7 39.3 39.3 70.2 85.1 91.7 136 22.3 52.7 33.6 108.8 33.6 166.5s-11.3 113.8-33.6 166.5c-21.6 51-52.4 96.7-91.7 136-39.3 39.3-85.1 70.2-136 91.7-52.7 22.3-108.8 33.6-166.5 33.6s-113.8-11.3-166.5-33.6c-51-21.6-96.7-52.4-136-91.7-39.3-39.3-70.2-85.1-91.7-136-22.3-52.7-33.6-108.8-33.6-166.5s11.3-113.8 33.6-166.5c21.6-51 52.4-96.7 91.7-136s85.1-70.2 136-91.7c52.7-22.3 108.7-33.6 166.5-33.6m0 586.8c87.7 0 159-71.3 159-159s-71.3-159-159-159-159 71.3-159 159 71.3 159 159 159m0-606.8c-247.4 0-447.9 200.5-447.9 447.9s200.5 447.9 447.9 447.9S958 759 958 511.7 757.5 63.8 510.1 63.8zm0 586.8c-76.7 0-139-62.2-139-139s62.2-139 139-139 139 62.2 139 139-62.3 139-139 139z"/></svg>