<svg xmlns="http://www.w3.org/2000/svg" width="200" height="200" viewBox="0 0 1024 1024"><path fill="#27C087" d="M608 864c-78.933 0-142.933-49.067-142.933-113.067S526.933 637.867 608 637.867c25.6 0 51.2 6.4 72.533 14.933l46.934-315.733c4.266-25.6 12.8-49.067 27.733-68.267 10.667-14.933 23.467-27.733 40.533-36.267l76.8-46.933c12.8-8.533 29.867-8.533 42.667 0s21.333 21.333 21.333 36.267-6.4 29.866-19.2 38.4c-6.4 4.266-19.2 25.6-23.466 53.333-4.267 19.2 0 34.133 2.133 36.267 21.333 8.533 32 32 23.467 53.333-8.534 21.333-32 34.133-55.467 25.6-27.733-10.667-44.8-32-53.333-64l-59.734 390.4C746.667 817.067 684.8 864 608 864zm0-142.933c-36.267 0-57.6 19.2-57.6 27.733s21.333 27.733 57.6 27.733c32 0 53.333-14.933 55.467-25.6v-4.266c0-8.534-21.334-25.6-55.467-25.6z"/><path fill="#27C087" d="M580.267 605.867h-409.6c-23.467 0-42.667-19.2-42.667-42.667s19.2-42.667 42.667-42.667h409.6c23.466 0 42.666 19.2 42.666 42.667s-19.2 42.667-42.666 42.667zM398.933 774.4H170.667C147.2 774.4 128 755.2 128 731.733s19.2-42.666 42.667-42.666h228.266c23.467 0 42.667 19.2 42.667 42.666S422.4 774.4 398.933 774.4zm181.334-341.333h-409.6c-23.467 0-42.667-19.2-42.667-42.667s19.2-42.667 42.667-42.667h409.6c23.466 0 42.666 19.2 42.666 42.667s-19.2 42.667-42.666 42.667zm0-170.667h-409.6C147.2 262.4 128 243.2 128 219.733s19.2-42.666 42.667-42.666h409.6c23.466 0 42.666 19.2 42.666 42.666s-19.2 42.667-42.666 42.667zm29.866 556.8c-76.8 0-123.733-27.733-123.733-70.4s46.933-70.4 123.733-70.4 123.734 27.733 123.734 70.4-46.934 70.4-123.734 70.4zm49.067-49.067z"/></svg>