<svg viewBox="0 0 1024 1024" xmlns="http://www.w3.org/2000/svg" width="200" height="200"><path d="M905.75 327.542h-787.5c-33.75 0-56.25-22.5-56.25-56.25s22.5-56.25 56.25-56.25h787.5c33.75 0 56.25 22.5 56.25 56.25s-22.5 56.25-56.25 56.25z" fill="#27C087"/><path d="M866.375 305.042L770.75 186.917c-16.875-22.5-16.875-61.875 5.625-78.75s61.875-16.875 78.75 5.625l95.625 118.125c16.875 22.5 16.875 61.875-5.625 78.75-22.5 22.5-56.25 16.875-78.75-5.625zm39.375 298.125h-787.5c-33.75 0-56.25-22.5-56.25-56.25s22.5-56.25 56.25-56.25h787.5c33.75 0 56.25 22.5 56.25 56.25s-22.5 56.25-56.25 56.25z" fill="#27C087"/><path d="M866.375 586.292L770.75 468.167c-16.875-22.5-16.875-61.875 5.625-78.75s61.875-16.875 78.75 5.625l95.625 118.125c16.875 22.5 16.875 61.875-5.625 78.75-22.5 22.5-56.25 16.875-78.75-5.625zm39.375 298.125h-787.5c-33.75 0-56.25-22.5-56.25-56.25s22.5-56.25 56.25-56.25h787.5c33.75 0 56.25 22.5 56.25 56.25s-22.5 56.25-56.25 56.25z" fill="#27C087"/><path d="M866.375 861.917L770.75 743.792c-16.875-22.5-16.875-61.875 5.625-78.75s61.875-16.875 78.75 5.625l95.625 118.125c16.875 22.5 16.875 61.875-5.625 78.75-22.5 22.5-56.25 16.875-78.75-5.625z" fill="#27C087"/></svg>