<svg viewBox="0 0 1024 1024" xmlns="http://www.w3.org/2000/svg" width="200" height="200"><path d="M512 0c282.77 0 512 229.23 512 512s-229.23 512-512 512S0 794.77 0 512 229.23 0 512 0zm102.4 316.952c-23.406 0-43.91 20.432-43.91 43.813v321.292c0 23.357 20.48 43.788 43.886 43.788 23.405 0 43.91-20.43 43.91-43.788V360.765c0-23.381-20.48-43.813-43.886-43.813zm-204.8 0c-23.406 0-43.886 20.432-43.886 43.813v321.292c0 23.357 20.48 43.788 43.886 43.788 23.406 0 43.91-20.43 43.91-43.788V360.765c-.024-23.381-20.504-43.813-43.886-43.813z" fill="#27C087"/></svg>