<svg viewBox="0 0 1210 1024" xmlns="http://www.w3.org/2000/svg" width="200" height="200"><path d="M925.804 971.578a66.153 66.153 0 01-46.43-18.545 63.273 63.273 0 01-19.33-45.426c0-17.062 6.981-33.425 19.33-45.425l19.637-18.546H729.615c-22.604 0-43.637-11.345-55.593-30.109L366.69 331.782h-225.6c-36.218 0-65.455-28.582-65.455-63.927 0-35.346 29.28-63.971 65.411-63.971h261.6c22.56 0 43.593 11.345 55.55 30.109L566.763 403.52l107.258-169.57c12-18.765 32.989-30.11 55.593-30.066H899.01l-19.636-18.546a63.273 63.273 0 010-90.85 66.72 66.72 0 0192.858 0l130.822 127.941c12.349 12.044 19.33 28.364 19.33 45.426 0 17.061-6.981 33.425-19.33 45.425L972.233 441.265a66.72 66.72 0 01-92.858 0 63.273 63.273 0 010-90.85l19.636-18.546H768.145L643.913 523.782l121.614 191.956H896.35l-19.636-18.589a63.273 63.273 0 010-90.85 66.72 66.72 0 0192.858 0l130.822 127.985c12.349 12 19.33 28.363 19.33 45.381 0 17.106-6.981 33.426-19.33 45.47L969.57 953.076c-11.695 11.346-27.316 17.979-43.811 18.546zm-523.2-127.942H141.09c-36.218 0-65.455-28.669-65.455-63.97 0-35.346 29.28-63.971 65.411-63.971h226.255l22.909-35.215c12.742-19.2 34.953-30.284 58.342-29.105a65.585 65.585 0 0154.938 34.909 62.836 62.836 0 01-3.404 63.927l-42.545 63.97c-12 18.328-32.684 29.412-54.895 29.455z" fill="#27C087"/></svg>