<svg viewBox="0 0 1075 1024" xmlns="http://www.w3.org/2000/svg" width="200" height="200"><path d="M939.545 472.85c33.255 0 60.21 26.91 60.21 60.165v12.015c0 179.1-144.72 324.45-323.325 324.45h-416.7v67.5a25.065 25.065 0 01-41.4 18.9L70.685 828.26a25.065 25.065 0 010-37.89l147.6-127.71a25.065 25.065 0 0141.49 18.945v67.5H676.43c112.05 0 202.95-91.26 202.95-204.03V533.06c0-33.255 26.955-60.21 60.165-60.21zM557 377a45 45 0 0145 45v180a45 45 0 01-45 45h-45a45 45 0 01-45-45V422a45 45 0 0145-45h45zM849.455 68.075L997.1 195.785a25.065 25.065 0 010 37.89l-147.645 127.71a25.065 25.065 0 01-41.445-18.945v-67.5h-416.7c-112.005 0-202.95 91.26-202.95 204.03v12.015a60.165 60.165 0 01-120.33 0V478.97c0-179.1 144.675-324.45 323.325-324.45H808.01v-67.5a25.065 25.065 0 0141.4-18.9z" fill="#27C087"/></svg>