<svg viewBox="0 0 1024 1024" xmlns="http://www.w3.org/2000/svg" width="200" height="200"><path d="M754.358 148.45H270.916c-44.314 0-80.57 36.421-80.57 80.938v607.051c0 24.285 20.145 40.474 40.29 40.474 4.025 0 12.085 0 16.11-4.052L492.497 751.45c4.025-4.052 12.085-4.052 16.12-4.052 4.025 0 12.084 0 16.118 4.052l245.751 121.412c12.085 4.052 20.145 4.052 24.17 4.052 20.145 0 40.29-16.19 40.29-40.474V229.388c-.01-44.508-36.273-80.939-80.588-80.939zm-131 454.649H401.925c-33.214 0-55.363-22.184-55.363-55.46s22.14-55.458 55.363-55.458h221.431c33.214 0 55.363 22.183 55.363 55.459s-22.149 55.459-55.363 55.459zm0-216.783H401.925c-33.214 0-55.363-22.183-55.363-55.459s22.14-55.459 55.363-55.459h221.431c33.214 0 55.363 22.184 55.363 55.46s-22.149 55.458-55.363 55.458z" fill="#2ecc71"/></svg>