<svg viewBox="0 0 1024 1024" xmlns="http://www.w3.org/2000/svg" width="200" height="200"><path d="M238.55 191.99h536.82A70.98 70.98 0 0 1 846.35 263v36.9c0 21.78-8.88 42.6-24.6 57.72L636.47 535.49c-7.65 7.35-12.09 17.4-12.3 27.99l-6.54 306.78a39.99 39.99 0 0 1-68.25 27.45L423.29 771.62c-7.5-7.5-11.7-17.7-11.7-28.29V564.41c0-11.1-4.68-21.78-12.84-29.34L197.66 348.86a80.01 80.01 0 0 1-25.65-58.68v-31.62c0-36.78 29.79-66.57 66.54-66.57zm123.84 133.29v85.68l104.73 104.7v-85.65l-104.7-104.7z" fill="#2ecc71"/></svg>