<svg viewBox="0 0 1024 1024" xmlns="http://www.w3.org/2000/svg" width="200" height="200"><path d="M512 371.375c-77.35 0-140.627 63.281-140.627 140.625 0 77.35 63.276 140.625 140.627 140.625 77.353 0 140.623-63.274 140.623-140.625 0-77.344-63.27-140.625-140.623-140.625zm335.633 103.126C830.75 318.88 705.12 193.25 549.5 176.377V118.25h-74.998v58.126C318.88 193.249 193.25 318.878 176.369 474.499H118.25v75h58.117c16.882 155.621 142.51 281.25 298.132 298.132v58.119h74.999v-58.117c155.62-16.882 281.25-142.51 298.133-298.132h58.119v-75h-58.117zM512 774.499C367.619 774.5 249.499 656.378 249.499 512c0-144.38 118.12-262.5 262.501-262.5 144.378 0 262.498 118.122 262.498 262.5S656.378 774.5 512 774.5z" fill="#2ecc71"/></svg>