<svg viewBox="0 0 1024 1024" xmlns="http://www.w3.org/2000/svg" width="200" height="200"><path d="M828.278 144.994 119.69 437.504c-10.043 6.242-18.196 16.03-18.196 26.348 0 11.954 5.967 22.253 18.196 26.349l270.77 117.05c5.986 2.167 11.952 8.153 16.029 16.03l110 266.969c4.077 10.043 14.12 17.92 26.35 18.196 11.933 0 22.251-5.967 26.328-18.196l295.227-706.954c4.076-10.043 2.166-22.272-5.967-30.425-8.153-8.152-20.086-11.953-30.149-7.877z" fill="#2ecc71"/><path d="M828.278 144.994 116.972 436.972c-12.209 4.077-18.195 16.03-18.195 26.349 0 11.953 5.966 22.272 18.195 26.348l279.75 119.513c128.984-131.19 171.362-153.463 461.705-455.74-8.153-8.704-20.086-12.504-30.149-8.428z" fill="#2ecc71"/></svg>