<svg class="icon" viewBox="0 0 1024 1024" xmlns="http://www.w3.org/2000/svg" width="200" height="200"><path d="M512 45.966c-194.18 0-349.525 155.345-349.525 349.526 0 139.81 85.44 248.55 194.18 388.361 38.837 54.37 85.44 108.741 124.276 178.646 7.767 7.768 15.535 15.535 31.069 15.535 15.534 0 23.302-7.767 31.069-15.535 38.836-62.138 85.44-116.508 124.276-170.879 108.74-147.577 194.18-256.318 194.18-396.128C861.525 201.31 706.181 45.966 512 45.966zM512 512c-62.138 0-116.508-46.603-116.508-116.508S442.095 278.983 512 278.983c62.138 0 116.508 46.603 116.508 116.509C628.508 457.629 581.905 512 512 512z" fill="#3478f7"/></svg>