<svg xmlns="http://www.w3.org/2000/svg" width="84" height="84" viewBox="0 0 1024 1024"><path fill="#E1F5FE" d="M723.7 605.8H142.4c-6.6 0-12-5.4-12-12V195.3c0-6.6 5.4-12 12-12h581.3c6.6 0 12 5.4 12 12v398.6c0 6.5-5.4 11.9-12 11.9z"/><path fill="#42A5F5" d="M725.2 623.3H140.9c-15.4 0-27.9-12.5-27.9-27.9V193.7c0-15.4 12.5-27.9 27.9-27.9h584.3c15.4 0 27.9 12.5 27.9 27.9v401.6c0 15.5-12.5 28-27.9 28zm-577.3-34.9h570.4V200.7H147.9v387.7z"/><path fill="#42A5F5" d="M573 723.9H301.1V689h118v-68.3H454V689h119z"/><path fill="#90CAF9" d="M418.2 338.6H250.8v-34.9h167.4v34.9zm222.5-56.2H250.8v-34.9h389.9v34.9z"/><path fill="#43A047" d="M538.6 671.9c0 102.8 83.3 186.2 186.1 186.3S910.9 774.9 911 672v-.1c0-102.8-83.3-186.2-186.1-186.3s-186.2 83.3-186.3 186.1v.2z"/><path fill="#FFF" d="M836.6 779.4H617.9v-26.7s30.1-53.5 109.4-53.5c79.3 0 109.4 53.5 109.4 53.5v26.7zM727.1 548.1c-37.2 0-67.4 31.2-67.4 69.8 0 38.5 30.2 69.8 67.4 69.8s67.4-31.2 67.4-69.8-30.1-69.8-67.4-69.8z"/></svg>