<svg xmlns="http://www.w3.org/2000/svg" width="200" height="200" viewBox="0 0 1024 1024"><path fill="#D6473B" d="M604.6 428.6H418.8c-43.3 0-78.5-35.2-78.5-78.5V187.2c0-43.3 35.2-78.5 78.5-78.5h185.8c43.3 0 78.5 35.2 78.5 78.5V350c0 43.3-35.2 78.6-78.5 78.6zM418.8 161c-14.4 0-26.2 11.7-26.2 26.2V350c0 14.4 11.7 26.2 26.2 26.2h185.8c14.4 0 26.2-11.7 26.2-26.2V187.2c0-14.4-11.7-26.2-26.2-26.2H418.8zM247.9 916.5h-71.3c-43.3 0-78.5-35.2-78.5-78.5v-71.3c0-43.3 35.2-78.5 78.5-78.5h71.3c43.3 0 78.5 35.2 78.5 78.5V838c0 43.3-35.2 78.5-78.5 78.5zm-71.4-176c-14.4 0-26.2 11.7-26.2 26.2V838c0 14.4 11.7 26.2 26.2 26.2h71.3c14.4 0 26.2-11.7 26.2-26.2v-71.3c0-14.4-11.7-26.2-26.2-26.2h-71.3zm370.9 176H476c-43.3 0-78.5-35.2-78.5-78.5v-71.3c0-43.3 35.2-78.5 78.5-78.5h71.3c43.3 0 78.5 35.2 78.5 78.5V838c.1 43.3-35.1 78.5-78.4 78.5zm-71.4-176c-14.4 0-26.2 11.7-26.2 26.2V838c0 14.4 11.7 26.2 26.2 26.2h71.3c14.4 0 26.2-11.7 26.2-26.2v-71.3c0-14.4-11.7-26.2-26.2-26.2H476zm373.2 176h-71.3c-43.3 0-78.5-35.2-78.5-78.5v-71.3c0-43.3 35.2-78.5 78.5-78.5h71.3c43.3 0 78.5 35.2 78.5 78.5V838c.1 43.3-35.2 78.5-78.5 78.5zm-71.3-176c-14.4 0-26.2 11.7-26.2 26.2V838c0 14.4 11.7 26.2 26.2 26.2h71.3c14.4 0 26.2-11.7 26.2-26.2v-71.3c0-14.4-11.7-26.2-26.2-26.2h-71.3z"/><path fill="#D6473B" d="M700 491.4H537.9V419h-52.4v72.4H331.1c-77.1 0-139.8 60.9-139.8 135.8v76.4c0 14.5 11.7 26.2 26.2 26.2s26.2-11.7 26.2-26.2v-76.4c0-46 39.2-83.4 87.4-83.4h154.4v159.8h52.4V543.8H700c48.2 0 87.4 37.4 87.4 83.4v87.1c0 14.5 11.7 26.2 26.2 26.2s26.2-11.7 26.2-26.2v-87.1c0-74.9-62.7-135.8-139.8-135.8z" opacity=".5"/></svg>