<svg class="icon" viewBox="0 0 1138 1024" xmlns="http://www.w3.org/2000/svg" width="200" height="200"><path d="M763.011 961.966a19.572 19.572 0 0020.66-20.66V628.15A156.941 156.941 0 00636.516 467.22H481.387A156.579 156.579 0 00334.594 628.15v313.157a19.572 19.572 0 0020.66 20.66z" fill="#4E8CEE"/><path d="M245.794 961.966a19.21 19.21 0 0020.297-20.66V615.1a16.31 16.31 0 00-3.987-16.672 16.673 16.673 0 00-14.498-6.162H184.54A123.596 123.596 0 0062.03 714.412v226.17a19.572 19.572 0 0020.297 20.659h163.466zm789.78 0a19.572 19.572 0 0020.66-20.66V714.412a123.233 123.233 0 00-122.508-123.958h-63.067c-4.349 0-12.323 1.812-14.498 6.161a41.682 41.682 0 00-3.987 16.673v326.206a19.21 19.21 0 0020.298 20.66zM915.242 560.008a144.98 144.98 0 10-142.806-144.98 143.168 143.168 0 00142.806 144.98zm-708.23 0a142.806 142.806 0 00142.806-144.98 142.806 142.806 0 10-285.611 0 142.806 142.806 0 00142.806 144.98z" fill="#A6C5F6"/><path d="M558.952 433.875a184.125 184.125 0 00183.762-185.938 183.763 183.763 0 10-367.525 0 184.488 184.488 0 00183.763 185.938z" fill="#4E8CEE"/></svg>