<svg class="icon" viewBox="0 0 1557 1024" xmlns="http://www.w3.org/2000/svg" width="200" height="200"><path d="M1409.188 162.831V864.76c0 35.007-28.723 64.628-64.628 64.628H197.42c-35.007 0-64.628-28.723-64.628-64.628V162.831c0-35.007 28.723-64.628 64.627-64.628H1344.56c35.905 0 64.628 28.724 64.628 64.628z" fill="#4988FD"/><path d="M133.69 272.34h1275.498v154.387H133.689z" fill="#3973F4"/><path d="M872.42 696.01H754.832c-12.567 0-22.44-9.874-22.44-22.44s9.873-22.441 22.44-22.441h117.586c12.567 0 22.44 9.874 22.44 22.44s-9.873 22.44-22.44 22.44zm-189.396 0H290.77c-12.566 0-22.44-9.874-22.44-22.44s9.874-22.441 22.44-22.441h392.254c12.567 0 22.44 9.874 22.44 22.44s-9.873 22.44-22.44 22.44zm-216.323 89.76h-175.93c-12.567 0-22.44-9.874-22.44-22.44s9.873-22.44 22.44-22.44H466.7c12.567 0 22.44 9.873 22.44 22.44s-9.873 22.44-22.44 22.44z" fill="#C5DCFA"/><path d="M1138.111 762.432a84.375 84.375 0 10168.75 0 84.375 84.375 0 10-168.75 0z" fill="#3973F4"/><path d="M1025.91 762.432a84.375 84.375 0 10168.75 0 84.375 84.375 0 10-168.75 0z" fill="#6097FD"/></svg>