<svg xmlns="http://www.w3.org/2000/svg" width="200" height="200" viewBox="0 0 1024 1024"><path fill="#092b59" d="M682.667 554.667A42.667 42.667 0 00640 512h-21.333c-23.552 0-21.334 19.115-21.334 42.667L576 917.333A42.667 42.667 0 00618.667 960h42.666A42.667 42.667 0 00704 917.333l-21.333-362.666zM426.667 448h-85.334L320 917.333A42.667 42.667 0 00362.667 960h42.666A42.667 42.667 0 00448 917.333L426.667 448z"/><path fill="#c7c0c0" d="M682.667 554.667h-85.334V64c42.667 0 192 85.333 85.334 490.667zM448 64v277.333h-42.667V64h-42.666v277.333H320V64h-42.667L256 362.667 341.333 448h85.334L512 362.667 490.667 64z"/></svg>