<svg class="icon" viewBox="0 0 1024 1024" xmlns="http://www.w3.org/2000/svg" width="200" height="200"><path d="M42.781 828.73h797.813v47.343H42.78z" fill="#E79E2D"/><path d="M840.688 830.135H42.875l141.938-138.187H982.53L840.688 830.135zm0 0" fill="#F2BE3E"/><path d="M840.688 830.135l-.375 45.657L982.25 737.604l.375-45.656-141.938 138.187zm0 0" fill="#E79E2D"/><path d="M329.469 245.323v-27.656h-7.031l-164.157 82.78h43.781l109.782-55.124h17.625zm0 0" fill="#F06668"/><path d="M435.781 245.323H312.594l-110.438 55.406h130.219l103.406-55.406zm0 0" fill="#FFF"/><path d="M492.219 213.635l-158.906 86.813v496.594l158.906-102.844V213.635zm0 0" fill="#F06668"/><path d="M156.781 300.542H333.22v496.593H156.78V300.542zm336-86.907l-4.969.375-168.843 86.438 14.156-.094 159.656-86.719zm-170.25 4.032l-165.656 82.78h14.156l158.438-82.78h-6.938zm0 0" fill="#F6A2A3"/><path d="M326.563 245.135h3v-27.562l-3.094 1.687.094 25.875zm0 0" fill="#E58E8F"/><path d="M326.563 245.135h3v-27.562l-3.094 1.687.094 25.875zm0 0" fill="#E58E8F"/><path d="M326.563 245.135h3v-27.562l-3.094 1.687.094 25.875zm0 0" fill="#E58E8F"/><path d="M329.469 217.667l-161.438 82.78h9.094l149.063-76.687 3.28-6.093zm0 0" fill="#D88080"/><path d="M231.125 300.542h-8.719L320 245.698h10.031l-98.906 54.844zm34.875 0h-8.719l97.594-54.844h10.031L266 300.542zm36.094 0h-8.719l97.594-54.844H401l-98.906 54.844zm0 0" fill="#DDDDDC"/><path d="M170.844 323.323h148.312v91.219H170.844z" fill="#F06668"/><path d="M183.219 334.76h123.844v68.532H183.219z" fill="#FFF"/><path d="M196.344 509.604c0 16.219 8.719 31.313 22.875 39.469a45.654 45.654 0 0045.656 0c14.156-8.156 22.875-23.25 22.781-39.469 0-16.219-8.719-31.312-22.781-39.469a45.654 45.654 0 00-45.656 0 45.44 45.44 0 00-22.875 39.47zm0 0" fill="#F06668"/><path d="M203.094 509.604c0 21.469 17.437 38.813 38.906 38.813s38.813-17.438 38.813-38.813c0-21.469-17.438-38.906-38.813-38.906-21.563.094-38.906 17.531-38.906 38.906zm0 0" fill="#F6A2A3"/><path d="M196.344 666.917c0 16.218 8.719 31.312 22.875 39.468a45.654 45.654 0 0045.656 0c14.156-8.156 22.875-23.25 22.781-39.468 0-16.22-8.719-31.313-22.781-39.47a45.654 45.654 0 00-45.656 0c-14.25 7.97-22.875 23.063-22.875 39.47zm0 0" fill="#F06668"/><path d="M203.094 666.917c0 21.468 17.437 38.812 38.906 38.812s38.813-17.437 38.813-38.812c0-21.47-17.438-38.907-38.813-38.907-21.563 0-38.906 17.438-38.906 38.907zm0 0" fill="#F6A2A3"/><path d="M552.5 133.76v-27.656h-7.031l-164.157 82.781h43.782l109.781-55.125H552.5zm0 0" fill="#357180"/><path d="M659 133.76H535.719L425.28 189.167H555.5L659 133.76zm0 0" fill="#FFF"/><path d="M715.25 102.073l-158.906 86.812v598.032L715.25 683.979V102.073zm0 0" fill="#357180"/><path d="M379.906 188.885h176.531v598.032h-176.53V188.885zm335.813-86.812l-4.969.375L542 188.885l14.156-.093 159.563-86.72zm0 0" fill="#67B8CB"/><path d="M545.656 106.104L380 188.885h14.156l158.438-82.78h-6.938zm0 0" fill="#67B8CB"/><path d="M549.688 133.667h3v-27.563l-3.094 1.688.093 25.875zm0 0" fill="#E58E8F"/><path d="M549.688 133.667h3v-27.563l-3.094 1.688.093 25.875zm0 0" fill="#E58E8F"/><path d="M549.688 133.667h3v-27.563l-3.094 1.688.093 25.875zm0 0" fill="#67B7C3"/><path d="M552.688 106.104L391.25 188.885h9.094l149.062-76.687 3.282-6.094zm0 0" fill="#43A0AA"/><path d="M454.156 188.885h-8.719l97.594-54.843h10.032l-98.907 54.843zm34.969 0h-8.719L578 134.042h10.031l-98.906 54.843zm36.094 0H516.5l97.594-54.843h10.031l-98.906 54.843zm0 0" fill="#DDDDDC"/><path d="M393.969 211.76H542.28v91.22H393.97z" fill="#357180"/><path d="M406.156 223.198h124.031v68.531h-124.03z" fill="#FFF"/><path d="M419.469 435.26c0 16.22 8.719 31.313 22.875 39.47 14.156 8.155 31.594 8.155 45.656 0 14.156-8.157 22.875-23.25 22.875-39.47s-8.719-31.312-22.875-39.468c-14.156-8.157-31.406-8.157-45.656 0-14.344 8.156-22.875 23.25-22.875 39.468zm0 192.75c0 16.22 8.719 31.313 22.875 39.47 14.156 8.155 31.594 8.155 45.656 0 14.156-8.157 22.875-23.25 22.875-39.47s-8.719-31.312-22.875-39.468c-14.156-8.157-31.406-8.157-45.656 0-14.344 8.062-22.875 23.156-22.875 39.468zm0 0" fill="#357180"/><path d="M913.719 692.23l-87.469 88.874-152.344 5.156 89.063-94.78 150.75.75zm0 0"/><path d="M703.531 284.417l-4.125-20.25-5.062 1.03-107.438 84.563 31.969-6.468 72-56.438 12.656-2.437zm0 0" fill="#2F8442"/><path d="M781.156 268.667l-89.812 18.187-72.375 56.625 94.968-19.219 67.22-55.593zm0 0" fill="#FFF"/><path d="M817.531 237.26L714.5 324.073l88.406 436.125 100.688-98.531L817.53 237.26zm0 0" fill="#2F8442"/><path d="M714.5 323.885l88.406 436.125-128.718 26.157-88.407-436.125L714.5 323.885zm103.406-86.812l-3.468.937-110.344 87.938 10.312-2.25 103.5-86.625zm-123.562 28.125l-108.657 84.844 10.22-2.063 103.312-83.812-4.875 1.03zm0 0" fill="#6CC077"/><path d="M701.281 284.698l2.25-.375-4.031-20.156-2.063 1.687 3.844 18.844zm0 0" fill="#E58E8F"/><path d="M701.281 284.698l2.25-.375-4.031-20.156-2.063 1.687 3.844 18.844zm0 0" fill="#E58E8F"/><path d="M701.281 284.698l2.25-.375-4.031-20.156-2.063 1.687 3.844 18.844zm0 0" fill="#6CC077"/><path d="M699.406 264.167l-105.375 84.187 6.657-1.312L698 269.229l1.406-5.062zm0 0" fill="#48B15A"/><path d="M639.875 339.167l-6.375 1.312 63.188-54.469 7.312-1.406-64.125 54.563zm25.5-5.25L659 335.229l63-54.469 7.313-1.406-63.938 54.563zm26.344-5.344l-6.375 1.312 63-54.28 7.312-1.407-63.937 54.375zm0 0" fill="#DDDDDC"/><path d="M721.063 409.292l-108.094 21.937-13.5-66.562 108.093-21.938 13.5 66.563zm0 0" fill="#2F8442"/><path d="M710.563 402.823l-90.282 18.281-10.125-49.875 90.282-18.281 10.125 49.875zm0 0" fill="#FFF"/><path d="M650.281 517.198c0 12.094 6.469 23.437 17.063 29.344 10.5 6.093 23.343 6.093 33.937 0 10.5-6.094 17.063-17.25 17.063-29.344 0-12.094-6.469-23.344-17.063-29.344a33.786 33.786 0 00-33.937 0c-10.594 6.094-17.063 17.25-17.063 29.344zm28.313 140.625c0 12.094 6.468 23.437 17.062 29.344a33.786 33.786 0 0033.938 0c10.5-6.094 17.062-17.25 17.062-29.344 0-12.094-6.468-23.344-17.062-29.344a33.786 33.786 0 00-33.938 0c-10.593 5.906-17.062 17.063-17.062 29.344zm0 0" fill="#2F8442"/></svg>