<svg class="icon" viewBox="0 0 1200 1024" xmlns="http://www.w3.org/2000/svg" width="200" height="200"><path d="M973.011 528.762h-272.88a47.12 47.12 0 00-47.12 47.12V944.41a47.12 47.12 0 0047.12 47.121h271.825a47.12 47.12 0 0047.12-47.12V575.882a47.12 47.12 0 00-47.12-47.121zm23.209 386.813a47.12 47.12 0 01-47.121 47.121H727.912a47.12 47.12 0 01-47.12-47.12V597.332a47.12 47.12 0 0147.12-47.12H949.1a47.12 47.12 0 0147.12 47.12zm0 0" fill="#FB8A13"/><path d="M946.286 746.432a254.945 254.945 0 01-66.813-27.428 450.462 450.462 0 00-64.352-35.165 144.527 144.527 0 00-132.22 16.176h-3.516v219.428a47.473 47.473 0 0047.824 47.121H951.56a47.473 47.473 0 0047.825-47.12V754.167a298.55 298.55 0 01-53.1-7.736zm20.044 266.55H708.22a4.571 4.571 0 01-4.572-4.572v-30.945a4.571 4.571 0 014.572-4.571h257.758a4.571 4.571 0 014.571 4.571v30.945a4.571 4.571 0 01-4.571 4.572zm-379.78-228.22a80.88 80.88 0 01-39.737-70.33V647.62a30.242 30.242 0 0130.242-30.242h87.912v210.99zm-9.495-146.286a9.846 9.846 0 00-10.198 10.198v66.813a60.835 60.835 0 0029.89 52.044l47.473 27.78V638.476zm0 0" fill="#FB8A13"/><path d="M504.967 630.037c0-51.341 54.857-46.77 54.857-46.77h72.44v-29.89a66.813 66.813 0 0174.9-67.516h210.99V374.74l78.417 81.934 160.704-162.11-241.231-241.23h-80.176a261.626 261.626 0 01-241.23 160.703A255.297 255.297 0 01353.406 53.333H273.23L32 294.564l160.703 162.11 80.528-80.527v482.461h306.637c-83.34-45.01-74.198-173.01-73.143-227.165zm0 0" fill="#005087"/></svg>