<svg xmlns="http://www.w3.org/2000/svg" width="200" height="200" viewBox="0 0 1024 1024"><path fill="#656BBA" d="M298.428 422.298h82.602v54.237h-82.602zm410.794 122.265h90.249v44.749h-90.249zm-116.428 0h90.248v44.749h-90.248zM298.428 580.95h82.602v59.324h-82.602zm410.794 29.116h90.249v44.373h-90.249z"/><path fill="#656BBA" d="M512 0C229.24 0 0 229.24 0 512s229.24 512 512 512 512-229.24 512-512S794.76 0 512 0zM389.018 332.083c9.455 11.674 20.24 26.215 32.358 43.657l-25.088 16.725A1277.44 1277.44 0 00365.363 347l23.655-14.916zM168.175 354.27a2315.264 2315.264 0 0161.133 74.615c-1.707 1.195-10.07 8.363-25.088 21.47a1680.794 1680.794 0 00-58.983-77.517l22.938-18.568zm8.738 312.15l-29.832-13.45a1553.75 1553.75 0 0053.145-149.196c9.42 5.086 18.671 9.25 27.648 12.39a21727.505 21727.505 0 00-50.96 150.255zm325.632-1.776H298.428v29.116h-28.4V462.575c-9.557 15.258-19.49 29.764-29.832 43.452a121.617 121.617 0 00-20.719-22.187c34.919-42.7 63.215-92.535 84.753-149.538l26.932 9.455a901.01 901.01 0 01-24.747 53.453H497.8v25.088h-88.44v54.237h78.61v25.088h-78.61v54.204h79.326v25.088H409.36v59.324h93.15v24.405zm323.106 27.614h-26.214V676.25H592.759v16.008h-26.146v-169.54h259.072v169.54zm32.734-173.875c-62.703-7.51-115.268-20.446-157.73-38.741-48.128 20.616-106.291 36.795-174.456 48.571A307.03 307.03 0 00510.942 502c60.143-8.738 112.537-21.675 157.15-38.776-28.604-16.588-51.098-36.352-67.516-59.29a555.11 555.11 0 01-61.303 59.87 251.836 251.836 0 00-20.003-20.036c43.384-34.884 76.527-72.772 99.328-113.493l27.273 11.64c-5.325 8.874-11.093 17.612-17.272 26.214h197.018V392.5c-22.426 27.068-52.634 50.62-90.59 70.759 40.141 13.482 88.03 21.674 143.702 24.576-7.954 11.366-14.746 21.572-20.344 30.549z"/><path fill="#656BBA" d="M623.548 392.09c19.524 23.313 45.158 42.461 76.97 57.514 34.202-16.247 62.942-35.396 86.221-57.514H623.548zm-325.12 109.533h82.602v54.204h-82.602zm294.366 108.442h90.248v44.373h-90.248z"/></svg>