<svg class="icon" viewBox="0 0 1024 1024" xmlns="http://www.w3.org/2000/svg" width="84" height="84"><path d="M195.594 90.125h632.812q105.469 0 105.469 105.469v632.812q0 105.469-105.469 105.469H195.594q-105.469 0-105.469-105.469V195.594q0-105.469 105.469-105.469z" fill="#4B74FF"/><path d="M433.698 685.397l336.35-398.472a29.013 29.013 0 0142.189-2.185 32.973 32.973 0 012.39 45.056l-358.06 424.141a28.877 28.877 0 01-14.677 9.353 29.013 29.013 0 01-30.72-9.012l-141.585-167.73a32.973 32.973 0 013.686-46.286 29.013 29.013 0 0140.892 3.414l119.535 141.653z" fill="#FFF"/></svg>