<svg xmlns="http://www.w3.org/2000/svg" width="200" height="200" viewBox="0 0 1024 1024"><path fill="#27A244" d="M932.067 819.244c0 61.875-50.625 112.5-112.5 112.5H204.699c-61.875 0-112.5-50.625-112.5-112.5V204.376c0-61.875 50.625-112.5 112.5-112.5h614.868c61.875 0 112.5 50.625 112.5 112.5v614.868z"/><path fill="#FFF" d="M562.79 454.798c8.565 4.213 17.375 7.848 25.467 12.673 39.799 23.56 64.462 58.116 73.254 103.613 1.87 9.789 2.552 19.891 2.586 29.836.227 62.61.105 125.217.105 187.826v4.248c-101.464 17.042-202.56 17.007-303.798.035-.07-1.171-.157-1.923-.157-2.71 0-64.688-.385-129.36.174-194.066.524-61.892 39.065-116.53 96.78-139.026 1.52-.576 3.041-1.205 5.156-2.08-32.248-15.276-54.778-38.838-66.768-71.925-9.403-25.92-9.666-52.279-1.573-78.531 15.835-51.458 63.78-86.537 118.05-86.834 53.923-.298 102.916 35.656 118.454 87.254 9.018 29.94 7.376 59.41-5.646 87.9-12.95 28.35-34.082 48.748-62.083 61.787zm130.13 289.308v-5.296c0-45.55-.017-91.134 0-136.649.018-25.676-4.456-50.426-14.63-74.058-.367-.839-.68-1.695-1.065-2.551-3.898-8.477-3.985-8.565 2.97-14.56 7.814-6.764 16.658-12.007 26.08-16.185 2.48-1.084 5.016-2.044 8.354-3.409-22.564-10.784-38.593-26.917-47.507-49.534-8.949-22.67-8.616-45.515.613-68.027 15.084-36.758 53.012-58.974 93.092-54.918 38.435 3.915 70.859 33.314 78.62 71.855 8.022 39.746-11.082 81.206-51.86 100.485 1.643.716 2.796 1.258 4.002 1.8 40.043 17.321 63.5 47.367 69.32 90.767.63 4.667.752 9.35.77 14.035.052 45.183.034 90.33.034 135.495v4.055c-55.968 9.474-111.9 11.816-168.792 6.695zM236.674 491.451c-49.78-23.456-60.668-75.98-49.098-110.5 12.883-38.47 47.98-62.907 86.642-62.47 43.784.49 77.081 30.5 86.642 67.573 10.452 40.411-7.97 85.349-50.723 105.31 1.765.786 3.093 1.433 4.474 1.975 12.585 4.982 23.806 12.13 33.856 21.202 2.01 1.817 2.727 3.164 1.381 5.855-12.724 25.606-18.265 52.891-18.247 81.417.034 45.672 0 91.379 0 137.05v5.226c-56.772 5.157-112.808 2.797-168.88-6.694v-4.038c0-45.323-.454-90.627.123-135.88.63-47.367 22.932-81.485 65.406-102.425 2.639-1.329 5.418-2.325 8.424-3.601z"/></svg>