<svg xmlns="http://www.w3.org/2000/svg" width="200" height="200" viewBox="0 0 1024 1024"><path fill="#1296db" d="M645.47 748.523c-19.589 0-32.635 16.317-32.635 32.634 0 19.59 16.317 32.634 32.634 32.634s32.634-13.076 32.634-32.634c0-19.588-16.317-32.634-32.634-32.634z"/><path fill="#1296db" d="M751.201 677.01c4.544 52.488-47.704 69.502-47.704 69.502C728 781.158 723.5 813.792 706.39 849.5l92.29-1.229v59.409c0 72.428 101.845 72.428 101.845 0v-59.41h61.474V469.614l-23.341-274.86c-9.864-49.603-54.018-69.39-101.615-89.23C790.135 85.971 677.735 62.63 594.7 62c-82.98.63-195.434 23.971-242.342 43.582-47.596 19.84-91.755 39.627-101.673 89.231L229.71 442.978c17.613-14.35 40.707-26.297 69.754-34.915l20.495-146.907c3.726-24.26 11.983-40.14 43.411-40.14h462.61c31.369 0 39.626 15.885 43.41 40.14l27.81 199.39c2.525 19.1-2.983 38.08-29.357 38.08H615.108c19.4 33.754 22.14 41.12 34.852 69.53 11.426 36.84 45.788 44.342 45.788 44.342S747.57 635.07 751.2 677.01zm-5.454-501.007H443.595c-29.821 0-29.821-44.73 0-44.73h302.152c29.763 0 29.763 44.73 0 44.73zm164.182 520.47c0 11.412-9.287 20.703-20.645 20.703h-83.61a20.682 20.682 0 01-20.646-20.704v-35.379c0-11.411 9.234-20.704 20.645-20.704h83.61a20.682 20.682 0 0120.646 20.704v35.379zm-620.94 204.874v6.331c0 72.428 101.79 72.428 101.79 0v-6.33h-101.79z"/><path fill="#e0620d" d="M644.857 637.248h-8.78c-2.933-8.78-2.933-7.916-5.845-16.695-2.961-11.74-32.233-76.154-55.66-105.448-32.234-38.075-93.735-64.063-190.381-64.063-99.58 0-161.082 25.988-190.382 64.063-26.388 29.299-52.753 93.708-55.66 105.448-2.934 8.78-5.873 10.826-5.873 16.695h-8.78C73.714 637.248 62 673.274 62 696.7c0 8.807 8.78 17.587 17.586 20.494l48.604 5.845c-8.779 43.947-25.582 96.674-25.582 146.461v61.502c0 11.714 8.78 30.59 20.493 30.59h47.718c11.713 0 20.493-18.876 20.493-30.59v-23.454h394.982v20.493c0 11.714 8.78 33.957 20.494 33.957h40.175c11.713 0 20.494-22.243 20.494-33.957V866.54c0-49.787-16.804-102.514-25.583-146.46l46.935-5.846c8.78 0 17.586-8.78 17.586-20.494-.032-20.492-11.75-56.492-61.538-56.492zm-462.73 192.51c-15.052 0-30.132-12.065-30.132-30.105 0-15.053 12.038-30.133 30.132-30.133 15.053 0 30.132 12.065 30.132 30.133 0 18.04-12.064 30.105-30.132 30.105zM161.58 690.4c20.493-96.673 49.788-134.315 61.502-146.002 17.585-20.492 58.567-41.013 161.082-41.013S527.69 523.88 545.272 544.4c11.714 11.714 41.013 49.36 61.502 146.002-43.947 17.587-120.1 54.1-222.615 54.1s-178.658-36.54-222.579-54.1zm424.224 138.547c-14.647 0-29.3-11.714-29.3-29.3 0-14.647 11.714-29.3 29.3-29.3 14.648 0 29.299 11.714 29.299 29.3 0 17.56-14.651 29.3-29.3 29.3z"/></svg>