<svg class="icon" viewBox="0 0 1024 1024" xmlns="http://www.w3.org/2000/svg" width="81" height="81"><circle cx="512" cy="512" r="500" fill="#fff"/><path d="M512 7.877C232.632 7.877 7.877 232.632 7.877 512S232.632 1016.123 512 1016.123 1016.123 791.368 1016.123 512 791.368 7.877 512 7.877zm0 254.162c35.709 0 63.015 27.307 63.015 63.015S547.71 388.07 512 388.07s-63.015-27.307-63.015-63.016S476.29 262.04 512 262.04zm105.026 441.108c0 10.502-8.402 18.904-21.005 18.904H427.979c-10.502 0-21.005-6.301-21.005-18.904v-42.01c0-10.503 8.402-23.106 21.005-23.106 10.503 0 21.006-6.302 21.006-18.905v-84.02c0-10.503-8.402-23.106-21.006-23.106-10.502 0-21.005-6.302-21.005-18.905v-42.01c0-10.502 8.402-23.106 21.005-23.106H554.01c10.503 0 21.005 10.503 21.005 23.106v168.041c0 10.503 8.402 18.905 21.006 18.905 10.502 0 21.005 10.502 21.005 23.105v42.01z" fill="#1296db"/></svg>