<svg xmlns="http://www.w3.org/2000/svg" width="200" height="200" viewBox="0 0 1024 1024"><path fill="#5ee767" d="M804.576 681.707q0-6.294-1.152-9.152-1.707-4.566-21.995-16.854t-50.581-28.288l-30.293-16.576q-2.859-1.706-10.859-7.424t-14.293-8.576-12.011-2.858q-10.283 0-26.859 18.581t-32.576 37.419-25.152 18.858q-4.01 0-9.429-2.005t-8.853-3.712-9.707-5.419-8-4.864q-56.576-31.424-97.43-72.277t-72.277-97.43q-1.152-1.706-4.864-8t-5.418-9.706-3.712-8.853-2.006-9.43q0-7.424 11.712-19.136t25.707-21.994 25.707-22.571 11.712-20.864q0-5.717-2.859-12.01t-8.576-14.294-7.424-10.859q-1.707-3.434-8.576-16.277t-14.293-26.005-15.147-27.136-14.293-23.147-9.43-10.283-9.152-1.152q-27.434 0-57.706 12.566-26.283 12.01-45.718 53.994t-19.434 74.582q0 9.152 1.429 19.434t2.859 17.43 5.141 18.858 5.717 16.854 7.147 18.858 6.293 17.152q34.283 93.718 123.712 183.147T554.784 776q3.435 1.152 17.152 6.293t18.859 7.147 16.853 5.717 18.859 5.142 17.429 2.858 19.435 1.43q32.576 0 74.581-19.435t53.995-45.717q12.565-30.294 12.565-57.707zm146.283-443.99v548.566q0 68.01-48.278 116.288t-116.288 48.277H237.728q-68.01 0-116.288-48.277T73.163 786.283V237.717q0-68.01 48.277-116.288t116.288-48.277h548.565q68.011 0 116.288 48.277t48.278 116.288z"/></svg>